<?xml version="1.0" encoding="UTF-8" standalone="no"?>
<!DOCTYPE svg PUBLIC "-//W3C//DTD SVG 1.1//EN" "http://www.w3.org/Graphics/SVG/1.1/DTD/svg11.dtd">
<svg version="1.1" xmlns="http://www.w3.org/2000/svg" xmlns:xlink="http://www.w3.org/1999/xlink" preserveAspectRatio="xMidYMid meet" viewBox="0 0 640 640" width="2000" height="2000"><defs><path d="M87.36 334.43C89.42 345.82 97.47 352.79 107.19 352.79C113.37 352.79 121.13 352 126.82 342.28C128.69 342.67 143.61 345.82 145.47 346.21C138.5 362.7 124.37 370.65 107.09 370.65C84.71 370.65 66.55 353.67 66.55 328.83C66.55 304 84.81 286.82 107.39 286.82C128.49 286.82 146.65 303.12 147.44 327.26C147.44 327.74 147.44 330.13 147.44 334.43C111.4 334.43 91.37 334.43 87.36 334.43ZM87.95 319.71C110.86 319.71 123.59 319.71 126.13 319.71C123.48 309.6 115.83 305.08 107.48 305.08C99.53 305.18 90.5 309.89 87.95 319.71" id="dbspLxi1T"></path><path d="M349.74 368.39C349.74 364.33 349.74 362.07 349.74 361.62C343.36 367.51 334.72 370.85 323.63 370.85C303.51 370.85 284.86 353.87 284.86 329.03C284.86 304.2 303.51 287.02 323.63 287.02C334.72 287.02 343.46 290.36 349.74 296.25C349.74 293.76 349.74 281.33 349.74 258.94L370.65 258.94L370.65 368.39L349.74 368.39ZM349.74 328.93C349.74 314.31 338.45 305.18 327.26 305.18C314.6 305.18 305.08 314.4 305.08 328.93C305.08 343.56 314.6 352.49 327.26 352.49C338.55 352.49 349.74 343.46 349.74 328.93" id="c2bc5iX7U"></path><path d="M541.74 289.47L541.74 289.47L512.88 289.47L512.88 306.94C530.2 306.94 539.82 306.94 541.74 306.94C549.79 306.94 555.19 310.38 555.19 318.33C555.19 318.42 555.19 318.84 555.19 319.61C541.53 319.61 533.94 319.61 532.42 319.61C512.49 319.61 501.01 329.72 501.01 344.93C501.01 360.44 513.08 370.75 531.14 370.75C541.94 370.75 549.79 367.12 555.19 361.91C555.19 362.35 555.19 364.51 555.19 368.39L575.21 368.39C575.21 337.41 575.21 320.2 575.21 316.76C575.21 297.91 561.96 289.87 541.74 289.47M534.48 354.16C526.43 354.16 521.03 350.33 521.03 344.54C521.03 339.14 525.45 335.51 532.12 335.51C533.67 335.51 541.39 335.51 555.29 335.51L555.29 336.39C548.81 348.24 541.87 354.16 534.48 354.16Z" id="b4wOJGsrH"></path><path d="M418.16 289.47L418.16 289.47L389.3 289.47L389.3 306.94C406.62 306.94 416.24 306.94 418.16 306.94C426.21 306.94 431.61 310.38 431.61 318.33C431.61 318.42 431.61 318.84 431.61 319.61C417.94 319.61 410.35 319.61 408.83 319.61C388.91 319.61 377.42 329.72 377.42 344.93C377.42 360.44 389.5 370.75 407.56 370.75C418.36 370.75 426.21 367.12 431.61 361.91C431.61 362.35 431.61 364.51 431.61 368.39L451.53 368.39C451.53 337.41 451.53 320.2 451.53 316.76C451.53 297.91 438.28 289.87 418.16 289.47M410.9 354.16C402.85 354.16 397.45 350.33 397.45 344.54C397.45 339.14 401.87 335.51 408.54 335.51C410.08 335.51 417.81 335.51 431.71 335.51L431.71 336.39C425.23 348.24 418.29 354.16 410.9 354.16Z" id="bSo1p6L3e"></path><path d="M244.32 289.47L244.32 289.47L215.46 289.47L215.46 306.94C232.78 306.94 242.4 306.94 244.32 306.94C252.37 306.94 257.77 310.38 257.77 318.33C257.77 318.42 257.77 318.84 257.77 319.61C244.1 319.61 236.51 319.61 234.99 319.61C215.07 319.61 203.58 329.72 203.58 344.93C203.58 360.44 215.66 370.75 233.72 370.75C244.52 370.75 252.37 367.12 257.77 361.91C257.77 362.35 257.77 364.51 257.77 368.39L277.79 368.39C277.79 337.41 277.79 320.2 277.79 316.76C277.79 297.91 264.54 289.87 244.32 289.47M237.06 354.16C229.01 354.16 223.61 350.33 223.61 344.54C223.61 339.14 228.02 335.51 234.7 335.51C236.24 335.51 243.97 335.51 257.87 335.51L257.87 336.39C251.39 348.24 244.45 354.16 237.06 354.16Z" id="ab9u4ZaoN"></path><path d="M204.27 289.37C191.41 289.37 182.28 294.48 175.9 303.71C175.9 302.74 175.9 297.93 175.9 289.28L154.99 289.28L154.99 368.29L175.9 368.29C175.9 352.98 175.9 344.47 175.9 342.77C175.9 320.79 184.74 306.94 204.07 306.94C204.14 306.94 204.47 306.94 205.06 306.94C205.06 296.4 205.06 290.55 205.06 289.37C204.76 289.37 204.56 289.37 204.27 289.37" id="b4VoJMbRt"></path><path d="M62.63 349.25C59.48 350.43 56.15 351.21 53.6 351.21C46.63 351.21 42.01 347.09 42.01 337.57C42.01 335.49 42.01 325.08 42.01 306.36L63.41 306.36L63.41 289.28L42.01 289.28L42.01 269.94L21.1 269.94L21.1 306.45C21.1 326.13 21.1 337.05 21.1 339.24C21.1 360.93 33.47 370.75 52.12 370.75C58.7 370.75 65.08 369.37 73.13 364.96C68.91 360.64 64.88 355.34 62.63 349.25" id="b8ztkaWee"></path><path d="M494.43 351.02C493.55 351.12 492.76 351.21 492.07 351.21C485.1 351.21 480.49 347.09 480.49 337.57C480.49 335.49 480.49 325.08 480.49 306.36L502.48 306.36L502.48 289.28L480.49 289.28L480.49 269.94L459.58 269.94L459.58 306.45C459.58 326.13 459.58 337.05 459.58 339.24C459.58 360.93 471.95 370.75 490.6 370.75C495.21 370.75 499.24 370.06 504.05 368.2C497.87 363.78 495.51 356.52 494.43 351.02" id="a35P1suv5f"></path><path d="M610.06 356.32C610.06 363.78 604.37 369.57 596.32 369.57C588.37 369.57 582.58 363.88 582.58 356.32C582.58 349.15 588.27 342.97 596.32 342.97C604.37 342.97 610.06 349.25 610.06 356.32" id="dqAwP15Dd"></path></defs><g><g><g><use xlink:href="#dbspLxi1T" opacity="1" fill="#3d4952" fill-opacity="1"></use><g><use xlink:href="#dbspLxi1T" opacity="1" fill-opacity="0" stroke="#000000" stroke-width="1" stroke-opacity="0"></use></g></g><g><use xlink:href="#c2bc5iX7U" opacity="1" fill="#3d4952" fill-opacity="1"></use><g><use xlink:href="#c2bc5iX7U" opacity="1" fill-opacity="0" stroke="#000000" stroke-width="1" stroke-opacity="0"></use></g></g><g><use xlink:href="#b4wOJGsrH" opacity="1" fill="#3d4952" fill-opacity="1"></use><g><use xlink:href="#b4wOJGsrH" opacity="1" fill-opacity="0" stroke="#000000" stroke-width="1" stroke-opacity="0"></use></g></g><g><use xlink:href="#bSo1p6L3e" opacity="1" fill="#3d4952" fill-opacity="1"></use><g><use xlink:href="#bSo1p6L3e" opacity="1" fill-opacity="0" stroke="#000000" stroke-width="1" stroke-opacity="0"></use></g></g><g><use xlink:href="#ab9u4ZaoN" opacity="1" fill="#3d4952" fill-opacity="1"></use><g><use xlink:href="#ab9u4ZaoN" opacity="1" fill-opacity="0" stroke="#000000" stroke-width="1" stroke-opacity="0"></use></g></g><g><use xlink:href="#b4VoJMbRt" opacity="1" fill="#3d4952" fill-opacity="1"></use><g><use xlink:href="#b4VoJMbRt" opacity="1" fill-opacity="0" stroke="#000000" stroke-width="1" stroke-opacity="0"></use></g></g><g><use xlink:href="#b8ztkaWee" opacity="1" fill="#3d4952" fill-opacity="1"></use><g><use xlink:href="#b8ztkaWee" opacity="1" fill-opacity="0" stroke="#000000" stroke-width="1" stroke-opacity="0"></use></g></g><g><use xlink:href="#a35P1suv5f" opacity="1" fill="#3d4952" fill-opacity="1"></use><g><use xlink:href="#a35P1suv5f" opacity="1" fill-opacity="0" stroke="#000000" stroke-width="1" stroke-opacity="0"></use></g></g><g><use xlink:href="#dqAwP15Dd" opacity="1" fill="#f06f37" fill-opacity="1"></use><g><use xlink:href="#dqAwP15Dd" opacity="1" fill-opacity="0" stroke="#000000" stroke-width="1" stroke-opacity="0"></use></g></g></g></g></svg>