<svg xmlns="http://www.w3.org/2000/svg" xmlns:xlink="http://www.w3.org/1999/xlink" viewBox="0 0 95.625 85" fill="#fff" fill-rule="evenodd" stroke="#000" stroke-linecap="round" stroke-linejoin="round"><use xlink:href="#A" x="2.813" y="2.5"/><symbol id="A" overflow="visible"><g stroke="none"><path d="M28.624 67.26l-15.8-27.49 15.8-27.48h31.644L76.1 39.77 60.268 67.26z" fill="#cfcecb"/><path d="M31.31 63.804L9.542 26.45c-.565-.97-.795-2.312-.703-3.595L.726 36.937c-.968 1.688-.968 4.44 0 6.127l19.486 33.873C21.18 78.625 23.566 80 25.502 80h23.197c.933-.555 1.74-1.295 2.212-2.116l7.94-14.08H31.31z" fill="#f4b51a"/><g fill="#dd462f"><path d="M89.273 36.937l-11.57-20.104z"/><path d="M89.273 36.937l-11.57-20.104c-1.003-.613-2.155-1.006-3.18-1.006H58.828L72.39 39.815l-21.468 38.07c-.472.82-1.28 1.572-2.212 2.116h15.787c1.936 0 4.32-1.376 5.29-3.064l19.498-33.873c.957-1.688.957-4.44-.01-6.127z"/></g><path d="M69.775 3.064C68.807 1.376 66.422 0 64.486 0H25.513c-1.936 0-4.32 1.376-5.29 3.064L8.827 22.867c-.092 1.283.15 2.613.703 3.595l7.71 13.226 13.76-23.86h43.5c1.026 0 2.178.393 3.18 1.006l-7.905-13.77z" fill="#517dbf"/><path d="M17.25 39.677L31.3 63.804h27.553l13.53-23.99-13.563-23.988H31z" fill="#efefef"/><path d="M9.323 22l-.495.867c-.092 1.283.15 2.613.703 3.595l7.71 13.225 4.102-7.1L9.323 22z" fill="#4f71a9"/><path d="M78.22 17.735l-.518-.902c-1.003-.613-2.155-1.006-3.18-1.006H58.84l4.08 7.225 15.303-5.318z" fill="#c3432f"/><path d="M47.385 80h1.348c.934-.555 1.74-1.295 2.213-2.116l7.94-14.08h-8.458L47.385 80z" fill="#d19d2a"/><path d="M44.976 52.324c-6.8 0-12.33-5.55-12.33-12.37s5.53-12.37 12.33-12.37 12.33 5.55 12.33 12.37-5.53 12.37-12.33 12.37z"/><path d="M44.976 27.757c6.707 0 12.157 5.457 12.157 12.197S51.694 52.15 44.976 52.15 32.82 46.694 32.82 39.954s5.44-12.197 12.157-12.197m0-.358c-6.89 0-12.503 5.63-12.503 12.543s5.612 12.543 12.503 12.543 12.503-5.63 12.503-12.543S51.867 27.4 44.976 27.4h0z" fill="#cac8c6"/></g></symbol></svg>