<svg xmlns="http://www.w3.org/2000/svg" xmlns:xlink="http://www.w3.org/1999/xlink" viewBox="0 0 76 81" fill="#fff" fill-rule="evenodd" stroke="#000" stroke-linecap="round" stroke-linejoin="round"><use xlink:href="#A" x=".5" y=".5"/><symbol id="A" overflow="visible"><path d="M23.553 64.344c0 2.743-2.1 4.865-4.802 4.865-2.707 0-4.802-2.122-4.802-4.865v-21.12c0-2.743 2.095-4.865 4.802-4.865 2.693 0 4.802 2.122 4.802 4.865v21.12zm14.1 5.776c0 2.743-2.1 4.865-4.802 4.865-2.707 0-4.802-2.122-4.802-4.865V37.752c0-2.743 2.094-4.865 4.802-4.865 2.693 0 4.802 2.122 4.802 4.865V70.12zM9.603 59.632c0 2.743-2.1 4.865-4.802 4.865-2.707 0-4.8-2.122-4.8-4.865V48.24c0-2.743 2.094-4.865 4.8-4.865 2.693 0 4.802 2.122 4.802 4.865v11.4zm42.15 15.503c0 2.743-2.1 4.865-4.802 4.865-2.707 0-4.8-2.122-4.8-4.865V32.273c0-2.73 2.094-4.85 4.8-4.85 2.693 0 4.802 2.122 4.802 4.85v42.862zm15.296-2.127c-.74 0-1.653-.144-2.394-.447l-6-1.978c-1.054-.303-1.5-1.37-1.2-2.44.3-1.054 1.354-1.516 2.408-1.213l5.998 1.978c1.197.462 2.55.16 3.605-.606 1.04-.765 1.638-1.978 1.638-3.35V25.6c0-1.834-1.197-3.508-2.85-3.956L11.397 4.16c-1.197-.462-2.55-.144-3.6.606-1.054.765-1.653 1.978-1.653 3.35V35.17c0 1.068-.897 1.978-1.952 1.978s-1.952-.9-1.952-1.978V8.116c0-2.584 1.197-4.865 3.15-6.54C7.493.06 10.044-.402 12.452.363L69.3 17.846c3.305 1.054 5.7 4.1 5.7 7.753v39.354c0 2.584-1.197 5.024-3.3 6.54-1.5 1.068-3.006 1.516-4.66 1.516z" fill="#000" stroke="none"/></symbol></svg>