<?xml version='1.0' encoding='utf-8'?>
<!-- Generator: imaengine 6.0   -->
<svg xmlns:xlink="http://www.w3.org/1999/xlink" xmlns="http://www.w3.org/2000/svg" viewBox="0,0,264,264" style="enable-background:new 0 0 264 264;" version="1.1">
<defs/>
<g id="layer0">
<path d="M144.044,47.1508C123.602,47.1511 107.031,63.7225 107.031,84.1644C107.039,85.5337 107.123,86.9015 107.283,88.2615C93.3234,90.7681 82.8503,102.043 82.8503,115.656C82.8503,131.121 96.368,143.572 113.159,143.572L156.122,143.572L158.473,143.572L221.307,143.572C236.773,143.572 249.223,131.998 249.223,117.623C249.223,103.338 236.926,91.826 221.595,91.6824C219.566,75.6665 205.941,63.6595 189.797,63.659C185.239,63.6658 180.735,64.6445 176.585,66.53C170.115,54.5896 157.625,47.1515 144.044,47.1508L144.044,47.1508Z" fill="#77A3BF"/>
<path d="M102.499,59.0406C81.8694,59.0409 65.1461,75.7643 65.1458,96.3937C65.1541,97.7756 65.2391,99.1559 65.4004,100.528C51.3127,103.058 40.7436,114.436 40.7436,128.174C40.7436,143.781 54.3853,156.346 71.3304,156.346L114.687,156.346L117.06,156.346L180.47,156.346C196.078,156.346 208.642,144.666 208.642,130.159C208.642,115.743 196.233,104.126 180.761,103.981C178.713,87.8178 164.964,75.7007 148.671,75.7002C144.072,75.707 139.526,76.6948 135.338,78.5976C128.809,66.5476 116.204,59.0413 102.499,59.0406L102.499,59.0406Z" fill="#C6E0F7"/>
<path d="M86.4148,131.393L71.635,131.393C72.1413,134.19 74.1184,135.902 76.5054,135.902C78.0243,135.902 79.9291,135.709 81.3275,133.322L85.9085,134.286C84.1967,138.337 80.7247,140.29 76.4812,140.29C70.984,140.29 66.5235,136.119 66.5235,130.019C66.5235,123.919 71.0081,119.699 76.5536,119.699C81.7374,119.699 86.1978,123.702 86.3907,129.633L86.3907,131.393L86.4148,131.393ZM71.7797,127.776L81.1587,127.776C80.5077,125.293 78.6271,124.184 76.5777,124.184C74.6247,124.208 72.4065,125.365 71.7797,127.776L71.7797,127.776Z" fill="#3D4952"/>
<path d="M141.218,139.735L136.083,139.735L136.083,138.072C134.516,139.518 132.394,140.338 129.669,140.338C124.727,140.338 120.146,136.167 120.146,130.067C120.146,123.967 124.727,119.747 129.669,119.747C132.394,119.747 134.54,120.567 136.083,122.014L136.083,112.852L141.218,112.852L141.218,139.735ZM136.083,130.043C136.083,126.45 133.31,124.208 130.561,124.208C127.451,124.208 125.112,126.474 125.112,130.043C125.112,133.635 127.451,135.829 130.561,135.829C133.334,135.829 136.083,133.611 136.083,130.043L136.083,130.043Z" fill="#3D4952"/>
<path d="M183.243,120.35L183.243,120.35L176.155,120.35L176.155,124.642L183.243,124.642C185.22,124.642 186.546,125.486 186.546,127.439L186.546,127.752L180.953,127.752C176.058,127.752 173.237,130.236 173.237,133.973C173.237,137.782 176.203,140.314 180.639,140.314C183.292,140.314 185.22,139.422 186.546,138.144L186.546,139.735L191.465,139.735L191.465,127.053C191.465,122.424 188.21,120.447 183.243,120.35L183.243,120.35ZM186.546,131.875C186.546,134.359 184.184,136.239 181.459,136.239C179.482,136.239 178.156,135.299 178.156,133.876C178.156,132.55 179.241,131.658 180.88,131.658L186.571,131.658L186.571,131.875L186.546,131.875Z" fill="#3D4952"/>
<path d="M152.888,120.35L152.888,120.35L145.799,120.35L145.799,124.642L152.888,124.642C154.865,124.642 156.191,125.486 156.191,127.439L156.191,127.752L150.597,127.752C145.703,127.752 142.882,130.236 142.882,133.973C142.882,137.782 145.848,140.314 150.284,140.314C152.936,140.314 154.865,139.422 156.191,138.144L156.191,139.735L161.086,139.735L161.086,127.053C161.086,122.424 157.831,120.447 152.888,120.35L152.888,120.35ZM156.191,131.875C156.191,134.359 153.828,136.239 151.104,136.239C149.127,136.239 147.801,135.299 147.801,133.876C147.801,132.55 148.886,131.658 150.525,131.658L156.215,131.658L156.215,131.875L156.191,131.875Z" fill="#3D4952"/>
<path d="M110.188,120.35L110.188,120.35L103.099,120.35L103.099,124.642L110.188,124.642C112.165,124.642 113.491,125.486 113.491,127.439L113.491,127.752L107.897,127.752C103.003,127.752 100.182,130.236 100.182,133.973C100.182,137.782 103.148,140.314 107.584,140.314C110.236,140.314 112.165,139.422 113.491,138.144L113.491,139.735L118.41,139.735L118.41,127.053C118.41,122.424 115.155,120.447 110.188,120.35L110.188,120.35ZM113.491,131.875C113.491,134.359 111.128,136.239 108.404,136.239C106.427,136.239 105.101,135.299 105.101,133.876C105.101,132.55 106.186,131.658 107.825,131.658L113.515,131.658L113.515,131.875L113.491,131.875Z" fill="#3D4952"/>
<path d="M100.351,120.326C97.1923,120.326 94.95,121.58 93.3828,123.846L93.3828,120.302L88.2473,120.302L88.2473,139.711L93.3828,139.711L93.3828,133.442C93.3828,128.042 95.5528,124.642 100.303,124.642L100.544,124.642L100.544,120.326C100.471,120.326 100.423,120.326 100.351,120.326L100.351,120.326Z" fill="#3D4952"/>
<path d="M65.5591,135.034C64.7876,135.323 63.9678,135.516 63.3409,135.516C61.6291,135.516 60.4959,134.503 60.4959,132.164L60.4959,124.497L65.752,124.497L65.752,120.302L60.4959,120.302L60.4959,115.552L55.3603,115.552L55.3603,124.521L55.3603,132.574C55.3603,137.903 58.3982,140.314 62.9793,140.314C64.5947,140.314 66.1619,139.976 68.1389,138.891C67.1022,137.83 66.1137,136.528 65.5591,135.034L65.5591,135.034Z" fill="#3D4952"/>
<path d="M171.622,135.468C171.405,135.492 171.212,135.516 171.043,135.516C169.331,135.516 168.198,134.503 168.198,132.164L168.198,124.497L173.599,124.497L173.599,120.302L168.198,120.302L168.198,115.552L163.063,115.552L163.063,124.521L163.063,132.574C163.063,137.903 166.101,140.314 170.682,140.314C171.815,140.314 172.803,140.145 173.985,139.687C172.466,138.602 171.887,136.818 171.622,135.468L171.622,135.468Z" fill="#3D4952"/>
<path d="M200.024,136.77C200.024,138.602 198.626,140.025 196.649,140.025C194.696,140.025 193.273,138.626 193.273,136.77C193.273,135.009 194.672,133.491 196.649,133.491C198.626,133.491 200.024,135.034 200.024,136.77L200.024,136.77Z" fill="#F06F37"/>
<g transform="matrix(1.48689 0 0 1.48689 -31.2524 119.787)">
<path d="M24.3083,48.9411L109.164,27.5258L63.7945,76.9365L52.2622,70.6984L39.068,78.001L39.9211,61.2262L24.3083,48.9411L24.3083,48.9411Z" fill="#FE453C"/>
<path d="M39.9211,61.2262L109.164,27.5258L45.8978,65.5768L39.068,78.001L39.068,78.001L39.9211,61.2262L39.9211,61.2262Z" fill="#AA0000"/>
</g>
</g>
</svg>
