<?xml version='1.0' encoding='utf-8'?>
<!-- Generator: imaengine 6.0   -->
<svg xmlns:xlink="http://www.w3.org/1999/xlink" xmlns="http://www.w3.org/2000/svg" viewBox="0,0,461,500" style="enable-background:new 0 0 461 500;" version="1.1">
<defs/>
<g id="layer0">
<path d="M327.021,149.563C302.057,149.563 281.818,169.801 281.818,194.765C281.828,196.437 281.931,198.106 282.126,199.767C265.079,202.829 252.288,216.599 252.288,233.222C252.288,252.11 268.797,267.314 289.301,267.314L341.77,267.314L344.64,267.314L421.375,267.314C440.262,267.314 455.467,253.181 455.467,235.626C455.467,218.18 440.45,204.121 421.727,203.947C419.249,184.386 402.611,169.724 382.895,169.722C377.328,169.731 371.828,170.925 366.759,173.23C358.857,158.646 343.606,149.564 327.019,149.563L327.021,149.563L327.021,149.563L327.021,149.563L327.021,149.563Z" fill="#86A3BF"/>
<path d="M288.495,164.149C263.529,164.149 243.292,184.386 243.291,209.351C243.302,211.021 243.405,212.692 243.6,214.353C226.551,217.413 213.761,231.185 213.761,247.807C213.761,266.694 230.27,281.899 250.775,281.899L303.244,281.899L306.114,281.899L382.851,281.899C401.736,281.899 416.941,267.766 416.941,250.211C416.941,232.764 401.924,218.707 383.202,218.531C380.724,198.971 364.085,184.309 344.368,184.307C338.802,184.317 333.302,185.511 328.233,187.815C320.332,173.232 305.079,164.149 288.495,164.149L288.495,164.149L288.495,164.149L288.495,164.149L288.495,164.149Z" fill="#C6E0F7"/>
<path d="M271.486,241.155L257.023,241.155C257.518,243.893 259.453,245.568 261.788,245.568C263.275,245.568 265.139,245.378 266.507,243.042L270.989,243.987C269.314,247.95 265.917,249.861 261.765,249.861C256.387,249.861 252.019,245.78 252.019,239.81C252.019,233.841 256.41,229.713 261.834,229.713C266.909,229.713 271.273,233.629 271.461,239.433L271.461,241.155L271.486,241.155L271.486,241.155L271.486,241.155L271.486,241.155ZM257.166,237.617L266.342,237.617C265.705,235.186 263.864,234.101 261.859,234.101C259.947,234.124 257.777,235.257 257.166,237.617L257.166,237.617L257.166,237.617L257.166,237.617L257.166,237.617Z" fill="#3D4952"/>
<path d="M325.111,249.317L320.086,249.317L320.086,247.692C318.553,249.105 316.477,249.909 313.811,249.909C308.975,249.909 304.49,245.826 304.49,239.859C304.49,233.889 308.975,229.759 313.811,229.759C316.477,229.759 318.576,230.563 320.086,231.977L320.086,223.012L325.111,223.012L325.111,249.317L325.111,249.317L325.111,249.317L325.111,249.317ZM320.086,239.836C320.086,236.319 317.374,234.124 314.685,234.124C311.639,234.124 309.352,236.342 309.352,239.836C309.352,243.35 311.639,245.497 314.685,245.497C317.397,245.497 320.086,243.327 320.086,239.836L320.086,239.836L320.086,239.836L320.086,239.836L320.086,239.836Z" fill="#3D4952"/>
<path d="M366.232,230.35L366.232,230.35L359.297,230.35L359.297,234.549L366.232,234.549C368.168,234.549 369.466,235.376 369.466,237.287L369.466,237.592L363.991,237.592C359.202,237.592 356.443,240.022 356.443,243.681C356.443,247.407 359.345,249.884 363.686,249.884C366.281,249.884 368.168,249.012 369.466,247.761L369.466,249.317L374.279,249.317L374.279,236.907C374.279,232.379 371.094,230.444 366.232,230.35L366.232,230.35L366.232,230.35L366.232,230.35L366.232,230.35ZM369.466,241.628C369.466,244.057 367.154,245.898 364.488,245.898C362.552,245.898 361.256,244.977 361.256,243.585C361.256,242.287 362.317,241.415 363.922,241.415L369.489,241.415L369.489,241.628L369.466,241.628L369.466,241.628L369.466,241.628L369.466,241.628Z" fill="#3D4952"/>
<path d="M336.53,230.35L336.53,230.35L329.594,230.35L329.594,234.549L336.53,234.549C338.465,234.549 339.763,235.376 339.763,237.287L339.763,237.592L334.289,237.592C329.499,237.592 326.738,240.022 326.738,243.681C326.738,247.407 329.641,249.884 333.982,249.884C336.576,249.884 338.465,249.012 339.763,247.761L339.763,249.317L344.553,249.317L344.553,236.907C344.553,232.379 341.366,230.444 336.53,230.35L336.53,230.35L336.53,230.35L336.53,230.35L336.53,230.35ZM339.763,241.628C339.763,244.057 337.45,245.898 334.784,245.898C332.85,245.898 331.551,244.977 331.551,243.585C331.551,242.287 332.614,241.415 334.218,241.415L339.786,241.415L339.786,241.628L339.763,241.628L339.763,241.628L339.763,241.628L339.763,241.628Z" fill="#3D4952"/>
<path d="M294.747,230.35L294.747,230.35L287.81,230.35L287.81,234.549L294.747,234.549C296.683,234.549 297.979,235.376 297.979,237.287L297.979,237.592L292.506,237.592C287.718,237.592 284.957,240.022 284.957,243.681C284.957,247.407 287.859,249.884 292.2,249.884C294.795,249.884 296.683,249.012 297.979,247.761L297.979,249.317L302.792,249.317L302.792,236.907C302.792,232.379 299.608,230.444 294.747,230.35L294.747,230.35L294.747,230.35L294.747,230.35L294.747,230.35ZM297.979,241.628C297.979,244.057 295.669,245.898 293.002,245.898C291.068,245.898 289.769,244.977 289.769,243.585C289.769,242.287 290.83,241.415 292.435,241.415L298.002,241.415L298.002,241.628L297.979,241.628L297.979,241.628L297.979,241.628L297.979,241.628Z" fill="#3D4952"/>
<path d="M285.121,230.327C282.032,230.327 279.836,231.552 278.303,233.77L278.303,230.303L273.279,230.303L273.279,249.294L278.303,249.294L278.303,243.161C278.303,237.875 280.426,234.549 285.075,234.549L285.31,234.549L285.31,230.327C285.238,230.327 285.192,230.327 285.121,230.327L285.121,230.327L285.121,230.327L285.121,230.327L285.121,230.327Z" fill="#3D4952"/>
<path d="M251.077,244.718C250.322,245.001 249.52,245.189 248.907,245.189C247.232,245.189 246.123,244.2 246.123,241.911L246.123,234.408L251.266,234.408L251.266,230.303L246.123,230.303L246.123,225.656L241.097,225.656L241.097,234.431L241.097,242.312C241.097,247.524 244.071,249.884 248.553,249.884C250.134,249.884 251.667,249.554 253.603,248.492C252.588,247.455 251.62,246.18 251.077,244.718L251.077,244.718L251.077,244.718L251.077,244.718L251.077,244.718Z" fill="#3D4952"/>
<path d="M354.862,245.143C354.65,245.166 354.461,245.189 354.296,245.189C352.621,245.189 351.512,244.2 351.512,241.911L351.512,234.408L356.797,234.408L356.797,230.303L351.512,230.303L351.512,225.656L346.487,225.656L346.487,234.431L346.487,242.312C346.487,247.524 349.459,249.884 353.941,249.884C355.05,249.884 356.018,249.72 357.173,249.271C355.687,248.209 355.121,246.464 354.862,245.143L354.862,245.143L354.862,245.143L354.862,245.143L354.862,245.143Z" fill="#3D4952"/>
<g transform="matrix(1.21144 0 0 1.21144 -45.1969 -59.6038)">
<path d="M286.481,198.918L356.497,181.248L319.062,222.017L309.546,216.871L298.659,222.896L299.362,209.055L286.481,198.918L286.481,198.918L286.481,198.918Z" fill="#FE453C"/>
<path d="M299.362,209.055L356.497,181.248L304.295,212.644L298.659,222.896L298.659,222.896L299.362,209.055L299.362,209.055L299.362,209.055Z" fill="#AA0000"/>
</g>
<path d="M30.9541,143.209L99.8745,143.209L168.794,143.209L168.794,279.152C122.847,279.152 76.9009,279.152 30.9541,279.152C30.9541,233.837 30.9541,188.521 30.9541,143.209L30.9541,143.209L30.9541,143.209L30.9541,143.209Z" fill="#DCE5EB"/>
<g transform="matrix(1.35862 0 0 1.35862 -60.9737 -97.3629)">
<path d="M125.015,188.676L145.355,188.676L165.695,188.676L165.695,275.807C152.135,275.807 138.575,275.807 125.015,275.807C125.015,246.763 125.015,217.72 125.015,188.676L125.015,188.676L125.015,188.676L125.015,188.676Z" fill="#000000" fill-opacity="0.996078"/>
<path d="M127.302,192.899L145.355,192.899L163.408,192.899C163.408,196.432 163.408,199.965 163.408,203.497C151.373,203.497 139.337,203.497 127.302,203.497C127.302,199.965 127.302,196.432 127.302,192.899L127.302,192.899L127.302,192.899L127.302,192.899Z" fill="#222B32" fill-opacity="0.996078"/>
<g transform="matrix(1 0 0 1 0 0)">
<path d="M130.395,234.048L136.743,234.048L143.092,234.048C143.092,247.23 143.092,260.412 143.092,273.596C138.859,273.596 134.627,273.596 130.395,273.596C130.395,260.413 130.395,247.23 130.395,234.048L130.395,234.048L130.395,234.048L130.395,234.048Z" fill="#222B32" fill-opacity="0.996078"/>
<path d="M147.618,234.167L160.315,234.167L160.315,273.713L147.618,273.713L147.618,234.167L147.618,234.167L147.618,234.167L147.618,234.167Z" fill="#222B32" fill-opacity="0.996078"/>
</g>
<path d="M127.302,206.689L163.408,206.689L163.408,217.287L127.302,217.287L127.302,206.689L127.302,206.689L127.302,206.689L127.302,206.689Z" fill="#222B32" fill-opacity="0.996078"/>
<path d="M127.302,220.241L145.355,220.241L163.408,220.241C163.408,223.773 163.408,227.305 163.408,230.839C151.373,230.839 139.337,230.839 127.302,230.839C127.302,227.305 127.302,223.773 127.302,220.241L127.302,220.241L127.302,220.241L127.302,220.241Z" fill="#222B32" fill-opacity="0.996078"/>
<path d="M149.59,235.863L153.54,235.863L157.49,235.863C157.49,237.166 157.49,238.47 157.49,239.774C154.857,239.774 152.223,239.774 149.59,239.774C149.59,238.47 149.59,237.166 149.59,235.863L149.59,235.863L149.59,235.863L149.59,235.863Z" fill="#44C5E5" fill-opacity="0.996078"/>
<path d="M132.6,235.777L140.5,235.777L140.5,239.688L132.6,239.688L132.6,235.777L132.6,235.777L132.6,235.777L132.6,235.777Z" fill="#44C5E5" fill-opacity="0.996078"/>
</g>
<g transform="matrix(1.35862 0 0 1.35862 -60.9737 -97.3629)">
<path d="M72.7296,258.67L96.0351,258.67L119.341,258.67C119.341,264.274 119.341,269.879 119.341,275.482C103.804,275.482 88.2665,275.482 72.7296,275.484C72.7296,269.879 72.7296,264.274 72.7296,258.67L72.7296,258.67L72.7296,258.67L72.7296,258.67Z" fill="#7D8B96" fill-opacity="0.996078"/>
<path d="M74.1034,259.693L95.87,259.693L117.637,259.693C117.637,264.495 117.637,269.3 117.637,274.103C103.126,274.103 88.6144,274.103 74.1034,274.103C74.1034,269.3 74.1034,264.495 74.1034,259.693L74.1034,259.693L74.1034,259.693L74.1034,259.693Z" fill="#000101" fill-opacity="0.996078"/>
<g transform="matrix(1 0 0 1 0 0)">
<path d="M75.3728,260.859L76.4147,260.844L77.4567,260.829C77.4654,261.444 77.4743,262.057 77.4831,262.67C76.7886,262.681 76.0939,262.691 75.3993,262.701C75.3905,262.087 75.3816,261.472 75.3728,260.859L75.3728,260.859L75.3728,260.859L75.3728,260.859Z" fill="#FF2C00" fill-opacity="0.996078"/>
<path d="M75.4117,263.556L77.4955,263.527L77.522,265.368L75.4382,265.398L75.4117,263.556L75.4117,263.556L75.4117,263.556L75.4117,263.556Z" fill="#FF2C00" fill-opacity="0.996078"/>
<path d="M75.4505,266.254L76.4924,266.238L77.5344,266.223C77.5433,266.838 77.5521,267.451 77.5609,268.066C76.8663,268.076 76.1716,268.085 75.477,268.095C75.4682,267.482 75.4593,266.867 75.4505,266.254L75.4505,266.254L75.4505,266.254L75.4505,266.254Z" fill="#FF2C00" fill-opacity="0.996078"/>
</g>
<g transform="matrix(1 0 0 1 0 0)">
<path d="M78.0103,260.859L79.0522,260.844L80.0942,260.829C80.103,261.444 80.1119,262.057 80.1207,262.67C79.4261,262.681 78.7314,262.691 78.0368,262.701C78.028,262.087 78.0191,261.472 78.0103,260.859L78.0103,260.859L78.0103,260.859L78.0103,260.859Z" fill="#FF2C00" fill-opacity="0.996078"/>
<path d="M78.049,263.556L80.1329,263.527L80.1595,265.368L78.0756,265.398L78.049,263.556L78.049,263.556L78.049,263.556L78.049,263.556Z" fill="#FF2C00" fill-opacity="0.996078"/>
<path d="M78.088,266.254L79.1299,266.238L80.1719,266.223C80.1807,266.838 80.1895,267.451 80.1984,268.066C79.5038,268.076 78.8091,268.085 78.1145,268.095C78.1057,267.482 78.0968,266.867 78.088,266.254L78.088,266.254L78.088,266.254L78.088,266.254Z" fill="#FF2C00" fill-opacity="0.996078"/>
</g>
<g transform="matrix(1 0 0 1 0 0)">
<path d="M80.6477,260.859L81.6897,260.844L82.7316,260.829C82.7404,261.444 82.7493,262.057 82.7581,262.67C82.0635,262.681 81.3689,262.691 80.6742,262.701C80.6654,262.087 80.6566,261.472 80.6477,260.859L80.6477,260.859L80.6477,260.859L80.6477,260.859Z" fill="#FF2C00" fill-opacity="0.996078"/>
<path d="M80.6866,263.556L82.7704,263.527L82.7969,265.368L80.7132,265.398L80.6866,263.556L80.6866,263.556L80.6866,263.556L80.6866,263.556Z" fill="#FF2C00" fill-opacity="0.996078"/>
<path d="M80.7254,266.254L81.7673,266.238L82.8093,266.223C82.8181,266.838 82.827,267.451 82.8358,268.066C82.1412,268.076 81.4466,268.085 80.7519,268.095C80.7431,267.482 80.7342,266.867 80.7254,266.254L80.7254,266.254L80.7254,266.254L80.7254,266.254Z" fill="#FF2C00" fill-opacity="0.996078"/>
</g>
<g transform="matrix(1 0 0 1 0 0)">
<path d="M91.0217,263.375L91.0368,264.417L91.0518,265.46C90.438,265.468 89.824,265.477 89.2101,265.486C89.2001,264.792 89.1901,264.096 89.1802,263.402C89.7941,263.393 90.4079,263.384 91.0217,263.375L91.0217,263.375L91.0217,263.375L91.0217,263.375Z" fill="#71CFEB"/>
<path d="M88.3243,263.415L88.3544,265.498L86.5127,265.524L86.4828,263.44L88.3243,263.415L88.3243,263.415L88.3243,263.415L88.3243,263.415Z" fill="#71CFEB"/>
<path d="M85.6269,263.453L85.6419,264.495L85.6569,265.536C85.0431,265.545 84.4291,265.554 83.8153,265.563C83.8052,264.868 83.7952,264.174 83.7853,263.48C84.3992,263.471 85.013,263.462 85.6269,263.453L85.6269,263.453L85.6269,263.453L85.6269,263.453Z" fill="#71CFEB"/>
</g>
<g transform="matrix(1 0 0 1 0 0)">
<path d="M91.0217,265.821L91.0368,266.863L91.0518,267.905C90.438,267.914 89.824,267.923 89.2101,267.932C89.2001,267.236 89.1901,266.542 89.1802,265.847C89.7941,265.838 90.4079,265.83 91.0217,265.821L91.0217,265.821L91.0217,265.821L91.0217,265.821Z" fill="#71CFEB"/>
<path d="M88.3243,265.859L88.3544,267.944L86.5127,267.97L86.4828,265.886L88.3243,265.859L88.3243,265.859L88.3243,265.859L88.3243,265.859Z" fill="#71CFEB"/>
<path d="M85.6269,265.899L85.6419,266.94L85.6569,267.982C85.0431,267.991 84.4291,268.001 83.8153,268.01C83.8052,267.314 83.7952,266.62 83.7853,265.925C84.3992,265.917 85.013,265.908 85.6269,265.899L85.6269,265.899L85.6269,265.899L85.6269,265.899Z" fill="#71CFEB"/>
</g>
<g transform="matrix(1 0 0 1 0 0)">
<path d="M100.79,263.253L100.805,264.295L100.82,265.337C100.206,265.346 99.5918,265.355 98.9781,265.364C98.968,264.669 98.9581,263.974 98.9481,263.279C99.5619,263.27 100.176,263.262 100.79,263.253L100.79,263.253L100.79,263.253L100.79,263.253Z" fill="#F7F297"/>
<path d="M98.0922,263.293L98.1222,265.376L96.2805,265.402L96.2506,263.319L98.0922,263.293L98.0922,263.293L98.0922,263.293L98.0922,263.293Z" fill="#F7F297"/>
<path d="M95.3949,263.331L95.4098,264.373L95.4248,265.415C94.811,265.424 94.1971,265.433 93.5831,265.44C93.5732,264.746 93.5631,264.052 93.5532,263.357C94.167,263.349 94.7809,263.34 95.3949,263.331L95.3949,263.331L95.3949,263.331L95.3949,263.331Z" fill="#F7F297"/>
</g>
<g transform="matrix(1 0 0 1 0 0)">
<path d="M100.79,265.698L100.805,266.741L100.82,267.783C100.206,267.792 99.5918,267.801 98.9781,267.809C98.968,267.114 98.9581,266.419 98.9481,265.725C99.5619,265.716 100.176,265.707 100.79,265.698L100.79,265.698L100.79,265.698L100.79,265.698Z" fill="#F7F297"/>
<path d="M98.0922,265.737L98.1222,267.821L96.2805,267.848L96.2506,265.763L98.0922,265.737L98.0922,265.737L98.0922,265.737L98.0922,265.737Z" fill="#F7F297"/>
<path d="M95.3949,265.777L95.4098,266.819L95.4248,267.86C94.811,267.868 94.1971,267.877 93.5831,267.888C93.5732,267.192 93.5631,266.497 93.5532,265.803C94.167,265.794 94.7809,265.785 95.3949,265.777L95.3949,265.777L95.3949,265.777L95.3949,265.777Z" fill="#F7F297"/>
</g>
<path d="M82.9989,270.354L95.2392,270.354L107.48,270.354C107.48,270.784 107.48,271.216 107.48,271.648C99.3194,271.648 91.1591,271.648 82.9989,271.648C82.9989,271.216 82.9989,270.784 82.9989,270.354L82.9989,270.354L82.9989,270.354L82.9989,270.354Z" fill="#3C464F" fill-opacity="0.996078"/>
<path d="M72.4017,241.174L95.7072,241.174L119.013,241.174C119.013,246.779 119.013,252.382 119.013,257.987C103.476,257.987 87.9388,257.987 72.4017,257.987C72.4017,252.382 72.4017,246.779 72.4017,241.174L72.4017,241.174L72.4017,241.174L72.4017,241.174Z" fill="#7D8B96" fill-opacity="0.996078"/>
<path d="M73.7755,242.197L95.5421,242.197L117.309,242.197C117.309,247 117.309,251.803 117.309,256.607C102.798,256.607 88.2866,256.607 73.7755,256.607C73.7755,251.804 73.7755,247 73.7755,242.197L73.7755,242.197L73.7755,242.197L73.7755,242.197Z" fill="#000101" fill-opacity="0.996078"/>
<path d="M75.045,243.363L76.0869,243.348L77.1289,243.334C77.1377,243.947 77.1466,244.562 77.1554,245.175C76.4607,245.185 75.7661,245.196 75.0715,245.204C75.0627,244.591 75.0538,243.978 75.045,243.363L75.045,243.363L75.045,243.363L75.045,243.363Z" fill="#F7F297"/>
<path d="M75.0838,246.061L77.1676,246.031L77.1942,247.873L75.1104,247.902L75.0838,246.061L75.0838,246.061L75.0838,246.061L75.0838,246.061Z" fill="#3B454E"/>
<path d="M75.1227,248.759L76.1646,248.744L77.2066,248.728C77.2154,249.342 77.2242,249.956 77.2331,250.57C76.5384,250.579 75.8438,250.59 75.1492,250.6C75.1404,249.987 75.1315,249.372 75.1227,248.759L75.1227,248.759L75.1227,248.759L75.1227,248.759Z" fill="#3B454E"/>
<path d="M77.6824,243.363L78.7244,243.348L79.7663,243.334C79.7752,243.947 79.784,244.562 79.7928,245.175C79.0982,245.185 78.4036,245.196 77.709,245.204C77.7001,244.591 77.6913,243.978 77.6824,243.363L77.6824,243.363L77.6824,243.363L77.6824,243.363Z" fill="#3B454E"/>
<path d="M77.7213,246.061L79.8052,246.031L79.8316,247.873L77.7479,247.902L77.7213,246.061L77.7213,246.061L77.7213,246.061L77.7213,246.061Z" fill="#3B454E"/>
<path d="M77.7601,248.759L78.8021,248.744L79.844,248.728C79.8528,249.342 79.8617,249.956 79.8705,250.57C79.1759,250.579 78.4813,250.59 77.7866,250.6C77.7778,249.987 77.769,249.372 77.7601,248.759L77.7601,248.759L77.7601,248.759L77.7601,248.759Z" fill="#3B454E"/>
<path d="M80.3199,243.363L81.3618,243.348L82.4037,243.334C82.4126,243.947 82.4214,244.562 82.4303,245.175C81.7357,245.185 81.041,245.196 80.3464,245.204C80.3375,244.591 80.3287,243.978 80.3199,243.363L80.3199,243.363L80.3199,243.363L80.3199,243.363Z" fill="#F7F297"/>
<path d="M80.3588,246.061L82.4427,246.031L82.4692,247.873L80.3853,247.902L80.3588,246.061L80.3588,246.061L80.3588,246.061L80.3588,246.061Z" fill="#3B454E"/>
<path d="M80.3977,248.759L81.4395,248.744L82.4814,248.728C82.4903,249.342 82.4991,249.956 82.508,250.57C81.8133,250.579 81.1187,250.59 80.4241,250.6C80.4152,249.987 80.4064,249.372 80.3977,248.759L80.3977,248.759L80.3977,248.759L80.3977,248.759Z" fill="#3B454E"/>
<path d="M90.694,245.88L90.7089,246.922L90.724,247.964C90.1101,247.973 89.4963,247.982 88.8824,247.991C88.8724,247.295 88.8624,246.601 88.8524,245.906C89.4662,245.897 90.08,245.889 90.694,245.88L90.694,245.88L90.694,245.88L90.694,245.88Z" fill="#FF1300"/>
<path d="M87.9966,245.918L88.0265,248.002L86.185,248.029L86.1549,245.945L87.9966,245.918L87.9966,245.918L87.9966,245.918L87.9966,245.918Z" fill="#71CFEB"/>
<path d="M85.2992,245.958L85.3141,247L85.3291,248.041C84.7152,248.05 84.1014,248.058 83.4876,248.067C83.4775,247.373 83.4675,246.679 83.4575,245.984C84.0713,245.975 84.6852,245.967 85.2992,245.958L85.2992,245.958L85.2992,245.958L85.2992,245.958Z" fill="#71CFEB"/>
<path d="M90.694,248.325L90.7089,249.368L90.724,250.408C90.1101,250.417 89.4963,250.426 88.8824,250.435C88.8724,249.74 88.8624,249.046 88.8524,248.352C89.4662,248.343 90.08,248.334 90.694,248.325L90.694,248.325L90.694,248.325L90.694,248.325Z" fill="#FF1300"/>
<path d="M87.9966,248.364L88.0265,250.448L86.185,250.475L86.1549,248.39L87.9966,248.364L87.9966,248.364L87.9966,248.364L87.9966,248.364Z" fill="#71CFEB"/>
<path d="M85.2992,248.403L85.3141,249.444L85.3291,250.486C84.7152,250.495 84.1014,250.504 83.4876,250.513C83.4775,249.819 83.4675,249.124 83.4575,248.43C84.0713,248.421 84.6852,248.412 85.2992,248.403L85.2992,248.403L85.2992,248.403L85.2992,248.403Z" fill="#71CFEB"/>
<g transform="matrix(1 0 0 1 0 0)">
<path d="M100.462,245.757L100.477,246.8L100.492,247.842C99.878,247.851 99.2641,247.859 98.6503,247.868C98.6403,247.174 98.6302,246.478 98.6202,245.784C99.2342,245.775 99.8479,245.766 100.462,245.757L100.462,245.757L100.462,245.757L100.462,245.757Z" fill="#F7F297"/>
<path d="M97.7644,245.797L97.7945,247.88L95.9528,247.907L95.9228,245.824L97.7644,245.797L97.7644,245.797L97.7644,245.797L97.7644,245.797Z" fill="#F7F297"/>
<path d="M95.067,245.835L95.0819,246.878L95.0969,247.918C94.4831,247.927 93.8692,247.936 93.2554,247.945C93.2452,247.251 93.2354,246.556 93.2253,245.862C93.8392,245.853 94.453,245.844 95.067,245.835L95.067,245.835L95.067,245.835L95.067,245.835Z" fill="#F7F297"/>
</g>
<g transform="matrix(1 0 0 1 0 0)">
<path d="M100.462,248.203L100.477,249.245L100.492,250.287C99.878,250.296 99.2641,250.305 98.6503,250.314C98.6403,249.618 98.6302,248.924 98.6202,248.229C99.2342,248.221 99.8479,248.212 100.462,248.203L100.462,248.203L100.462,248.203L100.462,248.203Z" fill="#F7F297"/>
<path d="M97.7644,248.241L97.7945,250.326L95.9528,250.352L95.9228,248.268L97.7644,248.241L97.7644,248.241L97.7644,248.241L97.7644,248.241Z" fill="#F7F297"/>
<path d="M95.067,248.281L95.0819,249.322L95.0969,250.364C94.4831,250.373 93.8692,250.382 93.2554,250.391C93.2454,249.696 93.2354,249.002 93.2253,248.308C93.8392,248.299 94.453,248.29 95.067,248.281L95.067,248.281L95.067,248.281L95.067,248.281Z" fill="#F7F297"/>
</g>
<path d="M82.671,252.858L94.9115,252.858L107.152,252.858C107.152,253.289 107.152,253.721 107.152,254.153C98.9917,254.153 90.8313,254.153 82.671,254.153C82.671,253.721 82.671,253.289 82.671,252.858L82.671,252.858L82.671,252.858L82.671,252.858Z" fill="#3C464F" fill-opacity="0.996078"/>
<path d="M72.4675,223.786L95.773,223.786L119.078,223.786C119.078,229.39 119.078,234.994 119.078,240.598C103.542,240.598 88.0046,240.599 72.4675,240.599C72.4675,234.994 72.4675,229.39 72.4675,223.786L72.4675,223.786L72.4675,223.786L72.4675,223.786Z" fill="#7D8B96" fill-opacity="0.996078"/>
<path d="M73.8413,224.808L95.6079,224.809L117.374,224.809C117.374,229.612 117.374,234.415 117.374,239.218C102.863,239.218 88.3523,239.218 73.8413,239.218C73.8413,234.415 73.8413,229.612 73.8413,224.808L73.8413,224.808L73.8413,224.808L73.8413,224.808Z" fill="#000101" fill-opacity="0.996078"/>
<g transform="matrix(1 0 0 1 0 0)">
<path d="M75.1107,225.975L76.1526,225.959L77.1946,225.944C77.2035,226.559 77.2123,227.172 77.2212,227.786C76.5265,227.796 75.8319,227.806 75.1372,227.817C75.1284,227.202 75.1196,226.589 75.1107,225.975L75.1107,225.975L75.1107,225.975L75.1107,225.975Z" fill="#FF2C00" fill-opacity="0.996078"/>
<path d="M75.1496,228.672L77.2334,228.642L77.2599,230.483L75.1761,230.514L75.1496,228.672L75.1496,228.672L75.1496,228.672L75.1496,228.672Z" fill="#FF2C00" fill-opacity="0.996078"/>
<path d="M75.1884,231.369L76.2303,231.355L77.2723,231.34C77.2812,231.953 77.29,232.568 77.2988,233.181C76.6042,233.191 75.9096,233.202 75.2149,233.211C75.2061,232.597 75.1973,231.984 75.1884,231.369L75.1884,231.369L75.1884,231.369L75.1884,231.369Z" fill="#FF2C00" fill-opacity="0.996078"/>
</g>
<g transform="matrix(1 0 0 1 0 0)">
<path d="M77.7482,225.975L78.7901,225.959L79.8321,225.944C79.8409,226.559 79.8497,227.172 79.8586,227.786C79.164,227.796 78.4693,227.806 77.7747,227.817C77.7659,227.202 77.757,226.589 77.7482,225.975L77.7482,225.975L77.7482,225.975L77.7482,225.975Z" fill="#FF2C00" fill-opacity="0.996078"/>
<path d="M77.7871,228.672L79.8708,228.642L79.8974,230.483L77.8136,230.514L77.7871,228.672L77.7871,228.672L77.7871,228.672L77.7871,228.672Z" fill="#FF2C00" fill-opacity="0.996078"/>
<path d="M77.8259,231.369L78.8678,231.355L79.9097,231.34C79.9186,231.953 79.9274,232.568 79.9363,233.181C79.2417,233.191 78.547,233.202 77.8524,233.211C77.8435,232.597 77.8347,231.984 77.8259,231.369L77.8259,231.369L77.8259,231.369L77.8259,231.369Z" fill="#FF2C00" fill-opacity="0.996078"/>
</g>
<g transform="matrix(1 0 0 1 0 0)">
<path d="M80.3856,225.975L81.4275,225.959L82.4695,225.944C82.4783,226.559 82.4872,227.172 82.496,227.786C81.8014,227.796 81.1068,227.806 80.4121,227.817C80.4033,227.202 80.3945,226.589 80.3856,225.975L80.3856,225.975L80.3856,225.975L80.3856,225.975Z" fill="#FF2C00" fill-opacity="0.996078"/>
<path d="M80.4245,228.672L82.5084,228.642L82.5349,230.483L80.4511,230.514L80.4245,228.672L80.4245,228.672L80.4245,228.672L80.4245,228.672Z" fill="#FF2C00" fill-opacity="0.996078"/>
<path d="M80.4633,231.369L81.5052,231.355L82.5472,231.34C82.556,231.953 82.5649,232.568 82.5737,233.181C81.8791,233.191 81.1845,233.202 80.4898,233.211C80.481,232.597 80.4721,231.984 80.4633,231.369L80.4633,231.369L80.4633,231.369L80.4633,231.369Z" fill="#FF2C00" fill-opacity="0.996078"/>
</g>
<g transform="matrix(1 0 0 1 0 0)">
<path d="M90.7598,228.492L90.7747,229.533L90.7897,230.575C90.1759,230.584 89.562,230.593 88.948,230.601C88.9382,229.907 88.9281,229.213 88.9181,228.518C89.5319,228.51 90.1458,228.501 90.7598,228.492L90.7598,228.492L90.7598,228.492L90.7598,228.492Z" fill="#71CFEB"/>
<path d="M88.0623,228.53L88.0923,230.613L86.2506,230.64L86.2207,228.557L88.0623,228.53L88.0623,228.53L88.0623,228.53L88.0623,228.53Z" fill="#71CFEB"/>
<path d="M85.3649,228.568L85.3798,229.611L85.3948,230.653C84.781,230.662 84.1671,230.671 83.5532,230.679C83.5433,229.985 83.5333,229.289 83.5232,228.595C84.1371,228.586 84.7509,228.577 85.3649,228.568L85.3649,228.568L85.3649,228.568L85.3649,228.568Z" fill="#71CFEB"/>
</g>
<g transform="matrix(1 0 0 1 0 0)">
<path d="M90.7598,230.936L90.7747,231.978L90.7897,233.02C90.1759,233.029 89.562,233.038 88.948,233.047C88.9382,232.353 88.9281,231.658 88.9181,230.963C89.5319,230.954 90.1458,230.945 90.7598,230.936L90.7598,230.936L90.7598,230.936L90.7598,230.936Z" fill="#71CFEB"/>
<path d="M88.0623,230.976L88.0923,233.059L86.2506,233.085L86.2207,231.002L88.0623,230.976L88.0623,230.976L88.0623,230.976L88.0623,230.976Z" fill="#71CFEB"/>
<path d="M85.3649,231.014L85.3798,232.056L85.3948,233.099C84.781,233.107 84.1671,233.116 83.5532,233.125C83.5433,232.429 83.5333,231.735 83.5232,231.041C84.1371,231.032 84.7509,231.023 85.3649,231.014L85.3649,231.014L85.3649,231.014L85.3649,231.014Z" fill="#71CFEB"/>
</g>
<g transform="matrix(1 0 0 1 0 0)">
<path d="M100.528,228.369L100.543,229.41L100.558,230.452C99.9437,230.461 99.3299,230.47 98.716,230.479C98.706,229.785 98.696,229.09 98.686,228.396C99.2998,228.387 99.9136,228.378 100.528,228.369L100.528,228.369L100.528,228.369L100.528,228.369Z" fill="#F7F297"/>
<path d="M97.8302,228.408L97.8601,230.492L96.0186,230.519L95.9885,228.434L97.8302,228.408L97.8302,228.408L97.8302,228.408L97.8302,228.408Z" fill="#F7F297"/>
<path d="M95.1328,228.446L95.1476,229.488L95.1627,230.531C94.5488,230.539 93.935,230.548 93.3212,230.557C93.3111,229.863 93.3011,229.168 93.2911,228.473C93.9049,228.464 94.5189,228.455 95.1328,228.446L95.1328,228.446L95.1328,228.446L95.1328,228.446Z" fill="#F7F297"/>
</g>
<g transform="matrix(1 0 0 1 0 0)">
<path d="M100.528,230.814L100.543,231.856L100.558,232.898C99.9437,232.907 99.3299,232.916 98.716,232.925C98.706,232.23 98.696,231.536 98.686,230.84C99.2998,230.831 99.9136,230.822 100.528,230.814L100.528,230.814L100.528,230.814L100.528,230.814Z" fill="#F7F297"/>
<path d="M97.8302,230.853L97.8601,232.936L96.0186,232.963L95.9885,230.88L97.8302,230.853L97.8302,230.853L97.8302,230.853L97.8302,230.853Z" fill="#F7F297"/>
<path d="M95.1328,230.892L95.1476,231.934L95.1627,232.976C94.5488,232.985 93.935,232.994 93.3212,233.003C93.3111,232.308 93.3011,231.613 93.2911,230.918C93.9049,230.909 94.5189,230.901 95.1328,230.892L95.1328,230.892L95.1328,230.892L95.1328,230.892Z" fill="#F7F297"/>
</g>
<path d="M82.7368,235.469L94.9772,235.469L107.218,235.469C107.218,235.901 107.218,236.331 107.218,236.763C99.0573,236.763 90.897,236.763 82.7368,236.763C82.7368,236.331 82.7368,235.901 82.7368,235.469L82.7368,235.469L82.7368,235.469L82.7368,235.469Z" fill="#3C464F" fill-opacity="0.996078"/>
<path d="M72.1397,206.291L95.4451,206.291L118.751,206.291C118.751,211.894 118.751,217.499 118.751,223.102C103.214,223.102 87.6767,223.102 72.1397,223.102C72.1397,217.499 72.1397,211.894 72.1397,206.291L72.1397,206.291L72.1397,206.291L72.1397,206.291Z" fill="#7D8B96" fill-opacity="0.996078"/>
<path d="M73.5135,207.312L95.28,207.312L117.047,207.312C117.047,212.117 117.047,216.92 117.047,221.722C102.536,221.722 88.0245,221.722 73.5135,221.722C73.5135,216.92 73.5135,212.117 73.5135,207.312L73.5135,207.312L73.5135,207.312L73.5135,207.312Z" fill="#000101" fill-opacity="0.996078"/>
<path d="M74.7829,208.478L75.8248,208.464L76.8667,208.449C76.8756,209.064 76.8845,209.677 76.8933,210.29C76.1987,210.301 75.504,210.311 74.8094,210.321C74.8006,209.706 74.7917,209.093 74.7829,208.478L74.7829,208.478L74.7829,208.478L74.7829,208.478Z" fill="#F7F297"/>
<path d="M74.8218,211.176L76.9055,211.147L76.9321,212.988L74.8483,213.019L74.8218,211.176L74.8218,211.176L74.8218,211.176L74.8218,211.176Z" fill="#3B454E"/>
<path d="M74.8606,213.874L75.9025,213.859L76.9445,213.844C76.9533,214.458 76.9621,215.071 76.971,215.686C76.2764,215.696 75.5817,215.706 74.8871,215.715C74.8783,215.102 74.8694,214.487 74.8606,213.874L74.8606,213.874L74.8606,213.874L74.8606,213.874Z" fill="#3B454E"/>
<path d="M77.4203,208.478L78.4623,208.464L79.5042,208.449C79.513,209.064 79.5219,209.677 79.5307,210.29C78.8361,210.301 78.1415,210.311 77.4468,210.321C77.438,209.706 77.4292,209.093 77.4203,208.478L77.4203,208.478L77.4203,208.478L77.4203,208.478Z" fill="#3B454E"/>
<path d="M77.4592,211.176L79.5431,211.147L79.5697,212.988L77.4858,213.019L77.4592,211.176L77.4592,211.176L77.4592,211.176L77.4592,211.176Z" fill="#3B454E"/>
<path d="M77.498,213.874L78.5399,213.859L79.5819,213.844C79.5907,214.458 79.5996,215.071 79.6084,215.686C78.9138,215.696 78.2192,215.706 77.5245,215.715C77.5157,215.102 77.5068,214.487 77.498,213.874L77.498,213.874L77.498,213.874L77.498,213.874Z" fill="#3B454E"/>
<path d="M80.0579,208.478L81.0997,208.464L82.1416,208.449C82.1505,209.064 82.1593,209.677 82.1682,210.29C81.4735,210.301 80.7789,210.311 80.0843,210.321C80.0754,209.706 80.0666,209.093 80.0579,208.478L80.0579,208.478L80.0579,208.478L80.0579,208.478Z" fill="#F7F297"/>
<path d="M80.0967,211.176L82.1806,211.147L82.2071,212.988L80.1232,213.019L80.0967,211.176L80.0967,211.176L80.0967,211.176L80.0967,211.176Z" fill="#3B454E"/>
<path d="M80.1356,213.874L81.1775,213.859L82.2193,213.844C82.2282,214.458 82.237,215.071 82.2459,215.686C81.5512,215.696 80.8568,215.706 80.1621,215.715C80.1533,215.102 80.1444,214.487 80.1356,213.874L80.1356,213.874L80.1356,213.874L80.1356,213.874Z" fill="#3B454E"/>
<path d="M90.4319,210.995L90.447,212.037L90.4619,213.079C89.848,213.088 89.2342,213.097 88.6203,213.106C88.6103,212.412 88.6003,211.717 88.5902,211.021C89.2041,211.013 89.8181,211.004 90.4319,210.995L90.4319,210.995L90.4319,210.995L90.4319,210.995Z" fill="#FF1300"/>
<path d="M87.7345,211.035L87.7644,213.118L85.9229,213.144L85.8928,211.061L87.7345,211.035L87.7345,211.035L87.7345,211.035L87.7345,211.035Z" fill="#71CFEB"/>
<path d="M85.0371,211.073L85.0519,212.115L85.067,213.158C84.4531,213.166 83.8393,213.175 83.2254,213.184C83.2154,212.488 83.2054,211.794 83.1954,211.1C83.8092,211.091 84.4232,211.082 85.0371,211.073L85.0371,211.073L85.0371,211.073L85.0371,211.073Z" fill="#71CFEB"/>
<path d="M90.4319,213.441L90.447,214.483L90.4619,215.525C89.848,215.534 89.2342,215.543 88.6203,215.552C88.6103,214.857 88.6003,214.161 88.5902,213.467C89.2041,213.458 89.8181,213.449 90.4319,213.441L90.4319,213.441L90.4319,213.441L90.4319,213.441Z" fill="#FF1300"/>
<path d="M87.7345,213.48L87.7644,215.563L85.9229,215.59L85.8928,213.507L87.7345,213.48L87.7345,213.48L87.7345,213.48L87.7345,213.48Z" fill="#71CFEB"/>
<path d="M85.0371,213.519L85.0519,214.561L85.067,215.603C84.4531,215.611 83.8393,215.621 83.2254,215.628C83.2154,214.934 83.2054,214.24 83.1954,213.545C83.8092,213.536 84.4232,213.528 85.0371,213.519L85.0371,213.519L85.0371,213.519L85.0371,213.519Z" fill="#71CFEB"/>
<g transform="matrix(1 0 0 1 0 0)">
<path d="M100.2,210.873L100.215,211.915L100.23,212.957C99.616,212.966 99.002,212.975 98.3882,212.984C98.3781,212.289 98.3681,211.595 98.3581,210.899C98.9721,210.89 99.5859,210.883 100.2,210.873L100.2,210.873L100.2,210.873L100.2,210.873Z" fill="#F7F297"/>
<path d="M97.5023,210.912L97.5324,212.995L95.6907,213.022L95.6607,210.939L97.5023,210.912L97.5023,210.912L97.5023,210.912L97.5023,210.912Z" fill="#F7F297"/>
<path d="M94.8049,210.951L94.8199,211.993L94.8348,213.035C94.221,213.044 93.6071,213.053 92.9933,213.062C92.9833,212.367 92.9732,211.672 92.9632,210.977C93.5771,210.968 94.1909,210.96 94.8049,210.951L94.8049,210.951L94.8049,210.951L94.8049,210.951Z" fill="#F7F297"/>
</g>
<g transform="matrix(1 0 0 1 0 0)">
<path d="M100.2,213.318L100.215,214.36L100.23,215.403C99.616,215.412 99.002,215.42 98.3882,215.429C98.3781,214.735 98.3681,214.041 98.3581,213.345C98.9721,213.336 99.5859,213.327 100.2,213.318L100.2,213.318L100.2,213.318L100.2,213.318Z" fill="#F7F297"/>
<path d="M97.5023,213.358L97.5324,215.441L95.6907,215.468L95.6607,213.385L97.5023,213.358L97.5023,213.358L97.5023,213.358L97.5023,213.358Z" fill="#F7F297"/>
<path d="M94.8049,213.396L94.8199,214.439L94.8348,215.481C94.221,215.49 93.6071,215.498 92.9933,215.507C92.9833,214.812 92.9732,214.117 92.9632,213.423C93.5771,213.414 94.1909,213.405 94.8049,213.396L94.8049,213.396L94.8049,213.396L94.8049,213.396Z" fill="#F7F297"/>
</g>
<path d="M82.4089,217.974L94.6494,217.974L106.89,217.974C106.89,218.406 106.89,218.836 106.89,219.268C98.7296,219.268 90.5692,219.268 82.4089,219.268C82.4089,218.836 82.4089,218.406 82.4089,217.974L82.4089,217.974L82.4089,217.974L82.4089,217.974Z" fill="#3C464F" fill-opacity="0.996078"/>
</g>
<path d="M87.5852,165.486L87.5852,165.486L87.5852,165.486L87.5852,165.486L87.5852,165.486L87.5852,165.486L87.5852,165.486L87.5852,165.486L87.5852,165.486L87.5852,165.486L87.5852,165.486Z" fill="#000509" fill-opacity="0.996078"/>
<path d="M103.8,142.744L105.108,142.744L106.414,142.744L106.414,280.503C105.544,280.503 104.672,280.503 103.8,280.503C103.8,234.584 103.8,188.663 103.8,142.744L103.8,142.744L103.8,142.744L103.8,142.744Z" fill="#535D66" fill-opacity="0.996078"/>
<path d="M32.0529,142.879L32.0529,142.879L167.444,142.879C167.856,142.879 168.188,143.228 168.188,143.661L168.188,143.661L168.188,279.779C168.188,280.211 167.856,280.561 167.444,280.561L167.444,280.561L32.0529,280.562C31.8556,280.562 31.6665,280.478 31.5269,280.333C31.3876,280.185 31.3092,279.988 31.3092,279.779L31.3092,279.779L31.3092,143.661C31.3092,143.454 31.3876,143.254 31.5269,143.107C31.6665,142.961 31.8556,142.879 32.0529,142.879L32.0529,142.879L32.0529,142.879L32.0529,142.879L32.0529,142.879ZM32.0529,144.441L32.7966,143.661L32.7966,279.779L32.0529,278.998L167.444,278.998L166.701,279.779L166.701,143.661L167.444,144.441L32.0529,144.441L32.0529,144.441L32.0529,144.441L32.0529,144.441Z" fill="#535D66"/>
<path d="M102.518,196.65L105.14,196.65L107.762,196.652C107.762,203.514 107.762,210.375 107.762,217.239C106.013,217.239 104.266,217.239 102.518,217.239C102.518,210.375 102.518,203.514 102.518,196.65L102.518,196.65L102.518,196.65L102.518,196.65Z" fill="#000509" fill-opacity="0.996078"/>
<path d="M104.423,197.927L105.1,197.927L105.777,197.927C105.777,203.638 105.777,209.348 105.777,215.058C105.326,215.058 104.875,215.058 104.423,215.058C104.423,209.348 104.423,203.638 104.423,197.927L104.423,197.927L104.423,197.927L104.423,197.927Z" fill="#BFC9D2" fill-opacity="0.996078"/>
<path d="M69.2169,148.032C61.3887,148.032 55.0427,154.379 55.0427,162.206C55.0427,170.034 61.3887,176.379 69.2169,176.379C77.045,176.379 83.3911,170.034 83.3911,162.206C83.3911,154.379 77.045,148.032 69.2169,148.032L69.2169,148.032L69.2169,148.032L69.2169,148.032Z" fill="#F27241"/>
<path d="M72.2713,167.433C71.2149,167.878 69.7303,168.263 68.6661,167.574C67.8192,167.022 67.5116,166.027 67.5116,165.49L67.5116,159.858L71.1646,159.858L71.1646,156.208L67.5116,156.208L67.5116,152.554L63.8589,152.554L63.8589,165.49C63.8589,166.998 64.5909,169.234 66.6554,170.571C67.4445,171.082 68.5717,171.547 70.0636,171.547C71.1003,171.547 72.3136,171.325 73.7115,170.734L72.2713,167.433L72.2713,167.433L72.2713,167.433L72.2713,167.433Z" fill="#FFFFFF"/>
</g>
</svg>
