<?xml version="1.0" encoding="UTF-8" standalone="no"?>
<!DOCTYPE svg PUBLIC "-//W3C//DTD SVG 1.1//EN" "http://www.w3.org/Graphics/SVG/1.1/DTD/svg11.dtd">
<svg version="1.1" xmlns="http://www.w3.org/2000/svg" xmlns:xlink="http://www.w3.org/1999/xlink" preserveAspectRatio="xMidYMid meet" viewBox="0 0 640 640" width="640" height="640"><defs><path d="M9.13 460.55C-4.39 452.76 -2.7 439.12 12.97 430.11C51.51 407.86 359.82 229.85 398.36 207.6C413.98 198.64 437.58 197.6 451.1 205.41C467.05 214.62 594.71 288.35 610.66 297.57C624.18 305.38 622.48 319.01 606.82 328.02C568.28 350.27 259.98 528.26 221.44 550.51C205.81 559.53 182.21 560.51 168.69 552.71C136.78 534.28 25.08 469.77 9.13 460.55Z" id="c4P0jeJY"></path><path d="M29.34 448.42C15.82 440.61 17.52 426.98 33.18 417.96C71.72 395.71 380.02 217.71 418.56 195.46C434.18 186.5 457.78 185.48 471.3 193.27C487.25 202.49 614.9 276.22 630.86 285.43C644.38 293.23 642.69 306.86 627.02 315.87C588.48 338.12 280.18 516.14 241.64 538.39C226.02 547.4 202.42 548.38 188.9 540.58C156.99 522.14 45.29 457.63 29.34 448.42Z" id="b2i1QWY2mO"></path><path d="M20.21 420.35L37.44 426.85L20.21 435.04L20.21 435.04L20.21 420.35Z" id="c6rAU2wIU"></path><path d="M640 284L626.29 292.83L640 298.13L640 298.13L640 284Z" id="a8wbu12YcJ"></path><path d="M29.34 435.99C15.82 428.19 17.52 414.56 33.18 405.55C71.72 383.3 380.02 205.29 418.56 183.03C434.18 174.07 457.78 173.04 471.3 180.84C487.25 190.06 614.9 263.79 630.86 273C644.38 280.81 642.69 294.44 627.02 303.46C588.48 325.71 280.18 503.71 241.64 525.96C226.02 534.97 202.42 535.94 188.9 528.15C156.99 509.72 45.29 445.2 29.34 435.99Z" id="b2simqmFTd"></path><path d="M48.6 451.47C49.42 452.88 49.42 454.41 48.6 454.88C47.78 455.36 46.45 454.6 45.63 453.18C44.82 451.77 44.82 450.24 45.64 449.76C46.46 449.29 47.79 450.05 48.6 451.47Z" id="c1qtIINCR"></path><path d="M56.28 455.9C57.1 457.32 57.09 458.85 56.27 459.32C55.45 459.79 54.13 459.03 53.31 457.62C52.49 456.2 52.5 454.67 53.32 454.2C54.14 453.73 55.46 454.49 56.28 455.9Z" id="b7CHUNUSt"></path><path d="M63.97 460.34C64.79 461.75 64.79 463.28 63.97 463.76C63.15 464.23 61.82 463.47 61 462.05C60.19 460.64 60.19 459.11 61.01 458.63C61.83 458.16 63.16 458.92 63.97 460.34Z" id="i161LwJ0ow"></path><path d="M71.65 464.78C72.47 466.19 72.46 467.72 71.64 468.19C70.82 468.67 69.49 467.9 68.68 466.49C67.86 465.08 67.87 463.55 68.69 463.07C69.51 462.6 70.83 463.36 71.65 464.78Z" id="gWwaDJxyE"></path><path d="M138.15 504.52C138.96 505.94 138.96 507.48 138.13 507.95C137.31 508.43 135.98 507.66 135.16 506.24C134.35 504.82 134.35 503.28 135.18 502.81C136 502.34 137.33 503.1 138.15 504.52Z" id="aMUV1jfeM"></path><path d="M145.27 507.28C146.09 508.7 146.09 510.23 145.27 510.7C144.45 511.18 143.12 510.41 142.3 509C141.49 507.59 141.49 506.06 142.31 505.58C143.13 505.11 144.46 505.87 145.27 507.28Z" id="bK9AvVugk"></path><path d="M152.95 511.72C153.77 513.13 153.77 514.66 152.95 515.14C152.13 515.61 150.8 514.85 149.98 513.44C149.17 512.02 149.17 510.49 149.99 510.02C150.81 509.54 152.14 510.31 152.95 511.72Z" id="eaEGXtB8L"></path><path d="M160.63 516.16C161.45 517.57 161.44 519.1 160.62 519.58C159.8 520.05 158.48 519.29 157.66 517.87C156.84 516.46 156.85 514.93 157.67 514.45C158.49 513.98 159.81 514.74 160.63 516.16Z" id="a1VZhxBk6"></path><path d="M92.6 481.8C91.1 480.73 90.2 479.01 90.18 477.18C90.18 477.18 90.18 477.18 90.18 477.18C90.18 475.39 91.25 474.62 92.6 475.35C94.7 476.56 111.58 486.3 113.69 487.52C115.19 488.59 116.08 490.31 116.11 492.15C116.11 492.15 116.11 492.15 116.11 492.15C116.11 493.93 115.03 494.75 113.69 493.97C109.47 491.54 94.7 483.02 92.6 481.8Z" id="b2BeamsOW"></path><path d="M572.08 344.43C570.8 345.15 569.83 344.43 569.83 342.73C569.83 342.73 569.83 342.73 569.83 342.73C569.86 341.02 570.69 339.43 572.08 338.44C574.05 337.31 589.74 328.24 591.71 327.11C592.99 326.39 593.95 327.11 593.95 328.81C593.95 328.81 593.95 328.81 593.95 328.81C593.92 330.52 593.09 332.11 591.71 333.1C587.78 335.37 574.05 343.3 572.08 344.43Z" id="g4WhS90Ena"></path><path d="M542.03 361.79C540.75 362.5 539.78 361.79 539.78 360.08C539.78 360.08 539.78 360.08 539.78 360.08C539.8 358.37 540.64 356.78 542.03 355.78C543.99 354.65 559.69 345.56 561.65 344.43C562.93 343.71 563.89 344.43 563.89 346.13C563.89 346.13 563.89 346.13 563.89 346.13C563.88 347.85 563.05 349.46 561.65 350.46C557.73 352.72 543.99 360.65 542.03 361.79Z" id="b1dZZAacbA"></path><path d="M29.34 433.72C15.82 425.91 17.52 412.28 33.18 403.27C71.72 381.02 380.02 203.02 418.56 180.77C434.18 171.81 457.78 170.78 471.3 178.58C487.25 187.8 614.9 261.52 630.86 270.74C644.38 278.53 642.69 292.17 627.02 301.18C588.48 323.43 280.18 501.44 241.64 523.69C226.02 532.7 202.42 533.69 188.9 525.88C156.99 507.45 45.29 442.94 29.34 433.72Z" id="a584Wxd3Jv"></path><path d="M551.45 238.42C551.36 238.47 551.31 238.5 551.3 238.51C543.94 242.76 532.01 242.76 524.65 238.51C517.29 234.26 517.29 227.36 524.65 223.15C524.66 223.14 524.71 223.12 524.8 223.07C487.42 201.49 466.66 189.5 462.5 187.1C453.04 181.64 437.7 181.64 428.24 187.1C390.7 208.77 90.37 382.14 52.83 403.81C43.37 409.26 43.37 418.12 52.83 423.58C67.95 432.32 188.93 502.17 204.06 510.91C213.53 516.37 228.86 516.37 238.32 510.91C275.87 489.23 576.2 315.84 613.75 294.16C623.21 288.7 623.21 279.84 613.75 274.39C605.44 269.59 584.67 257.6 551.45 238.42Z" id="b5hkatEeMQ"></path><path d="M238.34 510.91C229.79 515.85 216.41 516.31 206.94 512.31C205.96 511.91 205 511.44 204.08 510.91C188.96 502.17 67.96 432.32 52.84 423.58C50.75 422.46 48.93 420.89 47.53 418.98C43.96 413.86 45.72 407.9 52.84 403.81C90.38 382.13 390.7 208.73 428.24 187.05C437.7 181.6 453.03 181.6 462.5 187.05C466.66 189.45 487.42 201.45 524.8 223.03C524.71 223.09 524.66 223.12 524.65 223.12C517.29 227.37 517.29 234.25 524.65 238.48C532.01 242.72 543.95 242.75 551.3 238.48C551.31 238.48 551.35 238.45 551.44 238.41C588.82 259.99 609.59 271.98 613.75 274.37C623.21 279.85 623.21 288.7 613.75 294.16C538.66 337.51 275.88 489.23 238.34 510.91Z" id="a9HutjtIhI"></path><linearGradient id="gradientg5R3hBiVpZ" gradientUnits="userSpaceOnUse" x1="333.29" y1="515" x2="333.29" y2="182.97"><stop style="stop-color: #ffffff;stop-opacity: 0" offset="21%"></stop><stop style="stop-color: #ffffff;stop-opacity: 0.2" offset="100%"></stop></linearGradient><path d="M541.03 233.17C541.03 235.45 537.83 237.31 533.88 237.31C529.92 237.31 526.72 235.45 526.72 233.17C526.72 230.89 529.92 229.04 533.88 229.04C537.83 229.04 541.03 230.89 541.03 233.17Z" id="bAhNqblhX"></path><path d="M530.89 232.76C531.02 232.34 531.34 232.01 531.76 231.89C533.1 231.23 534.67 231.23 536 231.89C536.68 232.09 537.07 232.8 536.87 233.48C536.75 233.9 536.42 234.23 536 234.35C534.67 235.01 533.1 235.01 531.76 234.35C531.08 234.15 530.69 233.44 530.89 232.76Z" id="b22R04TeX0"></path><path d="M321.43 276.59C313.68 272.11 314.65 264.29 323.61 259.12C332.59 253.93 404.46 212.46 413.44 207.28C422.4 202.16 435.97 201.53 443.72 206C457.08 213.71 563.92 275.39 577.28 283.1C585.04 287.58 584.06 295.4 575.1 300.59C566.12 305.77 494.27 347.26 485.29 352.44C476.26 357.61 462.71 358.18 454.95 353.7C428.25 338.27 334.79 284.3 321.43 276.59Z" id="k702Kg7EbQ"></path><path d="M411.15 271.6L418.87 254.97L343.5 266.63L364.57 278.79L398.67 298.48L433.87 318.8L459.23 264.16L459.23 264.16L411.15 271.6Z" id="a82X8sRqBl"></path><path d="M544.84 287.97C544.84 295.57 534.17 301.74 521 301.74C507.83 301.74 497.15 295.57 497.15 287.97C497.15 280.36 507.83 274.2 521 274.2C534.17 274.2 544.84 280.36 544.84 287.97Z" id="aAg9jSBwy"></path><path d="M185.11 355.31C177.36 350.83 178.33 343.01 187.29 337.82C196.27 332.64 268.11 291.16 277.09 285.97C286.05 280.85 299.62 280.24 307.38 284.69C320.73 292.4 427.54 354.06 440.9 361.77C448.65 366.27 447.68 374.09 438.72 379.26C429.74 384.44 357.88 425.93 348.9 431.11C339.94 436.32 326.4 436.87 318.63 432.39C291.93 416.97 198.47 363.02 185.11 355.31Z" id="f2moMHgaOW"></path><path d="M212.58 509.83C210.8 510.86 208.9 511.69 206.94 512.31C205.96 511.91 205 511.44 204.08 510.91C188.96 502.17 67.96 432.32 52.84 423.58C50.75 422.46 48.93 420.89 47.53 418.98C48.59 418.05 49.74 417.23 50.97 416.53C59.95 411.35 131.82 369.86 140.8 364.68C149.76 359.56 163.33 358.94 171.08 363.4C184.44 371.11 291.28 432.79 304.64 440.51C312.32 444.99 311.36 452.81 302.4 457.99C284.44 468.36 221.56 504.65 212.58 509.83Z" id="c3ZZsFTdUO"></path><path d="M138.51 429L146.23 412.37L70.86 424.03L91.94 436.2L126.03 455.89L161.23 476.2L186.59 421.56L186.59 421.56L138.51 429Z" id="b2cOIQVuwo"></path><path d="M272.2 445.38C272.2 452.99 261.53 459.16 248.36 459.16C235.19 459.16 224.51 452.99 224.51 445.38C224.51 437.78 235.19 431.61 248.36 431.61C261.53 431.61 272.2 437.78 272.2 445.38Z" id="a2MQjxgrYw"></path><path d="M556.83 261.4L561.34 258.78L564.04 260.35L559.53 262.96L559.53 262.96L556.83 261.4Z" id="bjHaHmymd"></path><path d="M560.44 263.48L566.76 259.83L569.47 261.4L563.15 265.04L563.15 265.04L560.44 263.48Z" id="bm0eaAFul"></path><path d="M564.04 265.57L573.08 260.35L575.8 261.91L566.76 267.13L566.76 267.13L564.04 265.57Z" id="h1bhzgxZmw"></path><path d="M567.67 267.65L580.31 260.35L583.03 261.91L570.37 269.22L570.37 269.22L567.67 267.65Z" id="e48myIT2p7"></path><path d="M577.91 273.57L586.33 268.69L590.55 271.12L582.12 276L582.12 276L577.91 273.57Z" id="a1XPpjcnI"></path><path d="M583.53 276.81L591.96 271.94L596.17 274.37L587.74 279.24L587.74 279.24L583.53 276.81Z" id="b2NVubNVi"></path><path d="M589.15 280.06L597.58 275.18L601.79 277.63L593.36 282.49L593.36 282.49L589.15 280.06Z" id="b8qxXad9Tn"></path><path d="M257.46 83.94C253.88 81.88 250.62 81.54 248.14 82.66C248.14 82.66 248.14 82.66 248.14 82.66C247.8 82.81 247.47 83 247.16 83.21C246.24 83.72 241.64 86.28 233.37 90.89L243.4 104.97C243.4 164.76 243.4 197.98 243.4 204.63C243.4 213.59 249.7 224.49 257.48 228.95C260.93 230.94 278.18 240.89 309.22 258.81L315.52 275.05L308.92 303.79L323.52 295.67L337.79 275.31L382.59 301.19L384.17 314.62C392.84 309.78 397.67 307.09 398.63 306.55C401.64 305.27 403.56 302.01 403.56 297.07C403.56 285.82 403.56 195.78 403.56 184.53C403.58 175.57 397.3 164.67 389.53 160.19C363.12 144.94 270.67 91.56 257.46 83.94Z" id="a4Td0wmAV4"></path><path d="M242.85 92.05C235.1 87.57 228.77 91.21 228.77 100.17C228.77 111.43 228.77 201.54 228.77 212.81C228.77 221.77 235.07 232.67 242.85 237.13C246.3 239.12 263.55 249.07 294.59 266.99L308.89 303.85L323.19 283.5C354.23 301.43 371.48 311.38 374.92 313.38C382.69 317.86 389 314.22 389 305.26C389 294 389 203.91 389 192.65C388.98 183.69 382.72 172.78 374.92 168.3C348.51 153.05 256.06 99.68 242.85 92.05Z" id="c2CsTIzcQB"></path><path d="M351.53 353.12C351.53 365.69 333.88 375.88 312.1 375.88C290.33 375.88 272.68 365.69 272.68 353.12C272.68 340.55 290.33 330.36 312.1 330.36C333.88 330.36 351.53 340.55 351.53 353.12Z" id="a1yPg0XUGb"></path><path d="M336.53 182.68C346.03 187.73 349.41 199.97 344.07 210.01C343.87 210.39 343.65 210.76 343.43 211.12C349.48 216.29 351.81 224.09 348.58 230.17C348.58 230.17 348.58 230.17 348.58 230.17C344.71 237.45 334.33 239.5 325.39 234.74C321.33 232.59 288.86 215.32 284.8 213.16C275.86 208.41 271.75 198.65 275.62 191.37C275.62 191.37 275.62 191.37 275.62 191.37C279 185.03 287.32 182.66 295.32 185.3C299.64 178.77 307.99 176.32 314.67 179.88C316.14 180.66 317.41 181.67 318.48 182.84C324.05 179.9 330.76 179.61 336.53 182.68Z" id="l1up0KGRaV"></path></defs><g><g><g><use xlink:href="#c4P0jeJY" opacity="1" fill="#d6d8e5" fill-opacity="1"></use><g><use xlink:href="#c4P0jeJY" opacity="1" fill-opacity="0" stroke="#000000" stroke-width="1" stroke-opacity="0"></use></g></g><g><use xlink:href="#b2i1QWY2mO" opacity="1" fill="#b1b4c4" fill-opacity="1"></use><g><use xlink:href="#b2i1QWY2mO" opacity="1" fill-opacity="0" stroke="#000000" stroke-width="1" stroke-opacity="0"></use></g></g><g><use xlink:href="#c6rAU2wIU" opacity="1" fill="#b1b4c4" fill-opacity="1"></use><g><use xlink:href="#c6rAU2wIU" opacity="1" fill-opacity="0" stroke="#000000" stroke-width="1" stroke-opacity="0"></use></g></g><g><use xlink:href="#a8wbu12YcJ" opacity="1" fill="#b1b4c4" fill-opacity="1"></use><g><use xlink:href="#a8wbu12YcJ" opacity="1" fill-opacity="0" stroke="#000000" stroke-width="1" stroke-opacity="0"></use></g></g><g><use xlink:href="#b2simqmFTd" opacity="1" fill="#616e84" fill-opacity="1"></use><g><use xlink:href="#b2simqmFTd" opacity="1" fill-opacity="0" stroke="#000000" stroke-width="1" stroke-opacity="0"></use></g></g><g><use xlink:href="#c1qtIINCR" opacity="1" fill="#757b89" fill-opacity="1"></use><g><use xlink:href="#c1qtIINCR" opacity="1" fill-opacity="0" stroke="#000000" stroke-width="1" stroke-opacity="0"></use></g></g><g><use xlink:href="#b7CHUNUSt" opacity="1" fill="#757b89" fill-opacity="1"></use><g><use xlink:href="#b7CHUNUSt" opacity="1" fill-opacity="0" stroke="#000000" stroke-width="1" stroke-opacity="0"></use></g></g><g><use xlink:href="#i161LwJ0ow" opacity="1" fill="#757b89" fill-opacity="1"></use><g><use xlink:href="#i161LwJ0ow" opacity="1" fill-opacity="0" stroke="#000000" stroke-width="1" stroke-opacity="0"></use></g></g><g><use xlink:href="#gWwaDJxyE" opacity="1" fill="#757b89" fill-opacity="1"></use><g><use xlink:href="#gWwaDJxyE" opacity="1" fill-opacity="0" stroke="#000000" stroke-width="1" stroke-opacity="0"></use></g></g><g><use xlink:href="#aMUV1jfeM" opacity="1" fill="#757b89" fill-opacity="1"></use><g><use xlink:href="#aMUV1jfeM" opacity="1" fill-opacity="0" stroke="#000000" stroke-width="1" stroke-opacity="0"></use></g></g><g><use xlink:href="#bK9AvVugk" opacity="1" fill="#757b89" fill-opacity="1"></use><g><use xlink:href="#bK9AvVugk" opacity="1" fill-opacity="0" stroke="#000000" stroke-width="1" stroke-opacity="0"></use></g></g><g><use xlink:href="#eaEGXtB8L" opacity="1" fill="#757b89" fill-opacity="1"></use><g><use xlink:href="#eaEGXtB8L" opacity="1" fill-opacity="0" stroke="#000000" stroke-width="1" stroke-opacity="0"></use></g></g><g><use xlink:href="#a1VZhxBk6" opacity="1" fill="#757b89" fill-opacity="1"></use><g><use xlink:href="#a1VZhxBk6" opacity="1" fill-opacity="0" stroke="#000000" stroke-width="1" stroke-opacity="0"></use></g></g><g><use xlink:href="#b2BeamsOW" opacity="1" fill="#757b89" fill-opacity="1"></use><g><use xlink:href="#b2BeamsOW" opacity="1" fill-opacity="0" stroke="#000000" stroke-width="1" stroke-opacity="0"></use></g></g><g><use xlink:href="#g4WhS90Ena" opacity="1" fill="#757b89" fill-opacity="1"></use><g><use xlink:href="#g4WhS90Ena" opacity="1" fill-opacity="0" stroke="#000000" stroke-width="1" stroke-opacity="0"></use></g></g><g><use xlink:href="#b1dZZAacbA" opacity="1" fill="#757b89" fill-opacity="1"></use><g><use xlink:href="#b1dZZAacbA" opacity="1" fill-opacity="0" stroke="#000000" stroke-width="1" stroke-opacity="0"></use></g></g><g><use xlink:href="#a584Wxd3Jv" opacity="1" fill="#20232d" fill-opacity="1"></use><g><use xlink:href="#a584Wxd3Jv" opacity="1" fill-opacity="0" stroke="#000000" stroke-width="1" stroke-opacity="0"></use></g></g><g><use xlink:href="#b5hkatEeMQ" opacity="1" fill="#ffffff" fill-opacity="1"></use><g><use xlink:href="#b5hkatEeMQ" opacity="1" fill-opacity="0" stroke="#000000" stroke-width="1" stroke-opacity="0"></use></g></g><g><use xlink:href="#a9HutjtIhI" opacity="1" fill="url(#gradientg5R3hBiVpZ)"></use><g><use xlink:href="#a9HutjtIhI" opacity="1" fill-opacity="0" stroke="#000000" stroke-width="1" stroke-opacity="0"></use></g></g><g><use xlink:href="#bAhNqblhX" opacity="1" fill="#2b303f" fill-opacity="1"></use><g><use xlink:href="#bAhNqblhX" opacity="1" fill-opacity="0" stroke="#000000" stroke-width="1" stroke-opacity="0"></use></g></g><g><use xlink:href="#b22R04TeX0" opacity="1" fill="#ffffff" fill-opacity="1"></use><g><use xlink:href="#b22R04TeX0" opacity="1" fill-opacity="0" stroke="#000000" stroke-width="1" stroke-opacity="0"></use></g></g><g><use xlink:href="#k702Kg7EbQ" opacity="1" fill="#e9eaf2" fill-opacity="1"></use><g><use xlink:href="#k702Kg7EbQ" opacity="1" fill-opacity="0" stroke="#000000" stroke-width="1" stroke-opacity="0"></use></g></g><g><use xlink:href="#a82X8sRqBl" opacity="1" fill="#dadce5" fill-opacity="1"></use><g><use xlink:href="#a82X8sRqBl" opacity="1" fill-opacity="0" stroke="#000000" stroke-width="1" stroke-opacity="0"></use></g></g><g><use xlink:href="#aAg9jSBwy" opacity="1" fill="#dadce5" fill-opacity="1"></use><g><use xlink:href="#aAg9jSBwy" opacity="1" fill-opacity="0" stroke="#000000" stroke-width="1" stroke-opacity="0"></use></g></g><g><use xlink:href="#f2moMHgaOW" opacity="1" fill="#e9eaf2" fill-opacity="1"></use><g><use xlink:href="#f2moMHgaOW" opacity="1" fill-opacity="0" stroke="#000000" stroke-width="1" stroke-opacity="0"></use></g></g><g><use xlink:href="#c3ZZsFTdUO" opacity="1" fill="#e9eaf2" fill-opacity="1"></use><g><use xlink:href="#c3ZZsFTdUO" opacity="1" fill-opacity="0" stroke="#000000" stroke-width="1" stroke-opacity="0"></use></g></g><g><use xlink:href="#b2cOIQVuwo" opacity="1" fill="#dadce5" fill-opacity="1"></use><g><use xlink:href="#b2cOIQVuwo" opacity="1" fill-opacity="0" stroke="#000000" stroke-width="1" stroke-opacity="0"></use></g></g><g><use xlink:href="#a2MQjxgrYw" opacity="1" fill="#dadce5" fill-opacity="1"></use><g><use xlink:href="#a2MQjxgrYw" opacity="1" fill-opacity="0" stroke="#000000" stroke-width="1" stroke-opacity="0"></use></g></g><g><use xlink:href="#bjHaHmymd" opacity="1" fill="#e9eaf2" fill-opacity="1"></use><g><use xlink:href="#bjHaHmymd" opacity="1" fill-opacity="0" stroke="#000000" stroke-width="1" stroke-opacity="0"></use></g></g><g><use xlink:href="#bm0eaAFul" opacity="1" fill="#e9eaf2" fill-opacity="1"></use><g><use xlink:href="#bm0eaAFul" opacity="1" fill-opacity="0" stroke="#000000" stroke-width="1" stroke-opacity="0"></use></g></g><g><use xlink:href="#h1bhzgxZmw" opacity="1" fill="#e9eaf2" fill-opacity="1"></use><g><use xlink:href="#h1bhzgxZmw" opacity="1" fill-opacity="0" stroke="#000000" stroke-width="1" stroke-opacity="0"></use></g></g><g><use xlink:href="#e48myIT2p7" opacity="1" fill="#e9eaf2" fill-opacity="1"></use><g><use xlink:href="#e48myIT2p7" opacity="1" fill-opacity="0" stroke="#000000" stroke-width="1" stroke-opacity="0"></use></g></g><g><use xlink:href="#a1XPpjcnI" opacity="1" fill="#e9eaf2" fill-opacity="1"></use><g><use xlink:href="#a1XPpjcnI" opacity="1" fill-opacity="0" stroke="#000000" stroke-width="1" stroke-opacity="0"></use></g></g><g><use xlink:href="#b2NVubNVi" opacity="1" fill="#e9eaf2" fill-opacity="1"></use><g><use xlink:href="#b2NVubNVi" opacity="1" fill-opacity="0" stroke="#000000" stroke-width="1" stroke-opacity="0"></use></g></g><g><use xlink:href="#b8qxXad9Tn" opacity="1" fill="#e9eaf2" fill-opacity="1"></use><g><use xlink:href="#b8qxXad9Tn" opacity="1" fill-opacity="0" stroke="#000000" stroke-width="1" stroke-opacity="0"></use></g></g><g><use xlink:href="#a4Td0wmAV4" opacity="1" fill="#edeef7" fill-opacity="1"></use><g><use xlink:href="#a4Td0wmAV4" opacity="1" fill-opacity="0" stroke="#000000" stroke-width="1" stroke-opacity="0"></use></g></g><g><use xlink:href="#c2CsTIzcQB" opacity="1" fill="#f8f9ff" fill-opacity="1"></use><g><use xlink:href="#c2CsTIzcQB" opacity="1" fill-opacity="0" stroke="#000000" stroke-width="1" stroke-opacity="0"></use></g></g><g><use xlink:href="#a1yPg0XUGb" opacity="1" fill="#f3c7d4" fill-opacity="1"></use><g><use xlink:href="#a1yPg0XUGb" opacity="1" fill-opacity="0" stroke="#000000" stroke-width="1" stroke-opacity="0"></use></g></g><g><use xlink:href="#l1up0KGRaV" opacity="1" fill="#f65e5e" fill-opacity="1"></use></g></g></g></svg>