<svg xmlns="http://www.w3.org/2000/svg" xmlns:xlink="http://www.w3.org/1999/xlink" xmlns:lucid="lucid" width="1520.83" height="717.79"><g transform="translate(0 0)" lucid:page-tab-id="0_0"><path d="M0 0h1520.83v717.8H0z" fill="#fff"/><path d="M20 204c0-2.2 1.8-4 4-4h272c2.2 0 4 1.8 4 4v325.8c0 2.2-1.8 4-4 4H24c-2.2 0-4-1.8-4-4z" stroke="#adb6c0" fill="#e7ebf0"/><use xlink:href="#a" transform="matrix(1,0,0,1,40,220) translate(0 29.200000000000003)"/><use xlink:href="#b" transform="matrix(1,0,0,1,40,220) translate(54.53333333333333 29.200000000000003)"/><use xlink:href="#c" transform="matrix(1,0,0,1,40,220) translate(69.13333333333333 29.200000000000003)"/><path d="M320 204c0-2.2 1.8-4 4-4h272c2.2 0 4 1.8 4 4v325.8c0 2.2-1.8 4-4 4H324c-2.2 0-4-1.8-4-4z" stroke="#adb6c0" fill="#e7ebf0"/><use xlink:href="#d" transform="matrix(1,0,0,1,340,220) translate(0 29.200000000000003)"/><use xlink:href="#b" transform="matrix(1,0,0,1,340,220) translate(97.13333333333333 29.200000000000003)"/><use xlink:href="#e" transform="matrix(1,0,0,1,340,220) translate(111.73333333333332 29.200000000000003)"/><path d="M620 204c0-2.2 1.8-4 4-4h272c2.2 0 4 1.8 4 4v325.8c0 2.2-1.8 4-4 4H624c-2.2 0-4-1.8-4-4z" stroke="#adb6c0" fill="#e7ebf0"/><use xlink:href="#a" transform="matrix(1,0,0,1,640,220) translate(0 29.200000000000003)"/><use xlink:href="#b" transform="matrix(1,0,0,1,640,220) translate(54.53333333333333 29.200000000000003)"/><use xlink:href="#f" transform="matrix(1,0,0,1,640,220) translate(69.13333333333333 29.200000000000003)"/><path d="M920 204c0-2.2 1.8-4 4-4h272c2.2 0 4 1.8 4 4v325.8c0 2.2-1.8 4-4 4H924c-2.2 0-4-1.8-4-4z" stroke="#adb6c0" fill="#e7ebf0"/><use xlink:href="#g" transform="matrix(1,0,0,1,940,220) translate(0 29.200000000000003)"/><use xlink:href="#h" transform="matrix(1,0,0,1,940,220) translate(57.333333333333336 29.200000000000003)"/><use xlink:href="#i" transform="matrix(1,0,0,1,940,220) translate(111.86666666666667 29.200000000000003)"/><use xlink:href="#j" transform="matrix(1,0,0,1,940,220) translate(126.46666666666667 29.200000000000003)"/><path d="M1220 204c0-2.2 1.8-4 4-4h272c2.2 0 4 1.8 4 4v325.8c0 2.2-1.8 4-4 4h-272c-2.2 0-4-1.8-4-4z" stroke="#adb6c0" fill="#e7ebf0"/><use xlink:href="#k" transform="matrix(1,0,0,1,1240,220) translate(0 29.200000000000003)"/><use xlink:href="#b" transform="matrix(1,0,0,1,1240,220) translate(59.8 29.200000000000003)"/><use xlink:href="#l" transform="matrix(1,0,0,1,1240,220) translate(74.4 29.200000000000003)"/><use xlink:href="#m" transform="matrix(1,0,0,1,1240,220) translate(143.73333333333335 29.200000000000003)"/><g filter="url(#n)"><path d="M40 273c0-2.2 1.8-4 4-4h232c2.2 0 4 1.8 4 4v76.8c0 2.2-1.8 4-4 4H44c-2.2 0-4-1.8-4-4z" fill="#fff"/><path d="M298 311.4c0 9.94-8.06 18-18 18s-18-8.06-18-18 8.06-18 18-18 18 8.06 18 18z" fill="#32a5df"/><path d="M282 317.4v-9h-6v4h2v5h-2v3h8v-3h-2zm-2.88-15h1.75c.63 0 1.13.5 1.13 1.13v1.75c0 .62-.5 1.12-1.13 1.12h-1.75c-.62 0-1.12-.5-1.12-1.13v-1.75c0-.62.5-1.12 1.13-1.12z" fill="#fff"/><use xlink:href="#o" transform="matrix(1,0,0,1,50,279) translate(0 14.4)"/><use xlink:href="#p" transform="matrix(1,0,0,1,50,279) translate(15 14.4)"/><use xlink:href="#q" transform="matrix(1,0,0,1,50,279) translate(67.9 14.4)"/><use xlink:href="#r" transform="matrix(1,0,0,1,50,279) translate(98.85000000000001 14.4)"/><use xlink:href="#s" transform="matrix(1,0,0,1,50,279) translate(178.45 14.4)"/><use xlink:href="#t" transform="matrix(1,0,0,1,50,279) translate(0 36)"/><use xlink:href="#u" transform="matrix(1,0,0,1,50,279) translate(39.95 36)"/><use xlink:href="#v" transform="matrix(1,0,0,1,50,279) translate(59.95 36)"/><use xlink:href="#w" transform="matrix(1,0,0,1,50,279) translate(104.9 36)"/><use xlink:href="#x" transform="matrix(1,0,0,1,50,279) translate(143.9 36)"/><use xlink:href="#y" transform="matrix(1,0,0,1,50,279) translate(0 57.6)"/></g><g filter="url(#n)"><path d="M40 367.8c0-2.2 1.8-4 4-4h232c2.2 0 4 1.8 4 4v76.8c0 2.2-1.8 4-4 4H44c-2.2 0-4-1.8-4-4z" fill="#fff"/><path d="M298 406.2c0 9.94-8.06 18-18 18s-18-8.06-18-18 8.06-18 18-18 18 8.06 18 18z" fill="#78b740"/><path d="M273.37 403.72l-2.74 2.9 6.72 6.32 12.02-11.28-2.74-2.92-9.28 8.72-3.98-3.74z" fill="#fff"/><use xlink:href="#z" transform="matrix(1,0,0,1,50,373.8) translate(0 14.4)"/><use xlink:href="#A" transform="matrix(1,0,0,1,50,373.8) translate(42.900000000000006 14.4)"/><use xlink:href="#B" transform="matrix(1,0,0,1,50,373.8) translate(0 36)"/><use xlink:href="#C" transform="matrix(1,0,0,1,50,373.8) translate(106.9 36)"/><use xlink:href="#D" transform="matrix(1,0,0,1,50,373.8) translate(185.8 36)"/><use xlink:href="#E" transform="matrix(1,0,0,1,50,373.8) translate(0 57.6)"/><use xlink:href="#q" transform="matrix(1,0,0,1,50,373.8) translate(44 57.6)"/><use xlink:href="#F" transform="matrix(1,0,0,1,50,373.8) translate(74.95 57.6)"/></g><g filter="url(#G)"><path d="M340 273c0-2.2 1.8-4 4-4h232c2.2 0 4 1.8 4 4v62c0 2.2-1.8 4-4 4H344c-2.2 0-4-1.8-4-4z" fill="#fff"/><path d="M598 304c0 9.94-8.06 18-18 18s-18-8.06-18-18 8.06-18 18-18 18 8.06 18 18z" fill="#666"/><path d="M580 320c8.84 0 16-7.16 16-16s-7.16-16-16-16v32z" fill="#32a5df"/><use xlink:href="#H" transform="matrix(1,0,0,1,350,279) translate(0 14.4)"/><use xlink:href="#u" transform="matrix(1,0,0,1,350,279) translate(25 14.4)"/><use xlink:href="#I" transform="matrix(1,0,0,1,350,279) translate(45 14.4)"/><use xlink:href="#J" transform="matrix(1,0,0,1,350,279) translate(70 14.4)"/><use xlink:href="#K" transform="matrix(1,0,0,1,350,279) translate(127.9 14.4)"/><use xlink:href="#L" transform="matrix(1,0,0,1,350,279) translate(152.9 14.4)"/><use xlink:href="#M" transform="matrix(1,0,0,1,350,279) translate(0 36)"/></g><g filter="url(#G)"><path d="M340 353c0-2.2 1.8-4 4-4h232c2.2 0 4 1.8 4 4v62c0 2.2-1.8 4-4 4H344c-2.2 0-4-1.8-4-4z" fill="#fff"/><path d="M578 369.07c.82-1.65 3.18-1.65 4 0l13.92 27.67c.75 1.5-.34 3.26-2 3.26h-27.83c-1.7 0-2.77-1.76-2.02-3.26l13.9-27.67z" fill="#fdc51f"/><path d="M582 378h-4v12h4v-12zm-2.88 14c-.62 0-1.12.5-1.12 1.13v1.75c0 .62.5 1.12 1.13 1.12h1.75c.62 0 1.12-.5 1.12-1.13v-1.75c0-.62-.5-1.12-1.13-1.12h-1.75z" fill="#fff"/><use xlink:href="#N" transform="matrix(1,0,0,1,350,359) translate(0 14.4)"/><use xlink:href="#O" transform="matrix(1,0,0,1,350,359) translate(47.85 14.4)"/><use xlink:href="#P" transform="matrix(1,0,0,1,350,359) translate(121.80000000000001 14.4)"/><use xlink:href="#Q" transform="matrix(1,0,0,1,350,359) translate(146.8 14.4)"/><use xlink:href="#R" transform="matrix(1,0,0,1,350,359) translate(0 36)"/><use xlink:href="#S" transform="matrix(1,0,0,1,350,359) translate(20.95 36)"/><use xlink:href="#T" transform="matrix(1,0,0,1,350,359) translate(86.95 36)"/></g><g filter="url(#n)"><path d="M340 433c0-2.2 1.8-4 4-4h232c2.2 0 4 1.8 4 4v76.8c0 2.2-1.8 4-4 4H344c-2.2 0-4-1.8-4-4z" fill="#fff"/><path d="M598 471.4c0 9.94-8.06 18-18 18s-18-8.06-18-18 8.06-18 18-18 18 8.06 18 18z" fill="#78b740"/><path d="M573.37 468.92l-2.74 2.9 6.72 6.32 12.02-11.28-2.74-2.92-9.28 8.72-3.98-3.74z" fill="#fff"/><use xlink:href="#z" transform="matrix(1,0,0,1,350,439) translate(0 14.4)"/><use xlink:href="#A" transform="matrix(1,0,0,1,350,439) translate(42.900000000000006 14.4)"/><use xlink:href="#B" transform="matrix(1,0,0,1,350,439) translate(0 36)"/><use xlink:href="#C" transform="matrix(1,0,0,1,350,439) translate(106.9 36)"/><use xlink:href="#D" transform="matrix(1,0,0,1,350,439) translate(185.8 36)"/><use xlink:href="#U" transform="matrix(1,0,0,1,350,439) translate(0 57.6)"/><use xlink:href="#q" transform="matrix(1,0,0,1,350,439) translate(47 57.6)"/><use xlink:href="#F" transform="matrix(1,0,0,1,350,439) translate(77.95 57.6)"/></g><g filter="url(#G)"><path d="M640 273c0-2.2 1.8-4 4-4h232c2.2 0 4 1.8 4 4v62c0 2.2-1.8 4-4 4H644c-2.2 0-4-1.8-4-4z" fill="#fff"/><path d="M873 295h16c4.97 0 9 4.03 9 9s-4.03 9-9 9h-16c-4.97 0-9-4.03-9-9s4.03-9 9-9z" fill="#989898"/><path d="M873 297c-3.87 0-7 3.13-7 7s3.13 7 7 7h16c3.87 0 7-3.13 7-7s-3.13-7-7-7h-16z" fill="#e4e4e4"/><path d="M874 316c6.63 0 12-5.37 12-12s-5.37-12-12-12-12 5.37-12 12 5.37 12 12 12z" fill="#cb2b35"/><use xlink:href="#V" transform="matrix(1,0,0,1,650,279) translate(0 14.4)"/><use xlink:href="#W" transform="matrix(1,0,0,1,650,279) translate(35.85 14.4)"/><use xlink:href="#X" transform="matrix(1,0,0,1,650,279) translate(97.80000000000001 14.4)"/><use xlink:href="#Y" transform="matrix(1,0,0,1,650,279) translate(121.80000000000001 14.4)"/><use xlink:href="#p" transform="matrix(1,0,0,1,650,279) translate(136.8 14.4)"/><use xlink:href="#Z" transform="matrix(1,0,0,1,650,279) translate(189.70000000000002 14.4)"/><use xlink:href="#aa" transform="matrix(1,0,0,1,650,279) translate(0 36)"/><use xlink:href="#ab" transform="matrix(1,0,0,1,650,279) translate(51.900000000000006 36)"/></g><g filter="url(#n)"><path d="M640 353c0-2.2 1.8-4 4-4h232c2.2 0 4 1.8 4 4v76.8c0 2.2-1.8 4-4 4H644c-2.2 0-4-1.8-4-4z" fill="#fff"/><path d="M898 391.4c0 9.94-8.06 18-18 18s-18-8.06-18-18 8.06-18 18-18 18 8.06 18 18z" fill="#78b740"/><path d="M873.37 388.92l-2.74 2.9 6.72 6.32 12.02-11.28-2.74-2.92-9.28 8.72-3.98-3.74z" fill="#fff"/><use xlink:href="#z" transform="matrix(1,0,0,1,650,359) translate(0 14.4)"/><use xlink:href="#A" transform="matrix(1,0,0,1,650,359) translate(42.900000000000006 14.4)"/><use xlink:href="#B" transform="matrix(1,0,0,1,650,359) translate(0 36)"/><use xlink:href="#C" transform="matrix(1,0,0,1,650,359) translate(106.9 36)"/><use xlink:href="#D" transform="matrix(1,0,0,1,650,359) translate(185.8 36)"/><use xlink:href="#ac" transform="matrix(1,0,0,1,650,359) translate(0 57.6)"/><use xlink:href="#q" transform="matrix(1,0,0,1,650,359) translate(47 57.6)"/><use xlink:href="#F" transform="matrix(1,0,0,1,650,359) translate(77.95 57.6)"/></g><g filter="url(#G)"><path d="M940 273c0-2.2 1.8-4 4-4h232c2.2 0 4 1.8 4 4v62c0 2.2-1.8 4-4 4H944c-2.2 0-4-1.8-4-4z" fill="#fff"/><path d="M1198 304c0 9.94-8.06 18-18 18s-18-8.06-18-18 8.06-18 18-18 18 8.06 18 18z" fill="#cb2b35"/><path d="M1175.5 296.66l4.5 4.46 4.5-4.46 2.84 2.85-4.46 4.5 4.46 4.5-2.85 2.84-4.5-4.46-4.5 4.46-2.84-2.85 4.46-4.5-4.46-4.5z" fill="#fff"/><use xlink:href="#ad" transform="matrix(1,0,0,1,950,279) translate(0 14.4)"/><use xlink:href="#ae" transform="matrix(1,0,0,1,950,279) translate(70.95 14.4)"/><use xlink:href="#af" transform="matrix(1,0,0,1,950,279) translate(134.95 14.4)"/></g><g filter="url(#n)"><path d="M940 353c0-2.2 1.8-4 4-4h232c2.2 0 4 1.8 4 4v76.8c0 2.2-1.8 4-4 4H944c-2.2 0-4-1.8-4-4z" fill="#fff"/><path d="M1198 391.4c0 9.94-8.06 18-18 18s-18-8.06-18-18 8.06-18 18-18 18 8.06 18 18z" fill="#78b740"/><path d="M1173.37 388.92l-2.74 2.9 6.72 6.32 12.02-11.28-2.74-2.92-9.28 8.72-3.98-3.74z" fill="#fff"/><use xlink:href="#z" transform="matrix(1,0,0,1,950,359) translate(0 14.4)"/><use xlink:href="#A" transform="matrix(1,0,0,1,950,359) translate(42.900000000000006 14.4)"/><use xlink:href="#B" transform="matrix(1,0,0,1,950,359) translate(0 36)"/><use xlink:href="#C" transform="matrix(1,0,0,1,950,359) translate(106.9 36)"/><use xlink:href="#D" transform="matrix(1,0,0,1,950,359) translate(185.8 36)"/><use xlink:href="#ag" transform="matrix(1,0,0,1,950,359) translate(0 57.6)"/><use xlink:href="#q" transform="matrix(1,0,0,1,950,359) translate(37 57.6)"/><use xlink:href="#F" transform="matrix(1,0,0,1,950,359) translate(67.95 57.6)"/></g><g filter="url(#n)"><path d="M1240 273c0-2.2 1.8-4 4-4h232c2.2 0 4 1.8 4 4v76.8c0 2.2-1.8 4-4 4h-232c-2.2 0-4-1.8-4-4z" fill="#fff"/><path d="M1487 310.43V295.4h-14v15.03h-10l16.97 16.97 16.97-16.97H1487z" fill="#cb2b35"/><use xlink:href="#ah" transform="matrix(1,0,0,1,1250,279) translate(0 14.4)"/><use xlink:href="#ai" transform="matrix(1,0,0,1,1250,279) translate(49.95 14.4)"/><use xlink:href="#aj" transform="matrix(1,0,0,1,1250,279) translate(114.9 14.4)"/><use xlink:href="#ak" transform="matrix(1,0,0,1,1250,279) translate(165.8 14.4)"/><use xlink:href="#al" transform="matrix(1,0,0,1,1250,279) translate(0 36)"/><use xlink:href="#am" transform="matrix(1,0,0,1,1250,279) translate(45 36)"/><use xlink:href="#an" transform="matrix(1,0,0,1,1250,279) translate(55.95 36)"/><use xlink:href="#ao" transform="matrix(1,0,0,1,1250,279) translate(116.95 36)"/><use xlink:href="#ap" transform="matrix(1,0,0,1,1250,279) translate(0 57.6)"/><use xlink:href="#aq" transform="matrix(1,0,0,1,1250,279) translate(96.9 57.6)"/></g><g filter="url(#n)"><path d="M1240 367.8c0-2.2 1.8-4 4-4h232c2.2 0 4 1.8 4 4v76.8c0 2.2-1.8 4-4 4h-232c-2.2 0-4-1.8-4-4z" fill="#fff"/><path d="M1498 406.2c0 9.94-8.06 18-18 18s-18-8.06-18-18 8.06-18 18-18 18 8.06 18 18z" fill="#78b740"/><path d="M1473.37 403.72l-2.74 2.9 6.72 6.32 12.02-11.28-2.74-2.92-9.28 8.72-3.98-3.74z" fill="#fff"/><use xlink:href="#z" transform="matrix(1,0,0,1,1250,373.8) translate(0 14.4)"/><use xlink:href="#A" transform="matrix(1,0,0,1,1250,373.8) translate(42.900000000000006 14.4)"/><use xlink:href="#B" transform="matrix(1,0,0,1,1250,373.8) translate(0 36)"/><use xlink:href="#C" transform="matrix(1,0,0,1,1250,373.8) translate(106.9 36)"/><use xlink:href="#D" transform="matrix(1,0,0,1,1250,373.8) translate(185.8 36)"/><use xlink:href="#ar" transform="matrix(1,0,0,1,1250,373.8) translate(0 57.6)"/><use xlink:href="#q" transform="matrix(1,0,0,1,1250,373.8) translate(57 57.6)"/><use xlink:href="#F" transform="matrix(1,0,0,1,1250,373.8) translate(87.95 57.6)"/></g><path d="M20.4 40h1480v60H20.4z" stroke="#000" stroke-opacity="0" stroke-width="2" fill="#fff" fill-opacity="0"/><use xlink:href="#as" transform="matrix(1,0,0,1,25.41426643632542,45) translate(470.0027777777781 33.52499999999996)"/><use xlink:href="#at" transform="matrix(1,0,0,1,25.41426643632542,45) translate(615.2472222222224 33.52499999999996)"/><use xlink:href="#au" transform="matrix(1,0,0,1,25.41426643632542,45) translate(731.1472222222222 33.52499999999996)"/><path d="M460.83 70.07h600v79.86h-600z" stroke="#000" stroke-opacity="0" stroke-width="2" fill="#fff" fill-opacity="0"/><g><use xlink:href="#av" transform="matrix(1,0,0,1,465.8285328726509,75.06666666666668) translate(42.94629629629637 40.78888888888888)"/><use xlink:href="#aw" transform="matrix(1,0,0,1,465.8285328726509,75.06666666666668) translate(165.61728395061732 40.78888888888888)"/><use xlink:href="#ax" transform="matrix(1,0,0,1,465.8285328726509,75.06666666666668) translate(222.22222222222223 40.78888888888888)"/><use xlink:href="#ay" transform="matrix(1,0,0,1,465.8285328726509,75.06666666666668) translate(291.7654320987654 40.78888888888888)"/><use xlink:href="#az" transform="matrix(1,0,0,1,465.8285328726509,75.06666666666668) translate(351.44320987654316 40.78888888888888)"/><use xlink:href="#aA" transform="matrix(1,0,0,1,465.8285328726509,75.06666666666668) translate(483.9796296296296 40.78888888888888)"/></g><path d="M20 506c0-3.3 2.7-6 6-6h268c3.3 0 6 2.7 6 6v128c0 3.3-2.7 6-6 6H26c-3.3 0-6-2.7-6-6z" stroke="#000" stroke-opacity="0" stroke-width="3" fill="#fff" fill-opacity="0"/><g><use xlink:href="#aB" transform="matrix(1,0,0,1,25,505) translate(92.58024691358037 73.13194444444437)"/></g><path d="M320 506c0-3.3 2.7-6 6-6h268c3.3 0 6 2.7 6 6v128c0 3.3-2.7 6-6 6H326c-3.3 0-6-2.7-6-6z" stroke="#000" stroke-opacity="0" stroke-width="3" fill="#fff" fill-opacity="0"/><g><use xlink:href="#aC" transform="matrix(1,0,0,1,325,505) translate(92.58024691358037 73.13194444444437)"/></g><path d="M620 506c0-3.3 2.7-6 6-6h268c3.3 0 6 2.7 6 6v128c0 3.3-2.7 6-6 6H626c-3.3 0-6-2.7-6-6z" stroke="#000" stroke-opacity="0" stroke-width="3" fill="#fff" fill-opacity="0"/><g><use xlink:href="#aD" transform="matrix(1,0,0,1,625,505) translate(92.5802469135804 73.13194444444434)"/></g><path d="M1220 506c0-3.3 2.7-6 6-6h268c3.3 0 6 2.7 6 6v128c0 3.3-2.7 6-6 6h-268c-3.3 0-6-2.7-6-6z" stroke="#000" stroke-opacity="0" stroke-width="3" fill="#fff" fill-opacity="0"/><g><use xlink:href="#aE" transform="matrix(1,0,0,1,1225,505) translate(75.7901234567903 73.13194444444437)"/></g><path d="M920 506c0-3.3 2.7-6 6-6h268c3.3 0 6 2.7 6 6v128c0 3.3-2.7 6-6 6H926c-3.3 0-6-2.7-6-6z" stroke="#000" stroke-opacity="0" stroke-width="3" fill="#fff" fill-opacity="0"/><g><use xlink:href="#aF" transform="matrix(1,0,0,1,925,505) translate(102.45679012345688 73.13194444444437)"/></g><path d="M0 626c0-3.3 2.7-6 6-6h1488c3.3 0 6 2.7 6 6v43.43c0 3.3-2.7 6-6 6H6c-3.3 0-6-2.7-6-6z" stroke="#000" stroke-opacity="0" stroke-width="3" fill="#fff" fill-opacity="0"/><g><use xlink:href="#aG" transform="matrix(1,0,0,1,5,625) translate(543.0092592592603 29.54166666666653)"/><use xlink:href="#aH" transform="matrix(1,0,0,1,5,625) translate(659.2129629629634 29.54166666666653)"/><use xlink:href="#aI" transform="matrix(1,0,0,1,5,625) translate(799.6759259259256 29.54166666666653)"/></g><defs><path d="M24 0v-248h52v208h133V0H24" id="aJ"/><path d="M110-194c64 0 96 36 96 99 0 64-35 99-97 99-61 0-95-36-95-99 0-62 34-99 96-99zm-1 164c35 0 45-28 45-65 0-40-10-65-43-65-34 0-45 26-45 65 0 36 10 65 43 65" id="aK"/><path d="M231 0h-52l-39-155L100 0H48L-1-190h46L77-45c9-52 24-97 36-145h53l37 145 32-145h46" id="aL"/><g id="a"><use transform="matrix(0.06666666666666667,0,0,0.06666666666666667,0,0)" xlink:href="#aJ"/><use transform="matrix(0.06666666666666667,0,0,0.06666666666666667,14.6,0)" xlink:href="#aK"/><use transform="matrix(0.06666666666666667,0,0,0.06666666666666667,29.2,0)" xlink:href="#aL"/></g><path d="M14-72v-43h91v43H14" id="aM"/><use transform="matrix(0.06666666666666667,0,0,0.06666666666666667,0,0)" xlink:href="#aM" id="b"/><path d="M275 0h-61l-44-196L126 0H64L0-248h53L97-49l45-199h58l43 199 44-199h52" id="aN"/><path d="M185-48c-13 30-37 53-82 52C43 2 14-33 14-96s30-98 90-98c62 0 83 45 84 108H66c0 31 8 55 39 56 18 0 30-7 34-22zm-45-69c5-46-57-63-70-21-2 6-4 13-4 21h74" id="aO"/><path d="M147 0L96-86 75-71V0H25v-261h50v150l67-79h53l-66 74L201 0h-54" id="aP"/><path d="M88-194c31-1 46 15 58 34l-1-101h50l1 261h-48c-2-10 0-23-3-31C134-8 116 4 84 4 32 4 16-41 15-95c0-56 19-97 73-99zm17 164c33 0 40-30 41-66 1-37-9-64-41-64s-38 30-39 65c0 43 13 65 39 65" id="aQ"/><path d="M133-34C117-15 103 5 69 4 32 3 11-16 11-54c-1-60 55-63 116-61 1-26-3-47-28-47-18 1-26 9-28 27l-52-2c7-38 36-58 82-57s74 22 75 68l1 82c-1 14 12 18 25 15v27c-30 8-71 5-69-32zm-48 3c29 0 43-24 42-57-32 0-66-3-65 30 0 17 8 27 23 27" id="aR"/><path d="M123 10C108 53 80 86 19 72V37c35 8 53-11 59-39L3-190h52l48 148c12-52 28-100 44-148h51" id="aS"/><path d="M137-138c1-29-70-34-71-4 15 46 118 7 119 86 1 83-164 76-172 9l43-7c4 19 20 25 44 25 33 8 57-30 24-41C81-84 22-81 20-136c-2-80 154-74 161-7" id="aT"/><g id="c"><use transform="matrix(0.06666666666666667,0,0,0.06666666666666667,0,0)" xlink:href="#aN"/><use transform="matrix(0.06666666666666667,0,0,0.06666666666666667,22.133333333333336,0)" xlink:href="#aO"/><use transform="matrix(0.06666666666666667,0,0,0.06666666666666667,35.46666666666667,0)" xlink:href="#aO"/><use transform="matrix(0.06666666666666667,0,0,0.06666666666666667,48.800000000000004,0)" xlink:href="#aP"/><use transform="matrix(0.06666666666666667,0,0,0.06666666666666667,62.13333333333334,0)" xlink:href="#aQ"/><use transform="matrix(0.06666666666666667,0,0,0.06666666666666667,76.73333333333333,0)" xlink:href="#aR"/><use transform="matrix(0.06666666666666667,0,0,0.06666666666666667,90.06666666666666,0)" xlink:href="#aS"/><use transform="matrix(0.06666666666666667,0,0,0.06666666666666667,103.39999999999999,0)" xlink:href="#aT"/></g><path d="M230 0l2-204L168 0h-37L68-204 70 0H24v-248h70l56 185 57-185h69V0h-46" id="aU"/><path d="M25-224v-37h50v37H25zM25 0v-190h50V0H25" id="aV"/><path d="M85 4C-2 5 27-109 22-190h50c7 57-23 150 33 157 60-5 35-97 40-157h50l1 190h-47c-2-12 1-28-3-38-12 25-28 42-61 42" id="aW"/><path d="M220-157c-53 9-28 100-34 157h-49v-107c1-27-5-49-29-50C55-147 81-57 75 0H25l-1-190h47c2 12-1 28 3 38 10-53 101-56 108 0 13-22 24-43 59-42 82 1 51 116 57 194h-49v-107c-1-25-5-48-29-50" id="aX"/><g id="d"><use transform="matrix(0.06666666666666667,0,0,0.06666666666666667,0,0)" xlink:href="#aU"/><use transform="matrix(0.06666666666666667,0,0,0.06666666666666667,19.933333333333334,0)" xlink:href="#aO"/><use transform="matrix(0.06666666666666667,0,0,0.06666666666666667,33.266666666666666,0)" xlink:href="#aQ"/><use transform="matrix(0.06666666666666667,0,0,0.06666666666666667,47.86666666666667,0)" xlink:href="#aV"/><use transform="matrix(0.06666666666666667,0,0,0.06666666666666667,54.53333333333333,0)" xlink:href="#aW"/><use transform="matrix(0.06666666666666667,0,0,0.06666666666666667,69.13333333333333,0)" xlink:href="#aX"/></g><path d="M135-194c87-1 58 113 63 194h-50c-7-57 23-157-34-157-59 0-34 97-39 157H25l-1-190h47c2 12-1 28 3 38 12-26 28-41 61-42" id="aY"/><g id="e"><use transform="matrix(0.06666666666666667,0,0,0.06666666666666667,0,0)" xlink:href="#aN"/><use transform="matrix(0.06666666666666667,0,0,0.06666666666666667,22.133333333333336,0)" xlink:href="#aO"/><use transform="matrix(0.06666666666666667,0,0,0.06666666666666667,35.46666666666667,0)" xlink:href="#aO"/><use transform="matrix(0.06666666666666667,0,0,0.06666666666666667,48.800000000000004,0)" xlink:href="#aP"/><use transform="matrix(0.06666666666666667,0,0,0.06666666666666667,62.13333333333334,0)" xlink:href="#aO"/><use transform="matrix(0.06666666666666667,0,0,0.06666666666666667,75.46666666666667,0)" xlink:href="#aY"/><use transform="matrix(0.06666666666666667,0,0,0.06666666666666667,90.06666666666666,0)" xlink:href="#aQ"/><use transform="matrix(0.06666666666666667,0,0,0.06666666666666667,104.66666666666664,0)" xlink:href="#aT"/></g><path d="M186 0v-106H76V0H24v-248h52v99h110v-99h50V0h-50" id="aZ"/><path d="M25 0v-261h50V0H25" id="ba"/><g id="f"><use transform="matrix(0.06666666666666667,0,0,0.06666666666666667,0,0)" xlink:href="#aZ"/><use transform="matrix(0.06666666666666667,0,0,0.06666666666666667,17.266666666666666,0)" xlink:href="#aK"/><use transform="matrix(0.06666666666666667,0,0,0.06666666666666667,31.866666666666667,0)" xlink:href="#ba"/><use transform="matrix(0.06666666666666667,0,0,0.06666666666666667,38.53333333333333,0)" xlink:href="#aV"/><use transform="matrix(0.06666666666666667,0,0,0.06666666666666667,45.2,0)" xlink:href="#aQ"/><use transform="matrix(0.06666666666666667,0,0,0.06666666666666667,59.8,0)" xlink:href="#aR"/><use transform="matrix(0.06666666666666667,0,0,0.06666666666666667,73.13333333333333,0)" xlink:href="#aS"/><use transform="matrix(0.06666666666666667,0,0,0.06666666666666667,86.46666666666665,0)" xlink:href="#aT"/></g><path d="M147 0H94L2-248h55l64 206c17-72 42-137 63-206h54" id="bb"/><path d="M135-150c-39-12-60 13-60 57V0H25l-1-190h47c2 13-1 29 3 40 6-28 27-53 61-41v41" id="bc"/><g id="g"><use transform="matrix(0.06666666666666667,0,0,0.06666666666666667,0,0)" xlink:href="#bb"/><use transform="matrix(0.06666666666666667,0,0,0.06666666666666667,14.666666666666666,0)" xlink:href="#aO"/><use transform="matrix(0.06666666666666667,0,0,0.06666666666666667,28,0)" xlink:href="#bc"/><use transform="matrix(0.06666666666666667,0,0,0.06666666666666667,37.333333333333336,0)" xlink:href="#aS"/></g><g id="h"><use transform="matrix(0.06666666666666667,0,0,0.06666666666666667,0,0)" xlink:href="#aJ"/><use transform="matrix(0.06666666666666667,0,0,0.06666666666666667,14.6,0)" xlink:href="#aK"/><use transform="matrix(0.06666666666666667,0,0,0.06666666666666667,29.2,0)" xlink:href="#aL"/></g><use transform="matrix(0.06666666666666667,0,0,0.06666666666666667,0,0)" xlink:href="#aM" id="i"/><path d="M24-248c93 1 206-16 204 79-1 75-69 88-152 82V0H24v-248zm52 121c47 0 100 7 100-41 0-47-54-39-100-39v80" id="bd"/><g id="j"><use transform="matrix(0.06666666666666667,0,0,0.06666666666666667,0,0)" xlink:href="#bd"/><use transform="matrix(0.06666666666666667,0,0,0.06666666666666667,16,0)" xlink:href="#ba"/><use transform="matrix(0.06666666666666667,0,0,0.06666666666666667,22.666666666666668,0)" xlink:href="#aR"/><use transform="matrix(0.06666666666666667,0,0,0.06666666666666667,36,0)" xlink:href="#aY"/><use transform="matrix(0.06666666666666667,0,0,0.06666666666666667,50.6,0)" xlink:href="#aY"/><use transform="matrix(0.06666666666666667,0,0,0.06666666666666667,65.2,0)" xlink:href="#aO"/><use transform="matrix(0.06666666666666667,0,0,0.06666666666666667,78.53333333333333,0)" xlink:href="#aQ"/></g><path d="M195-6C206 82 75 100 31 46c-4-6-6-13-8-21l49-6c3 16 16 24 34 25 40 0 42-37 40-79-11 22-30 35-61 35-53 0-70-43-70-97 0-56 18-96 73-97 30 0 46 14 59 34l2-30h47zm-90-29c32 0 41-27 41-63 0-35-9-62-40-62-32 0-39 29-40 63 0 36 9 62 39 62" id="be"/><path d="M114-157C55-157 80-60 75 0H25v-261h50l-1 109c12-26 28-41 61-42 86-1 58 113 63 194h-50c-7-57 23-157-34-157" id="bf"/><g id="k"><use transform="matrix(0.06666666666666667,0,0,0.06666666666666667,0,0)" xlink:href="#aZ"/><use transform="matrix(0.06666666666666667,0,0,0.06666666666666667,17.266666666666666,0)" xlink:href="#aV"/><use transform="matrix(0.06666666666666667,0,0,0.06666666666666667,23.933333333333334,0)" xlink:href="#be"/><use transform="matrix(0.06666666666666667,0,0,0.06666666666666667,38.53333333333333,0)" xlink:href="#bf"/></g><path d="M169-182c-1-43-94-46-97-3 18 66 151 10 154 114 3 95-165 93-204 36-6-8-10-19-12-30l50-8c3 46 112 56 116 5-17-69-150-10-154-114-4-87 153-88 188-35 5 8 8 18 10 28" id="bg"/><path d="M190-63c-7 42-38 67-86 67-59 0-84-38-90-98-12-110 154-137 174-36l-49 2c-2-19-15-32-35-32-30 0-35 28-38 64-6 74 65 87 74 30" id="bh"/><g id="l"><use transform="matrix(0.06666666666666667,0,0,0.06666666666666667,0,0)" xlink:href="#bg"/><use transform="matrix(0.06666666666666667,0,0,0.06666666666666667,16,0)" xlink:href="#bh"/><use transform="matrix(0.06666666666666667,0,0,0.06666666666666667,29.333333333333336,0)" xlink:href="#aR"/><use transform="matrix(0.06666666666666667,0,0,0.06666666666666667,42.66666666666667,0)" xlink:href="#ba"/><use transform="matrix(0.06666666666666667,0,0,0.06666666666666667,49.333333333333336,0)" xlink:href="#aO"/></g><path d="M24-248c120-7 223 5 221 122C244-46 201 0 124 0H24v-248zM76-40c74 7 117-18 117-86 0-67-45-88-117-82v168" id="bi"/><g id="m"><use transform="matrix(0.06666666666666667,0,0,0.06666666666666667,0,0)" xlink:href="#bi"/><use transform="matrix(0.06666666666666667,0,0,0.06666666666666667,17.266666666666666,0)" xlink:href="#aK"/><use transform="matrix(0.06666666666666667,0,0,0.06666666666666667,31.866666666666667,0)" xlink:href="#aL"/><use transform="matrix(0.06666666666666667,0,0,0.06666666666666667,50.53333333333333,0)" xlink:href="#aY"/></g><path d="M101-251c82-7 93 87 43 132L82-64C71-53 59-42 53-27h129V0H18c2-99 128-94 128-182 0-28-16-43-45-43s-46 15-49 41l-32-3c6-41 34-60 81-64" id="bj"/><use transform="matrix(0.05,0,0,0.05,0,0)" xlink:href="#bj" id="o"/><path d="M197 0v-115H63V0H30v-248h33v105h134v-105h34V0h-34" id="bk"/><path d="M100-194c62-1 85 37 85 99 1 63-27 99-86 99S16-35 15-95c0-66 28-99 85-99zM99-20c44 1 53-31 53-75 0-43-8-75-51-75s-53 32-53 75 10 74 51 75" id="bl"/><path d="M84 4C-5 8 30-112 23-190h32v120c0 31 7 50 39 49 72-2 45-101 50-169h31l1 190h-30c-1-10 1-25-2-33-11 22-28 36-60 37" id="bm"/><path d="M114-163C36-179 61-72 57 0H25l-1-190h30c1 12-1 29 2 39 6-27 23-49 58-41v29" id="bn"/><path d="M135-143c-3-34-86-38-87 0 15 53 115 12 119 90S17 21 10-45l28-5c4 36 97 45 98 0-10-56-113-15-118-90-4-57 82-63 122-42 12 7 21 19 24 35" id="bo"/><g id="p"><use transform="matrix(0.05,0,0,0.05,0,0)" xlink:href="#bk"/><use transform="matrix(0.05,0,0,0.05,12.950000000000001,0)" xlink:href="#bl"/><use transform="matrix(0.05,0,0,0.05,22.950000000000003,0)" xlink:href="#bm"/><use transform="matrix(0.05,0,0,0.05,32.95,0)" xlink:href="#bn"/><use transform="matrix(0.05,0,0,0.05,38.900000000000006,0)" xlink:href="#bo"/></g><path d="M115-194c55 1 70 41 70 98S169 2 115 4C84 4 66-9 55-30l1 105H24l-1-265h31l2 30c10-21 28-34 59-34zm-8 174c40 0 45-34 45-75s-6-73-45-74c-42 0-51 32-51 76 0 43 10 73 51 73" id="bp"/><path d="M100-194c63 0 86 42 84 106H49c0 40 14 67 53 68 26 1 43-12 49-29l28 8c-11 28-37 45-77 45C44 4 14-33 15-96c1-61 26-98 85-98zm52 81c6-60-76-77-97-28-3 7-6 17-6 28h103" id="bq"/><g id="q"><use transform="matrix(0.05,0,0,0.05,0,0)" xlink:href="#bp"/><use transform="matrix(0.05,0,0,0.05,10,0)" xlink:href="#bq"/><use transform="matrix(0.05,0,0,0.05,20,0)" xlink:href="#bn"/></g><path d="M266 0h-40l-56-210L115 0H75L2-248h35L96-30l15-64 43-154h32l59 218 59-218h35" id="br"/><path d="M143 0L79-87 56-68V0H24v-261h32v163l83-92h37l-77 82L181 0h-38" id="bs"/><path d="M85-194c31 0 48 13 60 33l-1-100h32l1 261h-30c-2-10 0-23-3-31C134-8 116 4 85 4 32 4 16-35 15-94c0-66 23-100 70-100zm9 24c-40 0-46 34-46 75 0 40 6 74 45 74 42 0 51-32 51-76 0-42-9-74-50-73" id="bt"/><path d="M141-36C126-15 110 5 73 4 37 3 15-17 15-53c-1-64 63-63 125-63 3-35-9-54-41-54-24 1-41 7-42 31l-33-3c5-37 33-52 76-52 45 0 72 20 72 64v82c-1 20 7 32 28 27v20c-31 9-61-2-59-35zM48-53c0 20 12 33 32 33 41-3 63-29 60-74-43 2-92-5-92 41" id="bu"/><path d="M179-190L93 31C79 59 56 82 12 73V49c39 6 53-20 64-50L1-190h34L92-34l54-156h33" id="bv"/><g id="r"><use transform="matrix(0.05,0,0,0.05,0,0)" xlink:href="#br"/><use transform="matrix(0.05,0,0,0.05,16.599999999999998,0)" xlink:href="#bq"/><use transform="matrix(0.05,0,0,0.05,26.599999999999994,0)" xlink:href="#bq"/><use transform="matrix(0.05,0,0,0.05,36.599999999999994,0)" xlink:href="#bs"/><use transform="matrix(0.05,0,0,0.05,45.599999999999994,0)" xlink:href="#bt"/><use transform="matrix(0.05,0,0,0.05,55.599999999999994,0)" xlink:href="#bu"/><use transform="matrix(0.05,0,0,0.05,65.6,0)" xlink:href="#bv"/></g><path d="M101-234c-31-9-42 10-38 44h38v23H63V0H32v-167H5v-23h27c-7-52 17-82 69-68v24" id="bw"/><path d="M210-169c-67 3-38 105-44 169h-31v-121c0-29-5-50-35-48C34-165 62-65 56 0H25l-1-190h30c1 10-1 24 2 32 10-44 99-50 107 0 11-21 27-35 58-36 85-2 47 119 55 194h-31v-121c0-29-5-49-35-48" id="bx"/><g id="s"><use transform="matrix(0.05,0,0,0.05,0,0)" xlink:href="#bw"/><use transform="matrix(0.05,0,0,0.05,5,0)" xlink:href="#bn"/><use transform="matrix(0.05,0,0,0.05,10.95,0)" xlink:href="#bl"/><use transform="matrix(0.05,0,0,0.05,20.95,0)" xlink:href="#bx"/></g><path d="M64 0c3-98 48-159 88-221H18v-27h164v26C143-157 98-101 97 0H64" id="by"/><g id="t"><use transform="matrix(0.05,0,0,0.05,0,0)" xlink:href="#by"/><use transform="matrix(0.05,0,0,0.05,10,0)" xlink:href="#bp"/><use transform="matrix(0.05,0,0,0.05,20,0)" xlink:href="#bx"/></g><path d="M59-47c-2 24 18 29 38 22v24C64 9 27 4 27-40v-127H5v-23h24l9-43h21v43h35v23H59v120" id="bz"/><g id="u"><use transform="matrix(0.05,0,0,0.05,0,0)" xlink:href="#bz"/><use transform="matrix(0.05,0,0,0.05,5,0)" xlink:href="#bl"/></g><path d="M99-251c64 0 84 50 84 122C183-37 130 33 47-8c-14-7-20-23-25-40l30-5c6 39 69 39 84 7 9-19 16-44 16-74-10 22-31 35-62 35-49 0-73-33-73-83 0-54 28-83 82-83zm-1 141c31-1 51-18 51-49 0-36-14-67-51-67-34 0-49 23-49 58 0 34 15 58 49 58" id="bA"/><path d="M68-38c1 34 0 65-14 84H32c9-13 17-26 17-46H33v-38h35" id="bB"/><g id="v"><use transform="matrix(0.05,0,0,0.05,0,0)" xlink:href="#bA"/><use transform="matrix(0.05,0,0,0.05,10,0)" xlink:href="#bp"/><use transform="matrix(0.05,0,0,0.05,20,0)" xlink:href="#bx"/><use transform="matrix(0.05,0,0,0.05,34.95,0)" xlink:href="#bB"/></g><g id="w"><use transform="matrix(0.05,0,0,0.05,0,0)" xlink:href="#bo"/><use transform="matrix(0.05,0,0,0.05,9,0)" xlink:href="#bz"/><use transform="matrix(0.05,0,0,0.05,14,0)" xlink:href="#bl"/><use transform="matrix(0.05,0,0,0.05,24,0)" xlink:href="#bp"/></g><path d="M30 0v-248h187v28H63v79h144v27H63v87h162V0H30" id="bC"/><path d="M127-220V0H93v-220H8v-28h204v28h-85" id="bD"/><path d="M30 0v-248h33v221h125V0H30" id="bE"/><g id="x"><use transform="matrix(0.05,0,0,0.05,0,0)" xlink:href="#bC"/><use transform="matrix(0.05,0,0,0.05,12,0)" xlink:href="#bD"/><use transform="matrix(0.05,0,0,0.05,22.950000000000003,0)" xlink:href="#bE"/></g><path d="M96-169c-40 0-48 33-48 73s9 75 48 75c24 0 41-14 43-38l32 2c-6 37-31 61-74 61-59 0-76-41-82-99-10-93 101-131 147-64 4 7 5 14 7 22l-32 3c-4-21-16-35-41-35" id="bF"/><path d="M33 0v-38h34V0H33" id="bG"/><g id="y"><use transform="matrix(0.05,0,0,0.05,0,0)" xlink:href="#bp"/><use transform="matrix(0.05,0,0,0.05,10,0)" xlink:href="#bn"/><use transform="matrix(0.05,0,0,0.05,15.949999999999998,0)" xlink:href="#bl"/><use transform="matrix(0.05,0,0,0.05,25.950000000000003,0)" xlink:href="#bF"/><use transform="matrix(0.05,0,0,0.05,34.95,0)" xlink:href="#bq"/><use transform="matrix(0.05,0,0,0.05,44.95,0)" xlink:href="#bo"/><use transform="matrix(0.05,0,0,0.05,53.95,0)" xlink:href="#bo"/><use transform="matrix(0.05,0,0,0.05,62.95,0)" xlink:href="#bq"/><use transform="matrix(0.05,0,0,0.05,72.95,0)" xlink:href="#bo"/><use transform="matrix(0.05,0,0,0.05,81.95,0)" xlink:href="#bG"/></g><filter id="n" filterUnits="objectBoundingBox" x="-.02" y="-.05" width="1.04" height="1.12"><feOffset result="offOut" in="SourceAlpha" dy="1"/><feGaussianBlur result="blurOut" in="offOut" stdDeviation="2.5"/><feColorMatrix result="colorOut" in="blurOut" values="0 0 0 0 0 0 0 0 0 0 0 0 0 0 0 0 0 0 0.5019607843137255 0"/><feBlend in="SourceGraphic" in2="colorOut"/></filter><path d="M24 0v-261h32V0H24" id="bH"/><g id="z"><use transform="matrix(0.05,0,0,0.05,0,0)" xlink:href="#bD"/><use transform="matrix(0.05,0,0,0.05,8.950000000000001,0)" xlink:href="#bl"/><use transform="matrix(0.05,0,0,0.05,18.950000000000003,0)" xlink:href="#bz"/><use transform="matrix(0.05,0,0,0.05,23.950000000000003,0)" xlink:href="#bu"/><use transform="matrix(0.05,0,0,0.05,33.95,0)" xlink:href="#bH"/></g><path d="M141 0L90-78 38 0H4l68-98-65-92h35l48 74 47-74h35l-64 92 68 98h-35" id="bI"/><g id="A"><use transform="matrix(0.05,0,0,0.05,0,0)" xlink:href="#bq"/><use transform="matrix(0.05,0,0,0.05,10,0)" xlink:href="#bI"/><use transform="matrix(0.05,0,0,0.05,19,0)" xlink:href="#bp"/><use transform="matrix(0.05,0,0,0.05,29,0)" xlink:href="#bq"/><use transform="matrix(0.05,0,0,0.05,39,0)" xlink:href="#bF"/><use transform="matrix(0.05,0,0,0.05,48,0)" xlink:href="#bz"/><use transform="matrix(0.05,0,0,0.05,53,0)" xlink:href="#bq"/><use transform="matrix(0.05,0,0,0.05,63,0)" xlink:href="#bt"/></g><path d="M117-194c89-4 53 116 60 194h-32v-121c0-31-8-49-39-48C34-167 62-67 57 0H25l-1-190h30c1 10-1 24 2 32 11-22 29-35 61-36" id="bJ"/><path d="M24-231v-30h32v30H24zM24 0v-190h32V0H24" id="bK"/><g id="B"><use transform="matrix(0.05,0,0,0.05,0,0)" xlink:href="#bF"/><use transform="matrix(0.05,0,0,0.05,9,0)" xlink:href="#bl"/><use transform="matrix(0.05,0,0,0.05,19,0)" xlink:href="#bJ"/><use transform="matrix(0.05,0,0,0.05,29,0)" xlink:href="#bo"/><use transform="matrix(0.05,0,0,0.05,38,0)" xlink:href="#bm"/><use transform="matrix(0.05,0,0,0.05,48,0)" xlink:href="#bx"/><use transform="matrix(0.05,0,0,0.05,62.95,0)" xlink:href="#bp"/><use transform="matrix(0.05,0,0,0.05,72.95,0)" xlink:href="#bz"/><use transform="matrix(0.05,0,0,0.05,77.95,0)" xlink:href="#bK"/><use transform="matrix(0.05,0,0,0.05,81.9,0)" xlink:href="#bl"/><use transform="matrix(0.05,0,0,0.05,91.9,0)" xlink:href="#bJ"/></g><g id="C"><use transform="matrix(0.05,0,0,0.05,0,0)" xlink:href="#bn"/><use transform="matrix(0.05,0,0,0.05,5.95,0)" xlink:href="#bq"/><use transform="matrix(0.05,0,0,0.05,15.949999999999998,0)" xlink:href="#bt"/><use transform="matrix(0.05,0,0,0.05,25.950000000000003,0)" xlink:href="#bm"/><use transform="matrix(0.05,0,0,0.05,35.95,0)" xlink:href="#bF"/><use transform="matrix(0.05,0,0,0.05,44.95,0)" xlink:href="#bz"/><use transform="matrix(0.05,0,0,0.05,49.95,0)" xlink:href="#bK"/><use transform="matrix(0.05,0,0,0.05,53.900000000000006,0)" xlink:href="#bl"/><use transform="matrix(0.05,0,0,0.05,63.900000000000006,0)" xlink:href="#bJ"/></g><path d="M115-194c53 0 69 39 70 98 0 66-23 100-70 100C84 3 66-7 56-30L54 0H23l1-261h32v101c10-23 28-34 59-34zm-8 174c40 0 45-34 45-75 0-40-5-75-45-74-42 0-51 32-51 76 0 43 10 73 51 73" id="bL"/><g id="D"><use transform="matrix(0.05,0,0,0.05,0,0)" xlink:href="#bL"/><use transform="matrix(0.05,0,0,0.05,10,0)" xlink:href="#bv"/></g><path d="M194-70c0 46-34 64-81 66v29H91V-4C42-5 12-27 4-67l30-6c5 28 25 41 57 43v-87c-38-9-76-20-76-67 1-42 33-58 76-59v-23h22v23c45 0 67 20 76 56l-31 6c-5-23-18-35-45-37v78c41 10 81 20 81 70zm-81 41c51 7 71-66 19-77-6-2-12-4-19-6v83zM91-219c-47-6-63 57-18 69 6 2 12 3 18 5v-74" id="bM"/><path d="M126-127c33 6 58 20 58 59 0 88-139 92-164 29-3-8-5-16-6-25l32-3c6 27 21 44 54 44 32 0 52-15 52-46 0-38-36-46-79-43v-28c39 1 72-4 72-42 0-27-17-43-46-43-28 0-47 15-49 41l-32-3c6-42 35-63 81-64 48-1 79 21 79 65 0 36-21 52-52 59" id="bN"/><path d="M110-160c48 1 74 30 74 79 0 53-28 85-80 85-65 0-83-55-86-122-5-90 50-162 133-122 14 7 22 21 27 39l-31 6c-5-40-67-38-82-6-9 19-15 44-15 74 11-20 30-34 60-33zm-7 138c34 0 49-23 49-58s-16-56-50-56c-29 0-50 16-49 49 1 36 15 65 50 65" id="bO"/><g id="E"><use transform="matrix(0.05,0,0,0.05,0,0)" xlink:href="#bM"/><use transform="matrix(0.05,0,0,0.05,10,0)" xlink:href="#bN"/><use transform="matrix(0.05,0,0,0.05,20,0)" xlink:href="#bO"/><use transform="matrix(0.05,0,0,0.05,30,0)" xlink:href="#bs"/></g><g id="F"><use transform="matrix(0.05,0,0,0.05,0,0)" xlink:href="#bv"/><use transform="matrix(0.05,0,0,0.05,9,0)" xlink:href="#bq"/><use transform="matrix(0.05,0,0,0.05,19,0)" xlink:href="#bu"/><use transform="matrix(0.05,0,0,0.05,29,0)" xlink:href="#bn"/></g><path d="M27 0v-27h64v-190l-56 39v-29l58-41h29v221h61V0H27" id="bP"/><g id="H"><use transform="matrix(0.05,0,0,0.05,0,0)" xlink:href="#bP"/><use transform="matrix(0.05,0,0,0.05,10,0)" xlink:href="#bO"/></g><g id="I"><use transform="matrix(0.05,0,0,0.05,0,0)" xlink:href="#bN"/><use transform="matrix(0.05,0,0,0.05,10,0)" xlink:href="#bj"/></g><g id="J"><use transform="matrix(0.05,0,0,0.05,0,0)" xlink:href="#bk"/><use transform="matrix(0.05,0,0,0.05,12.950000000000001,0)" xlink:href="#bl"/><use transform="matrix(0.05,0,0,0.05,22.950000000000003,0)" xlink:href="#bm"/><use transform="matrix(0.05,0,0,0.05,32.95,0)" xlink:href="#bn"/><use transform="matrix(0.05,0,0,0.05,38.900000000000006,0)" xlink:href="#bo"/><use transform="matrix(0.05,0,0,0.05,47.900000000000006,0)" xlink:href="#bB"/></g><g id="K"><use transform="matrix(0.05,0,0,0.05,0,0)" xlink:href="#bJ"/><use transform="matrix(0.05,0,0,0.05,10,0)" xlink:href="#bl"/></g><g id="L"><use transform="matrix(0.05,0,0,0.05,0,0)" xlink:href="#bm"/><use transform="matrix(0.05,0,0,0.05,10,0)" xlink:href="#bo"/><use transform="matrix(0.05,0,0,0.05,19,0)" xlink:href="#bq"/><use transform="matrix(0.05,0,0,0.05,29,0)" xlink:href="#bn"/></g><g id="M"><use transform="matrix(0.05,0,0,0.05,0,0)" xlink:href="#bu"/><use transform="matrix(0.05,0,0,0.05,10,0)" xlink:href="#bF"/><use transform="matrix(0.05,0,0,0.05,19,0)" xlink:href="#bF"/><use transform="matrix(0.05,0,0,0.05,28,0)" xlink:href="#bq"/><use transform="matrix(0.05,0,0,0.05,38,0)" xlink:href="#bo"/><use transform="matrix(0.05,0,0,0.05,47,0)" xlink:href="#bo"/><use transform="matrix(0.05,0,0,0.05,56,0)" xlink:href="#bG"/></g><filter id="G" filterUnits="objectBoundingBox" x="-.02" y="-.06" width="1.04" height="1.14"><feOffset result="offOut" in="SourceAlpha" dy="1"/><feGaussianBlur result="blurOut" in="offOut" stdDeviation="2.5"/><feColorMatrix result="colorOut" in="blurOut" values="0 0 0 0 0 0 0 0 0 0 0 0 0 0 0 0 0 0 0.5019607843137255 0"/><feBlend in="SourceGraphic" in2="colorOut"/></filter><path d="M205 0l-28-72H64L36 0H1l101-248h38L239 0h-34zm-38-99l-47-123c-12 45-31 82-46 123h93" id="bQ"/><path d="M206 0h-36l-40-164L89 0H53L-1-190h32L70-26l43-164h34l41 164 42-164h31" id="bR"/><g id="N"><use transform="matrix(0.05,0,0,0.05,0,0)" xlink:href="#bQ"/><use transform="matrix(0.05,0,0,0.05,12,0)" xlink:href="#bH"/><use transform="matrix(0.05,0,0,0.05,15.949999999999998,0)" xlink:href="#bH"/><use transform="matrix(0.05,0,0,0.05,19.9,0)" xlink:href="#bl"/><use transform="matrix(0.05,0,0,0.05,29.899999999999995,0)" xlink:href="#bR"/></g><path d="M106-169C34-169 62-67 57 0H25v-261h32l-1 103c12-21 28-36 61-36 89 0 53 116 60 194h-32v-121c2-32-8-49-39-48" id="bS"/><path d="M16-82v-28h88v28H16" id="bT"/><g id="O"><use transform="matrix(0.05,0,0,0.05,0,0)" xlink:href="#bF"/><use transform="matrix(0.05,0,0,0.05,9,0)" xlink:href="#bu"/><use transform="matrix(0.05,0,0,0.05,19,0)" xlink:href="#bz"/><use transform="matrix(0.05,0,0,0.05,24,0)" xlink:href="#bF"/><use transform="matrix(0.05,0,0,0.05,33,0)" xlink:href="#bS"/><use transform="matrix(0.05,0,0,0.05,43,0)" xlink:href="#bT"/><use transform="matrix(0.05,0,0,0.05,48.95,0)" xlink:href="#bm"/><use transform="matrix(0.05,0,0,0.05,58.95,0)" xlink:href="#bp"/></g><g id="P"><use transform="matrix(0.05,0,0,0.05,0,0)" xlink:href="#bl"/><use transform="matrix(0.05,0,0,0.05,10,0)" xlink:href="#bJ"/></g><path d="M240 0l2-218c-23 76-54 145-80 218h-23L58-218 59 0H30v-248h44l77 211c21-75 51-140 76-211h43V0h-30" id="bU"/><g id="Q"><use transform="matrix(0.05,0,0,0.05,0,0)" xlink:href="#bU"/><use transform="matrix(0.05,0,0,0.05,14.950000000000001,0)" xlink:href="#bl"/><use transform="matrix(0.05,0,0,0.05,24.950000000000003,0)" xlink:href="#bJ"/><use transform="matrix(0.05,0,0,0.05,34.95,0)" xlink:href="#bt"/><use transform="matrix(0.05,0,0,0.05,44.95,0)" xlink:href="#bu"/><use transform="matrix(0.05,0,0,0.05,54.95,0)" xlink:href="#bv"/></g><g id="R"><use transform="matrix(0.05,0,0,0.05,0,0)" xlink:href="#bl"/><use transform="matrix(0.05,0,0,0.05,10,0)" xlink:href="#bn"/></g><path d="M185-189c-5-48-123-54-124 2 14 75 158 14 163 119 3 78-121 87-175 55-17-10-28-26-33-46l33-7c5 56 141 63 141-1 0-78-155-14-162-118-5-82 145-84 179-34 5 7 8 16 11 25" id="bV"/><g id="S"><use transform="matrix(0.05,0,0,0.05,0,0)" xlink:href="#bV"/><use transform="matrix(0.05,0,0,0.05,12,0)" xlink:href="#bm"/><use transform="matrix(0.05,0,0,0.05,22,0)" xlink:href="#bJ"/><use transform="matrix(0.05,0,0,0.05,32,0)" xlink:href="#bt"/><use transform="matrix(0.05,0,0,0.05,42,0)" xlink:href="#bu"/><use transform="matrix(0.05,0,0,0.05,52,0)" xlink:href="#bv"/></g><path d="M177-190C167-65 218 103 67 71c-23-6-38-20-44-43l32-5c15 47 100 32 89-28v-30C133-14 115 1 83 1 29 1 15-40 15-95c0-56 16-97 71-98 29-1 48 16 59 35 1-10 0-23 2-32h30zM94-22c36 0 50-32 50-73 0-42-14-75-50-75-39 0-46 34-46 75s6 73 46 73" id="bW"/><g id="T"><use transform="matrix(0.05,0,0,0.05,0,0)" xlink:href="#bJ"/><use transform="matrix(0.05,0,0,0.05,10,0)" xlink:href="#bK"/><use transform="matrix(0.05,0,0,0.05,13.949999999999998,0)" xlink:href="#bW"/><use transform="matrix(0.05,0,0,0.05,23.95,0)" xlink:href="#bS"/><use transform="matrix(0.05,0,0,0.05,33.95,0)" xlink:href="#bz"/></g><path d="M155-56V0h-30v-56H8v-25l114-167h33v167h35v25h-35zm-30-156c-27 46-58 90-88 131h88v-131" id="bX"/><path d="M134-131c28 9 52 24 51 62-1 50-34 73-85 73S17-19 16-69c0-36 21-54 49-61-75-25-45-126 34-121 46 3 78 18 79 63 0 33-17 51-44 57zm-34-11c31 1 46-15 46-44 0-28-17-43-47-42-29 0-46 13-45 42 1 28 16 44 46 44zm1 122c35 0 51-18 51-52 0-30-18-46-53-46-33 0-51 17-51 47 0 34 19 51 53 51" id="bY"/><path d="M194 0L95-120 63-95V0H30v-248h33v124l119-124h40L117-140 236 0h-42" id="bZ"/><g id="U"><use transform="matrix(0.05,0,0,0.05,0,0)" xlink:href="#bM"/><use transform="matrix(0.05,0,0,0.05,10,0)" xlink:href="#bX"/><use transform="matrix(0.05,0,0,0.05,20,0)" xlink:href="#bY"/><use transform="matrix(0.05,0,0,0.05,30,0)" xlink:href="#bZ"/></g><path d="M30-248c118-7 216 8 213 122C240-48 200 0 122 0H30v-248zM63-27c89 8 146-16 146-99s-60-101-146-95v194" id="ca"/><g id="V"><use transform="matrix(0.05,0,0,0.05,0,0)" xlink:href="#ca"/><use transform="matrix(0.05,0,0,0.05,12.950000000000001,0)" xlink:href="#bK"/><use transform="matrix(0.05,0,0,0.05,16.900000000000002,0)" xlink:href="#bu"/><use transform="matrix(0.05,0,0,0.05,26.900000000000002,0)" xlink:href="#bH"/></g><g id="W"><use transform="matrix(0.05,0,0,0.05,0,0)" xlink:href="#bo"/><use transform="matrix(0.05,0,0,0.05,9,0)" xlink:href="#bv"/><use transform="matrix(0.05,0,0,0.05,18,0)" xlink:href="#bo"/><use transform="matrix(0.05,0,0,0.05,27,0)" xlink:href="#bz"/><use transform="matrix(0.05,0,0,0.05,32,0)" xlink:href="#bq"/><use transform="matrix(0.05,0,0,0.05,42,0)" xlink:href="#bx"/></g><g id="X"><use transform="matrix(0.05,0,0,0.05,0,0)" xlink:href="#bL"/><use transform="matrix(0.05,0,0,0.05,10,0)" xlink:href="#bv"/></g><use transform="matrix(0.05,0,0,0.05,0,0)" xlink:href="#bY" id="Y"/><g id="Z"><use transform="matrix(0.05,0,0,0.05,0,0)" xlink:href="#bl"/><use transform="matrix(0.05,0,0,0.05,10,0)" xlink:href="#bJ"/></g><g id="aa"><use transform="matrix(0.05,0,0,0.05,0,0)" xlink:href="#bp"/><use transform="matrix(0.05,0,0,0.05,10,0)" xlink:href="#bm"/><use transform="matrix(0.05,0,0,0.05,20,0)" xlink:href="#bL"/><use transform="matrix(0.05,0,0,0.05,30,0)" xlink:href="#bH"/><use transform="matrix(0.05,0,0,0.05,33.95,0)" xlink:href="#bK"/><use transform="matrix(0.05,0,0,0.05,37.900000000000006,0)" xlink:href="#bF"/></g><g id="ab"><use transform="matrix(0.05,0,0,0.05,0,0)" xlink:href="#bS"/><use transform="matrix(0.05,0,0,0.05,10,0)" xlink:href="#bl"/><use transform="matrix(0.05,0,0,0.05,20,0)" xlink:href="#bH"/><use transform="matrix(0.05,0,0,0.05,23.95,0)" xlink:href="#bK"/><use transform="matrix(0.05,0,0,0.05,27.899999999999995,0)" xlink:href="#bt"/><use transform="matrix(0.05,0,0,0.05,37.9,0)" xlink:href="#bu"/><use transform="matrix(0.05,0,0,0.05,47.9,0)" xlink:href="#bv"/><use transform="matrix(0.05,0,0,0.05,56.900000000000006,0)" xlink:href="#bo"/></g><g id="ac"><use transform="matrix(0.05,0,0,0.05,0,0)" xlink:href="#bM"/><use transform="matrix(0.05,0,0,0.05,10,0)" xlink:href="#bP"/><use transform="matrix(0.05,0,0,0.05,20,0)" xlink:href="#bO"/><use transform="matrix(0.05,0,0,0.05,30,0)" xlink:href="#bZ"/></g><path d="M30-248c87 1 191-15 191 75 0 78-77 80-158 76V0H30v-248zm33 125c57 0 124 11 124-50 0-59-68-47-124-48v98" id="cb"/><g id="ad"><use transform="matrix(0.05,0,0,0.05,0,0)" xlink:href="#cb"/><use transform="matrix(0.05,0,0,0.05,12,0)" xlink:href="#bH"/><use transform="matrix(0.05,0,0,0.05,15.949999999999998,0)" xlink:href="#bu"/><use transform="matrix(0.05,0,0,0.05,25.950000000000003,0)" xlink:href="#bJ"/><use transform="matrix(0.05,0,0,0.05,35.95,0)" xlink:href="#bJ"/><use transform="matrix(0.05,0,0,0.05,45.95,0)" xlink:href="#bq"/><use transform="matrix(0.05,0,0,0.05,55.95,0)" xlink:href="#bt"/></g><path d="M140-251c81 0 123 46 123 126C263-46 219 4 140 4 59 4 17-45 17-125s42-126 123-126zm0 227c63 0 89-41 89-101s-29-99-89-99c-61 0-89 39-89 99S79-25 140-24" id="cc"/><g id="ae"><use transform="matrix(0.05,0,0,0.05,0,0)" xlink:href="#cc"/><use transform="matrix(0.05,0,0,0.05,14,0)" xlink:href="#bm"/><use transform="matrix(0.05,0,0,0.05,24,0)" xlink:href="#bz"/><use transform="matrix(0.05,0,0,0.05,29,0)" xlink:href="#bu"/><use transform="matrix(0.05,0,0,0.05,39,0)" xlink:href="#bW"/><use transform="matrix(0.05,0,0,0.05,49,0)" xlink:href="#bq"/></g><g id="af"><use transform="matrix(0.05,0,0,0.05,0,0)" xlink:href="#bt"/><use transform="matrix(0.05,0,0,0.05,10,0)" xlink:href="#bl"/><use transform="matrix(0.05,0,0,0.05,20,0)" xlink:href="#bR"/><use transform="matrix(0.05,0,0,0.05,32.95,0)" xlink:href="#bJ"/><use transform="matrix(0.05,0,0,0.05,42.95,0)" xlink:href="#bz"/><use transform="matrix(0.05,0,0,0.05,47.95,0)" xlink:href="#bK"/><use transform="matrix(0.05,0,0,0.05,51.900000000000006,0)" xlink:href="#bx"/><use transform="matrix(0.05,0,0,0.05,66.85000000000001,0)" xlink:href="#bq"/></g><g id="ag"><use transform="matrix(0.05,0,0,0.05,0,0)" xlink:href="#bM"/><use transform="matrix(0.05,0,0,0.05,10,0)" xlink:href="#bY"/><use transform="matrix(0.05,0,0,0.05,20,0)" xlink:href="#bZ"/></g><g id="ah"><use transform="matrix(0.05,0,0,0.05,0,0)" xlink:href="#bV"/><use transform="matrix(0.05,0,0,0.05,12,0)" xlink:href="#bF"/><use transform="matrix(0.05,0,0,0.05,21,0)" xlink:href="#bu"/><use transform="matrix(0.05,0,0,0.05,31,0)" xlink:href="#bH"/><use transform="matrix(0.05,0,0,0.05,34.95,0)" xlink:href="#bq"/></g><g id="ai"><use transform="matrix(0.05,0,0,0.05,0,0)" xlink:href="#bV"/><use transform="matrix(0.05,0,0,0.05,12,0)" xlink:href="#bv"/><use transform="matrix(0.05,0,0,0.05,21,0)" xlink:href="#bo"/><use transform="matrix(0.05,0,0,0.05,30,0)" xlink:href="#bz"/><use transform="matrix(0.05,0,0,0.05,35,0)" xlink:href="#bq"/><use transform="matrix(0.05,0,0,0.05,45,0)" xlink:href="#bx"/></g><g id="aj"><use transform="matrix(0.05,0,0,0.05,0,0)" xlink:href="#ca"/><use transform="matrix(0.05,0,0,0.05,12.950000000000001,0)" xlink:href="#bl"/><use transform="matrix(0.05,0,0,0.05,22.950000000000003,0)" xlink:href="#bR"/><use transform="matrix(0.05,0,0,0.05,35.900000000000006,0)" xlink:href="#bJ"/></g><g id="ak"><use transform="matrix(0.05,0,0,0.05,0,0)" xlink:href="#bK"/><use transform="matrix(0.05,0,0,0.05,3.95,0)" xlink:href="#bJ"/></g><path d="M101-251c68 0 85 55 85 127S166 4 100 4C33 4 14-52 14-124c0-73 17-127 87-127zm-1 229c47 0 54-49 54-102s-4-102-53-102c-51 0-55 48-55 102 0 53 5 102 54 102" id="cd"/><g id="al"><use transform="matrix(0.05,0,0,0.05,0,0)" xlink:href="#bj"/><use transform="matrix(0.05,0,0,0.05,10,0)" xlink:href="#cd"/><use transform="matrix(0.05,0,0,0.05,20,0)" xlink:href="#bj"/><use transform="matrix(0.05,0,0,0.05,30,0)" xlink:href="#bP"/></g><use transform="matrix(0.05,0,0,0.05,0,0)" xlink:href="#bT" id="am"/><g id="an"><use transform="matrix(0.05,0,0,0.05,0,0)" xlink:href="#bQ"/><use transform="matrix(0.05,0,0,0.05,12,0)" xlink:href="#bm"/><use transform="matrix(0.05,0,0,0.05,22,0)" xlink:href="#bW"/><use transform="matrix(0.05,0,0,0.05,32,0)" xlink:href="#bm"/><use transform="matrix(0.05,0,0,0.05,42,0)" xlink:href="#bo"/><use transform="matrix(0.05,0,0,0.05,51,0)" xlink:href="#bz"/></g><g id="ao"><use transform="matrix(0.05,0,0,0.05,0,0)" xlink:href="#bu"/><use transform="matrix(0.05,0,0,0.05,10,0)" xlink:href="#bJ"/><use transform="matrix(0.05,0,0,0.05,20,0)" xlink:href="#bt"/></g><g id="ap"><use transform="matrix(0.05,0,0,0.05,0,0)" xlink:href="#bV"/><use transform="matrix(0.05,0,0,0.05,12,0)" xlink:href="#bq"/><use transform="matrix(0.05,0,0,0.05,22,0)" xlink:href="#bp"/><use transform="matrix(0.05,0,0,0.05,32,0)" xlink:href="#bz"/><use transform="matrix(0.05,0,0,0.05,37,0)" xlink:href="#bq"/><use transform="matrix(0.05,0,0,0.05,47,0)" xlink:href="#bx"/><use transform="matrix(0.05,0,0,0.05,61.95,0)" xlink:href="#bL"/><use transform="matrix(0.05,0,0,0.05,71.95,0)" xlink:href="#bq"/><use transform="matrix(0.05,0,0,0.05,81.95,0)" xlink:href="#bn"/><use transform="matrix(0.05,0,0,0.05,86.9,0)" xlink:href="#bG"/></g><g id="aq"><use transform="matrix(0.05,0,0,0.05,0,0)" xlink:href="#cb"/><use transform="matrix(0.05,0,0,0.05,12,0)" xlink:href="#bq"/><use transform="matrix(0.05,0,0,0.05,22,0)" xlink:href="#bn"/><use transform="matrix(0.05,0,0,0.05,27.950000000000003,0)" xlink:href="#bx"/><use transform="matrix(0.05,0,0,0.05,42.9,0)" xlink:href="#bu"/><use transform="matrix(0.05,0,0,0.05,52.900000000000006,0)" xlink:href="#bJ"/><use transform="matrix(0.05,0,0,0.05,62.900000000000006,0)" xlink:href="#bq"/><use transform="matrix(0.05,0,0,0.05,72.9,0)" xlink:href="#bJ"/><use transform="matrix(0.05,0,0,0.05,82.9,0)" xlink:href="#bz"/><use transform="matrix(0.05,0,0,0.05,87.9,0)" xlink:href="#bH"/><use transform="matrix(0.05,0,0,0.05,91.85000000000001,0)" xlink:href="#bv"/></g><g id="ar"><use transform="matrix(0.05,0,0,0.05,0,0)" xlink:href="#bM"/><use transform="matrix(0.05,0,0,0.05,10,0)" xlink:href="#bP"/><use transform="matrix(0.05,0,0,0.05,20,0)" xlink:href="#bj"/><use transform="matrix(0.05,0,0,0.05,30,0)" xlink:href="#bY"/><use transform="matrix(0.05,0,0,0.05,40,0)" xlink:href="#bZ"/></g><path d="M67-125c0 53 21 87 73 88 37 1 54-22 65-47l45 17C233-25 199 4 140 4 58 4 20-42 15-125 8-235 124-281 211-232c18 10 29 29 36 50l-46 12c-8-25-30-41-62-41-52 0-71 34-72 86" id="ce"/><path d="M140-251c80 0 125 45 125 126S219 4 139 4C58 4 15-44 15-125s44-126 125-126zm-1 214c52 0 73-35 73-88 0-50-21-86-72-86-52 0-73 35-73 86s22 88 72 88" id="cf"/><path d="M238-95c0 69-44 99-111 99C63 4 22-25 22-93v-155h51v151c-1 38 19 59 55 60 90 1 49-130 58-211h52v153" id="cg"/><g id="as"><use transform="matrix(0.10555555555555543,0,0,0.10555555555555543,0,0)" xlink:href="#ce"/><use transform="matrix(0.10555555555555543,0,0,0.10555555555555543,27.338888888888857,0)" xlink:href="#aJ"/><use transform="matrix(0.10555555555555543,0,0,0.10555555555555543,50.45555555555549,0)" xlink:href="#cf"/><use transform="matrix(0.10555555555555543,0,0,0.10555555555555543,80.011111111111,0)" xlink:href="#cg"/><use transform="matrix(0.10555555555555543,0,0,0.10555555555555543,107.34999999999987,0)" xlink:href="#bi"/></g><path d="M136-208V0H84v-208H4v-40h212v40h-80" id="ch"/><g id="at"><use transform="matrix(0.10555555555555543,0,0,0.10555555555555543,0,0)" xlink:href="#ce"/><use transform="matrix(0.10555555555555543,0,0,0.10555555555555543,27.338888888888857,0)" xlink:href="#cf"/><use transform="matrix(0.10555555555555543,0,0,0.10555555555555543,56.894444444444375,0)" xlink:href="#bg"/><use transform="matrix(0.10555555555555543,0,0,0.10555555555555543,82.22777777777767,0)" xlink:href="#ch"/></g><path d="M24 0v-248h52V0H24" id="ci"/><path d="M210 0H11v-37l134-170H24v-41h178v36L68-41h142V0" id="cj"/><path d="M199 0l-22-63H83L61 0H9l90-248h61L250 0h-51zm-33-102l-36-108c-10 38-24 72-36 108h72" id="ck"/><path d="M175 0L67-191c6 58 2 128 3 191H24v-248h59L193-55c-6-58-2-129-3-193h46V0h-61" id="cl"/><g id="au"><use transform="matrix(0.10555555555555543,0,0,0.10555555555555543,0,0)" xlink:href="#cf"/><use transform="matrix(0.10555555555555543,0,0,0.10555555555555543,29.55555555555552,0)" xlink:href="#bd"/><use transform="matrix(0.10555555555555543,0,0,0.10555555555555543,54.88888888888882,0)" xlink:href="#ch"/><use transform="matrix(0.10555555555555543,0,0,0.10555555555555543,78.00555555555547,0)" xlink:href="#ci"/><use transform="matrix(0.10555555555555543,0,0,0.10555555555555543,88.56111111111102,0)" xlink:href="#aU"/><use transform="matrix(0.10555555555555543,0,0,0.10555555555555543,120.1222222222221,0)" xlink:href="#ci"/><use transform="matrix(0.10555555555555543,0,0,0.10555555555555543,130.67777777777764,0)" xlink:href="#cj"/><use transform="matrix(0.10555555555555543,0,0,0.10555555555555543,153.79444444444428,0)" xlink:href="#ck"/><use transform="matrix(0.10555555555555543,0,0,0.10555555555555543,178.28333333333313,0)" xlink:href="#ch"/><use transform="matrix(0.10555555555555543,0,0,0.10555555555555543,201.39999999999978,0)" xlink:href="#ci"/><use transform="matrix(0.10555555555555543,0,0,0.10555555555555543,211.95555555555532,0)" xlink:href="#cf"/><use transform="matrix(0.10555555555555543,0,0,0.10555555555555543,241.51111111111084,0)" xlink:href="#cl"/></g><path d="M9 0v-24l116-142H16v-24h144v24L44-24h123V0H9" id="cm"/><g id="av"><use transform="matrix(0.08086419753086417,0,0,0.08086419753086417,0,0)" xlink:href="#cc"/><use transform="matrix(0.08086419753086417,0,0,0.08086419753086417,22.641975308641968,0)" xlink:href="#bp"/><use transform="matrix(0.08086419753086417,0,0,0.08086419753086417,38.8148148148148,0)" xlink:href="#bz"/><use transform="matrix(0.08086419753086417,0,0,0.08086419753086417,46.90123456790122,0)" xlink:href="#bK"/><use transform="matrix(0.08086419753086417,0,0,0.08086419753086417,53.28950617283949,0)" xlink:href="#bx"/><use transform="matrix(0.08086419753086417,0,0,0.08086419753086417,77.46790123456788,0)" xlink:href="#bK"/><use transform="matrix(0.08086419753086417,0,0,0.08086419753086417,83.85617283950614,0)" xlink:href="#cm"/><use transform="matrix(0.08086419753086417,0,0,0.08086419753086417,98.41172839506167,0)" xlink:href="#bq"/></g><g id="aw"><use transform="matrix(0.08086419753086417,0,0,0.08086419753086417,0,0)" xlink:href="#bu"/><use transform="matrix(0.08086419753086417,0,0,0.08086419753086417,16.172839506172835,0)" xlink:href="#bJ"/><use transform="matrix(0.08086419753086417,0,0,0.08086419753086417,32.34567901234567,0)" xlink:href="#bt"/></g><path d="M108 0H70L1-190h34L89-25l56-165h34" id="cn"/><g id="ax"><use transform="matrix(0.08086419753086417,0,0,0.08086419753086417,0,0)" xlink:href="#bo"/><use transform="matrix(0.08086419753086417,0,0,0.08086419753086417,14.55555555555555,0)" xlink:href="#bu"/><use transform="matrix(0.08086419753086417,0,0,0.08086419753086417,30.728395061728385,0)" xlink:href="#cn"/><use transform="matrix(0.08086419753086417,0,0,0.08086419753086417,45.283950617283935,0)" xlink:href="#bq"/></g><g id="ay"><use transform="matrix(0.08086419753086417,0,0,0.08086419753086417,0,0)" xlink:href="#bR"/><use transform="matrix(0.08086419753086417,0,0,0.08086419753086417,20.94382716049382,0)" xlink:href="#bK"/><use transform="matrix(0.08086419753086417,0,0,0.08086419753086417,27.332098765432093,0)" xlink:href="#bz"/><use transform="matrix(0.08086419753086417,0,0,0.08086419753086417,35.41851851851851,0)" xlink:href="#bS"/></g><g id="az"><use transform="matrix(0.08086419753086417,0,0,0.08086419753086417,0,0)" xlink:href="#ca"/><use transform="matrix(0.08086419753086417,0,0,0.08086419753086417,20.94382716049382,0)" xlink:href="#bu"/><use transform="matrix(0.08086419753086417,0,0,0.08086419753086417,37.11666666666666,0)" xlink:href="#bz"/><use transform="matrix(0.08086419753086417,0,0,0.08086419753086417,45.20308641975308,0)" xlink:href="#bu"/><use transform="matrix(0.08086419753086417,0,0,0.08086419753086417,61.37592592592591,0)" xlink:href="#bE"/><use transform="matrix(0.08086419753086417,0,0,0.08086419753086417,77.54876543209875,0)" xlink:href="#bu"/><use transform="matrix(0.08086419753086417,0,0,0.08086419753086417,93.72160493827157,0)" xlink:href="#bs"/><use transform="matrix(0.08086419753086417,0,0,0.08086419753086417,108.27716049382713,0)" xlink:href="#bq"/></g><g id="aA"><use transform="matrix(0.08086419753086417,0,0,0.08086419753086417,0,0)" xlink:href="#bE"/><use transform="matrix(0.08086419753086417,0,0,0.08086419753086417,16.172839506172835,0)" xlink:href="#bu"/><use transform="matrix(0.08086419753086417,0,0,0.08086419753086417,32.34567901234567,0)" xlink:href="#bL"/><use transform="matrix(0.08086419753086417,0,0,0.08086419753086417,48.518518518518505,0)" xlink:href="#bo"/></g><path fill="#333" d="M111-147c44 9 85 22 84 75-1 49-35 65-84 68v31H91V-4C40-5 12-27 5-72l45-8c4 24 15 38 41 40-2-22 4-51-2-69-39-10-76-22-76-72 0-47 35-60 78-63v-23h20v23c47 1 70 23 78 62l-46 7c-4-18-12-32-32-34v62zm-20-63c-33-4-45 46-13 54 4 1 8 2 13 4v-58zm20 170c39 5 53-51 15-60-7-2-7-2-15-4v64" id="co"/><path fill="#333" d="M128-127c34 4 56 21 59 58 7 91-148 94-172 28-4-9-6-17-7-26l51-5c1 24 16 35 40 36 23 0 39-12 38-36-1-31-31-36-65-34v-40c32 2 59-3 59-33 0-20-13-33-34-33s-33 13-35 32l-50-3c6-44 37-68 86-68 50 0 83 20 83 66 0 35-22 52-53 58" id="cp"/><path fill="#333" d="M115-159c48 0 72 30 72 78 0 54-30 85-83 85-64 0-91-50-91-122 0-98 58-163 141-120 15 8 21 24 27 44l-47 6c-5-31-48-31-61-4-7 14-11 33-11 60 9-17 28-27 53-27zM102-35c24 0 36-20 36-45s-11-43-37-43c-23 0-36 14-36 38 0 27 11 50 37 50" id="cq"/><path fill="#333" d="M195 0l-88-114-31 24V0H24v-248h52v113l112-113h60L142-143 257 0h-62" id="cr"/><g id="aB"><use transform="matrix(0.09876543209876516,0,0,0.09876543209876516,0,0)" xlink:href="#co"/><use transform="matrix(0.09876543209876516,0,0,0.09876543209876516,19.753086419753032,0)" xlink:href="#cp"/><use transform="matrix(0.09876543209876516,0,0,0.09876543209876516,39.506172839506064,0)" xlink:href="#cq"/><use transform="matrix(0.09876543209876516,0,0,0.09876543209876516,59.259259259259096,0)" xlink:href="#cr"/></g><path fill="#333" d="M165-50V0h-47v-50H5v-38l105-160h55v161h33v37h-33zm-47-37l2-116L46-87h72" id="cs"/><path fill="#333" d="M138-131c27 9 52 24 51 61 0 53-36 74-89 74S11-19 11-69c0-35 22-54 51-61-78-25-46-121 38-121 51 0 83 19 83 66 0 30-18 49-45 54zm-38-16c24 0 32-13 32-36 1-23-11-34-32-34-22 0-33 12-32 34 0 22 9 36 32 36zm1 116c27 0 37-17 37-43 0-25-13-39-39-39-24 0-37 15-37 40 0 27 11 42 39 42" id="ct"/><g id="aC"><use transform="matrix(0.09876543209876516,0,0,0.09876543209876516,0,0)" xlink:href="#co"/><use transform="matrix(0.09876543209876516,0,0,0.09876543209876516,19.753086419753032,0)" xlink:href="#cs"/><use transform="matrix(0.09876543209876516,0,0,0.09876543209876516,39.506172839506064,0)" xlink:href="#ct"/><use transform="matrix(0.09876543209876516,0,0,0.09876543209876516,59.259259259259096,0)" xlink:href="#cr"/></g><path fill="#333" d="M182-182c0 78-84 86-111 141h115V0H12c-6-101 99-100 120-180 1-22-12-31-33-32-23 0-32 14-35 34l-49-3c5-45 32-70 84-70 51 0 83 22 83 69" id="cu"/><g id="aD"><use transform="matrix(0.09876543209876507,0,0,0.09876543209876507,0,0)" xlink:href="#co"/><use transform="matrix(0.09876543209876507,0,0,0.09876543209876507,19.753086419753014,0)" xlink:href="#cu"/><use transform="matrix(0.09876543209876507,0,0,0.09876543209876507,39.50617283950603,0)" xlink:href="#ct"/><use transform="matrix(0.09876543209876507,0,0,0.09876543209876507,59.25925925925904,0)" xlink:href="#cr"/></g><path fill="#333" d="M23 0v-37h61v-169l-59 37v-38l62-41h46v211h57V0H23" id="cv"/><path fill="#333" d="M139-81c0-46-55-55-73-27H18l9-140h149v37H72l-4 63c44-38 133-4 122 66C201 21 21 35 11-62l49-4c5 18 15 30 39 30 26 0 40-18 40-45" id="cw"/><path fill="#333" d="M86-200l42-18 12 35-44 11 32 37-32 21-26-44-26 44-32-21 33-37-44-11 12-35 42 18-3-48h38" id="cx"/><g id="aE"><use transform="matrix(0.09876543209876516,0,0,0.09876543209876516,0,0)" xlink:href="#co"/><use transform="matrix(0.09876543209876516,0,0,0.09876543209876516,19.753086419753032,0)" xlink:href="#cv"/><use transform="matrix(0.09876543209876516,0,0,0.09876543209876516,39.506172839506064,0)" xlink:href="#cu"/><use transform="matrix(0.09876543209876516,0,0,0.09876543209876516,59.259259259259096,0)" xlink:href="#cw"/><use transform="matrix(0.09876543209876516,0,0,0.09876543209876516,79.01234567901213,0)" xlink:href="#cr"/><use transform="matrix(0.09876543209876516,0,0,0.09876543209876516,104.59259259259231,0)" xlink:href="#cx"/></g><g id="aF"><use transform="matrix(0.09876543209876516,0,0,0.09876543209876516,0,0)" xlink:href="#co"/><use transform="matrix(0.09876543209876516,0,0,0.09876543209876516,19.753086419753032,0)" xlink:href="#ct"/><use transform="matrix(0.09876543209876516,0,0,0.09876543209876516,39.506172839506064,0)" xlink:href="#cr"/></g><path fill="#333" d="M136-208V0H84v-208H4v-40h212v40h-80" id="cy"/><path fill="#333" d="M140-251c80 0 125 45 125 126S219 4 139 4C58 4 15-44 15-125s44-126 125-126zm-1 214c52 0 73-35 73-88 0-50-21-86-72-86-52 0-73 35-73 86s22 88 72 88" id="cz"/><path fill="#333" d="M199 0l-22-63H83L61 0H9l90-248h61L250 0h-51zm-33-102l-36-108c-10 38-24 72-36 108h72" id="cA"/><path fill="#333" d="M24 0v-248h52v208h133V0H24" id="cB"/><g id="aG"><use transform="matrix(0.0925925925925921,0,0,0.0925925925925921,0,0)" xlink:href="#cy"/><use transform="matrix(0.0925925925925921,0,0,0.0925925925925921,19.629629629629527,0)" xlink:href="#cz"/><use transform="matrix(0.0925925925925921,0,0,0.0925925925925921,45.555555555555316,0)" xlink:href="#cy"/><use transform="matrix(0.0925925925925921,0,0,0.0925925925925921,63.333333333332995,0)" xlink:href="#cA"/><use transform="matrix(0.0925925925925921,0,0,0.0925925925925921,87.31481481481435,0)" xlink:href="#cB"/></g><path fill="#333" d="M146-102V0H94v-102L6-248h54l60 105 60-105h54" id="cC"/><path fill="#333" d="M24 0v-248h195v40H76v63h132v40H76v65h150V0H24" id="cD"/><path fill="#333" d="M240-174c0 40-23 61-54 70L253 0h-59l-57-94H76V0H24v-248c93 4 217-23 216 74zM76-134c48-2 112 12 112-38 0-48-66-32-112-35v73" id="cE"/><g id="aH"><use transform="matrix(0.0925925925925921,0,0,0.0925925925925921,0,0)" xlink:href="#cC"/><use transform="matrix(0.0925925925925921,0,0,0.0925925925925921,22.222222222222104,0)" xlink:href="#cD"/><use transform="matrix(0.0925925925925921,0,0,0.0925925925925921,44.44444444444421,0)" xlink:href="#cA"/><use transform="matrix(0.0925925925925921,0,0,0.0925925925925921,68.42592592592555,0)" xlink:href="#cE"/><use transform="matrix(0.0925925925925921,0,0,0.0925925925925921,92.40740740740691,0)" xlink:href="#cB"/><use transform="matrix(0.0925925925925921,0,0,0.0925925925925921,109.62962962962902,0)" xlink:href="#cC"/></g><path fill="#333" d="M169-182c-1-43-94-46-97-3 18 66 151 10 154 114 3 95-165 93-204 36-6-8-10-19-12-30l50-8c3 46 112 56 116 5-17-69-150-10-154-114-4-87 153-88 188-35 5 8 8 18 10 28" id="cF"/><path fill="#333" d="M147 0H94L2-248h55l64 206c17-72 42-137 63-206h54" id="cG"/><path fill="#333" d="M24 0v-248h52V0H24" id="cH"/><path fill="#333" d="M175 0L67-191c6 58 2 128 3 191H24v-248h59L193-55c-6-58-2-129-3-193h46V0h-61" id="cI"/><path fill="#333" d="M67-125c0 54 23 88 75 88 28 0 53-7 68-21v-34h-60v-39h108v91C232-14 192 4 140 4 58 4 20-42 15-125 8-236 126-280 215-234c19 10 29 26 37 47l-47 15c-11-23-29-39-63-39-53 1-75 33-75 86" id="cJ"/><g id="aI"><use transform="matrix(0.0925925925925921,0,0,0.0925925925925921,0,0)" xlink:href="#cF"/><use transform="matrix(0.0925925925925921,0,0,0.0925925925925921,22.222222222222104,0)" xlink:href="#cA"/><use transform="matrix(0.0925925925925921,0,0,0.0925925925925921,43.70370370370347,0)" xlink:href="#cG"/><use transform="matrix(0.0925925925925921,0,0,0.0925925925925921,65.92592592592557,0)" xlink:href="#cH"/><use transform="matrix(0.0925925925925921,0,0,0.0925925925925921,75.18518518518478,0)" xlink:href="#cI"/><use transform="matrix(0.0925925925925921,0,0,0.0925925925925921,99.16666666666615,0)" xlink:href="#cJ"/><use transform="matrix(0.0925925925925921,0,0,0.0925925925925921,125.09259259259193,0)" xlink:href="#cF"/></g></defs></g></svg>