<svg xmlns="http://www.w3.org/2000/svg" xmlns:xlink="http://www.w3.org/1999/xlink" xmlns:lucid="lucid" width="1630.37" height="1016.45"><g transform="translate(0 0)" lucid:page-tab-id="0_0"><path d="M0 0h1630.37v1016.45H0z" fill="#fff"/><path d="M100 644.94c0-4.42 3.58-8 8-8h339c4.42 0 8 3.58 8 8v260.93c0 4.42-3.58 8-8 8H108c-4.42 0-8-3.58-8-8z" stroke="#000" stroke-opacity="0" stroke-width="2" fill="#e84a43"/><path d="M645 644.94c0-4.42 3.58-8 8-8h339c4.42 0 8 3.58 8 8v260.93c0 4.42-3.58 8-8 8H653c-4.42 0-8-3.58-8-8z" stroke="#000" stroke-opacity="0" stroke-width="2" fill="#19967d"/><path d="M1190 644.94c0-4.42 3.58-8 8-8h339c4.42 0 8 3.58 8 8v260.93c0 4.42-3.58 8-8 8h-339c-4.42 0-8-3.58-8-8z" stroke="#000" stroke-opacity="0" stroke-width="2" fill="#de5f85"/><path d="M645 248c0-4.42 3.58-8 8-8h339c4.42 0 8 3.58 8 8v260.94c0 4.4-3.58 8-8 8H653c-4.42 0-8-3.6-8-8z" stroke="#000" stroke-opacity="0" stroke-width="2" fill="#0c7cba"/><path d="M100.5 713.87h354" stroke="#fff" fill="none"/><path d="M100.5 714.37h-.5v-1h.5zM455 714.37h-.5v-1h.5z" fill="#fff"/><path d="M645.5 315.46h354" stroke="#fff" fill="none"/><path d="M645.5 315.96h-.5v-1h.5zM1000 315.96h-.5v-1h.5z" fill="#fff"/><path d="M645 240h355v66.94H645z" stroke="#000" stroke-opacity="0" stroke-width="2" fill="#fff" fill-opacity="0"/><use xlink:href="#a" transform="matrix(1,0,0,1,649.9999999999998,245) translate(49.204166666666694 38.59599999999999)"/><use xlink:href="#b" transform="matrix(1,0,0,1,649.9999999999998,245) translate(116.26050000000002 38.59599999999999)"/><use xlink:href="#c" transform="matrix(1,0,0,1,649.9999999999998,245) translate(138.4851666666667 38.59599999999999)"/><use xlink:href="#d" transform="matrix(1,0,0,1,649.9999999999998,245) translate(176.73083333333335 38.59599999999999)"/><use xlink:href="#e" transform="matrix(1,0,0,1,649.9999999999998,245) translate(246.82116666666667 38.59599999999999)"/><path d="M685 326.94h280v140H685z" stroke="#000" stroke-opacity="0" stroke-width="2" fill="#fff" fill-opacity="0"/><use xlink:href="#f" transform="matrix(1,0,0,1,689.9999999999998,331.93602317707735) translate(8.88300000000001 29.9535)"/><use xlink:href="#g" transform="matrix(1,0,0,1,689.9999999999998,331.93602317707735) translate(59.895 29.9535)"/><use xlink:href="#h" transform="matrix(1,0,0,1,689.9999999999998,331.93602317707735) translate(89.766 29.9535)"/><use xlink:href="#i" transform="matrix(1,0,0,1,689.9999999999998,331.93602317707735) translate(137.331 29.9535)"/><use xlink:href="#j" transform="matrix(1,0,0,1,689.9999999999998,331.93602317707735) translate(182.32199999999997 29.9535)"/><use xlink:href="#k" transform="matrix(1,0,0,1,689.9999999999998,331.93602317707735) translate(243.91799999999998 29.9535)"/><use xlink:href="#l" transform="matrix(1,0,0,1,689.9999999999998,331.93602317707735) translate(1.6739999999999782 51.55349999999999)"/><use xlink:href="#m" transform="matrix(1,0,0,1,689.9999999999998,331.93602317707735) translate(82.40399999999998 51.55349999999999)"/><use xlink:href="#n" transform="matrix(1,0,0,1,689.9999999999998,331.93602317707735) translate(103.07699999999998 51.55349999999999)"/><use xlink:href="#o" transform="matrix(1,0,0,1,689.9999999999998,331.93602317707735) translate(133.37099999999998 51.55349999999999)"/><use xlink:href="#p" transform="matrix(1,0,0,1,689.9999999999998,331.93602317707735) translate(188.56799999999998 51.55349999999999)"/><use xlink:href="#q" transform="matrix(1,0,0,1,689.9999999999998,331.93602317707735) translate(21.29850000000002 73.15349999999998)"/><use xlink:href="#r" transform="matrix(1,0,0,1,689.9999999999998,331.93602317707735) translate(73.82250000000002 73.15349999999998)"/><use xlink:href="#s" transform="matrix(1,0,0,1,689.9999999999998,331.93602317707735) translate(140.3955 73.15349999999998)"/><use xlink:href="#t" transform="matrix(1,0,0,1,689.9999999999998,331.93602317707735) translate(173.78549999999998 73.15349999999998)"/><use xlink:href="#q" transform="matrix(1,0,0,1,689.9999999999998,331.93602317707735) translate(13.666500000000013 94.75349999999997)"/><use xlink:href="#u" transform="matrix(1,0,0,1,689.9999999999998,331.93602317707735) translate(66.19050000000001 94.75349999999997)"/><use xlink:href="#v" transform="matrix(1,0,0,1,689.9999999999998,331.93602317707735) translate(177.9435 94.75349999999997)"/><use xlink:href="#w" transform="matrix(1,0,0,1,689.9999999999998,331.93602317707735) translate(226.4175 94.75349999999997)"/><use xlink:href="#x" transform="matrix(1,0,0,1,689.9999999999998,331.93602317707735) translate(78.363 116.35349999999997)"/><use xlink:href="#y" transform="matrix(1,0,0,1,689.9999999999998,331.93602317707735) translate(146.637 116.35349999999997)"/><path d="M115 646.94h318.57v56.93H115z" stroke="#000" stroke-opacity="0" stroke-width="2" fill="#fff" fill-opacity="0"/><use xlink:href="#z" transform="matrix(1,0,0,1,120.00000000000023,651.9360231770772) translate(72.02700000000002 33.15849999999999)"/><use xlink:href="#A" transform="matrix(1,0,0,1,120.00000000000023,651.9360231770772) translate(186.08566666666667 33.15849999999999)"/><path d="M115 716.94h318.57v140H115z" stroke="#000" stroke-opacity="0" stroke-width="2" fill="#fff" fill-opacity="0"/><use xlink:href="#B" transform="matrix(1,0,0,1,120.00000000000023,721.9360231770773) translate(21.394500000000022 38.0785)"/><use xlink:href="#C" transform="matrix(1,0,0,1,120.00000000000023,721.9360231770773) translate(62.00250000000002 38.0785)"/><use xlink:href="#D" transform="matrix(1,0,0,1,120.00000000000023,721.9360231770773) translate(82.01850000000002 38.0785)"/><use xlink:href="#s" transform="matrix(1,0,0,1,120.00000000000023,721.9360231770773) translate(164.3325 38.0785)"/><use xlink:href="#E" transform="matrix(1,0,0,1,120.00000000000023,721.9360231770773) translate(197.7225 38.0785)"/><use xlink:href="#F" transform="matrix(1,0,0,1,120.00000000000023,721.9360231770773) translate(12.412500000000023 59.67849999999999)"/><use xlink:href="#G" transform="matrix(1,0,0,1,120.00000000000023,721.9360231770773) translate(67.31250000000003 59.67849999999999)"/><use xlink:href="#H" transform="matrix(1,0,0,1,120.00000000000023,721.9360231770773) translate(106.85850000000002 59.67849999999999)"/><use xlink:href="#I" transform="matrix(1,0,0,1,120.00000000000023,721.9360231770773) translate(199.1535 59.67849999999999)"/><use xlink:href="#J" transform="matrix(1,0,0,1,120.00000000000023,721.9360231770773) translate(19.814999999999998 81.27849999999998)"/><use xlink:href="#G" transform="matrix(1,0,0,1,120.00000000000023,721.9360231770773) translate(142.02599999999998 81.27849999999998)"/><use xlink:href="#K" transform="matrix(1,0,0,1,120.00000000000023,721.9360231770773) translate(181.57199999999997 81.27849999999998)"/><use xlink:href="#w" transform="matrix(1,0,0,1,120.00000000000023,721.9360231770773) translate(259.269 81.27849999999998)"/><use xlink:href="#L" transform="matrix(1,0,0,1,120.00000000000023,721.9360231770773) translate(105.1665 102.87849999999997)"/><use xlink:href="#M" transform="matrix(1,0,0,1,120.00000000000023,721.9360231770773) translate(167.76149999999998 102.87849999999997)"/><path d="M645.5 718.1h354" stroke="#fff" fill="none"/><path d="M645.5 718.6h-.5v-1h.5zM1000 718.6h-.5v-1h.5z" fill="#fff"/><path d="M665.7 646.94h318.6v56.93H665.7z" stroke="#000" stroke-opacity="0" stroke-width="2" fill="#fff" fill-opacity="0"/><g><use xlink:href="#N" transform="matrix(1,0,0,1,670.7142857142875,651.9360231770772) translate(13.59783333333337 33.15849999999999)"/><use xlink:href="#O" transform="matrix(1,0,0,1,670.7142857142875,651.9360231770772) translate(83.68816666666667 33.15849999999999)"/><use xlink:href="#P" transform="matrix(1,0,0,1,670.7142857142875,651.9360231770772) translate(244.51483333333329 33.15849999999999)"/></g><path d="M666.43 716.94H985v140H666.43z" stroke="#000" stroke-opacity="0" stroke-width="2" fill="#fff" fill-opacity="0"/><g><use xlink:href="#B" transform="matrix(1,0,0,1,671.4285714285753,721.9360231770773) translate(8.556000000000012 50.266)"/><use xlink:href="#C" transform="matrix(1,0,0,1,671.4285714285753,721.9360231770773) translate(49.16400000000001 50.266)"/><use xlink:href="#r" transform="matrix(1,0,0,1,671.4285714285753,721.9360231770773) translate(69.18 50.266)"/><use xlink:href="#s" transform="matrix(1,0,0,1,671.4285714285753,721.9360231770773) translate(135.753 50.266)"/><use xlink:href="#Q" transform="matrix(1,0,0,1,671.4285714285753,721.9360231770773) translate(169.143 50.266)"/><use xlink:href="#R" transform="matrix(1,0,0,1,671.4285714285753,721.9360231770773) translate(247.533 50.266)"/><use xlink:href="#S" transform="matrix(1,0,0,1,671.4285714285753,721.9360231770773) translate(15.963000000000022 71.86599999999999)"/><use xlink:href="#T" transform="matrix(1,0,0,1,671.4285714285753,721.9360231770773) translate(69.846 71.86599999999999)"/><use xlink:href="#U" transform="matrix(1,0,0,1,671.4285714285753,721.9360231770773) translate(122.244 71.86599999999999)"/><use xlink:href="#V" transform="matrix(1,0,0,1,671.4285714285753,721.9360231770773) translate(196.665 71.86599999999999)"/><use xlink:href="#s" transform="matrix(1,0,0,1,671.4285714285753,721.9360231770773) translate(105.405 93.46599999999998)"/><use xlink:href="#W" transform="matrix(1,0,0,1,671.4285714285753,721.9360231770773) translate(138.795 93.46599999999998)"/></g><path d="M1208.2 716.94h318.6v140h-318.6z" stroke="#000" stroke-opacity="0" stroke-width="2" fill="#fff" fill-opacity="0"/><g><use xlink:href="#B" transform="matrix(1,0,0,1,1213.2142857142876,721.9360231770773) translate(6.117000000000019 50.266)"/><use xlink:href="#C" transform="matrix(1,0,0,1,1213.2142857142876,721.9360231770773) translate(46.725000000000016 50.266)"/><use xlink:href="#X" transform="matrix(1,0,0,1,1213.2142857142876,721.9360231770773) translate(66.74100000000001 50.266)"/><use xlink:href="#Y" transform="matrix(1,0,0,1,1213.2142857142876,721.9360231770773) translate(182.544 50.266)"/><use xlink:href="#Z" transform="matrix(1,0,0,1,1213.2142857142876,721.9360231770773) translate(231.792 50.266)"/><use xlink:href="#aa" transform="matrix(1,0,0,1,1213.2142857142876,721.9360231770773) translate(252.852 50.266)"/><use xlink:href="#ab" transform="matrix(1,0,0,1,1213.2142857142876,721.9360231770773) translate(19.270500000000027 71.86599999999999)"/><use xlink:href="#ac" transform="matrix(1,0,0,1,1213.2142857142876,721.9360231770773) translate(102.30450000000002 71.86599999999999)"/><use xlink:href="#m" transform="matrix(1,0,0,1,1213.2142857142876,721.9360231770773) translate(210.5745 71.86599999999999)"/><use xlink:href="#ad" transform="matrix(1,0,0,1,1213.2142857142876,721.9360231770773) translate(231.2475 71.86599999999999)"/><use xlink:href="#ae" transform="matrix(1,0,0,1,1213.2142857142876,721.9360231770773) translate(117.8925 93.46599999999998)"/></g><path d="M1190 636.94h355v76.93h-355z" stroke="#000" stroke-opacity="0" stroke-width="2" fill="#fff" fill-opacity="0"/><g><use xlink:href="#af" transform="matrix(1,0,0,1,1194.9999999999995,641.9360231770772) translate(70.98483333333336 43.18974999999999)"/><use xlink:href="#A" transform="matrix(1,0,0,1,1194.9999999999995,641.9360231770772) translate(224.12783333333334 43.18974999999999)"/></g><path d="M1190.5 713.45h354" stroke="#fff" fill="none"/><path d="M1190.5 713.87h-.5v-.92h.5zM1545 713.87h-.5v-.92h.5z" fill="#fff"/><path d="M822.5 517.94v59h-545v41.5" stroke="#000" stroke-width="2" fill="none"/><path d="M823.5 517.96h-2v-1.02h2z"/><path d="M277.5 633.7l-4.64-14.27h9.28z" stroke="#000" stroke-width="2"/><path d="M822.5 517.94v59h545v41.5" stroke="#000" stroke-width="2" fill="none"/><path d="M823.5 517.96h-2v-1.02h2z"/><path d="M1367.5 633.7l-4.64-14.27h9.28z" stroke="#000" stroke-width="2"/><path d="M822.5 517.94v100.5" stroke="#000" stroke-width="2" fill="none"/><path d="M823.5 517.96h-2v-1.02h2z"/><path d="M822.5 633.7l-4.64-14.27h9.28z" stroke="#000" stroke-width="2"/><path d="M100 80h1445v60H100z" stroke="#000" stroke-opacity="0" stroke-width="2" fill="#fff" fill-opacity="0"/><g><use xlink:href="#ag" transform="matrix(1,0,0,1,105,85) translate(456.32600000000025 37.50599999999996)"/><use xlink:href="#ah" transform="matrix(1,0,0,1,105,85) translate(593.0120000000002 37.50599999999996)"/><use xlink:href="#ai" transform="matrix(1,0,0,1,105,85) translate(699.0699999999999 37.50599999999996)"/></g><path d="M520 110.07h600v79.86H520z" stroke="#000" stroke-opacity="0" stroke-width="2" fill="#fff" fill-opacity="0"/><g><use xlink:href="#aj" transform="matrix(1,0,0,1,525,115.06666666666668) translate(40.25216666666677 46.23849999999999)"/><use xlink:href="#ak" transform="matrix(1,0,0,1,525,115.06666666666668) translate(169.20450000000005 46.23849999999999)"/><use xlink:href="#al" transform="matrix(1,0,0,1,525,115.06666666666668) translate(224.55483333333336 46.23849999999999)"/><use xlink:href="#am" transform="matrix(1,0,0,1,525,115.06666666666668) translate(289.91616666666664 46.23849999999999)"/><use xlink:href="#an" transform="matrix(1,0,0,1,525,115.06666666666668) translate(354.61949999999996 46.23849999999999)"/><use xlink:href="#ao" transform="matrix(1,0,0,1,525,115.06666666666668) translate(487.89583333333326 46.23849999999999)"/></g><defs><path fill="#fff" d="M12-1446h226c47 0 80 25 90 61 87 312 181 618 262 935 6 25 10 51 15 79 10-53 22-104 38-149l284-865c11-30 46-61 89-61 78 0 148-4 169 61l282 865c15 43 27 90 38 142 9-49 18-98 30-142l246-865c9-33 45-61 89-61h211L1632 0h-243c-113-359-232-713-341-1076C938-712 818-360 704 0H461" id="ap"/><path fill="#fff" d="M605-850c-102 1-168 52-226 108V0H132v-1486h247v571c76-69 161-129 301-127 234 4 346 154 346 389V0H779v-653c0-121-55-198-174-197" id="aq"/><path fill="#fff" d="M556-1045c246 0 380 151 380 397V0c-79-6-181 23-196-53l-22-73C630-49 541 18 379 16 194 13 81-77 81-262c0-184 152-247 321-292 78-21 176-31 293-34 10-155-29-262-170-262-104 0-161 40-224 77-47 28-107 5-127-31l-45-79c118-108 260-162 427-162zM317-275c-3 86 56 121 139 121 117 0 179-51 239-111v-173c-122 6-219 17-297 53-49 22-79 51-81 110" id="ar"/><path fill="#fff" d="M738-75c-64 55-158 90-269 91-176 2-277-109-277-284v-573c-65-4-153 21-153-52v-98l165-27 52-280c10-66 115-35 183-42v323h270v176H439v556c-1 59 32 101 88 102 48 1 68-25 104-34 19 1 25 9 33 22" id="as"/><g id="a"><use transform="matrix(0.01233333333333333,0,0,0.01233333333333333,0,0)" xlink:href="#ap"/><use transform="matrix(0.01233333333333333,0,0,0.01233333333333333,25.81366666666666,0)" xlink:href="#aq"/><use transform="matrix(0.01233333333333333,0,0,0.01233333333333333,39.83666666666666,0)" xlink:href="#ar"/><use transform="matrix(0.01233333333333333,0,0,0.01233333333333333,52.74966666666665,0)" xlink:href="#as"/></g><path fill="#fff" d="M395-1026V0H148v-1026h247zm-123-457c96 0 160 62 160 158 0 94-65 155-160 155-93 0-156-62-156-155 0-95 61-158 156-158" id="at"/><path fill="#fff" d="M254-198c95 60 334 64 323-83-9-119-156-122-253-159C192-490 72-550 72-729c0-214 163-309 387-313 145-3 264 55 338 127-26 36-45 82-77 111-69 21-111-33-176-48-103-23-247 0-238 102 11 114 156 118 251 155 126 49 251 100 251 270C808-59 575 48 294 6 192-9 106-54 42-110c28-39 43-95 83-120 49-31 96 11 129 32" id="au"/><g id="b"><use transform="matrix(0.01233333333333333,0,0,0.01233333333333333,0,0)" xlink:href="#at"/><use transform="matrix(0.01233333333333333,0,0,0.01233333333333333,6.684666666666665,0)" xlink:href="#au"/></g><path fill="#fff" d="M565-850c-86 0-140 48-186 99V0H132v-1026c80 9 198-29 214 45l16 76c67-72 141-136 276-137 139-1 214 86 253 192 57-117 162-192 328-192 240 0 354 147 354 389V0h-247v-653c1-123-52-197-169-197s-180 76-180 197V0H729v-653c0-127-46-197-164-197" id="av"/><path fill="#fff" d="M496 282c-21 85-170 43-266 53L422-76 7-1026h216c39-1 60 21 70 46 80 195 164 386 238 586 7 18 10 37 14 56 74-221 164-427 244-642 9-24 36-46 68-46h198" id="aw"/><g id="c"><use transform="matrix(0.01233333333333333,0,0,0.01233333333333333,0,0)" xlink:href="#av"/><use transform="matrix(0.01233333333333333,0,0,0.01233333333333333,20.32533333333333,0)" xlink:href="#aw"/></g><path fill="#fff" d="M1284-209C1170-69 1008 19 759 16c-347-4-553-182-649-442-66-178-66-423 6-596 108-261 330-435 688-440 220-3 375 79 488 188l-90 125c-16 32-68 39-102 12-71-55-162-101-298-96-304 11-465 201-465 510 0 241 101 401 267 477 125 58 330 39 424-24 42-17 97-111 150-54" id="ax"/><path fill="#fff" d="M395-1486V0H148v-1486h247" id="ay"/><path fill="#fff" d="M361-1005c121-49 297-49 417 0 184 74 298 236 298 490 0 330-178 530-506 530C241 15 61-185 61-515c0-254 115-416 300-490zm-45 492c0 201 65 338 254 338 188 0 251-137 251-338s-63-340-251-340c-189 0-254 139-254 340" id="az"/><path fill="#fff" d="M457 16c-234 0-346-155-346-390v-652h247v652c0 121 55 198 174 197 102-1 168-51 226-107v-742h247V0c-80-9-199 29-214-45l-17-82C697-50 608 16 457 16" id="aA"/><path fill="#fff" d="M502-1045c120-1 193 43 256 101v-542h247V0c-80-9-199 29-214-45l-20-99C693-58 601 15 441 15 163 15 61-217 61-510c0-241 98-411 259-494 54-27 115-41 182-41zM316-510c0 181 36 329 209 329 118 0 173-54 233-123v-460c-48-59-104-93-198-93-188 0-244 151-244 347" id="aB"/><g id="d"><use transform="matrix(0.01233333333333333,0,0,0.01233333333333333,0,0)" xlink:href="#ax"/><use transform="matrix(0.01233333333333333,0,0,0.01233333333333333,16.538999999999994,0)" xlink:href="#ay"/><use transform="matrix(0.01233333333333333,0,0,0.01233333333333333,23.22366666666666,0)" xlink:href="#az"/><use transform="matrix(0.01233333333333333,0,0,0.01233333333333333,37.246666666666655,0)" xlink:href="#aA"/><use transform="matrix(0.01233333333333333,0,0,0.01233333333333333,51.26966666666665,0)" xlink:href="#aB"/></g><path fill="#fff" d="M1165-1446v221H730V0H461v-1225H24v-221h1141" id="aC"/><path fill="#fff" d="M1480-1018c71 176 71 414 0 590-106 261-323 444-679 444S225-168 120-428c-71-176-71-414 0-590 106-261 324-444 681-444 355 0 573 184 679 444zM801-214c307 0 456-198 456-509s-149-510-456-510c-308 0-459 198-459 510s152 509 459 509" id="aD"/><g id="e"><use transform="matrix(0.01233333333333333,0,0,0.01233333333333333,0,0)" xlink:href="#aC"/><use transform="matrix(0.01233333333333333,0,0,0.01233333333333333,13.714666666666663,0)" xlink:href="#ax"/><use transform="matrix(0.01233333333333333,0,0,0.01233333333333333,30.253666666666657,0)" xlink:href="#aD"/></g><path fill="#fff" d="M991-153C899-47 760 15 568 15 237 15 63-197 63-535c0-237 116-392 287-467 61-27 129-40 206-40 287 0 444 174 444 465 0 54-3 95-57 95H309c4 226 158 349 385 292 52-13 93-39 132-62 32-19 73-16 93 9zM778-631c-4-143-73-234-217-234-154 0-226 95-247 234h464" id="aE"/><path fill="#fff" d="M604-806c-122 5-180 74-225 167V0H132v-1026c83 11 206-35 218 62l15 124c63-106 147-205 295-205 51 0 93 12 126 35l-32 185c-4 23-15 33-40 33-33 0-65-16-110-14" id="aF"/><g id="f"><use transform="matrix(0.009,0,0,0.009,0,0)" xlink:href="#aC"/><use transform="matrix(0.009,0,0,0.009,10.709999999999999,0)" xlink:href="#aq"/><use transform="matrix(0.009,0,0,0.009,20.942999999999998,0)" xlink:href="#aE"/><use transform="matrix(0.009,0,0,0.009,30.563999999999997,0)" xlink:href="#aF"/><use transform="matrix(0.009,0,0,0.009,37.916999999999994,0)" xlink:href="#aE"/></g><g id="g"><use transform="matrix(0.009,0,0,0.009,0,0)" xlink:href="#ar"/><use transform="matrix(0.009,0,0,0.009,9.423,0)" xlink:href="#aF"/><use transform="matrix(0.009,0,0,0.009,16.776,0)" xlink:href="#aE"/></g><path fill="#fff" d="M605-850c-102 1-168 52-226 108V0H132v-1026c80 9 198-29 214 45l17 81c77-76 165-142 317-142 235 0 346 154 346 389V0H779v-653c0-121-55-198-174-197" id="aG"/><g id="h"><use transform="matrix(0.009,0,0,0.009,0,0)" xlink:href="#av"/><use transform="matrix(0.009,0,0,0.009,15.155999999999999,0)" xlink:href="#ar"/><use transform="matrix(0.009,0,0,0.009,24.579,0)" xlink:href="#aG"/><use transform="matrix(0.009,0,0,0.009,34.488,0)" xlink:href="#aw"/></g><path fill="#fff" d="M928-153C839-49 712 15 524 15c-227 0-358-131-424-305-47-123-49-306-4-434 67-190 213-318 465-318 165 0 270 58 357 143-29 37-52 81-86 112-71 26-104-41-170-55-24-5-52-12-86-12-192 5-260 143-260 339 0 194 67 336 254 342 98 3 148-38 200-79 26-20 67-17 87 9" id="aH"/><g id="i"><use transform="matrix(0.009,0,0,0.009,0,0)" xlink:href="#aH"/><use transform="matrix(0.009,0,0,0.009,8.585999999999999,0)" xlink:href="#az"/><use transform="matrix(0.009,0,0,0.009,18.818999999999996,0)" xlink:href="#au"/><use transform="matrix(0.009,0,0,0.009,26.684999999999995,0)" xlink:href="#as"/><use transform="matrix(0.009,0,0,0.009,33.650999999999996,0)" xlink:href="#au"/></g><g id="j"><use transform="matrix(0.009,0,0,0.009,0,0)" xlink:href="#aF"/><use transform="matrix(0.009,0,0,0.009,7.353,0)" xlink:href="#aE"/><use transform="matrix(0.009,0,0,0.009,16.973999999999997,0)" xlink:href="#ay"/><use transform="matrix(0.009,0,0,0.009,21.851999999999997,0)" xlink:href="#ar"/><use transform="matrix(0.009,0,0,0.009,31.275,0)" xlink:href="#as"/><use transform="matrix(0.009,0,0,0.009,38.241,0)" xlink:href="#aE"/><use transform="matrix(0.009,0,0,0.009,47.861999999999995,0)" xlink:href="#aB"/></g><g id="k"><use transform="matrix(0.009,0,0,0.009,0,0)" xlink:href="#as"/><use transform="matrix(0.009,0,0,0.009,6.965999999999999,0)" xlink:href="#az"/></g><path fill="#fff" d="M247-436C153-487 80-575 80-712c0-228 174-332 407-332 92 0 169 20 230 53h295c-4 63 19 133-53 146l-92 17c30 74 25 184-9 254-72 146-265 223-484 183-51 27-68 81-20 111 145 54 395 5 528 91 60 38 108 95 104 193-8 182-136 275-286 326-172 59-444 28-556-52C83 234 32 179 32 90c0-112 77-164 166-199-49-28-87-70-84-147 4-94 65-143 133-180zm247 621c132 0 252-20 264-139-10-98-129-93-228-102-63-6-132-5-191-13-47 27-93 62-93 127 0 112 123 127 248 127zM305-706c0 111 68 168 182 168s182-56 182-168c0-107-68-165-182-165s-182 58-182 165" id="aI"/><g id="l"><use transform="matrix(0.009,0,0,0.009,0,0)" xlink:href="#av"/><use transform="matrix(0.009,0,0,0.009,15.155999999999999,0)" xlink:href="#at"/><use transform="matrix(0.009,0,0,0.009,20.034,0)" xlink:href="#aI"/><use transform="matrix(0.009,0,0,0.009,29.348999999999997,0)" xlink:href="#aF"/><use transform="matrix(0.009,0,0,0.009,36.440999999999995,0)" xlink:href="#ar"/><use transform="matrix(0.009,0,0,0.009,45.864,0)" xlink:href="#as"/><use transform="matrix(0.009,0,0,0.009,52.83,0)" xlink:href="#at"/><use transform="matrix(0.009,0,0,0.009,57.708,0)" xlink:href="#aG"/><use transform="matrix(0.009,0,0,0.009,67.941,0)" xlink:href="#aI"/></g><g id="m"><use transform="matrix(0.009,0,0,0.009,0,0)" xlink:href="#as"/><use transform="matrix(0.009,0,0,0.009,6.965999999999999,0)" xlink:href="#az"/></g><g id="n"><use transform="matrix(0.009,0,0,0.009,0,0)" xlink:href="#as"/><use transform="matrix(0.009,0,0,0.009,6.965999999999999,0)" xlink:href="#aq"/><use transform="matrix(0.009,0,0,0.009,17.198999999999998,0)" xlink:href="#aE"/></g><path fill="#fff" d="M225 14C133 14 73-43 73-136c0-92 60-151 152-151 91 0 151 60 151 151 0 92-59 150-151 150" id="aJ"/><g id="o"><use transform="matrix(0.009,0,0,0.009,0,0)" xlink:href="#ax"/><use transform="matrix(0.009,0,0,0.009,12.068999999999999,0)" xlink:href="#ay"/><use transform="matrix(0.009,0,0,0.009,16.947,0)" xlink:href="#az"/><use transform="matrix(0.009,0,0,0.009,27.18,0)" xlink:href="#aA"/><use transform="matrix(0.009,0,0,0.009,37.413,0)" xlink:href="#aB"/><use transform="matrix(0.009,0,0,0.009,47.672999999999995,0)" xlink:href="#aJ"/></g><path fill="#fff" d="M376-1057c5 39 7 82 7 123V0H146v-1446c85 3 182-6 258 6 17 7 27 20 36 37l432 803c23 42 41 90 60 136 19-47 38-95 61-138l428-801c15-33 41-43 90-43h203V0h-237c1-330-2-664 1-991 1-21 3-42 5-63l-437 820c-22 44-63 63-132 59-48-3-77-26-95-59" id="aK"/><g id="p"><use transform="matrix(0.009,0,0,0.009,0,0)" xlink:href="#aK"/><use transform="matrix(0.009,0,0,0.009,16.74,0)" xlink:href="#at"/><use transform="matrix(0.009,0,0,0.009,21.618,0)" xlink:href="#aI"/><use transform="matrix(0.009,0,0,0.009,30.933000000000003,0)" xlink:href="#aF"/><use transform="matrix(0.009,0,0,0.009,38.025,0)" xlink:href="#ar"/><use transform="matrix(0.009,0,0,0.009,47.44799999999999,0)" xlink:href="#as"/><use transform="matrix(0.009,0,0,0.009,54.414,0)" xlink:href="#at"/><use transform="matrix(0.009,0,0,0.009,59.292,0)" xlink:href="#az"/><use transform="matrix(0.009,0,0,0.009,69.525,0)" xlink:href="#aG"/></g><path fill="#fff" d="M221-3C132-8 80-62 80-152c0-85 58-133 145-135 137-3 173 141 135 270-37 126-112 227-205 301-28-24-89-65-42-112 45-45 92-100 108-175" id="aL"/><g id="q"><use transform="matrix(0.009,0,0,0.009,0,0)" xlink:href="#ax"/><use transform="matrix(0.009,0,0,0.009,12.068999999999999,0)" xlink:href="#az"/><use transform="matrix(0.009,0,0,0.009,22.302,0)" xlink:href="#au"/><use transform="matrix(0.009,0,0,0.009,30.168,0)" xlink:href="#as"/><use transform="matrix(0.009,0,0,0.009,37.134,0)" xlink:href="#au"/><use transform="matrix(0.009,0,0,0.009,45,0)" xlink:href="#aL"/></g><path fill="#fff" d="M1366 0h-271v-632H417V0H146v-1446h271v622h678v-622h271V0" id="aM"/><g id="r"><use transform="matrix(0.009,0,0,0.009,0,0)" xlink:href="#aM"/><use transform="matrix(0.009,0,0,0.009,13.607999999999999,0)" xlink:href="#az"/><use transform="matrix(0.009,0,0,0.009,23.840999999999998,0)" xlink:href="#au"/><use transform="matrix(0.009,0,0,0.009,31.706999999999997,0)" xlink:href="#as"/><use transform="matrix(0.009,0,0,0.009,38.672999999999995,0)" xlink:href="#at"/><use transform="matrix(0.009,0,0,0.009,43.550999999999995,0)" xlink:href="#aG"/><use transform="matrix(0.009,0,0,0.009,53.783999999999985,0)" xlink:href="#aI"/></g><g id="s"><use transform="matrix(0.009,0,0,0.009,0,0)" xlink:href="#ar"/><use transform="matrix(0.009,0,0,0.009,9.423,0)" xlink:href="#aG"/><use transform="matrix(0.009,0,0,0.009,19.656,0)" xlink:href="#aB"/></g><path fill="#fff" d="M415-222h579V0H146v-1446h269v1224" id="aN"/><g id="t"><use transform="matrix(0.009,0,0,0.009,0,0)" xlink:href="#aN"/><use transform="matrix(0.009,0,0,0.009,9.306,0)" xlink:href="#at"/><use transform="matrix(0.009,0,0,0.009,14.183999999999997,0)" xlink:href="#aH"/><use transform="matrix(0.009,0,0,0.009,22.769999999999992,0)" xlink:href="#aE"/><use transform="matrix(0.009,0,0,0.009,32.39099999999999,0)" xlink:href="#aG"/><use transform="matrix(0.009,0,0,0.009,42.62399999999999,0)" xlink:href="#au"/><use transform="matrix(0.009,0,0,0.009,50.48999999999999,0)" xlink:href="#at"/><use transform="matrix(0.009,0,0,0.009,55.36799999999999,0)" xlink:href="#aG"/><use transform="matrix(0.009,0,0,0.009,65.60099999999998,0)" xlink:href="#aI"/></g><path fill="#fff" d="M635 15C514 15 442-25 379-85v420H132v-1361c64 5 145-11 192 11 33 24 28 86 42 129 78-86 174-159 331-159 277 0 379 232 379 524 0 241-96 412-258 495-54 27-116 41-183 41zm186-536c0-181-37-329-209-329-117 0-175 55-233 124v460c48 60 104 93 198 93 188 0 244-152 244-348" id="aO"/><g id="u"><use transform="matrix(0.009,0,0,0.009,0,0)" xlink:href="#ax"/><use transform="matrix(0.009,0,0,0.009,12.068999999999999,0)" xlink:href="#az"/><use transform="matrix(0.009,0,0,0.009,22.302,0)" xlink:href="#aG"/><use transform="matrix(0.009,0,0,0.009,32.535,0)" xlink:href="#au"/><use transform="matrix(0.009,0,0,0.009,40.400999999999996,0)" xlink:href="#aA"/><use transform="matrix(0.009,0,0,0.009,50.63399999999999,0)" xlink:href="#av"/><use transform="matrix(0.009,0,0,0.009,65.78999999999999,0)" xlink:href="#aO"/><use transform="matrix(0.009,0,0,0.009,75.969,0)" xlink:href="#as"/><use transform="matrix(0.009,0,0,0.009,82.93499999999999,0)" xlink:href="#at"/><use transform="matrix(0.009,0,0,0.009,87.81299999999999,0)" xlink:href="#az"/><use transform="matrix(0.009,0,0,0.009,98.04599999999999,0)" xlink:href="#aG"/></g><g id="v"><use transform="matrix(0.009,0,0,0.009,0,0)" xlink:href="#ax"/><use transform="matrix(0.009,0,0,0.009,12.068999999999999,0)" xlink:href="#az"/><use transform="matrix(0.009,0,0,0.009,22.302,0)" xlink:href="#au"/><use transform="matrix(0.009,0,0,0.009,30.168,0)" xlink:href="#as"/><use transform="matrix(0.009,0,0,0.009,37.134,0)" xlink:href="#au"/></g><g id="w"><use transform="matrix(0.009,0,0,0.009,0,0)" xlink:href="#ar"/><use transform="matrix(0.009,0,0,0.009,9.423,0)" xlink:href="#aG"/><use transform="matrix(0.009,0,0,0.009,19.656,0)" xlink:href="#aB"/></g><path fill="#fff" d="M519-204c146 0 246-70 241-211-6-175-195-185-333-232-183-63-339-153-333-400 5-199 120-319 272-380 126-51 311-44 437 5 72 27 133 64 184 112l-66 127c-15 40-64 51-105 25-64-41-136-87-246-85-132 3-224 54-224 182 0 167 202 176 334 227 173 67 333 144 333 381 0 227-120 364-289 433-138 56-353 39-478-16-80-35-154-80-210-138l78-129c23-34 74-43 115-13 73 54 157 112 290 112" id="aP"/><g id="x"><use transform="matrix(0.009,0,0,0.009,0,0)" xlink:href="#aP"/><use transform="matrix(0.009,0,0,0.009,9.657,0)" xlink:href="#aA"/><use transform="matrix(0.009,0,0,0.009,19.890000000000004,0)" xlink:href="#aO"/><use transform="matrix(0.009,0,0,0.009,30.069,0)" xlink:href="#aO"/><use transform="matrix(0.009,0,0,0.009,40.248,0)" xlink:href="#az"/><use transform="matrix(0.009,0,0,0.009,50.480999999999995,0)" xlink:href="#aF"/><use transform="matrix(0.009,0,0,0.009,57.833999999999996,0)" xlink:href="#as"/></g><g id="y"><use transform="matrix(0.009,0,0,0.009,0,0)" xlink:href="#ax"/><use transform="matrix(0.009,0,0,0.009,12.068999999999999,0)" xlink:href="#az"/><use transform="matrix(0.009,0,0,0.009,22.302,0)" xlink:href="#au"/><use transform="matrix(0.009,0,0,0.009,30.168,0)" xlink:href="#as"/><use transform="matrix(0.009,0,0,0.009,37.134,0)" xlink:href="#au"/></g><g id="z"><use transform="matrix(0.01233333333333333,0,0,0.01233333333333333,0,0)" xlink:href="#aK"/><use transform="matrix(0.01233333333333333,0,0,0.01233333333333333,22.939999999999994,0)" xlink:href="#at"/><use transform="matrix(0.01233333333333333,0,0,0.01233333333333333,29.62466666666666,0)" xlink:href="#aI"/><use transform="matrix(0.01233333333333333,0,0,0.01233333333333333,42.389666666666656,0)" xlink:href="#aF"/><use transform="matrix(0.01233333333333333,0,0,0.01233333333333333,52.10833333333332,0)" xlink:href="#ar"/><use transform="matrix(0.01233333333333333,0,0,0.01233333333333333,65.02133333333332,0)" xlink:href="#as"/><use transform="matrix(0.01233333333333333,0,0,0.01233333333333333,74.56733333333331,0)" xlink:href="#at"/><use transform="matrix(0.01233333333333333,0,0,0.01233333333333333,81.25199999999998,0)" xlink:href="#az"/><use transform="matrix(0.01233333333333333,0,0,0.01233333333333333,95.27499999999998,0)" xlink:href="#aG"/></g><g id="A"><use transform="matrix(0.01233333333333333,0,0,0.01233333333333333,0,0)" xlink:href="#ax"/><use transform="matrix(0.01233333333333333,0,0,0.01233333333333333,16.538999999999994,0)" xlink:href="#az"/><use transform="matrix(0.01233333333333333,0,0,0.01233333333333333,30.56199999999999,0)" xlink:href="#au"/><use transform="matrix(0.01233333333333333,0,0,0.01233333333333333,41.341333333333324,0)" xlink:href="#as"/></g><g id="B"><use transform="matrix(0.009,0,0,0.009,0,0)" xlink:href="#ax"/><use transform="matrix(0.009,0,0,0.009,12.068999999999999,0)" xlink:href="#az"/><use transform="matrix(0.009,0,0,0.009,22.302,0)" xlink:href="#au"/><use transform="matrix(0.009,0,0,0.009,30.168,0)" xlink:href="#as"/></g><path fill="#fff" d="M601-1285c-158 0-198 102-186 268h267v176H423V0H176v-840c-61-14-153-3-153-76v-101h153c-17-292 113-454 383-454 47 0 91 6 132 19l-5 124c-1 41-44 43-85 43" id="aQ"/><g id="C"><use transform="matrix(0.009,0,0,0.009,0,0)" xlink:href="#az"/><use transform="matrix(0.009,0,0,0.009,10.232999999999999,0)" xlink:href="#aQ"/></g><g id="D"><use transform="matrix(0.009,0,0,0.009,0,0)" xlink:href="#aK"/><use transform="matrix(0.009,0,0,0.009,16.74,0)" xlink:href="#at"/><use transform="matrix(0.009,0,0,0.009,21.618,0)" xlink:href="#aI"/><use transform="matrix(0.009,0,0,0.009,30.933000000000003,0)" xlink:href="#aF"/><use transform="matrix(0.009,0,0,0.009,38.025,0)" xlink:href="#ar"/><use transform="matrix(0.009,0,0,0.009,47.44799999999999,0)" xlink:href="#as"/><use transform="matrix(0.009,0,0,0.009,54.414,0)" xlink:href="#at"/><use transform="matrix(0.009,0,0,0.009,59.292,0)" xlink:href="#aG"/><use transform="matrix(0.009,0,0,0.009,69.525,0)" xlink:href="#aI"/></g><path fill="#fff" d="M646 0H422L14-1026h205c36-1 62 20 71 46 75 215 159 421 226 642 9 30 15 61 21 92 13-66 27-126 50-186l203-548c9-25 34-46 68-46h195" id="aR"/><g id="E"><use transform="matrix(0.009,0,0,0.009,0,0)" xlink:href="#ax"/><use transform="matrix(0.009,0,0,0.009,12.068999999999999,0)" xlink:href="#az"/><use transform="matrix(0.009,0,0,0.009,22.302,0)" xlink:href="#aG"/><use transform="matrix(0.009,0,0,0.009,32.211,0)" xlink:href="#aR"/><use transform="matrix(0.009,0,0,0.009,41.516999999999996,0)" xlink:href="#aE"/><use transform="matrix(0.009,0,0,0.009,51.13799999999999,0)" xlink:href="#aF"/><use transform="matrix(0.009,0,0,0.009,58.49099999999999,0)" xlink:href="#as"/><use transform="matrix(0.009,0,0,0.009,65.457,0)" xlink:href="#at"/><use transform="matrix(0.009,0,0,0.009,70.335,0)" xlink:href="#aG"/><use transform="matrix(0.009,0,0,0.009,80.568,0)" xlink:href="#aI"/></g><g id="F"><use transform="matrix(0.009,0,0,0.009,0,0)" xlink:href="#ay"/><use transform="matrix(0.009,0,0,0.009,4.877999999999999,0)" xlink:href="#aE"/><use transform="matrix(0.009,0,0,0.009,14.498999999999999,0)" xlink:href="#aI"/><use transform="matrix(0.009,0,0,0.009,23.813999999999997,0)" xlink:href="#ar"/><use transform="matrix(0.009,0,0,0.009,33.237,0)" xlink:href="#aH"/><use transform="matrix(0.009,0,0,0.009,41.82299999999999,0)" xlink:href="#aw"/></g><g id="G"><use transform="matrix(0.009,0,0,0.009,0,0)" xlink:href="#aB"/><use transform="matrix(0.009,0,0,0.009,10.26,0)" xlink:href="#ar"/><use transform="matrix(0.009,0,0,0.009,19.683,0)" xlink:href="#as"/><use transform="matrix(0.009,0,0,0.009,26.649,0)" xlink:href="#ar"/></g><path fill="#fff" d="M7-1026h196c35-1 64 19 71 46 60 241 137 465 181 722 68-246 151-481 220-724 17-60 103-44 175-46 35-1 61 20 69 46 70 242 148 477 212 725 47-256 125-482 189-723 21-78 165-35 255-46L1250 0h-199c-21 0-37-15-46-44-67-218-136-432-201-652-5-20-10-39-13-58-8 41-17 80-29 119L575-44c-9 29-27 44-54 44H332" id="aS"/><g id="H"><use transform="matrix(0.009,0,0,0.009,0,0)" xlink:href="#aS"/><use transform="matrix(0.009,0,0,0.009,14.238,0)" xlink:href="#ar"/><use transform="matrix(0.009,0,0,0.009,23.661,0)" xlink:href="#aF"/><use transform="matrix(0.009,0,0,0.009,31.014000000000003,0)" xlink:href="#aE"/><use transform="matrix(0.009,0,0,0.009,40.635000000000005,0)" xlink:href="#aq"/><use transform="matrix(0.009,0,0,0.009,50.868,0)" xlink:href="#az"/><use transform="matrix(0.009,0,0,0.009,61.10099999999999,0)" xlink:href="#aA"/><use transform="matrix(0.009,0,0,0.009,71.334,0)" xlink:href="#au"/><use transform="matrix(0.009,0,0,0.009,79.20000000000002,0)" xlink:href="#aE"/></g><g id="I"><use transform="matrix(0.009,0,0,0.009,0,0)" xlink:href="#aE"/><use transform="matrix(0.009,0,0,0.009,9.620999999999999,0)" xlink:href="#aH"/><use transform="matrix(0.009,0,0,0.009,18.206999999999997,0)" xlink:href="#az"/><use transform="matrix(0.009,0,0,0.009,28.439999999999998,0)" xlink:href="#au"/><use transform="matrix(0.009,0,0,0.009,36.306,0)" xlink:href="#aw"/><use transform="matrix(0.009,0,0,0.009,45.909,0)" xlink:href="#au"/><use transform="matrix(0.009,0,0,0.009,53.775,0)" xlink:href="#as"/><use transform="matrix(0.009,0,0,0.009,60.74100000000001,0)" xlink:href="#aE"/><use transform="matrix(0.009,0,0,0.009,70.362,0)" xlink:href="#av"/><use transform="matrix(0.009,0,0,0.009,85.51799999999999,0)" xlink:href="#au"/><use transform="matrix(0.009,0,0,0.009,93.38399999999999,0)" xlink:href="#aL"/></g><path fill="#fff" d="M100-707h518v206H100v-206" id="aT"/><g id="J"><use transform="matrix(0.009,0,0,0.009,0,0)" xlink:href="#aF"/><use transform="matrix(0.009,0,0,0.009,7.353,0)" xlink:href="#aE"/><use transform="matrix(0.009,0,0,0.009,16.973999999999997,0)" xlink:href="#aT"/><use transform="matrix(0.009,0,0,0.009,23.436,0)" xlink:href="#aE"/><use transform="matrix(0.009,0,0,0.009,33.056999999999995,0)" xlink:href="#aG"/><use transform="matrix(0.009,0,0,0.009,43.28999999999999,0)" xlink:href="#aI"/><use transform="matrix(0.009,0,0,0.009,52.60499999999999,0)" xlink:href="#at"/><use transform="matrix(0.009,0,0,0.009,57.48299999999999,0)" xlink:href="#aG"/><use transform="matrix(0.009,0,0,0.009,67.716,0)" xlink:href="#aE"/><use transform="matrix(0.009,0,0,0.009,77.33699999999999,0)" xlink:href="#aE"/><use transform="matrix(0.009,0,0,0.009,86.95799999999997,0)" xlink:href="#aF"/><use transform="matrix(0.009,0,0,0.009,94.31099999999998,0)" xlink:href="#at"/><use transform="matrix(0.009,0,0,0.009,99.18899999999998,0)" xlink:href="#aG"/><use transform="matrix(0.009,0,0,0.009,109.42199999999997,0)" xlink:href="#aI"/></g><g id="K"><use transform="matrix(0.009,0,0,0.009,0,0)" xlink:href="#at"/><use transform="matrix(0.009,0,0,0.009,4.877999999999999,0)" xlink:href="#aG"/><use transform="matrix(0.009,0,0,0.009,15.110999999999997,0)" xlink:href="#aI"/><use transform="matrix(0.009,0,0,0.009,24.425999999999995,0)" xlink:href="#aE"/><use transform="matrix(0.009,0,0,0.009,34.047,0)" xlink:href="#au"/><use transform="matrix(0.009,0,0,0.009,41.913,0)" xlink:href="#as"/><use transform="matrix(0.009,0,0,0.009,48.879,0)" xlink:href="#at"/><use transform="matrix(0.009,0,0,0.009,53.757,0)" xlink:href="#az"/><use transform="matrix(0.009,0,0,0.009,63.989999999999995,0)" xlink:href="#aG"/></g><g id="L"><use transform="matrix(0.009,0,0,0.009,0,0)" xlink:href="#av"/><use transform="matrix(0.009,0,0,0.009,15.155999999999999,0)" xlink:href="#az"/><use transform="matrix(0.009,0,0,0.009,25.092,0)" xlink:href="#aR"/><use transform="matrix(0.009,0,0,0.009,34.695,0)" xlink:href="#at"/><use transform="matrix(0.009,0,0,0.009,39.573,0)" xlink:href="#aG"/><use transform="matrix(0.009,0,0,0.009,49.806,0)" xlink:href="#aI"/></g><g id="M"><use transform="matrix(0.009,0,0,0.009,0,0)" xlink:href="#aB"/><use transform="matrix(0.009,0,0,0.009,10.26,0)" xlink:href="#ar"/><use transform="matrix(0.009,0,0,0.009,19.683,0)" xlink:href="#as"/><use transform="matrix(0.009,0,0,0.009,26.649,0)" xlink:href="#ar"/></g><g id="N"><use transform="matrix(0.01233333333333333,0,0,0.01233333333333333,0,0)" xlink:href="#ax"/><use transform="matrix(0.01233333333333333,0,0,0.01233333333333333,16.538999999999994,0)" xlink:href="#ay"/><use transform="matrix(0.01233333333333333,0,0,0.01233333333333333,23.22366666666666,0)" xlink:href="#az"/><use transform="matrix(0.01233333333333333,0,0,0.01233333333333333,37.246666666666655,0)" xlink:href="#aA"/><use transform="matrix(0.01233333333333333,0,0,0.01233333333333333,51.26966666666665,0)" xlink:href="#aB"/></g><path fill="#fff" d="M449 0H179v-1446h270V0" id="aU"/><g id="O"><use transform="matrix(0.01233333333333333,0,0,0.01233333333333333,0,0)" xlink:href="#aU"/><use transform="matrix(0.01233333333333333,0,0,0.01233333333333333,7.745333333333331,0)" xlink:href="#aG"/><use transform="matrix(0.01233333333333333,0,0,0.01233333333333333,21.768333333333327,0)" xlink:href="#aQ"/><use transform="matrix(0.01233333333333333,0,0,0.01233333333333333,30.41399999999999,0)" xlink:href="#aF"/><use transform="matrix(0.01233333333333333,0,0,0.01233333333333333,40.13266666666665,0)" xlink:href="#ar"/><use transform="matrix(0.01233333333333333,0,0,0.01233333333333333,53.045666666666655,0)" xlink:href="#au"/><use transform="matrix(0.01233333333333333,0,0,0.01233333333333333,63.82499999999997,0)" xlink:href="#as"/><use transform="matrix(0.01233333333333333,0,0,0.01233333333333333,73.37099999999997,0)" xlink:href="#aF"/><use transform="matrix(0.01233333333333333,0,0,0.01233333333333333,83.44733333333329,0)" xlink:href="#aA"/><use transform="matrix(0.01233333333333333,0,0,0.01233333333333333,97.47033333333329,0)" xlink:href="#aH"/><use transform="matrix(0.01233333333333333,0,0,0.01233333333333333,109.23633333333328,0)" xlink:href="#as"/><use transform="matrix(0.01233333333333333,0,0,0.01233333333333333,118.78233333333328,0)" xlink:href="#aA"/><use transform="matrix(0.01233333333333333,0,0,0.01233333333333333,132.80533333333327,0)" xlink:href="#aF"/><use transform="matrix(0.01233333333333333,0,0,0.01233333333333333,142.8816666666666,0)" xlink:href="#aE"/></g><g id="P"><use transform="matrix(0.01233333333333333,0,0,0.01233333333333333,0,0)" xlink:href="#ax"/><use transform="matrix(0.01233333333333333,0,0,0.01233333333333333,16.538999999999994,0)" xlink:href="#az"/><use transform="matrix(0.01233333333333333,0,0,0.01233333333333333,30.56199999999999,0)" xlink:href="#au"/><use transform="matrix(0.01233333333333333,0,0,0.01233333333333333,41.341333333333324,0)" xlink:href="#as"/></g><g id="Q"><use transform="matrix(0.009,0,0,0.009,0,0)" xlink:href="#aN"/><use transform="matrix(0.009,0,0,0.009,9.306,0)" xlink:href="#at"/><use transform="matrix(0.009,0,0,0.009,14.183999999999997,0)" xlink:href="#aH"/><use transform="matrix(0.009,0,0,0.009,22.769999999999992,0)" xlink:href="#aE"/><use transform="matrix(0.009,0,0,0.009,32.39099999999999,0)" xlink:href="#aG"/><use transform="matrix(0.009,0,0,0.009,42.62399999999999,0)" xlink:href="#au"/><use transform="matrix(0.009,0,0,0.009,50.48999999999999,0)" xlink:href="#at"/><use transform="matrix(0.009,0,0,0.009,55.36799999999999,0)" xlink:href="#aG"/><use transform="matrix(0.009,0,0,0.009,65.60099999999998,0)" xlink:href="#aI"/></g><g id="R"><use transform="matrix(0.009,0,0,0.009,0,0)" xlink:href="#aP"/><use transform="matrix(0.009,0,0,0.009,9.657,0)" xlink:href="#aE"/><use transform="matrix(0.009,0,0,0.009,19.278,0)" xlink:href="#aF"/><use transform="matrix(0.009,0,0,0.009,26.631000000000004,0)" xlink:href="#aR"/><use transform="matrix(0.009,0,0,0.009,35.937,0)" xlink:href="#aE"/><use transform="matrix(0.009,0,0,0.009,45.558,0)" xlink:href="#aF"/></g><g id="S"><use transform="matrix(0.009,0,0,0.009,0,0)" xlink:href="#aC"/><use transform="matrix(0.009,0,0,0.009,9.09,0)" xlink:href="#aw"/><use transform="matrix(0.009,0,0,0.009,18.692999999999998,0)" xlink:href="#aO"/><use transform="matrix(0.009,0,0,0.009,28.871999999999996,0)" xlink:href="#aE"/><use transform="matrix(0.009,0,0,0.009,38.492999999999995,0)" xlink:href="#au"/><use transform="matrix(0.009,0,0,0.009,46.358999999999995,0)" xlink:href="#aL"/></g><path fill="#fff" d="M1417 0h-208c-47 1-77-28-90-61l-108-295H412L304-61c-11 30-46 61-89 61H6l568-1446h275zM481-546h461c-77-218-163-424-231-651-66 230-154 432-230 651" id="aV"/><g id="T"><use transform="matrix(0.009,0,0,0.009,0,0)" xlink:href="#aP"/><use transform="matrix(0.009,0,0,0.009,9.657,0)" xlink:href="#aV"/><use transform="matrix(0.009,0,0,0.009,22.436999999999998,0)" xlink:href="#aV"/><use transform="matrix(0.009,0,0,0.009,35.217,0)" xlink:href="#aP"/><use transform="matrix(0.009,0,0,0.009,44.873999999999995,0)" xlink:href="#aL"/></g><g id="U"><use transform="matrix(0.009,0,0,0.009,0,0)" xlink:href="#aP"/><use transform="matrix(0.009,0,0,0.009,9.657,0)" xlink:href="#aE"/><use transform="matrix(0.009,0,0,0.009,19.278,0)" xlink:href="#aH"/><use transform="matrix(0.009,0,0,0.009,27.863999999999997,0)" xlink:href="#aA"/><use transform="matrix(0.009,0,0,0.009,38.096999999999994,0)" xlink:href="#aF"/><use transform="matrix(0.009,0,0,0.009,45.449999999999996,0)" xlink:href="#at"/><use transform="matrix(0.009,0,0,0.009,50.327999999999996,0)" xlink:href="#as"/><use transform="matrix(0.009,0,0,0.009,57.294,0)" xlink:href="#aw"/><use transform="matrix(0.009,0,0,0.009,66.89699999999999,0)" xlink:href="#aL"/></g><path fill="#fff" d="M377-1009c4 38 6 82 6 121V0H146v-1446c71 6 174-24 211 20 269 320 519 661 779 990-5-42-7-87-7-131v-879h237V0c-64-4-144 10-192-10-14-6-28-19-41-36" id="aW"/><path fill="#fff" d="M382-1486v851c54 1 89-1 115-33l255-315c22-25 41-43 86-43h226C946-887 832-742 710-606c-11 12-25 21-39 30 29 21 48 49 69 78L1082 0H859c-44-1-65-15-85-44L513-433c-20-29-30-36-75-37h-56V0H135v-1486h247" id="aX"/><g id="V"><use transform="matrix(0.009,0,0,0.009,0,0)" xlink:href="#aW"/><use transform="matrix(0.009,0,0,0.009,13.607999999999999,0)" xlink:href="#aE"/><use transform="matrix(0.009,0,0,0.009,23.229,0)" xlink:href="#as"/><use transform="matrix(0.009,0,0,0.009,30.195,0)" xlink:href="#aS"/><use transform="matrix(0.009,0,0,0.009,44.433,0)" xlink:href="#az"/><use transform="matrix(0.009,0,0,0.009,54.666,0)" xlink:href="#aF"/><use transform="matrix(0.009,0,0,0.009,62.019,0)" xlink:href="#aX"/><use transform="matrix(0.009,0,0,0.009,71.946,0)" xlink:href="#at"/><use transform="matrix(0.009,0,0,0.009,76.824,0)" xlink:href="#aG"/><use transform="matrix(0.009,0,0,0.009,87.05700000000002,0)" xlink:href="#aI"/></g><g id="W"><use transform="matrix(0.009,0,0,0.009,0,0)" xlink:href="#aP"/><use transform="matrix(0.009,0,0,0.009,9.657,0)" xlink:href="#aA"/><use transform="matrix(0.009,0,0,0.009,19.890000000000004,0)" xlink:href="#aO"/><use transform="matrix(0.009,0,0,0.009,30.069,0)" xlink:href="#aO"/><use transform="matrix(0.009,0,0,0.009,40.248,0)" xlink:href="#az"/><use transform="matrix(0.009,0,0,0.009,50.480999999999995,0)" xlink:href="#aF"/><use transform="matrix(0.009,0,0,0.009,57.833999999999996,0)" xlink:href="#as"/></g><g id="X"><use transform="matrix(0.009,0,0,0.009,0,0)" xlink:href="#ax"/><use transform="matrix(0.009,0,0,0.009,12.068999999999999,0)" xlink:href="#az"/><use transform="matrix(0.009,0,0,0.009,22.302,0)" xlink:href="#aG"/><use transform="matrix(0.009,0,0,0.009,32.535,0)" xlink:href="#au"/><use transform="matrix(0.009,0,0,0.009,40.400999999999996,0)" xlink:href="#aA"/><use transform="matrix(0.009,0,0,0.009,50.63399999999999,0)" xlink:href="#av"/><use transform="matrix(0.009,0,0,0.009,65.78999999999999,0)" xlink:href="#aO"/><use transform="matrix(0.009,0,0,0.009,75.969,0)" xlink:href="#as"/><use transform="matrix(0.009,0,0,0.009,82.93499999999999,0)" xlink:href="#at"/><use transform="matrix(0.009,0,0,0.009,87.81299999999999,0)" xlink:href="#az"/><use transform="matrix(0.009,0,0,0.009,98.04599999999999,0)" xlink:href="#aG"/><use transform="matrix(0.009,0,0,0.009,108.279,0)" xlink:href="#aL"/></g><path fill="#fff" d="M269-185h293c2-315-3-636 3-946L357-957c-27 30-93 19-114-9l-78-107 441-375h203v1263h260V0H269v-185" id="aY"/><path fill="#fff" d="M1070-1052c53 175 53 482 0 658C999-159 862 16 578 16 296 16 159-161 90-394c-52-176-53-483 0-658 70-234 205-410 488-410s422 177 492 410zM682-214c189-91 201-498 150-769-29-152-89-274-254-274-162 0-222 123-250 274-49 269-39 678 148 769 66 32 140 32 206 0" id="aZ"/><path fill="#fff" d="M394-1461c217 0 335 143 335 365 0 171-86 279-208 332-41 17-83 25-127 25-214 0-333-139-333-357 0-221 116-365 333-365zm0 562c109 0 144-82 144-197 0-118-33-205-144-205-110 0-141 88-141 205 0 115 32 197 141 197zm816-508c18-21 39-39 80-39h179L395-37C358 25 227-8 136 0zm0 702c217 0 335 143 335 365 0 171-87 278-208 332-41 17-83 26-127 26-214 0-333-140-333-358 0-221 116-365 333-365zm0 563c110 0 145-83 145-198 0-117-34-205-145-205s-141 89-141 205c0 114 32 198 141 198" id="ba"/><g id="Y"><use transform="matrix(0.009,0,0,0.009,0,0)" xlink:href="#aY"/><use transform="matrix(0.009,0,0,0.009,10.44,0)" xlink:href="#aZ"/><use transform="matrix(0.009,0,0,0.009,20.88,0)" xlink:href="#aZ"/><use transform="matrix(0.009,0,0,0.009,31.32,0)" xlink:href="#ba"/></g><g id="Z"><use transform="matrix(0.009,0,0,0.009,0,0)" xlink:href="#az"/><use transform="matrix(0.009,0,0,0.009,10.232999999999999,0)" xlink:href="#aF"/></g><g id="aa"><use transform="matrix(0.009,0,0,0.009,0,0)" xlink:href="#ay"/><use transform="matrix(0.009,0,0,0.009,4.877999999999999,0)" xlink:href="#aE"/><use transform="matrix(0.009,0,0,0.009,14.498999999999999,0)" xlink:href="#au"/><use transform="matrix(0.009,0,0,0.009,22.365,0)" xlink:href="#au"/><use transform="matrix(0.009,0,0,0.009,30.230999999999998,0)" xlink:href="#aE"/><use transform="matrix(0.009,0,0,0.009,39.852,0)" xlink:href="#aF"/><use transform="matrix(0.009,0,0,0.009,45.981,0)" xlink:href="#aJ"/></g><g id="ab"><use transform="matrix(0.009,0,0,0.009,0,0)" xlink:href="#aK"/><use transform="matrix(0.009,0,0,0.009,16.74,0)" xlink:href="#ar"/><use transform="matrix(0.009,0,0,0.009,26.162999999999997,0)" xlink:href="#aG"/><use transform="matrix(0.009,0,0,0.009,36.395999999999994,0)" xlink:href="#ar"/><use transform="matrix(0.009,0,0,0.009,45.818999999999996,0)" xlink:href="#aI"/><use transform="matrix(0.009,0,0,0.009,55.13399999999999,0)" xlink:href="#at"/><use transform="matrix(0.009,0,0,0.009,60.01199999999999,0)" xlink:href="#aG"/><use transform="matrix(0.009,0,0,0.009,70.24499999999999,0)" xlink:href="#aI"/></g><g id="ac"><use transform="matrix(0.009,0,0,0.009,0,0)" xlink:href="#aH"/><use transform="matrix(0.009,0,0,0.009,8.585999999999999,0)" xlink:href="#az"/><use transform="matrix(0.009,0,0,0.009,18.818999999999996,0)" xlink:href="#aG"/><use transform="matrix(0.009,0,0,0.009,29.051999999999992,0)" xlink:href="#au"/><use transform="matrix(0.009,0,0,0.009,36.91799999999999,0)" xlink:href="#aA"/><use transform="matrix(0.009,0,0,0.009,47.15099999999999,0)" xlink:href="#av"/><use transform="matrix(0.009,0,0,0.009,62.30699999999999,0)" xlink:href="#aO"/><use transform="matrix(0.009,0,0,0.009,72.48599999999999,0)" xlink:href="#as"/><use transform="matrix(0.009,0,0,0.009,79.45199999999998,0)" xlink:href="#at"/><use transform="matrix(0.009,0,0,0.009,84.32999999999998,0)" xlink:href="#az"/><use transform="matrix(0.009,0,0,0.009,94.56299999999999,0)" xlink:href="#aG"/></g><g id="ad"><use transform="matrix(0.009,0,0,0.009,0,0)" xlink:href="#aH"/><use transform="matrix(0.009,0,0,0.009,8.585999999999999,0)" xlink:href="#az"/><use transform="matrix(0.009,0,0,0.009,18.818999999999996,0)" xlink:href="#aG"/><use transform="matrix(0.009,0,0,0.009,29.051999999999992,0)" xlink:href="#as"/><use transform="matrix(0.009,0,0,0.009,36.017999999999994,0)" xlink:href="#aF"/><use transform="matrix(0.009,0,0,0.009,43.370999999999995,0)" xlink:href="#az"/><use transform="matrix(0.009,0,0,0.009,53.604,0)" xlink:href="#ay"/></g><g id="ae"><use transform="matrix(0.009,0,0,0.009,0,0)" xlink:href="#au"/><use transform="matrix(0.009,0,0,0.009,7.866,0)" xlink:href="#aA"/><use transform="matrix(0.009,0,0,0.009,18.098999999999997,0)" xlink:href="#aF"/><use transform="matrix(0.009,0,0,0.009,25.451999999999998,0)" xlink:href="#aO"/><use transform="matrix(0.009,0,0,0.009,35.631,0)" xlink:href="#aF"/><use transform="matrix(0.009,0,0,0.009,42.984,0)" xlink:href="#at"/><use transform="matrix(0.009,0,0,0.009,47.862,0)" xlink:href="#au"/><use transform="matrix(0.009,0,0,0.009,55.728,0)" xlink:href="#aE"/><use transform="matrix(0.009,0,0,0.009,65.349,0)" xlink:href="#au"/></g><g id="af"><use transform="matrix(0.01233333333333333,0,0,0.01233333333333333,0,0)" xlink:href="#ax"/><use transform="matrix(0.01233333333333333,0,0,0.01233333333333333,16.538999999999994,0)" xlink:href="#az"/><use transform="matrix(0.01233333333333333,0,0,0.01233333333333333,30.56199999999999,0)" xlink:href="#aG"/><use transform="matrix(0.01233333333333333,0,0,0.01233333333333333,44.58499999999999,0)" xlink:href="#au"/><use transform="matrix(0.01233333333333333,0,0,0.01233333333333333,55.36433333333332,0)" xlink:href="#aA"/><use transform="matrix(0.01233333333333333,0,0,0.01233333333333333,69.38733333333332,0)" xlink:href="#av"/><use transform="matrix(0.01233333333333333,0,0,0.01233333333333333,90.15666666666664,0)" xlink:href="#aO"/><use transform="matrix(0.01233333333333333,0,0,0.01233333333333333,104.10566666666664,0)" xlink:href="#as"/><use transform="matrix(0.01233333333333333,0,0,0.01233333333333333,113.65166666666663,0)" xlink:href="#at"/><use transform="matrix(0.01233333333333333,0,0,0.01233333333333333,120.3363333333333,0)" xlink:href="#az"/><use transform="matrix(0.01233333333333333,0,0,0.01233333333333333,134.3593333333333,0)" xlink:href="#aG"/></g><path d="M1280-216C1167-69 999 16 746 16 392 16 183-168 85-432c-67-180-67-423 7-596 112-263 340-445 706-445 226 0 386 79 500 194l-114 153c-16 27-62 52-102 29-79-46-153-102-286-97-274 10-414 187-414 465 0 218 87 366 236 436 107 51 281 35 366-17 40-24 105-107 162-47" id="bb"/><path d="M458-270h540V0H120v-1457h338v1187" id="bc"/><path d="M1504-1022c73 177 73 411 0 587-110 265-336 451-702 451-365 0-594-187-704-451-73-177-73-412 0-588 110-265 339-450 704-450s592 187 702 451zM802-264c280 0 410-182 410-465 0-282-131-465-410-465-281 0-412 182-412 465 0 284 130 465 412 465" id="bd"/><path d="M438-595c4 199 91 328 288 328 196 0 288-128 288-327v-863h338v863c-5 295-147 478-365 565-149 59-375 60-523 0-219-87-364-269-364-565v-863h338v862" id="be"/><path d="M1388-1020c73 173 73 409 0 582C1277-177 1049 0 686 0H120v-1457h566c362 6 592 177 702 437zM686-260c280-8 410-185 410-469 0-283-130-460-410-468H460v937h226" id="bf"/><g id="ag"><use transform="matrix(0.01899999999999998,0,0,0.01899999999999998,0,0)" xlink:href="#bb"/><use transform="matrix(0.01899999999999998,0,0,0.01899999999999998,24.965999999999973,0)" xlink:href="#bc"/><use transform="matrix(0.01899999999999998,0,0,0.01899999999999998,43.16799999999995,0)" xlink:href="#bd"/><use transform="matrix(0.01899999999999998,0,0,0.01899999999999998,73.56799999999991,0)" xlink:href="#be"/><use transform="matrix(0.01899999999999998,0,0,0.01899999999999998,101.15599999999986,0)" xlink:href="#bf"/></g><path d="M524-252c120-1 200-49 194-169-8-162-195-164-324-209-183-64-330-162-324-410 5-208 127-332 287-396 178-72 447-26 571 54 32 21 62 40 88 64l-84 157c-19 43-73 61-124 33-64-36-131-79-234-79-114 0-188 47-188 150 0 109 114 131 206 161 219 72 447 139 444 429-3 234-123 379-300 445-265 98-584-9-722-154l100-158c22-40 88-51 134-21 74 48 151 104 276 103" id="bg"/><path d="M1178-1457v268H768V0H430v-1189H20v-268h1158" id="bh"/><g id="ah"><use transform="matrix(0.01899999999999998,0,0,0.01899999999999998,0,0)" xlink:href="#bb"/><use transform="matrix(0.01899999999999998,0,0,0.01899999999999998,24.965999999999973,0)" xlink:href="#bd"/><use transform="matrix(0.01899999999999998,0,0,0.01899999999999998,55.36599999999995,0)" xlink:href="#bg"/><use transform="matrix(0.01899999999999998,0,0,0.01899999999999998,75.96199999999992,0)" xlink:href="#bh"/></g><path d="M1220-981c0 346-230 490-586 494H458V0H120v-1457h514c350 4 586 140 586 476zm-338 0c0-152-92-223-248-223H458v462h176c169 2 248-80 248-239" id="bi"/><path d="M490 0H150v-1457h340V0" id="bj"/><path d="M410-971c5 42 8 89 8 133V0H120v-1457c98 1 199-2 296 1 40 1 59 21 74 51 138 273 279 543 414 818 13 27 24 55 35 84 22-58 48-113 75-166l374-736c18-41 51-52 112-52h258V0h-298v-838c0-41 2-85 6-132l-386 749c-26 54-80 76-164 71-58-3-97-29-118-71" id="bk"/><path d="M1186-1457c-1 83 5 167-32 220L470-260h694V0H40c3-80-6-165 30-217l686-980H96v-260h1090" id="bl"/><path d="M1476 0h-262c-58 1-97-31-112-73l-86-254H462L376-73C363-36 320 0 266 0H2l564-1457h346zM540-557h398c-66-202-136-394-199-600-61 210-134 396-199 600" id="bm"/><path d="M411-924c4 46 7 96 7 143V0H120v-1457c80 4 178-13 242 9 22 7 32 24 48 43l692 875c-5-51-8-104-8-156v-771h298V0c-80-4-180 12-242-12-18-7-35-23-52-44" id="bn"/><g id="ai"><use transform="matrix(0.01899999999999998,0,0,0.01899999999999998,0,0)" xlink:href="#bd"/><use transform="matrix(0.01899999999999998,0,0,0.01899999999999998,30.399999999999967,0)" xlink:href="#bi"/><use transform="matrix(0.01899999999999998,0,0,0.01899999999999998,54.64399999999993,0)" xlink:href="#bh"/><use transform="matrix(0.01899999999999998,0,0,0.01899999999999998,77.4059999999999,0)" xlink:href="#bj"/><use transform="matrix(0.01899999999999998,0,0,0.01899999999999998,89.56599999999989,0)" xlink:href="#bk"/><use transform="matrix(0.01899999999999998,0,0,0.01899999999999998,125.24799999999985,0)" xlink:href="#bj"/><use transform="matrix(0.01899999999999998,0,0,0.01899999999999998,137.40799999999984,0)" xlink:href="#bl"/><use transform="matrix(0.01899999999999998,0,0,0.01899999999999998,160.58799999999982,0)" xlink:href="#bm"/><use transform="matrix(0.01899999999999998,0,0,0.01899999999999998,185.5539999999998,0)" xlink:href="#bh"/><use transform="matrix(0.01899999999999998,0,0,0.01899999999999998,208.31599999999978,0)" xlink:href="#bj"/><use transform="matrix(0.01899999999999998,0,0,0.01899999999999998,220.4759999999998,0)" xlink:href="#bd"/><use transform="matrix(0.01899999999999998,0,0,0.01899999999999998,250.87599999999975,0)" xlink:href="#bn"/></g><path d="M1423-1004c65 172 65 422 0 594-95 250-292 425-626 425-332 0-530-176-625-425-66-172-66-422 0-594 96-250 292-427 625-427 334 0 531 177 626 427zm-98 562c54-151 54-381 0-532-78-219-242-369-528-369-284 0-449 152-527 369-55 151-55 382 0 532C349-225 512-74 797-74c286 0 450-151 528-368" id="bo"/><path d="M561 13c-149-1-237-57-304-147v486h-95V-995c32 3 80-12 82 25l9 154c78-104 185-196 353-196 274 0 391 204 388 508-3 232-90 398-248 477-54 27-115 40-185 40zm335-517c3-263-82-431-317-431-157 0-250 91-322 195v522C324-118 397-62 542-62c253 0 351-186 354-442" id="bp"/><path d="M652-77c-45 51-127 93-218 93-141 0-214-80-214-229v-680H77c-30 2-25-32-25-60l170-12 24-356c1-30 40-23 70-23v380h313v71H316v675C299-75 456-23 560-96c24-10 47-53 66-23" id="bq"/><path d="M285-995V0h-95v-995h95zm-47-432c53 0 89 36 89 89 0 52-36 87-89 87-52 0-88-35-88-87 0-53 35-89 88-89" id="br"/><path d="M530-935c-134 0-212 89-273 183V0h-95v-995c34 2 80-10 82 25l9 144c70-93 148-185 302-185 158 0 234 102 262 240 44-141 142-240 318-240 222 0 319 149 319 375V0h-96v-636c1-180-75-299-243-299-172 0-263 119-263 299V0h-95v-636c1-175-64-299-227-299" id="bs"/><path d="M826-995c-1 33 1 57-14 78L189-75h612V0H74c0-34-2-51 15-75l625-845H107v-75h719" id="bt"/><path d="M910-128C812-7 546 58 357-22 182-96 88-268 88-518c0-229 98-384 260-456 56-25 118-37 189-37 258 0 385 171 391 436 0 26-5 38-27 38H182C181-257 283-70 550-63c125 3 212-42 282-91 38-39 59 3 78 26zm-68-470c-5-207-101-342-304-342-223 0-324 141-352 342h656" id="bu"/><g id="aj"><use transform="matrix(0.015666666666666662,0,0,0.015666666666666662,0,0)" xlink:href="#bo"/><use transform="matrix(0.015666666666666662,0,0,0.015666666666666662,24.988333333333326,0)" xlink:href="#bp"/><use transform="matrix(0.015666666666666662,0,0,0.015666666666666662,41.75166666666665,0)" xlink:href="#bq"/><use transform="matrix(0.015666666666666662,0,0,0.015666666666666662,52.92199999999998,0)" xlink:href="#br"/><use transform="matrix(0.015666666666666662,0,0,0.015666666666666662,60.363666666666646,0)" xlink:href="#bs"/><use transform="matrix(0.015666666666666662,0,0,0.015666666666666662,85.2893333333333,0)" xlink:href="#br"/><use transform="matrix(0.015666666666666662,0,0,0.015666666666666662,92.73099999999997,0)" xlink:href="#bt"/><use transform="matrix(0.015666666666666662,0,0,0.015666666666666662,106.89366666666663,0)" xlink:href="#bu"/></g><path d="M516-1012c222 0 319 142 319 364V0c-36 1-71 4-75-28l-14-127C652-64 555 20 373 16c-163-3-266-89-266-257 0-185 170-237 345-275 80-17 177-25 290-28v-104c1-172-71-286-236-287-124-1-204 49-265 108-41 40-73 4-84-27 94-91 190-158 359-158zM199-245c0 125 75 192 198 192 170 0 260-81 345-168v-259c-165 5-306 21-414 69-74 33-129 76-129 166" id="bv"/><path d="M589-935c-156 2-256 90-332 189V0h-95v-995c34 2 80-10 82 25l9 150c81-100 192-191 360-191 229 0 331 145 331 375V0h-95v-636c0-181-80-302-260-299" id="bw"/><path d="M521-1012c147 1 236 59 303 147v-590h96V0c-35-2-80 11-82-26l-10-157C750-79 643 13 475 13 202 13 84-192 87-495c2-233 91-398 249-477 54-27 115-40 185-40zM185-495c-3 263 83 431 317 431 157 0 249-90 322-193v-525c-68-98-141-155-285-155-253 0-351 186-354 442" id="bx"/><g id="ak"><use transform="matrix(0.015666666666666662,0,0,0.015666666666666662,0,0)" xlink:href="#bv"/><use transform="matrix(0.015666666666666662,0,0,0.015666666666666662,15.243666666666662,0)" xlink:href="#bw"/><use transform="matrix(0.015666666666666662,0,0,0.015666666666666662,32.19499999999999,0)" xlink:href="#bx"/></g><path d="M410-54c153-4 256-74 256-221 0-152-158-169-278-210-133-46-277-84-277-257 0-179 142-269 329-269 133 0 217 39 291 106-14 25-32 66-71 35-51-40-121-72-218-69-135 4-241 63-241 190 0 146 161 160 277 201 132 46 277 86 277 257C755-88 615 12 406 16 260 19 168-37 89-105c16-28 41-71 83-34 54 48 129 87 238 85" id="by"/><path d="M529 0h-84L25-995c41 3 95-12 110 24l328 785c13 28 17 55 25 86 7-30 13-59 25-86l330-785c9-35 65-21 106-24" id="bz"/><g id="al"><use transform="matrix(0.015666666666666662,0,0,0.015666666666666662,0,0)" xlink:href="#by"/><use transform="matrix(0.015666666666666662,0,0,0.015666666666666662,13.47333333333333,0)" xlink:href="#bv"/><use transform="matrix(0.015666666666666662,0,0,0.015666666666666662,28.325333333333326,0)" xlink:href="#bz"/><use transform="matrix(0.015666666666666662,0,0,0.015666666666666662,43.30266666666665,0)" xlink:href="#bu"/></g><path d="M22-995c40 3 97-12 108 24l251 785c9 29 13 56 19 86 7-30 15-57 25-86l267-792c6-29 36-21 67-22 15 0 24 7 29 22l263 792c10 30 18 59 24 87 6-31 12-58 21-87l252-785c9-37 63-20 104-24L1119 0c-36-5-82 14-93-21-90-281-190-557-282-838-3-10-5-20-7-30-4 21-9 41-15 60L446-21c-7 35-56 16-91 21" id="bA"/><path d="M589-935c-156 2-256 90-332 189V0h-95v-1455h95v630c83-99 189-186 356-186 229 0 331 145 331 375V0h-95v-636c0-181-80-302-260-299" id="bB"/><g id="am"><use transform="matrix(0.015666666666666662,0,0,0.015666666666666662,0,0)" xlink:href="#bA"/><use transform="matrix(0.015666666666666662,0,0,0.015666666666666662,23.09266666666666,0)" xlink:href="#br"/><use transform="matrix(0.015666666666666662,0,0,0.015666666666666662,30.534333333333322,0)" xlink:href="#bq"/><use transform="matrix(0.015666666666666662,0,0,0.015666666666666662,41.704666666666654,0)" xlink:href="#bB"/></g><path d="M1352-1002c65 168 65 421 0 589C1257-166 1058 0 726 0H210v-1415h516c332 5 531 167 626 413zm-98 559c53-148 54-381 0-529-79-216-243-360-528-360H313V-83c225-10 478 27 646-42 143-59 241-168 295-318" id="bC"/><path d="M312-87h671V0H210v-1415h102V-87" id="bD"/><path d="M268-1455v887c43 0 75 1 100-23l399-379c14-13 26-25 52-25h84C750-850 597-706 445-560c-6 6-13 11-20 15 22 11 34 26 50 43L936 0c-49-3-102 7-130-23L388-471c-24-23-31-30-75-31h-45V0h-96v-1455h96" id="bE"/><g id="an"><use transform="matrix(0.015666666666666662,0,0,0.015666666666666662,0,0)" xlink:href="#bC"/><use transform="matrix(0.015666666666666662,0,0,0.015666666666666662,23.813333333333325,0)" xlink:href="#bv"/><use transform="matrix(0.015666666666666662,0,0,0.015666666666666662,39.05699999999999,0)" xlink:href="#bq"/><use transform="matrix(0.015666666666666662,0,0,0.015666666666666662,50.22733333333332,0)" xlink:href="#bv"/><use transform="matrix(0.015666666666666662,0,0,0.015666666666666662,65.47099999999998,0)" xlink:href="#bD"/><use transform="matrix(0.015666666666666662,0,0,0.015666666666666662,81.49799999999996,0)" xlink:href="#bv"/><use transform="matrix(0.015666666666666662,0,0,0.015666666666666662,96.74166666666662,0)" xlink:href="#bE"/><use transform="matrix(0.015666666666666662,0,0,0.015666666666666662,111.21766666666662,0)" xlink:href="#bu"/></g><path d="M571 13c-153-1-241-64-308-160l-6 122c-1 38-51 22-85 25v-1455h96v634c79-102 183-190 349-190 273 0 391 204 388 507-2 233-91 398-249 477-54 27-115 40-185 40zm336-517c3-263-83-431-317-431-157 0-249 90-322 193v525C335-117 407-62 553-62c253 0 351-186 354-442" id="bF"/><g id="ao"><use transform="matrix(0.015666666666666662,0,0,0.015666666666666662,0,0)" xlink:href="#bD"/><use transform="matrix(0.015666666666666662,0,0,0.015666666666666662,16.026999999999994,0)" xlink:href="#bv"/><use transform="matrix(0.015666666666666662,0,0,0.015666666666666662,31.270666666666656,0)" xlink:href="#bF"/><use transform="matrix(0.015666666666666662,0,0,0.015666666666666662,48.378666666666646,0)" xlink:href="#by"/></g></defs></g></svg>