<svg xmlns="http://www.w3.org/2000/svg" xmlns:xlink="http://www.w3.org/1999/xlink" xmlns:lucid="lucid" width="1760" height="1360"><g transform="translate(0 0)" lucid:page-tab-id="0_0"><path d="M0 0h1760v1360H0z" fill="#fff"/><path d="M100 488c0-4.42 3.58-8 8-8h339c4.42 0 8 3.58 8 8v260.94c0 4.4-3.58 8-8 8H108c-4.42 0-8-3.6-8-8z" stroke="#000" stroke-opacity="0" stroke-width="2" fill="#e84a43"/><path d="M645 488c0-4.42 3.58-8 8-8h339c4.42 0 8 3.58 8 8v260.94c0 4.4-3.58 8-8 8H653c-4.42 0-8-3.6-8-8z" stroke="#000" stroke-opacity="0" stroke-width="2" fill="#19967d"/><path d="M1190 488c0-4.42 3.58-8 8-8h339c4.42 0 8 3.58 8 8v260.94c0 4.4-3.58 8-8 8h-339c-4.42 0-8-3.6-8-8z" stroke="#000" stroke-opacity="0" stroke-width="2" fill="#de5f85"/><path d="M645 91.06c0-4.4 3.58-8 8-8h339c4.42 0 8 3.6 8 8V352c0 4.42-3.58 8-8 8H653c-4.42 0-8-3.58-8-8z" stroke="#000" stroke-opacity="0" stroke-width="2" fill="#0c7cba"/><path d="M546 1020h240v202H546z" stroke="#000" stroke-opacity="0" stroke-width="2" fill="#fff" fill-opacity="0"/><use xlink:href="#a" transform="matrix(1,0,0,1,551,1025) translate(71.97777777777779 18.83125)"/><use xlink:href="#b" transform="matrix(1,0,0,1,551,1025) translate(67.95555555555556 38.03125)"/><use xlink:href="#c" transform="matrix(1,0,0,1,551,1025) translate(76.86666666666667 57.23125)"/><use xlink:href="#d" transform="matrix(1,0,0,1,551,1025) translate(82.22222222222223 76.43125)"/><use xlink:href="#e" transform="matrix(1,0,0,1,551,1025) translate(109.6888888888889 76.43125)"/><use xlink:href="#f" transform="matrix(1,0,0,1,551,1025) translate(89.88888888888889 95.63125000000001)"/><use xlink:href="#g" transform="matrix(1,0,0,1,551,1025) translate(98.15555555555555 114.83125000000001)"/><use xlink:href="#h" transform="matrix(1,0,0,1,551,1025) translate(71.11111111111111 134.03125000000003)"/><use xlink:href="#i" transform="matrix(1,0,0,1,551,1025) translate(89.35555555555555 153.23125000000005)"/><use xlink:href="#j" transform="matrix(1,0,0,1,551,1025) translate(87.93333333333334 172.43125000000003)"/><use xlink:href="#k" transform="matrix(1,0,0,1,551,1025) translate(110.55555555555556 191.63125000000002)"/><path d="M100.5 556.94h354" stroke="#fff" fill="none"/><path d="M100.5 557.44h-.5v-1h.5zM455 557.44h-.5v-1h.5z" fill="#fff"/><path d="M645.5 158.52h354" stroke="#fff" fill="none"/><path d="M645.5 159.02h-.5v-1h.5zM1000 159.02h-.5v-1h.5z" fill="#fff"/><path d="M645 83.06h355V150H645z" stroke="#000" stroke-opacity="0" stroke-width="2" fill="#fff" fill-opacity="0"/><use xlink:href="#l" transform="matrix(1,0,0,1,649.9999999999998,88.06397682292265) translate(52.6636666666667 36.3125)"/><use xlink:href="#m" transform="matrix(1,0,0,1,649.9999999999998,88.06397682292265) translate(118.35100000000001 36.3125)"/><use xlink:href="#n" transform="matrix(1,0,0,1,649.9999999999998,88.06397682292265) translate(143.14100000000002 36.3125)"/><use xlink:href="#o" transform="matrix(1,0,0,1,649.9999999999998,88.06397682292265) translate(184.507 36.3125)"/><use xlink:href="#p" transform="matrix(1,0,0,1,649.9999999999998,88.06397682292265) translate(252.587 36.3125)"/><path d="M685 170h280v140H685z" stroke="#000" stroke-opacity="0" stroke-width="2" fill="#fff" fill-opacity="0"/><use xlink:href="#q" transform="matrix(1,0,0,1,689.9999999999998,175) translate(3.4380000000000166 33.8125)"/><use xlink:href="#r" transform="matrix(1,0,0,1,689.9999999999998,175) translate(54.288000000000004 33.8125)"/><use xlink:href="#s" transform="matrix(1,0,0,1,689.9999999999998,175) translate(85.95 33.8125)"/><use xlink:href="#t" transform="matrix(1,0,0,1,689.9999999999998,175) translate(137.088 33.8125)"/><use xlink:href="#u" transform="matrix(1,0,0,1,689.9999999999998,175) translate(184.75199999999998 33.8125)"/><use xlink:href="#v" transform="matrix(1,0,0,1,689.9999999999998,175) translate(248.95799999999997 33.8125)"/><use xlink:href="#w" transform="matrix(1,0,0,1,689.9999999999998,175) translate(40.113000000000014 51.8125)"/><use xlink:href="#x" transform="matrix(1,0,0,1,689.9999999999998,175) translate(125.703 51.8125)"/><use xlink:href="#y" transform="matrix(1,0,0,1,689.9999999999998,175) translate(147.91500000000002 51.8125)"/><use xlink:href="#z" transform="matrix(1,0,0,1,689.9999999999998,175) translate(180.44099999999997 51.8125)"/><use xlink:href="#A" transform="matrix(1,0,0,1,689.9999999999998,175) translate(17.352000000000004 69.8125)"/><use xlink:href="#B" transform="matrix(1,0,0,1,689.9999999999998,175) translate(100.908 69.8125)"/><use xlink:href="#C" transform="matrix(1,0,0,1,689.9999999999998,175) translate(153.468 69.8125)"/><use xlink:href="#D" transform="matrix(1,0,0,1,689.9999999999998,175) translate(221.256 69.8125)"/><use xlink:href="#E" transform="matrix(1,0,0,1,689.9999999999998,175) translate(14.328000000000003 87.8125)"/><use xlink:href="#B" transform="matrix(1,0,0,1,689.9999999999998,175) translate(95.292 87.8125)"/><use xlink:href="#F" transform="matrix(1,0,0,1,689.9999999999998,175) translate(147.852 87.8125)"/><use xlink:href="#G" transform="matrix(1,0,0,1,689.9999999999998,175) translate(35.712 105.8125)"/><use xlink:href="#H" transform="matrix(1,0,0,1,689.9999999999998,175) translate(83.898 105.8125)"/><use xlink:href="#I" transform="matrix(1,0,0,1,689.9999999999998,175) translate(119.898 105.8125)"/><use xlink:href="#J" transform="matrix(1,0,0,1,689.9999999999998,175) translate(190.70999999999998 105.8125)"/><path d="M115 490h318.57v56.94H115z" stroke="#000" stroke-opacity="0" stroke-width="2" fill="#fff" fill-opacity="0"/><g><use xlink:href="#K" transform="matrix(1,0,0,1,120.00000000000023,495.00000000000006) translate(73.21100000000001 30.249999999999996)"/><use xlink:href="#L" transform="matrix(1,0,0,1,120.00000000000023,495.00000000000006) translate(187.71366666666665 30.249999999999996)"/></g><path d="M115 560h318.57v140H115z" stroke="#000" stroke-opacity="0" stroke-width="2" fill="#fff" fill-opacity="0"/><g><use xlink:href="#M" transform="matrix(1,0,0,1,120.00000000000023,565) translate(19.473000000000013 41.9375)"/><use xlink:href="#N" transform="matrix(1,0,0,1,120.00000000000023,565) translate(59.16300000000001 41.9375)"/><use xlink:href="#O" transform="matrix(1,0,0,1,120.00000000000023,565) translate(80.51100000000001 41.9375)"/><use xlink:href="#H" transform="matrix(1,0,0,1,120.00000000000023,565) translate(164.139 41.9375)"/><use xlink:href="#P" transform="matrix(1,0,0,1,120.00000000000023,565) translate(200.139 41.9375)"/><use xlink:href="#Q" transform="matrix(1,0,0,1,120.00000000000023,565) translate(4.992000000000047 59.9375)"/><use xlink:href="#R" transform="matrix(1,0,0,1,120.00000000000023,565) translate(63.744000000000035 59.9375)"/><use xlink:href="#S" transform="matrix(1,0,0,1,120.00000000000023,565) translate(107.10600000000002 59.9375)"/><use xlink:href="#T" transform="matrix(1,0,0,1,120.00000000000023,565) translate(203.172 59.9375)"/><use xlink:href="#U" transform="matrix(1,0,0,1,120.00000000000023,565) translate(12.552000000000021 77.9375)"/><use xlink:href="#R" transform="matrix(1,0,0,1,120.00000000000023,565) translate(140.10000000000002 77.9375)"/><use xlink:href="#V" transform="matrix(1,0,0,1,120.00000000000023,565) translate(183.462 77.9375)"/><use xlink:href="#D" transform="matrix(1,0,0,1,120.00000000000023,565) translate(265.056 77.9375)"/><use xlink:href="#W" transform="matrix(1,0,0,1,120.00000000000023,565) translate(102.552 95.9375)"/><use xlink:href="#X" transform="matrix(1,0,0,1,120.00000000000023,565) translate(167.69400000000002 95.9375)"/></g><path d="M645.5 561.18h354" stroke="#fff" fill="none"/><path d="M645.5 561.68h-.5v-1h.5zM1000 561.68h-.5v-1h.5z" fill="#fff"/><path d="M665.7 490h318.6v56.94H665.7z" stroke="#000" stroke-opacity="0" stroke-width="2" fill="#fff" fill-opacity="0"/><g><use xlink:href="#Y" transform="matrix(1,0,0,1,670.7142857142875,495.00000000000006) translate(13.69033333333337 30.249999999999996)"/><use xlink:href="#Z" transform="matrix(1,0,0,1,670.7142857142875,495.00000000000006) translate(81.77033333333335 30.249999999999996)"/><use xlink:href="#aa" transform="matrix(1,0,0,1,670.7142857142875,495.00000000000006) translate(247.23433333333332 30.249999999999996)"/></g><path d="M666.43 560H985v140H666.43z" stroke="#000" stroke-opacity="0" stroke-width="2" fill="#fff" fill-opacity="0"/><g><use xlink:href="#M" transform="matrix(1,0,0,1,671.4285714285752,565) translate(5.091000000000008 50.0625)"/><use xlink:href="#N" transform="matrix(1,0,0,1,671.4285714285752,565) translate(44.781000000000006 50.0625)"/><use xlink:href="#C" transform="matrix(1,0,0,1,671.4285714285752,565) translate(66.129 50.0625)"/><use xlink:href="#H" transform="matrix(1,0,0,1,671.4285714285752,565) translate(133.917 50.0625)"/><use xlink:href="#E" transform="matrix(1,0,0,1,671.4285714285752,565) translate(169.917 50.0625)"/><use xlink:href="#ab" transform="matrix(1,0,0,1,671.4285714285752,565) translate(250.881 50.0625)"/><use xlink:href="#ac" transform="matrix(1,0,0,1,671.4285714285752,565) translate(14.388000000000005 68.0625)"/><use xlink:href="#ad" transform="matrix(1,0,0,1,671.4285714285752,565) translate(71.718 68.0625)"/><use xlink:href="#ae" transform="matrix(1,0,0,1,671.4285714285752,565) translate(120.696 68.0625)"/><use xlink:href="#af" transform="matrix(1,0,0,1,671.4285714285752,565) translate(197.88 68.0625)"/><use xlink:href="#H" transform="matrix(1,0,0,1,671.4285714285752,565) translate(103.398 86.0625)"/><use xlink:href="#ag" transform="matrix(1,0,0,1,671.4285714285752,565) translate(139.398 86.0625)"/></g><path d="M1208.2 560h318.6v140h-318.6z" stroke="#000" stroke-opacity="0" stroke-width="2" fill="#fff" fill-opacity="0"/><g><use xlink:href="#M" transform="matrix(1,0,0,1,1213.2142857142876,565) translate(5.064000000000021 50.0625)"/><use xlink:href="#N" transform="matrix(1,0,0,1,1213.2142857142876,565) translate(44.75400000000002 50.0625)"/><use xlink:href="#ah" transform="matrix(1,0,0,1,1213.2142857142876,565) translate(66.10200000000002 50.0625)"/><use xlink:href="#ai" transform="matrix(1,0,0,1,1213.2142857142876,565) translate(182.90400000000002 50.0625)"/><use xlink:href="#aj" transform="matrix(1,0,0,1,1213.2142857142876,565) translate(230.478 50.0625)"/><use xlink:href="#ak" transform="matrix(1,0,0,1,1213.2142857142876,565) translate(252.312 50.0625)"/><use xlink:href="#al" transform="matrix(1,0,0,1,1213.2142857142876,565) translate(15.441000000000003 68.0625)"/><use xlink:href="#am" transform="matrix(1,0,0,1,1213.2142857142876,565) translate(100.63499999999999 68.0625)"/><use xlink:href="#x" transform="matrix(1,0,0,1,1213.2142857142876,565) translate(212.541 68.0625)"/><use xlink:href="#an" transform="matrix(1,0,0,1,1213.2142857142876,565) translate(234.753 68.0625)"/><use xlink:href="#ao" transform="matrix(1,0,0,1,1213.2142857142876,565) translate(116.59200000000001 86.0625)"/></g><path d="M1190 480h355v76.94h-355z" stroke="#000" stroke-opacity="0" stroke-width="2" fill="#fff" fill-opacity="0"/><g><use xlink:href="#ap" transform="matrix(1,0,0,1,1194.9999999999995,485.00000000000006) translate(71.92833333333337 39.4375)"/><use xlink:href="#L" transform="matrix(1,0,0,1,1194.9999999999995,485.00000000000006) translate(225.9963333333333 39.4375)"/></g><path d="M1190.5 556.5h354" stroke="#fff" fill="none"/><path d="M1190.5 556.94h-.5V556h.5zM1545 556.94h-.5V556h.5z" fill="#fff"/><path d="M822.5 361v59h-545v41.5" stroke="#000" stroke-width="2" fill="none"/><path d="M823.5 361.03h-2V360h2z"/><path d="M277.5 476.76l-4.64-14.26h9.28z" stroke="#000" stroke-width="2"/><path d="M822.5 361v59h545v41.5" stroke="#000" stroke-width="2" fill="none"/><path d="M823.5 361.03h-2V360h2z"/><path d="M1367.5 476.76l-4.64-14.26h9.28z" stroke="#000" stroke-width="2"/><path d="M822.5 361v100.5" stroke="#000" stroke-width="2" fill="none"/><path d="M823.5 361.03h-2V360h2z"/><path d="M822.5 476.76l-4.64-14.26h9.28z" stroke="#000" stroke-width="2"/><defs><path fill="#fff" d="M24 0v-248h52V0H24" id="aq"/><path fill="#fff" d="M135-194c87-1 58 113 63 194h-50c-7-57 23-157-34-157-59 0-34 97-39 157H25l-1-190h47c2 12-1 28 3 38 12-26 28-41 61-42" id="ar"/><path fill="#fff" d="M121-226c-27-7-43 5-38 36h38v33H83V0H34v-157H6v-33h28c-9-59 32-81 87-68v32" id="as"/><path fill="#fff" d="M110-194c64 0 96 36 96 99 0 64-35 99-97 99-61 0-95-36-95-99 0-62 34-99 96-99zm-1 164c35 0 45-28 45-65 0-40-10-65-43-65-34 0-45 26-45 65 0 36 10 65 43 65" id="at"/><path fill="#fff" d="M135-150c-39-12-60 13-60 57V0H25l-1-190h47c2 13-1 29 3 40 6-28 27-53 61-41v41" id="au"/><path fill="#fff" d="M220-157c-53 9-28 100-34 157h-49v-107c1-27-5-49-29-50C55-147 81-57 75 0H25l-1-190h47c2 12-1 28 3 38 10-53 101-56 108 0 13-22 24-43 59-42 82 1 51 116 57 194h-49v-107c-1-25-5-48-29-50" id="av"/><path fill="#fff" d="M133-34C117-15 103 5 69 4 32 3 11-16 11-54c-1-60 55-63 116-61 1-26-3-47-28-47-18 1-26 9-28 27l-52-2c7-38 36-58 82-57s74 22 75 68l1 82c-1 14 12 18 25 15v27c-30 8-71 5-69-32zm-48 3c29 0 43-24 42-57-32 0-66-3-65 30 0 17 8 27 23 27" id="aw"/><path fill="#fff" d="M115-3C79 11 28 4 28-45v-112H4v-33h27l15-45h31v45h36v33H77v99c-1 23 16 31 38 25v30" id="ax"/><path fill="#fff" d="M25-224v-37h50v37H25zM25 0v-190h50V0H25" id="ay"/><path fill="#fff" d="M190-63c-7 42-38 67-86 67-59 0-84-38-90-98-12-110 154-137 174-36l-49 2c-2-19-15-32-35-32-30 0-35 28-38 64-6 74 65 87 74 30" id="az"/><g id="a"><use transform="matrix(0.044444444444444446,0,0,0.044444444444444446,0,0)" xlink:href="#aq"/><use transform="matrix(0.044444444444444446,0,0,0.044444444444444446,4.444444444444445,0)" xlink:href="#ar"/><use transform="matrix(0.044444444444444446,0,0,0.044444444444444446,14.177777777777779,0)" xlink:href="#as"/><use transform="matrix(0.044444444444444446,0,0,0.044444444444444446,19.46666666666667,0)" xlink:href="#at"/><use transform="matrix(0.044444444444444446,0,0,0.044444444444444446,29.200000000000003,0)" xlink:href="#au"/><use transform="matrix(0.044444444444444446,0,0,0.044444444444444446,35.422222222222224,0)" xlink:href="#av"/><use transform="matrix(0.044444444444444446,0,0,0.044444444444444446,49.644444444444446,0)" xlink:href="#aw"/><use transform="matrix(0.044444444444444446,0,0,0.044444444444444446,58.53333333333334,0)" xlink:href="#ax"/><use transform="matrix(0.044444444444444446,0,0,0.044444444444444446,63.82222222222222,0)" xlink:href="#ay"/><use transform="matrix(0.044444444444444446,0,0,0.044444444444444446,68.26666666666667,0)" xlink:href="#az"/><use transform="matrix(0.044444444444444446,0,0,0.044444444444444446,77.15555555555555,0)" xlink:href="#aw"/></g><path fill="#fff" d="M275 0h-61l-44-196L126 0H64L0-248h53L97-49l45-199h58l43 199 44-199h52" id="aA"/><path fill="#fff" d="M114-157C55-157 80-60 75 0H25v-261h50l-1 109c12-26 28-41 61-42 86-1 58 113 63 194h-50c-7-57 23-157-34-157" id="aB"/><path fill="#fff" d="M185-48c-13 30-37 53-82 52C43 2 14-33 14-96s30-98 90-98c62 0 83 45 84 108H66c0 31 8 55 39 56 18 0 30-7 34-22zm-45-69c5-46-57-63-70-21-2 6-4 13-4 21h74" id="aC"/><path fill="#fff" d="M137-138c1-29-70-34-71-4 15 46 118 7 119 86 1 83-164 76-172 9l43-7c4 19 20 25 44 25 33 8 57-30 24-41C81-84 22-81 20-136c-2-80 154-74 161-7" id="aD"/><path fill="#fff" d="M135-194c53 0 70 44 70 98 0 56-19 98-73 100-31 1-45-17-59-34 3 33 2 69 2 105H25l-1-265h48c2 10 0 23 3 31 11-24 29-35 60-35zM114-30c33 0 39-31 40-66 0-38-9-64-40-64-56 0-55 130 0 130" id="aE"/><g id="b"><use transform="matrix(0.044444444444444446,0,0,0.044444444444444446,0,0)" xlink:href="#aA"/><use transform="matrix(0.044444444444444446,0,0,0.044444444444444446,15.066666666666666,0)" xlink:href="#aB"/><use transform="matrix(0.044444444444444446,0,0,0.044444444444444446,24.8,0)" xlink:href="#aC"/><use transform="matrix(0.044444444444444446,0,0,0.044444444444444446,33.68888888888889,0)" xlink:href="#au"/><use transform="matrix(0.044444444444444446,0,0,0.044444444444444446,39.91111111111111,0)" xlink:href="#aC"/><use transform="matrix(0.044444444444444446,0,0,0.044444444444444446,48.800000000000004,0)" xlink:href="#aD"/><use transform="matrix(0.044444444444444446,0,0,0.044444444444444446,57.68888888888888,0)" xlink:href="#az"/><use transform="matrix(0.044444444444444446,0,0,0.044444444444444446,66.57777777777777,0)" xlink:href="#aw"/><use transform="matrix(0.044444444444444446,0,0,0.044444444444444446,75.46666666666665,0)" xlink:href="#aE"/><use transform="matrix(0.044444444444444446,0,0,0.044444444444444446,85.19999999999999,0)" xlink:href="#aC"/></g><path fill="#fff" d="M24-248c120-7 223 5 221 122C244-46 201 0 124 0H24v-248zM76-40c74 7 117-18 117-86 0-67-45-88-117-82v168" id="aF"/><path fill="#fff" d="M195-6C206 82 75 100 31 46c-4-6-6-13-8-21l49-6c3 16 16 24 34 25 40 0 42-37 40-79-11 22-30 35-61 35-53 0-70-43-70-97 0-56 18-96 73-97 30 0 46 14 59 34l2-30h47zm-90-29c32 0 41-27 41-63 0-35-9-62-40-62-32 0-39 29-40 63 0 36 9 62 39 62" id="aG"/><g id="c"><use transform="matrix(0.044444444444444446,0,0,0.044444444444444446,0,0)" xlink:href="#aF"/><use transform="matrix(0.044444444444444446,0,0,0.044444444444444446,11.511111111111111,0)" xlink:href="#aw"/><use transform="matrix(0.044444444444444446,0,0,0.044444444444444446,20.4,0)" xlink:href="#ax"/><use transform="matrix(0.044444444444444446,0,0,0.044444444444444446,25.688888888888886,0)" xlink:href="#aw"/><use transform="matrix(0.044444444444444446,0,0,0.044444444444444446,34.577777777777776,0)" xlink:href="#aD"/><use transform="matrix(0.044444444444444446,0,0,0.044444444444444446,43.46666666666667,0)" xlink:href="#ax"/><use transform="matrix(0.044444444444444446,0,0,0.044444444444444446,48.75555555555556,0)" xlink:href="#aw"/><use transform="matrix(0.044444444444444446,0,0,0.044444444444444446,57.644444444444446,0)" xlink:href="#aG"/><use transform="matrix(0.044444444444444446,0,0,0.044444444444444446,67.37777777777778,0)" xlink:href="#aC"/></g><path fill="#fff" d="M199 0l-22-63H83L61 0H9l90-248h61L250 0h-51zm-33-102l-36-108c-10 38-24 72-36 108h72" id="aH"/><path fill="#fff" d="M182-130c37 4 62 22 62 59C244 23 116-4 24 0v-248c84 5 203-23 205 63 0 31-19 50-47 55zM76-148c40-3 101 13 101-30 0-44-60-28-101-31v61zm0 110c48-3 116 14 116-37 0-48-69-32-116-35v72" id="aI"/><g id="d"><use transform="matrix(0.044444444444444446,0,0,0.044444444444444446,0,0)" xlink:href="#aH"/><use transform="matrix(0.044444444444444446,0,0,0.044444444444444446,11.511111111111111,0)" xlink:href="#aI"/></g><g id="e"><use transform="matrix(0.044444444444444446,0,0,0.044444444444444446,0,0)" xlink:href="#aq"/><use transform="matrix(0.044444444444444446,0,0,0.044444444444444446,4.444444444444445,0)" xlink:href="#ar"/><use transform="matrix(0.044444444444444446,0,0,0.044444444444444446,14.177777777777779,0)" xlink:href="#ay"/><use transform="matrix(0.044444444444444446,0,0,0.044444444444444446,18.622222222222224,0)" xlink:href="#ax"/><use transform="matrix(0.044444444444444446,0,0,0.044444444444444446,23.91111111111111,0)" xlink:href="#ay"/><use transform="matrix(0.044444444444444446,0,0,0.044444444444444446,28.355555555555558,0)" xlink:href="#at"/></g><path fill="#fff" d="M136-208V0H84v-208H4v-40h212v40h-80" id="aJ"/><path fill="#fff" d="M25 0v-261h50V0H25" id="aK"/><path fill="#fff" d="M88-194c31-1 46 15 58 34l-1-101h50l1 261h-48c-2-10 0-23-3-31C134-8 116 4 84 4 32 4 16-41 15-95c0-56 19-97 73-99zm17 164c33 0 40-30 41-66 1-37-9-64-41-64s-38 30-39 65c0 43 13 65 39 65" id="aL"/><g id="f"><use transform="matrix(0.044444444444444446,0,0,0.044444444444444446,0,0)" xlink:href="#aJ"/><use transform="matrix(0.044444444444444446,0,0,0.044444444444444446,8.533333333333335,0)" xlink:href="#aw"/><use transform="matrix(0.044444444444444446,0,0,0.044444444444444446,17.422222222222224,0)" xlink:href="#aK"/><use transform="matrix(0.044444444444444446,0,0,0.044444444444444446,21.866666666666667,0)" xlink:href="#aC"/><use transform="matrix(0.044444444444444446,0,0,0.044444444444444446,30.755555555555556,0)" xlink:href="#ar"/><use transform="matrix(0.044444444444444446,0,0,0.044444444444444446,40.488888888888894,0)" xlink:href="#aL"/></g><path fill="#fff" d="M186 0v-106H76V0H24v-248h52v99h110v-99h50V0h-50" id="aM"/><path fill="#fff" d="M147 0H94L2-248h55l64 206c17-72 42-137 63-206h54" id="aN"/><path fill="#fff" d="M240-174c0 40-23 61-54 70L253 0h-59l-57-94H76V0H24v-248c93 4 217-23 216 74zM76-134c48-2 112 12 112-38 0-48-66-32-112-35v73" id="aO"/><g id="g"><use transform="matrix(0.044444444444444446,0,0,0.044444444444444446,0,0)" xlink:href="#aM"/><use transform="matrix(0.044444444444444446,0,0,0.044444444444444446,11.511111111111111,0)" xlink:href="#aN"/><use transform="matrix(0.044444444444444446,0,0,0.044444444444444446,22.177777777777777,0)" xlink:href="#aO"/></g><path fill="#fff" d="M67-125c0 54 23 88 75 88 28 0 53-7 68-21v-34h-60v-39h108v91C232-14 192 4 140 4 58 4 20-42 15-125 8-236 126-280 215-234c19 10 29 26 37 47l-47 15c-11-23-29-39-63-39-53 1-75 33-75 86" id="aP"/><g id="h"><use transform="matrix(0.044444444444444446,0,0,0.044444444444444446,0,0)" xlink:href="#aP"/><use transform="matrix(0.044444444444444446,0,0,0.044444444444444446,12.444444444444445,0)" xlink:href="#at"/><use transform="matrix(0.044444444444444446,0,0,0.044444444444444446,22.177777777777777,0)" xlink:href="#aK"/><use transform="matrix(0.044444444444444446,0,0,0.044444444444444446,26.622222222222216,0)" xlink:href="#aL"/><use transform="matrix(0.044444444444444446,0,0,0.044444444444444446,36.355555555555554,0)" xlink:href="#aC"/><use transform="matrix(0.044444444444444446,0,0,0.044444444444444446,45.24444444444444,0)" xlink:href="#ar"/><use transform="matrix(0.044444444444444446,0,0,0.044444444444444446,54.97777777777777,0)" xlink:href="#aG"/><use transform="matrix(0.044444444444444446,0,0,0.044444444444444446,64.71111111111111,0)" xlink:href="#aw"/><use transform="matrix(0.044444444444444446,0,0,0.044444444444444446,73.6,0)" xlink:href="#ax"/><use transform="matrix(0.044444444444444446,0,0,0.044444444444444446,78.88888888888889,0)" xlink:href="#aC"/></g><path fill="#fff" d="M85 4C-2 5 27-109 22-190h50c7 57-23 150 33 157 60-5 35-97 40-157h50l1 190h-47c-2-12 1-28-3-38-12 25-28 42-61 42" id="aQ"/><g id="i"><use transform="matrix(0.044444444444444446,0,0,0.044444444444444446,0,0)" xlink:href="#aH"/><use transform="matrix(0.044444444444444446,0,0,0.044444444444444446,11.511111111111111,0)" xlink:href="#ax"/><use transform="matrix(0.044444444444444446,0,0,0.044444444444444446,16.8,0)" xlink:href="#ax"/><use transform="matrix(0.044444444444444446,0,0,0.044444444444444446,22.08888888888889,0)" xlink:href="#aQ"/><use transform="matrix(0.044444444444444446,0,0,0.044444444444444446,31.822222222222223,0)" xlink:href="#ar"/><use transform="matrix(0.044444444444444446,0,0,0.044444444444444446,41.55555555555556,0)" xlink:href="#ay"/><use transform="matrix(0.044444444444444446,0,0,0.044444444444444446,46,0)" xlink:href="#ax"/></g><path fill="#fff" d="M123 10C108 53 80 86 19 72V37c35 8 53-11 59-39L3-190h52l48 148c12-52 28-100 44-148h51" id="aR"/><path fill="#fff" d="M144 0l-44-69L55 0H2l70-98-66-92h53l41 62 40-62h54l-67 91 71 99h-54" id="aS"/><g id="j"><use transform="matrix(0.044444444444444446,0,0,0.044444444444444446,0,0)" xlink:href="#aH"/><use transform="matrix(0.044444444444444446,0,0,0.044444444444444446,11.511111111111111,0)" xlink:href="#aK"/><use transform="matrix(0.044444444444444446,0,0,0.044444444444444446,15.955555555555556,0)" xlink:href="#ax"/><use transform="matrix(0.044444444444444446,0,0,0.044444444444444446,21.244444444444444,0)" xlink:href="#aC"/><use transform="matrix(0.044444444444444446,0,0,0.044444444444444446,30.133333333333333,0)" xlink:href="#au"/><use transform="matrix(0.044444444444444446,0,0,0.044444444444444446,36.355555555555554,0)" xlink:href="#aR"/><use transform="matrix(0.044444444444444446,0,0,0.044444444444444446,45.24444444444444,0)" xlink:href="#aS"/></g><path fill="#fff" d="M301-32c-10 54-119 56-130 0L52-587c-17-61 104-91 114-30l75 454 109-438c8-49 67-63 102-37 10 7 17 21 21 37l109 438 75-454c7-41 89-42 107-5 6 13 9 23 7 35L652-32c-11 53-115 55-130 0L411-446" id="aT"/><path fill="#fff" d="M320-511c136 1 197 83 197 215v259c0 26-30 47-60 47s-58-21-58-47v-258c0-64-38-108-104-107-63 1-104 36-105 102v263c0 26-27 47-57 47-31 0-59-20-60-47v-596c1-27 29-47 60-47 30 0 56 21 57 47v187l6 1c23-37 64-67 124-66" id="aU"/><path fill="#fff" d="M506-32c-1 27-28 48-60 47-35-1-61-24-56-63l-9-3c-25 39-64 63-131 61C96 5 48-109 61-279c10-140 88-231 235-231 134 0 210 66 210 198v280zM275-99c71-4 115-44 115-117v-94c1-65-32-91-94-91-72 0-115 48-115 118v96c-1 48 44 90 94 88" id="aV"/><path fill="#fff" d="M20-455c0-41 37-50 83-45v-103c1-27 28-47 60-47 30 0 56 21 57 47v103c54 0 117-10 117 45 0 57-62 47-117 47v242c1 46 6 69 43 72 45-5 114-22 110 40-4 56-61 64-120 64-114 0-149-57-150-180v-238c-46 5-84-4-83-47" id="aW"/><g id="l"><use transform="matrix(0.02466666666666666,0,0,0.02466666666666666,0,0)" xlink:href="#aT"/><use transform="matrix(0.02466666666666666,0,0,0.02466666666666666,20.30066666666666,0)" xlink:href="#aU"/><use transform="matrix(0.02466666666666666,0,0,0.02466666666666666,34.85399999999999,0)" xlink:href="#aV"/><use transform="matrix(0.02466666666666666,0,0,0.02466666666666666,49.16066666666666,0)" xlink:href="#aW"/></g><path fill="#fff" d="M140 10c-31 0-59-20-60-47v-426c1-27 29-47 60-47 30 0 56 21 57 47v426c0 26-27 47-57 47zm0-582c-40-1-65-25-60-71 3-27 29-48 60-47 39 1 61 26 57 71-3 26-27 48-57 47" id="aX"/><path fill="#fff" d="M404-217C463-98 373 18 239 10 158 5 85-11 55-62c-27-46 38-90 79-56 28 37 173 57 176-18-16-77-128-64-182-104-34-25-64-53-63-113 0-99 79-161 184-157 82 3 161 17 161 94 0 40-56 46-83 24-33-27-152-33-143 35 7 49 75 50 119 67 42 16 82 35 101 73" id="aY"/><g id="m"><use transform="matrix(0.02466666666666666,0,0,0.02466666666666666,0,0)" xlink:href="#aX"/><use transform="matrix(0.02466666666666666,0,0,0.02466666666666666,6.832666666666665,0)" xlink:href="#aY"/></g><path fill="#fff" d="M422-431c32-46 77-78 157-78 142 0 197 81 196 220v252c-1 27-28 47-60 47-29 0-56-21-56-47v-256c-1-71-21-106-90-107-58 0-87 36-87 107v260c-6 27-27 42-60 43-30 1-52-17-58-40v-263c0-71-29-107-87-107-70 1-90 36-90 107v256c0 26-27 47-57 47-31 0-59-20-60-47v-252c-1-139 55-220 197-220 77 0 125 32 155 78" id="aZ"/><path fill="#fff" d="M386-468c0-24 30-43 59-43 30 0 58 21 58 47V35c4 169-168 212-332 173-51-23-42-104 23-99 26 1 63 8 98 8 91 0 101-67 94-158l-5-2C352-10 320 9 259 9 124 11 73-68 73-201v-263c0-26 30-47 60-47s58 21 58 47v267c1 65 26 98 94 97 52-1 90-27 101-72v-296" id="ba"/><g id="n"><use transform="matrix(0.02466666666666666,0,0,0.02466666666666666,0,0)" xlink:href="#aZ"/><use transform="matrix(0.02466666666666666,0,0,0.02466666666666666,20.843333333333327,0)" xlink:href="#ba"/></g><path fill="#fff" d="M370 1C190 40 63-60 63-233v-174c0-172 127-275 307-234 53 12 103 39 109 98 2 25-18 42-40 42-59-1-76-47-142-44-71 3-117 50-117 131v189c-3 81 46 126 117 130 69 4 85-38 143-41 44-2 48 52 26 80-21 27-56 48-96 57" id="bb"/><path fill="#fff" d="M140 10c-31 0-59-20-60-47v-596c1-27 29-47 60-47 30 0 56 21 57 47v596c0 26-27 47-57 47" id="bc"/><path fill="#fff" d="M282 8C112 8 45-97 55-281c8-144 79-229 227-229 171 0 237 112 227 298C501-71 426 8 282 8zm0-413c-99 0-109 86-109 194 0 71 40 115 109 115s109-44 109-115c0-108-9-194-109-194" id="bd"/><path fill="#fff" d="M514-210C510-70 434 10 292 10S70-70 70-210v-252c1-27 29-47 60-47 30 0 56 21 57 47v256c-2 69 42 107 105 107s104-38 104-107v-256c-1-62 118-61 118 0v252" id="be"/><path fill="#fff" d="M52-218c-9-175 43-291 207-293 55-1 98 27 124 56l7-1v-183c0-26 27-47 56-47 32 0 59 20 60 47v431C502-68 427 10 285 10 137 10 59-73 52-218zm118 4c-1 69 46 116 115 115 62-1 105-36 105-105v-96c0-65-44-101-105-102-69-1-115 46-115 115v73" id="bf"/><g id="o"><use transform="matrix(0.02466666666666666,0,0,0.02466666666666666,0,0)" xlink:href="#bb"/><use transform="matrix(0.02466666666666666,0,0,0.02466666666666666,12.308666666666664,0)" xlink:href="#bc"/><use transform="matrix(0.02466666666666666,0,0,0.02466666666666666,19.14133333333333,0)" xlink:href="#bd"/><use transform="matrix(0.02466666666666666,0,0,0.02466666666666666,33.05333333333333,0)" xlink:href="#be"/><use transform="matrix(0.02466666666666666,0,0,0.02466666666666666,47.45866666666666,0)" xlink:href="#bf"/></g><path fill="#fff" d="M22-586c0-33 23-54 57-54h366c37-1 58 19 58 54 1 79-117 44-189 52v497c0 26-27 47-57 47-32 0-59-20-60-47v-497c-70-5-175 23-175-52" id="bg"/><path fill="#fff" d="M317 10C151 10 69-86 65-250v-140c4-164 86-260 252-260 167 0 250 95 254 260v140C567-85 484 10 317 10zm0-551c-92 0-137 49-137 151v141c-2 102 45 151 137 151 94 0 137-49 137-151v-141c1-103-43-151-137-151" id="bh"/><g id="p"><use transform="matrix(0.02466666666666666,0,0,0.02466666666666666,0,0)" xlink:href="#bg"/><use transform="matrix(0.02466666666666666,0,0,0.02466666666666666,12.62933333333333,0)" xlink:href="#bb"/><use transform="matrix(0.02466666666666666,0,0,0.02466666666666666,25.061333333333327,0)" xlink:href="#bh"/></g><path fill="#fff" d="M272-510c133 0 212 77 212 203 0 61-19 85-78 85H169C145-90 297-58 394-117c46-28 91 30 53 68-35 35-94 59-164 59C150 10 62-61 53-190v-106c9-131 86-214 219-214zm101 201c17-98-114-134-173-75-18 19-28 44-31 75h204" id="bi"/><path fill="#fff" d="M73-312c2-133 72-198 213-198 71 0 125 47 85 102-18 16-56 7-85 7-64 0-96 21-96 85v279c0 26-27 47-57 47-31 0-59-20-60-47v-275" id="bj"/><g id="q"><use transform="matrix(0.018,0,0,0.018,0,0)" xlink:href="#bg"/><use transform="matrix(0.018,0,0,0.018,9.341999999999999,0)" xlink:href="#aU"/><use transform="matrix(0.018,0,0,0.018,19.961999999999993,0)" xlink:href="#bi"/><use transform="matrix(0.018,0,0,0.018,29.627999999999993,0)" xlink:href="#bj"/><use transform="matrix(0.018,0,0,0.018,36.57599999999999,0)" xlink:href="#bi"/></g><g id="r"><use transform="matrix(0.018,0,0,0.018,0,0)" xlink:href="#aV"/><use transform="matrix(0.018,0,0,0.018,10.44,0)" xlink:href="#bj"/><use transform="matrix(0.018,0,0,0.018,17.387999999999998,0)" xlink:href="#bi"/></g><path fill="#fff" d="M70-290c4-140 80-220 222-220 141 0 222 71 222 210v263c0 26-30 47-60 47s-58-21-58-47v-257c2-69-41-107-104-107s-105 38-105 107v257c0 26-27 47-57 47-31 0-59-20-60-47v-253" id="bk"/><g id="s"><use transform="matrix(0.018,0,0,0.018,0,0)" xlink:href="#aZ"/><use transform="matrix(0.018,0,0,0.018,15.209999999999999,0)" xlink:href="#aV"/><use transform="matrix(0.018,0,0,0.018,25.65,0)" xlink:href="#bk"/><use transform="matrix(0.018,0,0,0.018,36.162,0)" xlink:href="#ba"/></g><path fill="#fff" d="M277 10C133 9 58-68 55-208v-84c3-140 78-217 222-218 66-1 117 17 148 50 41 44-12 117-71 80-20-13-43-21-77-21-98 0-104 84-104 187 0 104 99 144 184 97 52-29 106 26 71 74-26 35-89 53-151 53" id="bl"/><g id="t"><use transform="matrix(0.018,0,0,0.018,0,0)" xlink:href="#bl"/><use transform="matrix(0.018,0,0,0.018,8.459999999999999,0)" xlink:href="#bd"/><use transform="matrix(0.018,0,0,0.018,18.612,0)" xlink:href="#aY"/><use transform="matrix(0.018,0,0,0.018,27.107999999999997,0)" xlink:href="#aW"/><use transform="matrix(0.018,0,0,0.018,34.559999999999995,0)" xlink:href="#aY"/></g><g id="u"><use transform="matrix(0.018,0,0,0.018,0,0)" xlink:href="#bj"/><use transform="matrix(0.018,0,0,0.018,6.9479999999999995,0)" xlink:href="#bi"/><use transform="matrix(0.018,0,0,0.018,16.613999999999997,0)" xlink:href="#bc"/><use transform="matrix(0.018,0,0,0.018,21.599999999999998,0)" xlink:href="#aV"/><use transform="matrix(0.018,0,0,0.018,32.04,0)" xlink:href="#aW"/><use transform="matrix(0.018,0,0,0.018,39.492,0)" xlink:href="#bi"/><use transform="matrix(0.018,0,0,0.018,49.157999999999994,0)" xlink:href="#bf"/></g><g id="v"><use transform="matrix(0.018,0,0,0.018,0,0)" xlink:href="#aW"/><use transform="matrix(0.018,0,0,0.018,7.451999999999999,0)" xlink:href="#bd"/></g><path fill="#fff" d="M288-511c132 0 210 62 210 190V0c5 179-157 254-332 203-53-15-42-104 22-99 28 2 51 8 89 8 94 0 112-64 105-161l-4-2c-23 37-63 61-127 61C102 10 44-104 55-268c10-147 82-243 233-243zm0 109c-97 4-115 86-115 197 0 71 35 106 104 106 60 0 105-37 105-101v-125c0-55-38-79-94-77" id="bm"/><g id="w"><use transform="matrix(0.018,0,0,0.018,0,0)" xlink:href="#aZ"/><use transform="matrix(0.018,0,0,0.018,15.209999999999999,0)" xlink:href="#aX"/><use transform="matrix(0.018,0,0,0.018,20.195999999999998,0)" xlink:href="#bm"/><use transform="matrix(0.018,0,0,0.018,30.419999999999995,0)" xlink:href="#bj"/><use transform="matrix(0.018,0,0,0.018,37.367999999999995,0)" xlink:href="#aV"/><use transform="matrix(0.018,0,0,0.018,47.808,0)" xlink:href="#aW"/><use transform="matrix(0.018,0,0,0.018,55.25999999999999,0)" xlink:href="#aX"/><use transform="matrix(0.018,0,0,0.018,60.24599999999999,0)" xlink:href="#bk"/><use transform="matrix(0.018,0,0,0.018,70.75799999999998,0)" xlink:href="#bm"/></g><g id="x"><use transform="matrix(0.018,0,0,0.018,0,0)" xlink:href="#aW"/><use transform="matrix(0.018,0,0,0.018,7.451999999999999,0)" xlink:href="#bd"/></g><g id="y"><use transform="matrix(0.018,0,0,0.018,0,0)" xlink:href="#aW"/><use transform="matrix(0.018,0,0,0.018,7.631999999999999,0)" xlink:href="#aU"/><use transform="matrix(0.018,0,0,0.018,18.252,0)" xlink:href="#bi"/></g><path fill="#fff" d="M120 10c-44 0-65-25-65-74 0-64 127-65 127 0 0 48-21 73-62 74" id="bn"/><g id="z"><use transform="matrix(0.018,0,0,0.018,0,0)" xlink:href="#bb"/><use transform="matrix(0.018,0,0,0.018,8.982,0)" xlink:href="#bc"/><use transform="matrix(0.018,0,0,0.018,13.968000000000002,0)" xlink:href="#bd"/><use transform="matrix(0.018,0,0,0.018,24.119999999999997,0)" xlink:href="#be"/><use transform="matrix(0.018,0,0,0.018,34.632,0)" xlink:href="#bf"/><use transform="matrix(0.018,0,0,0.018,45.071999999999996,0)" xlink:href="#bn"/></g><path fill="#fff" d="M601 10c-29 0-56-21-56-47v-419L433-223c-11 33-70 60-105 29-11-9-20-18-25-29L192-456v419c0 26-27 47-57 47-31 0-59-20-60-47v-566c-1-63 123-59 146-12l147 296 147-296c15-25 44-42 86-35 32-2 59 20 60 47v566c-1 27-28 47-60 47" id="bo"/><g id="A"><use transform="matrix(0.018,0,0,0.018,0,0)" xlink:href="#bo"/><use transform="matrix(0.018,0,0,0.018,13.248,0)" xlink:href="#aX"/><use transform="matrix(0.018,0,0,0.018,18.233999999999998,0)" xlink:href="#bm"/><use transform="matrix(0.018,0,0,0.018,28.458,0)" xlink:href="#bj"/><use transform="matrix(0.018,0,0,0.018,35.406,0)" xlink:href="#aV"/><use transform="matrix(0.018,0,0,0.018,45.846,0)" xlink:href="#aW"/><use transform="matrix(0.018,0,0,0.018,53.297999999999995,0)" xlink:href="#aX"/><use transform="matrix(0.018,0,0,0.018,58.284,0)" xlink:href="#bd"/><use transform="matrix(0.018,0,0,0.018,68.43599999999999,0)" xlink:href="#bk"/></g><path fill="#fff" d="M69-44c0-78 117-86 115-9-3 107-43 169-122 208-65 32-104-58-44-85C59 51 69 10 69-44" id="bp"/><g id="B"><use transform="matrix(0.018,0,0,0.018,0,0)" xlink:href="#bb"/><use transform="matrix(0.018,0,0,0.018,8.982,0)" xlink:href="#bd"/><use transform="matrix(0.018,0,0,0.018,19.133999999999997,0)" xlink:href="#aY"/><use transform="matrix(0.018,0,0,0.018,27.63,0)" xlink:href="#aW"/><use transform="matrix(0.018,0,0,0.018,35.082,0)" xlink:href="#aY"/><use transform="matrix(0.018,0,0,0.018,43.578,0)" xlink:href="#bp"/></g><path fill="#fff" d="M500 10c-32 0-59-20-60-47v-224H192v224c0 26-27 47-57 47-31 0-59-20-60-47v-566c1-27 29-47 60-47 30 0 56 21 57 47v236h248v-236c1-27 28-47 60-47 29 0 57 21 57 47v566c0 26-28 47-57 47" id="bq"/><g id="C"><use transform="matrix(0.018,0,0,0.018,0,0)" xlink:href="#bq"/><use transform="matrix(0.018,0,0,0.018,11.357999999999999,0)" xlink:href="#bd"/><use transform="matrix(0.018,0,0,0.018,21.509999999999998,0)" xlink:href="#aY"/><use transform="matrix(0.018,0,0,0.018,30.005999999999997,0)" xlink:href="#aW"/><use transform="matrix(0.018,0,0,0.018,37.458,0)" xlink:href="#aX"/><use transform="matrix(0.018,0,0,0.018,42.443999999999996,0)" xlink:href="#bk"/><use transform="matrix(0.018,0,0,0.018,52.955999999999996,0)" xlink:href="#bm"/></g><g id="D"><use transform="matrix(0.018,0,0,0.018,0,0)" xlink:href="#aV"/><use transform="matrix(0.018,0,0,0.018,10.44,0)" xlink:href="#bk"/><use transform="matrix(0.018,0,0,0.018,20.951999999999998,0)" xlink:href="#bf"/></g><path fill="#fff" d="M129 0C99-1 75-20 75-47v-556c1-27 28-47 60-47 29 0 57 21 57 47v497h213c36-1 57 20 57 54 0 32-22 53-57 52H129" id="br"/><g id="E"><use transform="matrix(0.018,0,0,0.018,0,0)" xlink:href="#br"/><use transform="matrix(0.018,0,0,0.018,8.514,0)" xlink:href="#aX"/><use transform="matrix(0.018,0,0,0.018,13.499999999999998,0)" xlink:href="#bl"/><use transform="matrix(0.018,0,0,0.018,21.96,0)" xlink:href="#bi"/><use transform="matrix(0.018,0,0,0.018,31.625999999999998,0)" xlink:href="#bk"/><use transform="matrix(0.018,0,0,0.018,42.138,0)" xlink:href="#aY"/><use transform="matrix(0.018,0,0,0.018,50.63400000000001,0)" xlink:href="#aX"/><use transform="matrix(0.018,0,0,0.018,55.62,0)" xlink:href="#bk"/><use transform="matrix(0.018,0,0,0.018,66.13199999999999,0)" xlink:href="#bm"/></g><path fill="#fff" d="M320 9c-57 0-93-23-122-53l-8 2v215c0 26-27 47-57 47-31 0-59-20-60-47v-483c5-133 85-200 222-200 168 0 241 107 232 289C520-82 461 6 320 9zm-25-410c-58 0-105 27-105 87v107c-2 69 42 106 105 107 68 1 115-48 114-117v-67c1-69-46-118-114-117" id="bs"/><g id="F"><use transform="matrix(0.018,0,0,0.018,0,0)" xlink:href="#bb"/><use transform="matrix(0.018,0,0,0.018,8.982,0)" xlink:href="#bd"/><use transform="matrix(0.018,0,0,0.018,19.133999999999997,0)" xlink:href="#bk"/><use transform="matrix(0.018,0,0,0.018,29.646,0)" xlink:href="#aY"/><use transform="matrix(0.018,0,0,0.018,38.141999999999996,0)" xlink:href="#be"/><use transform="matrix(0.018,0,0,0.018,48.653999999999996,0)" xlink:href="#aZ"/><use transform="matrix(0.018,0,0,0.018,64.08,0)" xlink:href="#bs"/><use transform="matrix(0.018,0,0,0.018,74.71800000000002,0)" xlink:href="#aW"/><use transform="matrix(0.018,0,0,0.018,82.16999999999999,0)" xlink:href="#aX"/><use transform="matrix(0.018,0,0,0.018,87.156,0)" xlink:href="#bd"/><use transform="matrix(0.018,0,0,0.018,97.308,0)" xlink:href="#bk"/></g><g id="G"><use transform="matrix(0.018,0,0,0.018,0,0)" xlink:href="#bb"/><use transform="matrix(0.018,0,0,0.018,8.982,0)" xlink:href="#bd"/><use transform="matrix(0.018,0,0,0.018,19.133999999999997,0)" xlink:href="#aY"/><use transform="matrix(0.018,0,0,0.018,27.63,0)" xlink:href="#aW"/><use transform="matrix(0.018,0,0,0.018,35.082,0)" xlink:href="#aY"/></g><g id="H"><use transform="matrix(0.018,0,0,0.018,0,0)" xlink:href="#aV"/><use transform="matrix(0.018,0,0,0.018,10.44,0)" xlink:href="#bk"/><use transform="matrix(0.018,0,0,0.018,20.951999999999998,0)" xlink:href="#bf"/></g><path fill="#fff" d="M473-171C473 40 163 57 62-75c-25-33-13-92 40-85 48 6 58 40 102 56 61 22 161 17 152-60-13-106-149-103-217-158-40-32-76-69-76-141 0-153 142-218 291-175 55 16 102 47 115 101-1 32-16 56-50 52-61-6-76-64-156-59-71-9-111 84-61 127 92 78 271 74 271 246" id="bt"/><g id="I"><use transform="matrix(0.018,0,0,0.018,0,0)" xlink:href="#bt"/><use transform="matrix(0.018,0,0,0.018,9.414,0)" xlink:href="#be"/><use transform="matrix(0.018,0,0,0.018,19.926,0)" xlink:href="#bs"/><use transform="matrix(0.018,0,0,0.018,30.401999999999997,0)" xlink:href="#bs"/><use transform="matrix(0.018,0,0,0.018,40.878,0)" xlink:href="#bd"/><use transform="matrix(0.018,0,0,0.018,51.03,0)" xlink:href="#bj"/><use transform="matrix(0.018,0,0,0.018,58.752,0)" xlink:href="#aW"/></g><g id="J"><use transform="matrix(0.018,0,0,0.018,0,0)" xlink:href="#bb"/><use transform="matrix(0.018,0,0,0.018,8.982,0)" xlink:href="#bd"/><use transform="matrix(0.018,0,0,0.018,19.133999999999997,0)" xlink:href="#aY"/><use transform="matrix(0.018,0,0,0.018,27.63,0)" xlink:href="#aW"/><use transform="matrix(0.018,0,0,0.018,35.082,0)" xlink:href="#aY"/></g><g id="K"><use transform="matrix(0.02466666666666666,0,0,0.02466666666666666,0,0)" xlink:href="#bo"/><use transform="matrix(0.02466666666666666,0,0,0.02466666666666666,18.15466666666666,0)" xlink:href="#aX"/><use transform="matrix(0.02466666666666666,0,0,0.02466666666666666,24.987333333333325,0)" xlink:href="#bm"/><use transform="matrix(0.02466666666666666,0,0,0.02466666666666666,38.99799999999999,0)" xlink:href="#bj"/><use transform="matrix(0.02466666666666666,0,0,0.02466666666666666,48.51933333333332,0)" xlink:href="#aV"/><use transform="matrix(0.02466666666666666,0,0,0.02466666666666666,62.82599999999998,0)" xlink:href="#aW"/><use transform="matrix(0.02466666666666666,0,0,0.02466666666666666,73.03799999999998,0)" xlink:href="#aX"/><use transform="matrix(0.02466666666666666,0,0,0.02466666666666666,79.87066666666665,0)" xlink:href="#bd"/><use transform="matrix(0.02466666666666666,0,0,0.02466666666666666,93.78266666666664,0)" xlink:href="#bk"/></g><g id="L"><use transform="matrix(0.02466666666666666,0,0,0.02466666666666666,0,0)" xlink:href="#bb"/><use transform="matrix(0.02466666666666666,0,0,0.02466666666666666,12.308666666666664,0)" xlink:href="#bd"/><use transform="matrix(0.02466666666666666,0,0,0.02466666666666666,26.22066666666666,0)" xlink:href="#aY"/><use transform="matrix(0.02466666666666666,0,0,0.02466666666666666,37.86333333333332,0)" xlink:href="#aW"/></g><g id="M"><use transform="matrix(0.018,0,0,0.018,0,0)" xlink:href="#bb"/><use transform="matrix(0.018,0,0,0.018,8.982,0)" xlink:href="#bd"/><use transform="matrix(0.018,0,0,0.018,19.133999999999997,0)" xlink:href="#aY"/><use transform="matrix(0.018,0,0,0.018,27.63,0)" xlink:href="#aW"/></g><path fill="#fff" d="M23-455c0-39 34-50 78-45-8-142 48-201 179-200 55 1 111 14 111 64 0 29-16 48-46 48-26 0-38-8-65-8-61 0-66 36-63 96 55 0 120-11 120 45 0 58-64 47-120 47v371c0 26-27 47-56 47-32 0-59-20-60-47v-371c-45 5-78-6-78-47" id="bu"/><g id="N"><use transform="matrix(0.018,0,0,0.018,0,0)" xlink:href="#bd"/><use transform="matrix(0.018,0,0,0.018,10.152,0)" xlink:href="#bu"/></g><g id="O"><use transform="matrix(0.018,0,0,0.018,0,0)" xlink:href="#bo"/><use transform="matrix(0.018,0,0,0.018,13.248,0)" xlink:href="#aX"/><use transform="matrix(0.018,0,0,0.018,18.233999999999998,0)" xlink:href="#bm"/><use transform="matrix(0.018,0,0,0.018,28.458,0)" xlink:href="#bj"/><use transform="matrix(0.018,0,0,0.018,35.406,0)" xlink:href="#aV"/><use transform="matrix(0.018,0,0,0.018,45.846,0)" xlink:href="#aW"/><use transform="matrix(0.018,0,0,0.018,53.297999999999995,0)" xlink:href="#aX"/><use transform="matrix(0.018,0,0,0.018,58.284,0)" xlink:href="#bk"/><use transform="matrix(0.018,0,0,0.018,68.79599999999999,0)" xlink:href="#bm"/></g><path fill="#fff" d="M335-32c-11 53-109 53-130 0L44-446c-18-61 93-89 113-30l113 340 112-340c8-40 89-43 108-6 7 13 10 25 6 36" id="bv"/><g id="P"><use transform="matrix(0.018,0,0,0.018,0,0)" xlink:href="#bb"/><use transform="matrix(0.018,0,0,0.018,8.982,0)" xlink:href="#bd"/><use transform="matrix(0.018,0,0,0.018,19.133999999999997,0)" xlink:href="#bk"/><use transform="matrix(0.018,0,0,0.018,29.375999999999998,0)" xlink:href="#bv"/><use transform="matrix(0.018,0,0,0.018,38.826,0)" xlink:href="#bi"/><use transform="matrix(0.018,0,0,0.018,48.49199999999999,0)" xlink:href="#bj"/><use transform="matrix(0.018,0,0,0.018,56.213999999999984,0)" xlink:href="#aW"/><use transform="matrix(0.018,0,0,0.018,63.66599999999999,0)" xlink:href="#aX"/><use transform="matrix(0.018,0,0,0.018,68.65199999999999,0)" xlink:href="#bk"/><use transform="matrix(0.018,0,0,0.018,79.16399999999999,0)" xlink:href="#bm"/></g><g id="Q"><use transform="matrix(0.018,0,0,0.018,0,0)" xlink:href="#bc"/><use transform="matrix(0.018,0,0,0.018,4.986,0)" xlink:href="#bi"/><use transform="matrix(0.018,0,0,0.018,14.651999999999997,0)" xlink:href="#bm"/><use transform="matrix(0.018,0,0,0.018,24.875999999999998,0)" xlink:href="#aV"/><use transform="matrix(0.018,0,0,0.018,35.315999999999995,0)" xlink:href="#bl"/><use transform="matrix(0.018,0,0,0.018,43.775999999999996,0)" xlink:href="#ba"/></g><g id="R"><use transform="matrix(0.018,0,0,0.018,0,0)" xlink:href="#bf"/><use transform="matrix(0.018,0,0,0.018,10.44,0)" xlink:href="#aV"/><use transform="matrix(0.018,0,0,0.018,20.88,0)" xlink:href="#aW"/><use transform="matrix(0.018,0,0,0.018,28.313999999999997,0)" xlink:href="#aV"/></g><path fill="#fff" d="M758-210c0 136-52 220-190 220-78 0-123-29-152-76-30 46-75 76-152 76C126 10 72-73 73-210v-253c1-27 29-47 60-47 30 0 56 21 57 47v257c1 69 19 107 84 107s82-38 83-107v-261c4-28 31-41 60-43 26-2 58 18 58 46v258c1 69 18 107 83 107 64 0 84-39 84-107v-257c0-26 27-47 56-47 32 0 59 20 60 47v253" id="bw"/><g id="S"><use transform="matrix(0.018,0,0,0.018,0,0)" xlink:href="#bw"/><use transform="matrix(0.018,0,0,0.018,14.957999999999998,0)" xlink:href="#aV"/><use transform="matrix(0.018,0,0,0.018,25.398,0)" xlink:href="#bj"/><use transform="matrix(0.018,0,0,0.018,32.346,0)" xlink:href="#bi"/><use transform="matrix(0.018,0,0,0.018,42.01199999999999,0)" xlink:href="#aU"/><use transform="matrix(0.018,0,0,0.018,52.63199999999999,0)" xlink:href="#bd"/><use transform="matrix(0.018,0,0,0.018,62.78399999999999,0)" xlink:href="#be"/><use transform="matrix(0.018,0,0,0.018,73.29599999999999,0)" xlink:href="#aY"/><use transform="matrix(0.018,0,0,0.018,81.79199999999999,0)" xlink:href="#bi"/></g><g id="T"><use transform="matrix(0.018,0,0,0.018,0,0)" xlink:href="#bi"/><use transform="matrix(0.018,0,0,0.018,9.665999999999999,0)" xlink:href="#bl"/><use transform="matrix(0.018,0,0,0.018,18.125999999999998,0)" xlink:href="#bd"/><use transform="matrix(0.018,0,0,0.018,28.278,0)" xlink:href="#aY"/><use transform="matrix(0.018,0,0,0.018,36.774,0)" xlink:href="#ba"/><use transform="matrix(0.018,0,0,0.018,47.141999999999996,0)" xlink:href="#aY"/><use transform="matrix(0.018,0,0,0.018,55.63799999999999,0)" xlink:href="#aW"/><use transform="matrix(0.018,0,0,0.018,63.08999999999999,0)" xlink:href="#bi"/><use transform="matrix(0.018,0,0,0.018,72.75599999999999,0)" xlink:href="#aZ"/><use transform="matrix(0.018,0,0,0.018,87.96599999999998,0)" xlink:href="#aY"/><use transform="matrix(0.018,0,0,0.018,96.46199999999997,0)" xlink:href="#bp"/></g><path fill="#fff" d="M84-293c0-30 21-54 47-54h178c36-1 57 20 57 54 0 32-22 53-57 52H131c-25 0-47-24-47-52" id="bx"/><g id="U"><use transform="matrix(0.018,0,0,0.018,0,0)" xlink:href="#bj"/><use transform="matrix(0.018,0,0,0.018,6.9479999999999995,0)" xlink:href="#bi"/><use transform="matrix(0.018,0,0,0.018,16.613999999999997,0)" xlink:href="#bx"/><use transform="matrix(0.018,0,0,0.018,24.641999999999992,0)" xlink:href="#bi"/><use transform="matrix(0.018,0,0,0.018,34.30799999999999,0)" xlink:href="#bk"/><use transform="matrix(0.018,0,0,0.018,44.81999999999999,0)" xlink:href="#bm"/><use transform="matrix(0.018,0,0,0.018,55.04399999999999,0)" xlink:href="#aX"/><use transform="matrix(0.018,0,0,0.018,60.02999999999999,0)" xlink:href="#bk"/><use transform="matrix(0.018,0,0,0.018,70.54199999999999,0)" xlink:href="#bi"/><use transform="matrix(0.018,0,0,0.018,80.20799999999998,0)" xlink:href="#bi"/><use transform="matrix(0.018,0,0,0.018,89.87399999999998,0)" xlink:href="#bj"/><use transform="matrix(0.018,0,0,0.018,97.21799999999998,0)" xlink:href="#aX"/><use transform="matrix(0.018,0,0,0.018,102.20399999999998,0)" xlink:href="#bk"/><use transform="matrix(0.018,0,0,0.018,112.71599999999998,0)" xlink:href="#bm"/></g><g id="V"><use transform="matrix(0.018,0,0,0.018,0,0)" xlink:href="#aX"/><use transform="matrix(0.018,0,0,0.018,4.986,0)" xlink:href="#bk"/><use transform="matrix(0.018,0,0,0.018,15.497999999999998,0)" xlink:href="#bm"/><use transform="matrix(0.018,0,0,0.018,25.721999999999994,0)" xlink:href="#bi"/><use transform="matrix(0.018,0,0,0.018,35.38799999999999,0)" xlink:href="#aY"/><use transform="matrix(0.018,0,0,0.018,43.883999999999986,0)" xlink:href="#aW"/><use transform="matrix(0.018,0,0,0.018,51.33599999999999,0)" xlink:href="#aX"/><use transform="matrix(0.018,0,0,0.018,56.32199999999998,0)" xlink:href="#bd"/><use transform="matrix(0.018,0,0,0.018,66.47399999999998,0)" xlink:href="#bk"/></g><g id="W"><use transform="matrix(0.018,0,0,0.018,0,0)" xlink:href="#aZ"/><use transform="matrix(0.018,0,0,0.018,15.209999999999999,0)" xlink:href="#bd"/><use transform="matrix(0.018,0,0,0.018,25.092,0)" xlink:href="#bv"/><use transform="matrix(0.018,0,0,0.018,34.812,0)" xlink:href="#aX"/><use transform="matrix(0.018,0,0,0.018,39.797999999999995,0)" xlink:href="#bk"/><use transform="matrix(0.018,0,0,0.018,50.309999999999995,0)" xlink:href="#bm"/></g><g id="X"><use transform="matrix(0.018,0,0,0.018,0,0)" xlink:href="#bf"/><use transform="matrix(0.018,0,0,0.018,10.44,0)" xlink:href="#aV"/><use transform="matrix(0.018,0,0,0.018,20.88,0)" xlink:href="#aW"/><use transform="matrix(0.018,0,0,0.018,28.313999999999997,0)" xlink:href="#aV"/></g><g id="Y"><use transform="matrix(0.02466666666666666,0,0,0.02466666666666666,0,0)" xlink:href="#bb"/><use transform="matrix(0.02466666666666666,0,0,0.02466666666666666,12.308666666666664,0)" xlink:href="#bc"/><use transform="matrix(0.02466666666666666,0,0,0.02466666666666666,19.14133333333333,0)" xlink:href="#bd"/><use transform="matrix(0.02466666666666666,0,0,0.02466666666666666,33.05333333333333,0)" xlink:href="#be"/><use transform="matrix(0.02466666666666666,0,0,0.02466666666666666,47.45866666666666,0)" xlink:href="#bf"/></g><path fill="#fff" d="M135 9c-32 0-59-20-60-47v-565c1-27 28-47 60-47 29 0 57 21 57 47v565c0 26-28 47-57 47" id="by"/><g id="Z"><use transform="matrix(0.02466666666666666,0,0,0.02466666666666666,0,0)" xlink:href="#by"/><use transform="matrix(0.02466666666666666,0,0,0.02466666666666666,6.5859999999999985,0)" xlink:href="#bk"/><use transform="matrix(0.02466666666666666,0,0,0.02466666666666666,20.99133333333333,0)" xlink:href="#bu"/><use transform="matrix(0.02466666666666666,0,0,0.02466666666666666,30.019333333333332,0)" xlink:href="#bj"/><use transform="matrix(0.02466666666666666,0,0,0.02466666666666666,39.54066666666666,0)" xlink:href="#aV"/><use transform="matrix(0.02466666666666666,0,0,0.02466666666666666,53.84733333333333,0)" xlink:href="#aY"/><use transform="matrix(0.02466666666666666,0,0,0.02466666666666666,65.48999999999998,0)" xlink:href="#aW"/><use transform="matrix(0.02466666666666666,0,0,0.02466666666666666,75.70199999999998,0)" xlink:href="#bj"/><use transform="matrix(0.02466666666666666,0,0,0.02466666666666666,85.76599999999999,0)" xlink:href="#be"/><use transform="matrix(0.02466666666666666,0,0,0.02466666666666666,100.17133333333332,0)" xlink:href="#bl"/><use transform="matrix(0.02466666666666666,0,0,0.02466666666666666,111.76466666666666,0)" xlink:href="#aW"/><use transform="matrix(0.02466666666666666,0,0,0.02466666666666666,121.97666666666666,0)" xlink:href="#be"/><use transform="matrix(0.02466666666666666,0,0,0.02466666666666666,136.38199999999998,0)" xlink:href="#bj"/><use transform="matrix(0.02466666666666666,0,0,0.02466666666666666,145.9033333333333,0)" xlink:href="#bi"/></g><g id="aa"><use transform="matrix(0.02466666666666666,0,0,0.02466666666666666,0,0)" xlink:href="#bb"/><use transform="matrix(0.02466666666666666,0,0,0.02466666666666666,12.308666666666664,0)" xlink:href="#bd"/><use transform="matrix(0.02466666666666666,0,0,0.02466666666666666,26.22066666666666,0)" xlink:href="#aY"/><use transform="matrix(0.02466666666666666,0,0,0.02466666666666666,37.86333333333332,0)" xlink:href="#aW"/></g><g id="ab"><use transform="matrix(0.018,0,0,0.018,0,0)" xlink:href="#bt"/><use transform="matrix(0.018,0,0,0.018,9.414,0)" xlink:href="#bi"/><use transform="matrix(0.018,0,0,0.018,19.08,0)" xlink:href="#bj"/><use transform="matrix(0.018,0,0,0.018,26.838,0)" xlink:href="#bv"/><use transform="matrix(0.018,0,0,0.018,36.288,0)" xlink:href="#bi"/><use transform="matrix(0.018,0,0,0.018,45.95399999999999,0)" xlink:href="#bj"/></g><g id="ac"><use transform="matrix(0.018,0,0,0.018,0,0)" xlink:href="#bg"/><use transform="matrix(0.018,0,0,0.018,9.341999999999999,0)" xlink:href="#ba"/><use transform="matrix(0.018,0,0,0.018,19.709999999999997,0)" xlink:href="#bs"/><use transform="matrix(0.018,0,0,0.018,30.185999999999996,0)" xlink:href="#bi"/><use transform="matrix(0.018,0,0,0.018,39.852,0)" xlink:href="#aY"/><use transform="matrix(0.018,0,0,0.018,48.348,0)" xlink:href="#bp"/></g><path fill="#fff" d="M555-55c18 61-95 89-113 30l-36-116H188L151-24c-8 40-88 43-107 6-7-13-10-25-7-36l196-554c10-54 111-53 130 0zM219-239h156l-77-248" id="bz"/><g id="ad"><use transform="matrix(0.018,0,0,0.018,0,0)" xlink:href="#bt"/><use transform="matrix(0.018,0,0,0.018,9.27,0)" xlink:href="#bz"/><use transform="matrix(0.018,0,0,0.018,19.926,0)" xlink:href="#bz"/><use transform="matrix(0.018,0,0,0.018,30.581999999999997,0)" xlink:href="#bt"/><use transform="matrix(0.018,0,0,0.018,39.995999999999995,0)" xlink:href="#bp"/></g><g id="ae"><use transform="matrix(0.018,0,0,0.018,0,0)" xlink:href="#bt"/><use transform="matrix(0.018,0,0,0.018,9.414,0)" xlink:href="#bi"/><use transform="matrix(0.018,0,0,0.018,19.08,0)" xlink:href="#bl"/><use transform="matrix(0.018,0,0,0.018,27.54,0)" xlink:href="#be"/><use transform="matrix(0.018,0,0,0.018,38.052,0)" xlink:href="#bj"/><use transform="matrix(0.018,0,0,0.018,45.39600000000001,0)" xlink:href="#aX"/><use transform="matrix(0.018,0,0,0.018,50.382,0)" xlink:href="#aW"/><use transform="matrix(0.018,0,0,0.018,57.833999999999996,0)" xlink:href="#ba"/><use transform="matrix(0.018,0,0,0.018,68.202,0)" xlink:href="#bp"/></g><path fill="#fff" d="M135 10c-31 0-59-20-60-47v-566c-1-56 105-64 116-9l269 393v-384c1-27 28-47 60-47 29 0 56 21 56 47v566c2 54-96 64-113 16-90-132-181-263-271-394v378c0 26-27 47-57 47" id="bA"/><path fill="#fff" d="M133 9c-31 0-59-20-60-47v-595c1-27 29-47 60-47 30 0 56 21 57 47v313h46l145-176c51-46 128 25 77 81L329-273 488-74c38 50-54 117-93 66L234-218h-44v180c0 26-27 47-57 47" id="bB"/><g id="af"><use transform="matrix(0.018,0,0,0.018,0,0)" xlink:href="#bA"/><use transform="matrix(0.018,0,0,0.018,11.826,0)" xlink:href="#bi"/><use transform="matrix(0.018,0,0,0.018,21.654,0)" xlink:href="#aW"/><use transform="matrix(0.018,0,0,0.018,29.105999999999998,0)" xlink:href="#bw"/><use transform="matrix(0.018,0,0,0.018,44.064,0)" xlink:href="#bd"/><use transform="matrix(0.018,0,0,0.018,54.215999999999994,0)" xlink:href="#bj"/><use transform="matrix(0.018,0,0,0.018,61.559999999999995,0)" xlink:href="#bB"/><use transform="matrix(0.018,0,0,0.018,71.00999999999999,0)" xlink:href="#aX"/><use transform="matrix(0.018,0,0,0.018,75.996,0)" xlink:href="#bk"/><use transform="matrix(0.018,0,0,0.018,86.508,0)" xlink:href="#bm"/></g><g id="ag"><use transform="matrix(0.018,0,0,0.018,0,0)" xlink:href="#bt"/><use transform="matrix(0.018,0,0,0.018,9.414,0)" xlink:href="#be"/><use transform="matrix(0.018,0,0,0.018,19.926,0)" xlink:href="#bs"/><use transform="matrix(0.018,0,0,0.018,30.401999999999997,0)" xlink:href="#bs"/><use transform="matrix(0.018,0,0,0.018,40.878,0)" xlink:href="#bd"/><use transform="matrix(0.018,0,0,0.018,51.03,0)" xlink:href="#bj"/><use transform="matrix(0.018,0,0,0.018,58.752,0)" xlink:href="#aW"/></g><g id="ah"><use transform="matrix(0.018,0,0,0.018,0,0)" xlink:href="#bb"/><use transform="matrix(0.018,0,0,0.018,8.982,0)" xlink:href="#bd"/><use transform="matrix(0.018,0,0,0.018,19.133999999999997,0)" xlink:href="#bk"/><use transform="matrix(0.018,0,0,0.018,29.646,0)" xlink:href="#aY"/><use transform="matrix(0.018,0,0,0.018,38.141999999999996,0)" xlink:href="#be"/><use transform="matrix(0.018,0,0,0.018,48.653999999999996,0)" xlink:href="#aZ"/><use transform="matrix(0.018,0,0,0.018,64.08,0)" xlink:href="#bs"/><use transform="matrix(0.018,0,0,0.018,74.71800000000002,0)" xlink:href="#aW"/><use transform="matrix(0.018,0,0,0.018,82.16999999999999,0)" xlink:href="#aX"/><use transform="matrix(0.018,0,0,0.018,87.156,0)" xlink:href="#bd"/><use transform="matrix(0.018,0,0,0.018,97.308,0)" xlink:href="#bk"/><use transform="matrix(0.018,0,0,0.018,107.82000000000001,0)" xlink:href="#bp"/></g><path fill="#fff" d="M31-586c2-87 136-45 215-54 29-3 56 21 56 47v556c0 26-27 47-56 47-32 0-59-20-60-47v-497c-66-2-156 17-155-52" id="bC"/><path fill="#fff" d="M304 10C149 10 63-85 63-240v-160c4-155 82-250 241-250 160 0 243 95 243 250v160C541-85 460 10 304 10zm0-551c-91 0-126 42-126 131v181c1 88 37 131 126 131 92 0 126-41 126-131v-181c-1-90-34-131-126-131" id="bD"/><path fill="#fff" d="M202-327c-86 0-145-43-150-128v-66c5-85 64-128 150-128 85 0 144 43 148 128v66c-4 85-63 128-148 128zM590 10c-86 0-145-43-149-128v-66c4-85 63-128 149-128s143 43 148 128v66c-5 85-62 128-148 128zm-90-634c19-52 129-15 97 44L287-18c-11 21-41 37-72 21-24-12-43-35-27-65zm-298 57c-55 0-54 50-54 108 0 30 24 50 54 50 53 0 52-51 52-108 0-29-24-50-52-50zm388 337c-54 0-53 51-53 108 0 66 106 65 106 0 0-57 0-108-53-108" id="bE"/><g id="ai"><use transform="matrix(0.018,0,0,0.018,0,0)" xlink:href="#bC"/><use transform="matrix(0.018,0,0,0.018,6.768,0)" xlink:href="#bD"/><use transform="matrix(0.018,0,0,0.018,17.747999999999998,0)" xlink:href="#bD"/><use transform="matrix(0.018,0,0,0.018,28.727999999999994,0)" xlink:href="#bE"/></g><g id="aj"><use transform="matrix(0.018,0,0,0.018,0,0)" xlink:href="#bd"/><use transform="matrix(0.018,0,0,0.018,10.152,0)" xlink:href="#bj"/></g><g id="ak"><use transform="matrix(0.018,0,0,0.018,0,0)" xlink:href="#bc"/><use transform="matrix(0.018,0,0,0.018,4.986,0)" xlink:href="#bi"/><use transform="matrix(0.018,0,0,0.018,14.651999999999997,0)" xlink:href="#aY"/><use transform="matrix(0.018,0,0,0.018,23.147999999999993,0)" xlink:href="#aY"/><use transform="matrix(0.018,0,0,0.018,31.643999999999995,0)" xlink:href="#bi"/><use transform="matrix(0.018,0,0,0.018,41.309999999999995,0)" xlink:href="#bj"/><use transform="matrix(0.018,0,0,0.018,47.24999999999999,0)" xlink:href="#bn"/></g><g id="al"><use transform="matrix(0.018,0,0,0.018,0,0)" xlink:href="#bo"/><use transform="matrix(0.018,0,0,0.018,13.248,0)" xlink:href="#aV"/><use transform="matrix(0.018,0,0,0.018,23.688,0)" xlink:href="#bk"/><use transform="matrix(0.018,0,0,0.018,34.199999999999996,0)" xlink:href="#aV"/><use transform="matrix(0.018,0,0,0.018,44.63999999999999,0)" xlink:href="#bm"/><use transform="matrix(0.018,0,0,0.018,54.86399999999999,0)" xlink:href="#aX"/><use transform="matrix(0.018,0,0,0.018,59.84999999999999,0)" xlink:href="#bk"/><use transform="matrix(0.018,0,0,0.018,70.36199999999998,0)" xlink:href="#bm"/></g><g id="am"><use transform="matrix(0.018,0,0,0.018,0,0)" xlink:href="#bl"/><use transform="matrix(0.018,0,0,0.018,8.459999999999999,0)" xlink:href="#bd"/><use transform="matrix(0.018,0,0,0.018,18.612,0)" xlink:href="#bk"/><use transform="matrix(0.018,0,0,0.018,29.123999999999995,0)" xlink:href="#aY"/><use transform="matrix(0.018,0,0,0.018,37.61999999999999,0)" xlink:href="#be"/><use transform="matrix(0.018,0,0,0.018,48.13199999999999,0)" xlink:href="#aZ"/><use transform="matrix(0.018,0,0,0.018,63.55799999999999,0)" xlink:href="#bs"/><use transform="matrix(0.018,0,0,0.018,74.196,0)" xlink:href="#aW"/><use transform="matrix(0.018,0,0,0.018,81.648,0)" xlink:href="#aX"/><use transform="matrix(0.018,0,0,0.018,86.634,0)" xlink:href="#bd"/><use transform="matrix(0.018,0,0,0.018,96.78600000000002,0)" xlink:href="#bk"/></g><g id="an"><use transform="matrix(0.018,0,0,0.018,0,0)" xlink:href="#bl"/><use transform="matrix(0.018,0,0,0.018,8.459999999999999,0)" xlink:href="#bd"/><use transform="matrix(0.018,0,0,0.018,18.612,0)" xlink:href="#bk"/><use transform="matrix(0.018,0,0,0.018,29.123999999999995,0)" xlink:href="#aW"/><use transform="matrix(0.018,0,0,0.018,36.57599999999999,0)" xlink:href="#bj"/><use transform="matrix(0.018,0,0,0.018,43.667999999999985,0)" xlink:href="#bd"/><use transform="matrix(0.018,0,0,0.018,53.81999999999999,0)" xlink:href="#bc"/></g><g id="ao"><use transform="matrix(0.018,0,0,0.018,0,0)" xlink:href="#aY"/><use transform="matrix(0.018,0,0,0.018,8.495999999999999,0)" xlink:href="#be"/><use transform="matrix(0.018,0,0,0.018,19.007999999999996,0)" xlink:href="#bj"/><use transform="matrix(0.018,0,0,0.018,26.351999999999997,0)" xlink:href="#bs"/><use transform="matrix(0.018,0,0,0.018,36.827999999999996,0)" xlink:href="#bj"/><use transform="matrix(0.018,0,0,0.018,44.172,0)" xlink:href="#aX"/><use transform="matrix(0.018,0,0,0.018,49.157999999999994,0)" xlink:href="#aY"/><use transform="matrix(0.018,0,0,0.018,57.653999999999996,0)" xlink:href="#bi"/><use transform="matrix(0.018,0,0,0.018,67.32,0)" xlink:href="#aY"/></g><g id="ap"><use transform="matrix(0.02466666666666666,0,0,0.02466666666666666,0,0)" xlink:href="#bb"/><use transform="matrix(0.02466666666666666,0,0,0.02466666666666666,12.308666666666664,0)" xlink:href="#bd"/><use transform="matrix(0.02466666666666666,0,0,0.02466666666666666,26.22066666666666,0)" xlink:href="#bk"/><use transform="matrix(0.02466666666666666,0,0,0.02466666666666666,40.62599999999999,0)" xlink:href="#aY"/><use transform="matrix(0.02466666666666666,0,0,0.02466666666666666,52.268666666666654,0)" xlink:href="#be"/><use transform="matrix(0.02466666666666666,0,0,0.02466666666666666,66.67399999999998,0)" xlink:href="#aZ"/><use transform="matrix(0.02466666666666666,0,0,0.02466666666666666,87.8133333333333,0)" xlink:href="#bs"/><use transform="matrix(0.02466666666666666,0,0,0.02466666666666666,102.39133333333328,0)" xlink:href="#aW"/><use transform="matrix(0.02466666666666666,0,0,0.02466666666666666,112.6033333333333,0)" xlink:href="#aX"/><use transform="matrix(0.02466666666666666,0,0,0.02466666666666666,119.43599999999996,0)" xlink:href="#bd"/><use transform="matrix(0.02466666666666666,0,0,0.02466666666666666,133.34799999999996,0)" xlink:href="#bk"/></g></defs></g></svg>