<svg xmlns="http://www.w3.org/2000/svg" xmlns:xlink="http://www.w3.org/1999/xlink" xmlns:lucid="lucid" width="1509" height="618.34"><g transform="translate(-80 -120)" lucid:page-tab-id="0_0"><path d="M0 0h1760v1360H0z" fill="#fff"/><path d="M160 140h60v42.88h-60zM220 140h60v42.88h-60zM280 140h54v42.88h-54zM334 140h54v42.88h-54zM388 140h55v42.88h-55zM443 140h54v42.88h-54zM497 140h54v42.88h-54zM551 140h55v42.88h-55zM606 140h54v42.88h-54zM660 140h55v42.88h-55zM715 140h57v42.88h-57zM772 140h53v42.88h-53zM825 140h54v42.88h-54z" fill="#fff"/><path d="M160 182.88h60v26.44h-60z"/><path d="M220 182.88h60v26.44h-60zM280 182.88h54v26.44h-54zM334 182.88h54v26.44h-54zM388 182.88h55v26.44h-55zM443 182.88h54v26.44h-54zM497 182.88h54v26.44h-54zM551 182.88h55v26.44h-55zM606 182.88h54v26.44h-54zM660 182.88h55v26.44h-55zM715 182.88h57v26.44h-57zM772 182.88h53v26.44h-53zM825 182.88h54v26.44h-54z" fill="#fcd116"/><path d="M160 209.32h60v26.44h-60z"/><path d="M220 209.32h60v26.44h-60zM280 209.32h54v26.44h-54zM334 209.32h54v26.44h-54zM388 209.32h55v26.44h-55zM443 209.32h54v26.44h-54zM497 209.32h54v26.44h-54zM551 209.32h55v26.44h-55zM606 209.32h54v26.44h-54zM660 209.32h55v26.44h-55zM715 209.32h57v26.44h-57zM772 209.32h53v26.44h-53z" fill="#fcd116"/><path d="M825 209.32h54v26.44h-54z" fill="#de5f85"/><path d="M160 235.76h60v26.44h-60z"/><path d="M220 235.76h60v26.44h-60zM280 235.76h54v26.44h-54zM334 235.76h54v26.44h-54zM388 235.76h55v26.44h-55zM443 235.76h54v26.44h-54zM497 235.76h54v26.44h-54zM551 235.76h55v26.44h-55zM606 235.76h54v26.44h-54zM660 235.76h55v26.44h-55zM715 235.76h57v26.44h-57zM772 235.76h53v26.44h-53zM825 235.76h54v26.44h-54z" fill="#de5f85"/><path d="M160 140v42.88M220 140v42.88M280 140v42.88M334 140v42.88M388 140v42.88M443 140v42.88M497 140v42.88M551 140v42.88M606 140v42.88M660 140v42.88M715 140v42.88M772 140v42.88M825 140v42.88M879 140v42.88M160 182.88v26.44M220 182.88v26.44M280 182.88v26.44M334 182.88v26.44M388 182.88v26.44M443 182.88v26.44M497 182.88v26.44M551 182.88v26.44M606 182.88v26.44M660 182.88v26.44M715 182.88v26.44M772 182.88v26.44M825 182.88v26.44M879 182.88v26.44M160 209.32v26.44M220 209.32v26.44M280 209.32v26.44M334 209.32v26.44M388 209.32v26.44M443 209.32v26.44M497 209.32v26.44M551 209.32v26.44M606 209.32v26.44M660 209.32v26.44M715 209.32v26.44M772 209.32v26.44M825 209.32v26.44M879 209.32v26.44M160 235.76v26.44M220 235.76v26.44M280 235.76v26.44M334 235.76v26.44M388 235.76v26.44M443 235.76v26.44M497 235.76v26.44M551 235.76v26.44M606 235.76v26.44M660 235.76v26.44M715 235.76v26.44M772 235.76v26.44M825 235.76v26.44M879 235.76v26.44M160 140h60M220 140h60M280 140h54M334 140h54M388 140h55M443 140h54M497 140h54M551 140h55M606 140h54M660 140h55M715 140h57M772 140h53M825 140h54M160 182.88h60M220 182.88h60M280 182.88h54M334 182.88h54M388 182.88h55M443 182.88h54M497 182.88h54M551 182.88h55M606 182.88h54M660 182.88h55M715 182.88h57M772 182.88h53M825 182.88h54M160 209.32h60M220 209.32h60M280 209.32h54M334 209.32h54M388 209.32h55M443 209.32h54M497 209.32h54M551 209.32h55M606 209.32h54M660 209.32h55M715 209.32h57M772 209.32h53M825 209.32h54M160 235.76h60M160 262.2h60M220 235.76h60M220 262.2h60M280 235.76h54M280 262.2h54M334 235.76h54M334 262.2h54M388 235.76h55M388 262.2h55M443 235.76h54M443 262.2h54M497 235.76h54M497 262.2h54M551 235.76h55M551 262.2h55M606 235.76h54M606 262.2h54M660 235.76h55M660 262.2h55M715 235.76h57M715 262.2h57M772 235.76h53M772 262.2h53M825 235.76h54M825 262.2h54" stroke="#000" fill="none"/><use xlink:href="#a" transform="matrix(1,0,0,1,225,145) translate(6.866666666666671 12.148)"/><use xlink:href="#b" transform="matrix(1,0,0,1,225,145) translate(18.42666666666667 28.58888888888889)"/><use xlink:href="#c" transform="matrix(1,0,0,1,285,145) translate(3.8666666666666707 12.148)"/><use xlink:href="#d" transform="matrix(1,0,0,1,285,145) translate(13.00888888888889 28.58888888888889)"/><use xlink:href="#c" transform="matrix(1,0,0,1,339,145) translate(3.8666666666666707 12.148)"/><use xlink:href="#e" transform="matrix(1,0,0,1,339,145) translate(13.00888888888889 28.58888888888889)"/><use xlink:href="#c" transform="matrix(1,0,0,1,393,145) translate(4.366666666666671 12.148)"/><use xlink:href="#f" transform="matrix(1,0,0,1,393,145) translate(13.22177777777778 28.58888888888889)"/><use xlink:href="#c" transform="matrix(1,0,0,1,448,145) translate(3.8666666666666707 12.148)"/><use xlink:href="#g" transform="matrix(1,0,0,1,448,145) translate(12.963555555555557 28.58888888888889)"/><use xlink:href="#c" transform="matrix(1,0,0,1,502,145) translate(3.8666666666666707 12.148)"/><use xlink:href="#h" transform="matrix(1,0,0,1,502,145) translate(13.129777777777779 28.58888888888889)"/><use xlink:href="#c" transform="matrix(1,0,0,1,556,145) translate(4.366666666666671 12.148)"/><use xlink:href="#i" transform="matrix(1,0,0,1,556,145) translate(13.312444444444445 28.58888888888889)"/><use xlink:href="#c" transform="matrix(1,0,0,1,611,145) translate(3.8666666666666707 12.148)"/><use xlink:href="#j" transform="matrix(1,0,0,1,611,145) translate(12.752000000000002 28.58888888888889)"/><use xlink:href="#c" transform="matrix(1,0,0,1,665,145) translate(4.366666666666671 12.148)"/><use xlink:href="#k" transform="matrix(1,0,0,1,665,145) translate(13.765777777777778 28.58888888888889)"/><use xlink:href="#c" transform="matrix(1,0,0,1,720,145) translate(5.366666666666671 12.148)"/><use xlink:href="#l" transform="matrix(1,0,0,1,720,145) translate(16.92666666666667 28.58888888888889)"/><use xlink:href="#c" transform="matrix(1,0,0,1,777,145) translate(3.3666666666666707 12.148)"/><use xlink:href="#m" transform="matrix(1,0,0,1,777,145) translate(17.843111111111114 28.58888888888889)"/><use xlink:href="#c" transform="matrix(1,0,0,1,830,145) translate(3.8666666666666707 12.148)"/><use xlink:href="#n" transform="matrix(1,0,0,1,830,145) translate(15.925333333333334 28.58888888888889)"/><use xlink:href="#o" transform="matrix(1,0,0,1,165,187.88177777777778) translate(6.6248888888888935 12.368444444444444)"/><use xlink:href="#p" transform="matrix(1,0,0,1,165,187.88177777777778) translate(39.718222222222224 12.368444444444444)"/><use xlink:href="#q" transform="matrix(1,0,0,1,225,187.88177777777778) translate(0 12.368444444444444)"/><use xlink:href="#r" transform="matrix(1,0,0,1,225,187.88177777777778) translate(14.17422222222222 12.368444444444444)"/><use xlink:href="#q" transform="matrix(1,0,0,1,285,187.88177777777778) translate(0 12.368444444444444)"/><use xlink:href="#r" transform="matrix(1,0,0,1,285,187.88177777777778) translate(14.17422222222222 12.368444444444444)"/><use xlink:href="#q" transform="matrix(1,0,0,1,339,187.88177777777778) translate(0 12.368444444444444)"/><use xlink:href="#r" transform="matrix(1,0,0,1,339,187.88177777777778) translate(14.17422222222222 12.368444444444444)"/><use xlink:href="#q" transform="matrix(1,0,0,1,393,187.88177777777778) translate(0 12.368444444444444)"/><use xlink:href="#r" transform="matrix(1,0,0,1,393,187.88177777777778) translate(14.17422222222222 12.368444444444444)"/><use xlink:href="#q" transform="matrix(1,0,0,1,448,187.88177777777778) translate(0 12.368444444444444)"/><use xlink:href="#r" transform="matrix(1,0,0,1,448,187.88177777777778) translate(14.17422222222222 12.368444444444444)"/><use xlink:href="#q" transform="matrix(1,0,0,1,502,187.88177777777778) translate(0 12.368444444444444)"/><use xlink:href="#r" transform="matrix(1,0,0,1,502,187.88177777777778) translate(14.17422222222222 12.368444444444444)"/><use xlink:href="#q" transform="matrix(1,0,0,1,556,187.88177777777778) translate(0 12.368444444444444)"/><use xlink:href="#r" transform="matrix(1,0,0,1,556,187.88177777777778) translate(14.17422222222222 12.368444444444444)"/><use xlink:href="#q" transform="matrix(1,0,0,1,611,187.88177777777778) translate(0 12.368444444444444)"/><use xlink:href="#r" transform="matrix(1,0,0,1,611,187.88177777777778) translate(14.17422222222222 12.368444444444444)"/><use xlink:href="#q" transform="matrix(1,0,0,1,665,187.88177777777778) translate(0 12.368444444444444)"/><use xlink:href="#r" transform="matrix(1,0,0,1,665,187.88177777777778) translate(14.17422222222222 12.368444444444444)"/><use xlink:href="#q" transform="matrix(1,0,0,1,720,187.88177777777778) translate(0 12.368444444444444)"/><use xlink:href="#r" transform="matrix(1,0,0,1,720,187.88177777777778) translate(14.17422222222222 12.368444444444444)"/><use xlink:href="#q" transform="matrix(1,0,0,1,777,187.88177777777778) translate(0 12.368444444444444)"/><use xlink:href="#r" transform="matrix(1,0,0,1,777,187.88177777777778) translate(14.17422222222222 12.368444444444444)"/><use xlink:href="#q" transform="matrix(1,0,0,1,830,187.88177777777778) translate(0 12.368444444444444)"/><use xlink:href="#r" transform="matrix(1,0,0,1,830,187.88177777777778) translate(14.17422222222222 12.368444444444444)"/><use xlink:href="#o" transform="matrix(1,0,0,1,165,214.32266666666666) translate(4.207111111111114 12.368444444444444)"/><use xlink:href="#s" transform="matrix(1,0,0,1,165,214.32266666666666) translate(37.30044444444444 12.368444444444444)"/><use xlink:href="#q" transform="matrix(1,0,0,1,225,214.32266666666666) translate(0 12.368444444444444)"/><use xlink:href="#r" transform="matrix(1,0,0,1,225,214.32266666666666) translate(14.17422222222222 12.368444444444444)"/><use xlink:href="#q" transform="matrix(1,0,0,1,285,214.32266666666666) translate(0 12.368444444444444)"/><use xlink:href="#r" transform="matrix(1,0,0,1,285,214.32266666666666) translate(14.17422222222222 12.368444444444444)"/><use xlink:href="#q" transform="matrix(1,0,0,1,339,214.32266666666666) translate(0 12.368444444444444)"/><use xlink:href="#r" transform="matrix(1,0,0,1,339,214.32266666666666) translate(14.17422222222222 12.368444444444444)"/><use xlink:href="#q" transform="matrix(1,0,0,1,393,214.32266666666666) translate(0 12.368444444444444)"/><use xlink:href="#r" transform="matrix(1,0,0,1,393,214.32266666666666) translate(14.17422222222222 12.368444444444444)"/><use xlink:href="#q" transform="matrix(1,0,0,1,448,214.32266666666666) translate(0 12.368444444444444)"/><use xlink:href="#r" transform="matrix(1,0,0,1,448,214.32266666666666) translate(14.17422222222222 12.368444444444444)"/><use xlink:href="#q" transform="matrix(1,0,0,1,502,214.32266666666666) translate(0 12.368444444444444)"/><use xlink:href="#r" transform="matrix(1,0,0,1,502,214.32266666666666) translate(14.17422222222222 12.368444444444444)"/><use xlink:href="#q" transform="matrix(1,0,0,1,556,214.32266666666666) translate(0 12.368444444444444)"/><use xlink:href="#r" transform="matrix(1,0,0,1,556,214.32266666666666) translate(14.17422222222222 12.368444444444444)"/><use xlink:href="#q" transform="matrix(1,0,0,1,611,214.32266666666666) translate(0 12.368444444444444)"/><use xlink:href="#r" transform="matrix(1,0,0,1,611,214.32266666666666) translate(14.17422222222222 12.368444444444444)"/><use xlink:href="#q" transform="matrix(1,0,0,1,665,214.32266666666666) translate(0 12.368444444444444)"/><use xlink:href="#r" transform="matrix(1,0,0,1,665,214.32266666666666) translate(14.17422222222222 12.368444444444444)"/><use xlink:href="#q" transform="matrix(1,0,0,1,720,214.32266666666666) translate(0 12.368444444444444)"/><use xlink:href="#r" transform="matrix(1,0,0,1,720,214.32266666666666) translate(14.17422222222222 12.368444444444444)"/><use xlink:href="#q" transform="matrix(1,0,0,1,777,214.32266666666666) translate(0 12.368444444444444)"/><use xlink:href="#r" transform="matrix(1,0,0,1,777,214.32266666666666) translate(14.17422222222222 12.368444444444444)"/><use xlink:href="#t" transform="matrix(1,0,0,1,830,214.32266666666666) translate(0 12.368444444444444)"/><use xlink:href="#r" transform="matrix(1,0,0,1,830,214.32266666666666) translate(13.599999999999998 12.368444444444444)"/><use xlink:href="#o" transform="matrix(1,0,0,1,165,240.76355555555557) translate(4.207111111111114 12.368444444444444)"/><use xlink:href="#u" transform="matrix(1,0,0,1,165,240.76355555555557) translate(37.30044444444444 12.368444444444444)"/><use xlink:href="#t" transform="matrix(1,0,0,1,225,240.76355555555557) translate(0 12.368444444444444)"/><use xlink:href="#r" transform="matrix(1,0,0,1,225,240.76355555555557) translate(13.599999999999998 12.368444444444444)"/><use xlink:href="#t" transform="matrix(1,0,0,1,285,240.76355555555557) translate(0 12.368444444444444)"/><use xlink:href="#r" transform="matrix(1,0,0,1,285,240.76355555555557) translate(13.599999999999998 12.368444444444444)"/><use xlink:href="#t" transform="matrix(1,0,0,1,339,240.76355555555557) translate(0 12.368444444444444)"/><use xlink:href="#r" transform="matrix(1,0,0,1,339,240.76355555555557) translate(13.599999999999998 12.368444444444444)"/><use xlink:href="#t" transform="matrix(1,0,0,1,393,240.76355555555557) translate(0 12.368444444444444)"/><use xlink:href="#r" transform="matrix(1,0,0,1,393,240.76355555555557) translate(13.599999999999998 12.368444444444444)"/><use xlink:href="#t" transform="matrix(1,0,0,1,448,240.76355555555557) translate(0 12.368444444444444)"/><use xlink:href="#r" transform="matrix(1,0,0,1,448,240.76355555555557) translate(13.599999999999998 12.368444444444444)"/><use xlink:href="#t" transform="matrix(1,0,0,1,502,240.76355555555557) translate(0 12.368444444444444)"/><use xlink:href="#r" transform="matrix(1,0,0,1,502,240.76355555555557) translate(13.599999999999998 12.368444444444444)"/><use xlink:href="#t" transform="matrix(1,0,0,1,556,240.76355555555557) translate(0 12.368444444444444)"/><use xlink:href="#r" transform="matrix(1,0,0,1,556,240.76355555555557) translate(13.599999999999998 12.368444444444444)"/><use xlink:href="#t" transform="matrix(1,0,0,1,611,240.76355555555557) translate(0 12.368444444444444)"/><use xlink:href="#r" transform="matrix(1,0,0,1,611,240.76355555555557) translate(13.599999999999998 12.368444444444444)"/><use xlink:href="#t" transform="matrix(1,0,0,1,665,240.76355555555557) translate(0 12.368444444444444)"/><use xlink:href="#r" transform="matrix(1,0,0,1,665,240.76355555555557) translate(13.599999999999998 12.368444444444444)"/><use xlink:href="#t" transform="matrix(1,0,0,1,720,240.76355555555557) translate(0 12.368444444444444)"/><use xlink:href="#r" transform="matrix(1,0,0,1,720,240.76355555555557) translate(13.599999999999998 12.368444444444444)"/><use xlink:href="#t" transform="matrix(1,0,0,1,777,240.76355555555557) translate(0 12.368444444444444)"/><use xlink:href="#r" transform="matrix(1,0,0,1,777,240.76355555555557) translate(13.599999999999998 12.368444444444444)"/><use xlink:href="#t" transform="matrix(1,0,0,1,830,240.76355555555557) translate(0 12.368444444444444)"/><use xlink:href="#r" transform="matrix(1,0,0,1,830,240.76355555555557) translate(13.599999999999998 12.368444444444444)"/><path d="M160 300h60v42.88h-60zM220 300h60v42.88h-60zM280 300h54v42.88h-54zM334 300h54v42.88h-54zM388 300h55v42.88h-55zM443 300h54v42.88h-54zM497 300h54v42.88h-54zM551 300h55v42.88h-55zM606 300h54v42.88h-54zM660 300h55v42.88h-55zM715 300h57v42.88h-57zM772 300h53v42.88h-53zM825 300h54v42.88h-54z" fill="#fff"/><path d="M160 342.88h60v26.44h-60z"/><path d="M220 342.88h60v26.44h-60zM280 342.88h54v26.44h-54zM334 342.88h54v26.44h-54zM388 342.88h55v26.44h-55zM443 342.88h54v26.44h-54zM497 342.88h54v26.44h-54zM551 342.88h55v26.44h-55zM606 342.88h54v26.44h-54zM660 342.88h55v26.44h-55zM715 342.88h57v26.44h-57zM772 342.88h53v26.44h-53zM825 342.88h54v26.44h-54z" fill="#c92d39"/><path d="M160 369.32h60v26.44h-60z"/><path d="M220 369.32h60v26.44h-60z" fill="#c92d39"/><path d="M280 369.32h54v26.44h-54zM334 369.32h54v26.44h-54zM388 369.32h55v26.44h-55zM443 369.32h54v26.44h-54zM497 369.32h54v26.44h-54zM551 369.32h55v26.44h-55zM606 369.32h54v26.44h-54zM660 369.32h55v26.44h-55zM715 369.32h57v26.44h-57zM772 369.32h53v26.44h-53zM825 369.32h54v26.44h-54z" fill="#ff8f80"/><path d="M160 395.76h60v26.44h-60z"/><path d="M220 395.76h60v26.44h-60zM280 395.76h54v26.44h-54zM334 395.76h54v26.44h-54zM388 395.76h55v26.44h-55zM443 395.76h54v26.44h-54zM497 395.76h54v26.44h-54zM551 395.76h55v26.44h-55zM606 395.76h54v26.44h-54zM660 395.76h55v26.44h-55zM715 395.76h57v26.44h-57zM772 395.76h53v26.44h-53zM825 395.76h54v26.44h-54z" fill="#c92d39"/><path d="M160 300v42.88M220 300v42.88M280 300v42.88M334 300v42.88M388 300v42.88M443 300v42.88M497 300v42.88M551 300v42.88M606 300v42.88M660 300v42.88M715 300v42.88M772 300v42.88M825 300v42.88M879 300v42.88M160 342.88v26.44M220 342.88v26.44M280 342.88v26.44M334 342.88v26.44M388 342.88v26.44M443 342.88v26.44M497 342.88v26.44M551 342.88v26.44M606 342.88v26.44M660 342.88v26.44M715 342.88v26.44M772 342.88v26.44M825 342.88v26.44M879 342.88v26.44M160 369.32v26.44M220 369.32v26.44M280 369.32v26.44M334 369.32v26.44M388 369.32v26.44M443 369.32v26.44M497 369.32v26.44M551 369.32v26.44M606 369.32v26.44M660 369.32v26.44M715 369.32v26.44M772 369.32v26.44M825 369.32v26.44M879 369.32v26.44M160 395.76v26.44M220 395.76v26.44M280 395.76v26.44M334 395.76v26.44M388 395.76v26.44M443 395.76v26.44M497 395.76v26.44M551 395.76v26.44M606 395.76v26.44M660 395.76v26.44M715 395.76v26.44M772 395.76v26.44M825 395.76v26.44M879 395.76v26.44M160 300h60M220 300h60M280 300h54M334 300h54M388 300h55M443 300h54M497 300h54M551 300h55M606 300h54M660 300h55M715 300h57M772 300h53M825 300h54M160 342.88h60M220 342.88h60M280 342.88h54M334 342.88h54M388 342.88h55M443 342.88h54M497 342.88h54M551 342.88h55M606 342.88h54M660 342.88h55M715 342.88h57M772 342.88h53M825 342.88h54M160 369.32h60M220 369.32h60M280 369.32h54M334 369.32h54M388 369.32h55M443 369.32h54M497 369.32h54M551 369.32h55M606 369.32h54M660 369.32h55M715 369.32h57M772 369.32h53M825 369.32h54M160 395.76h60M160 422.2h60M220 395.76h60M220 422.2h60M280 395.76h54M280 422.2h54M334 395.76h54M334 422.2h54M388 395.76h55M388 422.2h55M443 395.76h54M443 422.2h54M497 395.76h54M497 422.2h54M551 395.76h55M551 422.2h55M606 395.76h54M606 422.2h54M660 395.76h55M660 422.2h55M715 395.76h57M715 422.2h57M772 395.76h53M772 422.2h53M825 395.76h54M825 422.2h54" stroke="#000" fill="none"/><use xlink:href="#a" transform="matrix(1,0,0,1,225,305) translate(6.866666666666671 12.148)"/><use xlink:href="#b" transform="matrix(1,0,0,1,225,305) translate(18.42666666666667 28.58888888888889)"/><use xlink:href="#c" transform="matrix(1,0,0,1,285,305) translate(3.8666666666666707 12.148)"/><use xlink:href="#d" transform="matrix(1,0,0,1,285,305) translate(13.00888888888889 28.58888888888889)"/><use xlink:href="#c" transform="matrix(1,0,0,1,339,305) translate(3.8666666666666707 12.148)"/><use xlink:href="#e" transform="matrix(1,0,0,1,339,305) translate(13.00888888888889 28.58888888888889)"/><use xlink:href="#c" transform="matrix(1,0,0,1,393,305) translate(4.366666666666671 12.148)"/><use xlink:href="#f" transform="matrix(1,0,0,1,393,305) translate(13.22177777777778 28.58888888888889)"/><use xlink:href="#c" transform="matrix(1,0,0,1,448,305) translate(3.8666666666666707 12.148)"/><use xlink:href="#g" transform="matrix(1,0,0,1,448,305) translate(12.963555555555557 28.58888888888889)"/><use xlink:href="#c" transform="matrix(1,0,0,1,502,305) translate(3.8666666666666707 12.148)"/><use xlink:href="#h" transform="matrix(1,0,0,1,502,305) translate(13.129777777777779 28.58888888888889)"/><use xlink:href="#c" transform="matrix(1,0,0,1,556,305) translate(4.366666666666671 12.148)"/><use xlink:href="#i" transform="matrix(1,0,0,1,556,305) translate(13.312444444444445 28.58888888888889)"/><use xlink:href="#c" transform="matrix(1,0,0,1,611,305) translate(3.8666666666666707 12.148)"/><use xlink:href="#j" transform="matrix(1,0,0,1,611,305) translate(12.752000000000002 28.58888888888889)"/><use xlink:href="#c" transform="matrix(1,0,0,1,665,305) translate(4.366666666666671 12.148)"/><use xlink:href="#k" transform="matrix(1,0,0,1,665,305) translate(13.765777777777778 28.58888888888889)"/><use xlink:href="#c" transform="matrix(1,0,0,1,720,305) translate(5.366666666666671 12.148)"/><use xlink:href="#l" transform="matrix(1,0,0,1,720,305) translate(16.92666666666667 28.58888888888889)"/><use xlink:href="#c" transform="matrix(1,0,0,1,777,305) translate(3.3666666666666707 12.148)"/><use xlink:href="#m" transform="matrix(1,0,0,1,777,305) translate(17.843111111111114 28.58888888888889)"/><use xlink:href="#c" transform="matrix(1,0,0,1,830,305) translate(3.8666666666666707 12.148)"/><use xlink:href="#n" transform="matrix(1,0,0,1,830,305) translate(15.925333333333334 28.58888888888889)"/><use xlink:href="#o" transform="matrix(1,0,0,1,165,347.88177777777776) translate(6.6248888888888935 12.368444444444444)"/><use xlink:href="#p" transform="matrix(1,0,0,1,165,347.88177777777776) translate(39.718222222222224 12.368444444444444)"/><use xlink:href="#v" transform="matrix(1,0,0,1,225,347.88177777777776) translate(16.507555555555555 12.368444444444444)"/><use xlink:href="#w" transform="matrix(1,0,0,1,285,347.88177777777776) translate(13.885333333333335 12.368444444444444)"/><use xlink:href="#w" transform="matrix(1,0,0,1,339,347.88177777777776) translate(13.885333333333335 12.368444444444444)"/><use xlink:href="#v" transform="matrix(1,0,0,1,393,347.88177777777776) translate(14.007555555555557 12.368444444444444)"/><use xlink:href="#x" transform="matrix(1,0,0,1,448,347.88177777777776) translate(13.764444444444447 12.368444444444444)"/><use xlink:href="#y" transform="matrix(1,0,0,1,502,347.88177777777776) translate(13.250666666666667 12.368444444444444)"/><use xlink:href="#z" transform="matrix(1,0,0,1,556,347.88177777777776) translate(13.49377777777778 12.368444444444444)"/><use xlink:href="#A" transform="matrix(1,0,0,1,611,347.88177777777776) translate(12.752000000000002 12.368444444444444)"/><use xlink:href="#x" transform="matrix(1,0,0,1,665,347.88177777777776) translate(14.264444444444447 12.368444444444444)"/><use xlink:href="#B" transform="matrix(1,0,0,1,720,347.88177777777776) translate(14.977333333333334 12.368444444444444)"/><use xlink:href="#z" transform="matrix(1,0,0,1,777,347.88177777777776) translate(12.49377777777778 12.368444444444444)"/><use xlink:href="#C" transform="matrix(1,0,0,1,830,347.88177777777776) translate(13.371555555555556 12.368444444444444)"/><use xlink:href="#o" transform="matrix(1,0,0,1,165,374.3226666666667) translate(4.207111111111114 12.368444444444444)"/><use xlink:href="#s" transform="matrix(1,0,0,1,165,374.3226666666667) translate(37.30044444444444 12.368444444444444)"/><use xlink:href="#A" transform="matrix(1,0,0,1,225,374.3226666666667) translate(15.752000000000002 12.368444444444444)"/><use xlink:href="#D" transform="matrix(1,0,0,1,285,374.3226666666667) translate(13.432000000000002 12.368444444444444)"/><use xlink:href="#D" transform="matrix(1,0,0,1,339,374.3226666666667) translate(13.432000000000002 12.368444444444444)"/><use xlink:href="#E" transform="matrix(1,0,0,1,393,374.3226666666667) translate(13.554222222222224 12.368444444444444)"/><use xlink:href="#F" transform="matrix(1,0,0,1,448,374.3226666666667) translate(13.628444444444446 12.368444444444444)"/><use xlink:href="#F" transform="matrix(1,0,0,1,502,374.3226666666667) translate(13.628444444444446 12.368444444444444)"/><use xlink:href="#G" transform="matrix(1,0,0,1,556,374.3226666666667) translate(13.871555555555556 12.368444444444444)"/><use xlink:href="#H" transform="matrix(1,0,0,1,611,374.3226666666667) translate(13.205333333333336 12.368444444444444)"/><use xlink:href="#F" transform="matrix(1,0,0,1,665,374.3226666666667) translate(14.128444444444446 12.368444444444444)"/><use xlink:href="#I" transform="matrix(1,0,0,1,720,374.3226666666667) translate(14.524000000000001 12.368444444444444)"/><use xlink:href="#G" transform="matrix(1,0,0,1,777,374.3226666666667) translate(12.871555555555556 12.368444444444444)"/><use xlink:href="#J" transform="matrix(1,0,0,1,830,374.3226666666667) translate(13.749333333333334 12.368444444444444)"/><use xlink:href="#o" transform="matrix(1,0,0,1,165,400.76355555555557) translate(4.207111111111114 12.368444444444444)"/><use xlink:href="#u" transform="matrix(1,0,0,1,165,400.76355555555557) translate(37.30044444444444 12.368444444444444)"/><use xlink:href="#v" transform="matrix(1,0,0,1,225,400.76355555555557) translate(16.507555555555555 12.368444444444444)"/><use xlink:href="#w" transform="matrix(1,0,0,1,285,400.76355555555557) translate(13.885333333333335 12.368444444444444)"/><use xlink:href="#w" transform="matrix(1,0,0,1,339,400.76355555555557) translate(13.885333333333335 12.368444444444444)"/><use xlink:href="#v" transform="matrix(1,0,0,1,393,400.76355555555557) translate(14.007555555555557 12.368444444444444)"/><use xlink:href="#x" transform="matrix(1,0,0,1,448,400.76355555555557) translate(13.764444444444447 12.368444444444444)"/><use xlink:href="#y" transform="matrix(1,0,0,1,502,400.76355555555557) translate(13.250666666666667 12.368444444444444)"/><use xlink:href="#z" transform="matrix(1,0,0,1,556,400.76355555555557) translate(13.49377777777778 12.368444444444444)"/><use xlink:href="#A" transform="matrix(1,0,0,1,611,400.76355555555557) translate(12.752000000000002 12.368444444444444)"/><use xlink:href="#x" transform="matrix(1,0,0,1,665,400.76355555555557) translate(14.264444444444447 12.368444444444444)"/><use xlink:href="#B" transform="matrix(1,0,0,1,720,400.76355555555557) translate(14.977333333333334 12.368444444444444)"/><use xlink:href="#z" transform="matrix(1,0,0,1,777,400.76355555555557) translate(12.49377777777778 12.368444444444444)"/><use xlink:href="#C" transform="matrix(1,0,0,1,830,400.76355555555557) translate(13.371555555555556 12.368444444444444)"/><path d="M940 200h220v44.33H940z" fill="#fff" fill-opacity="0"/><use xlink:href="#K" transform="matrix(1,0,0,1,945,205) translate(9.228888888888875 21.372222222222224)"/><use xlink:href="#L" transform="matrix(1,0,0,1,945,205) translate(45.423111111111105 21.372222222222224)"/><use xlink:href="#M" transform="matrix(1,0,0,1,945,205) translate(83.03733333333334 21.372222222222224)"/><use xlink:href="#N" transform="matrix(1,0,0,1,945,205) translate(131.53822222222223 21.372222222222224)"/><use xlink:href="#O" transform="matrix(1,0,0,1,945,205) translate(149.9351111111111 21.372222222222224)"/><path d="M879.75 224.6h44.93" stroke="#000" stroke-width=".5" fill="none"/><path d="M879.76 224.86h-.26v-.5h.26z"/><path d="M939.2 224.6l-14.27 4.65v-9.27z" stroke="#000" stroke-width=".5"/><path d="M100 272.2h220V300H100z" fill="#fff" fill-opacity="0"/><use xlink:href="#P" transform="matrix(1,0,0,1,105,277.20444444444445) translate(59.57577777777777 13.747222222222224)"/><use xlink:href="#Q" transform="matrix(1,0,0,1,105,277.20444444444445) translate(89.74288888888888 13.747222222222224)"/><use xlink:href="#R" transform="matrix(1,0,0,1,105,277.20444444444445) translate(116.59666666666666 13.747222222222224)"/><path d="M980 322.20000000000005c-22.1 0-40 17.42-40 38.9 0 21.48 17.9 38.9 40 38.9s40-17.42 40-38.9c0-21.48-17.9-38.9-40-38.9zm0 38.9z" fill="#fcc438"/><path d="M980 322.2c22.1 0 40 17.42 40 38.9 0 21.48-17.9 38.9-40 38.9-17.67 0-32.58-10.53-38.04-26.88L980 361.1z" fill="#de5f85"/><path d="M1060 400h140v40h-140z" fill="#fff" fill-opacity="0"/><use xlink:href="#S" transform="matrix(1,0,0,1,1065,405) translate(11.205666666666666 20.372222222222224)"/><use xlink:href="#T" transform="matrix(1,0,0,1,1065,405) translate(42.76122222222222 20.372222222222224)"/><use xlink:href="#U" transform="matrix(1,0,0,1,1065,405) translate(86.939 20.372222222222224)"/><path d="M920 400h140v40H920z" fill="#fff" fill-opacity="0"/><use xlink:href="#V" transform="matrix(1,0,0,1,925,405) translate(0.7607777777777756 20.372222222222224)"/><use xlink:href="#W" transform="matrix(1,0,0,1,925,405) translate(48.883 20.372222222222224)"/><use xlink:href="#U" transform="matrix(1,0,0,1,925,405) translate(97.38388888888889 20.372222222222224)"/><path d="M1120.5 320c-21.82 0-39.5 17.9-39.5 40s17.68 40 39.5 40 39.5-17.9 39.5-40-17.68-40-39.5-40zm0 12c15.27 0 27.65 12.54 27.65 28s-12.38 28-27.65 28c-15.27 0-27.65-12.54-27.65-28s12.38-28 27.65-28z" fill="#c7e8ac"/><path d="M1120.5 320c21.82 0 39.5 17.9 39.5 40s-17.68 40-39.5 40c-17.45 0-32.17-10.83-37.57-27.64l11.27-3.7c3.78 11.76 14.08 19.34 26.3 19.34 15.27 0 27.65-12.54 27.65-28s-12.38-28-27.65-28z" fill="#19967d"/><path d="M170 540c0-33.14 26.86-60 60-60s60 26.86 60 60h-18c0-23.2-18.8-42-42-42s-42 18.8-42 42z" fill="#d7e9ff"/><path d="M170 540c0-33.14 26.86-60 60-60s60 26.86 60 60h-18c0-23.2-18.8-42-42-42s-42 18.8-42 42z" fill="#de5f85"/><path d="M160 540h140v40H160z" fill="#fff" fill-opacity="0"/><use xlink:href="#X" transform="matrix(1,0,0,1,165,545) translate(17.9191111111111 20.372222222222224)"/><use xlink:href="#Y" transform="matrix(1,0,0,1,165,545) translate(75.792 20.372222222222224)"/><path d="M330 540c0-33.14 26.86-60 60-60s60 26.86 60 60h-18c0-23.2-18.8-42-42-42s-42 18.8-42 42z" fill="#fcd116"/><path d="M330 540c0-33.14 26.86-60 60-60 24.64 0 45.54 13.8 55.2 36.48l-16.56 7.06C421.88 507.67 407.24 498 390 498c-23.2 0-42 18.8-42 42z" fill="#7ab648"/><path d="M320 540h140v40H320z" fill="#fff" fill-opacity="0"/><use xlink:href="#Z" transform="matrix(1,0,0,1,324.99999999999983,545) translate(17.966444444444434 20.372222222222224)"/><use xlink:href="#Y" transform="matrix(1,0,0,1,324.99999999999983,545) translate(75.74466666666666 20.372222222222224)"/><path d="M490 540c0-33.14 26.86-60 60-60s60 26.86 60 60h-18c0-23.2-18.8-42-42-42s-42 18.8-42 42z" fill="#ffdba9"/><path d="M490 540c0-33.14 26.86-60 60-60v18c-23.2 0-42 18.8-42 42z" fill="#3aa6dd"/><path d="M480 540h140v40H480z" fill="#fff" fill-opacity="0"/><use xlink:href="#aa" transform="matrix(1,0,0,1,484.9999999999997,545) translate(34.880222222222216 20.372222222222224)"/><path d="M650 540c0-33.14 26.86-60 60-60s60 26.86 60 60h-18c0-23.2-18.8-42-42-42s-42 18.8-42 42z" fill="#ff8f80"/><path d="M650 540c0-33.14 26.86-60 60-60 15.3 0 28.34 4.95 39.8 15.1l-11.95 13.46c-8-7.1-17.14-10.56-27.85-10.56-23.2 0-42 18.8-42 42z" fill="#fcd116"/><path d="M640 540h140v40H640z" fill="#fff" fill-opacity="0"/><use xlink:href="#ab" transform="matrix(1,0,0,1,645,545) translate(42.56399999999999 20.372222222222224)"/><path d="M160 580h140v40H160z" fill="#fff" fill-opacity="0"/><use xlink:href="#ac" transform="matrix(1,0,0,1,165,585) translate(40.70222222222222 20.372222222222224)"/><path d="M320 580h140v40H320z" fill="#fff" fill-opacity="0"/><use xlink:href="#ad" transform="matrix(1,0,0,1,325,585) translate(32.16644444444444 20.372222222222224)"/><path d="M470 580h140v40H470z" fill="#fff" fill-opacity="0"/><use xlink:href="#ae" transform="matrix(1,0,0,1,474.9999999999996,585) translate(31.251333333333335 20.372222222222224)"/><path d="M640 580h140v40H640z" fill="#fff" fill-opacity="0"/><g><use xlink:href="#af" transform="matrix(1,0,0,1,645,585) translate(31.819333333333333 20.372222222222224)"/></g><path d="M913.33 575.67H1180V620H913.33z" fill="#fff" fill-opacity="0"/><g><use xlink:href="#ag" transform="matrix(1,0,0,1,918.3333333333335,580.6675555555555) translate(2.2777777777777715 21.372222222222224)"/><use xlink:href="#ah" transform="matrix(1,0,0,1,918.3333333333335,580.6675555555555) translate(35.94755555555555 21.372222222222224)"/><use xlink:href="#ai" transform="matrix(1,0,0,1,918.3333333333335,580.6675555555555) translate(55.00711111111111 21.372222222222224)"/><use xlink:href="#aj" transform="matrix(1,0,0,1,918.3333333333335,580.6675555555555) translate(117.39244444444444 21.372222222222224)"/><use xlink:href="#ak" transform="matrix(1,0,0,1,918.3333333333335,580.6675555555555) translate(143.58355555555556 21.372222222222224)"/><use xlink:href="#al" transform="matrix(1,0,0,1,918.3333333333335,580.6675555555555) translate(202.6871111111111 21.372222222222224)"/></g><path d="M840.25 600.28H898M840.26 600.28H840" stroke="#000" stroke-width=".5" fill="none"/><path d="M912.52 600.28l-14.26 4.64v-9.27z" stroke="#000" stroke-width=".5"/><path d="M920 431.34h280v44.33H920z" fill="#fff" fill-opacity="0"/><g><use xlink:href="#ag" transform="matrix(1,0,0,1,925,436.33511111111113) translate(6.25333333333333 21.372222222222224)"/><use xlink:href="#am" transform="matrix(1,0,0,1,925,436.33511111111113) translate(39.92311111111111 21.372222222222224)"/><use xlink:href="#ai" transform="matrix(1,0,0,1,925,436.33511111111113) translate(64.03155555555556 21.372222222222224)"/><use xlink:href="#aj" transform="matrix(1,0,0,1,925,436.33511111111113) translate(126.41688888888889 21.372222222222224)"/><use xlink:href="#ak" transform="matrix(1,0,0,1,925,436.33511111111113) translate(152.608 21.372222222222224)"/><use xlink:href="#al" transform="matrix(1,0,0,1,925,436.33511111111113) translate(211.71155555555555 21.372222222222224)"/></g><path d="M840 620h360v49.17H840z" fill="#fff" fill-opacity="0"/><g><use xlink:href="#an" transform="matrix(1,0,0,1,845,625) translate(6.484000000000009 24.4)"/><use xlink:href="#ao" transform="matrix(1,0,0,1,845,625) translate(45.43600000000001 24.4)"/><use xlink:href="#ap" transform="matrix(1,0,0,1,845,625) translate(116.608 24.4)"/><use xlink:href="#aq" transform="matrix(1,0,0,1,845,625) translate(133.348 24.4)"/><use xlink:href="#ar" transform="matrix(1,0,0,1,845,625) translate(210.496 24.4)"/><use xlink:href="#as" transform="matrix(1,0,0,1,845,625) translate(274.39599999999996 24.4)"/></g><path d="M840 669.17h360v49.17H840z" fill="#fff" fill-opacity="0"/><path d="M1300 466.18h134.5v29H1300zM1434.5 466.18H1569v29h-134.5z" fill="#fff"/><path d="M1300 495.18h134.5v26.44H1300z" fill="#fcd116"/><path d="M1434.5 495.18H1569v26.44h-134.5z" fill="#fff"/><path d="M1300 521.62h134.5v26.44H1300z" fill="#fcd116"/><path d="M1434.5 521.62H1569v26.44h-134.5z" fill="#fff"/><path d="M1300 548.06h134.5v26.44H1300z" fill="#fcd116"/><path d="M1434.5 548.06H1569v26.44h-134.5z" fill="#fff"/><path d="M1300 574.5h134.5v26.44H1300z" fill="#fcd116"/><path d="M1434.5 574.5H1569v26.44h-134.5z" fill="#fff"/><path d="M1300 600.94h134.5v26.44H1300z" fill="#fcd116"/><path d="M1434.5 600.94H1569v26.44h-134.5z" fill="#fff"/><path d="M1300 627.38h134.5v26.44H1300z" fill="#fcd116"/><path d="M1434.5 627.38H1569v26.44h-134.5z" fill="#fff"/><path d="M1300 466.18v29M1434.5 466.18v29M1569 466.18v29M1300 495.18v26.44M1434.5 495.18v26.44M1569 495.18v26.44M1300 521.62v26.44M1434.5 521.62v26.44M1569 521.62v26.44M1300 548.06v26.44M1434.5 548.06v26.44M1569 548.06v26.44M1300 574.5v26.44M1434.5 574.5v26.44M1569 574.5v26.44M1300 600.94v26.44M1434.5 600.94v26.44M1569 600.94v26.44M1300 627.38v26.44M1434.5 627.38v26.44M1569 627.38v26.44M1300 466.18h134.5M1434.5 466.18H1569M1300 495.18h134.5M1434.5 495.18H1569M1300 521.62h134.5M1434.5 521.62H1569M1300 548.06h134.5M1434.5 548.06H1569M1300 574.5h134.5M1434.5 574.5H1569M1300 600.94h134.5M1434.5 600.94H1569M1300 627.38h134.5M1300 653.82h134.5M1434.5 627.38H1569M1434.5 653.82H1569" stroke="#000" fill="none"/><g><use xlink:href="#at" transform="matrix(1,0,0,1,1439.5,471.1773333333333) translate(48.70355555555556 13.368444444444444)"/></g><g><use xlink:href="#au" transform="matrix(1,0,0,1,1305,500.1773333333333) translate(44.12488888888889 12.368444444444444)"/><use xlink:href="#av" transform="matrix(1,0,0,1,1305,500.1773333333333) translate(77.21822222222221 12.368444444444444)"/></g><g><use xlink:href="#aw" transform="matrix(1,0,0,1,1439.5,500.1773333333333) translate(30.902666666666676 12.368444444444444)"/></g><g><use xlink:href="#au" transform="matrix(1,0,0,1,1305,526.6182222222222) translate(41.70711111111112 12.368444444444444)"/><use xlink:href="#ax" transform="matrix(1,0,0,1,1305,526.6182222222222) translate(74.80044444444445 12.368444444444444)"/></g><g><use xlink:href="#aw" transform="matrix(1,0,0,1,1439.5,526.6182222222222) translate(30.902666666666676 12.368444444444444)"/></g><g><use xlink:href="#au" transform="matrix(1,0,0,1,1305,553.0591111111111) translate(41.70711111111112 12.368444444444444)"/><use xlink:href="#ay" transform="matrix(1,0,0,1,1305,553.0591111111111) translate(74.80044444444445 12.368444444444444)"/></g><g><use xlink:href="#az" transform="matrix(1,0,0,1,1439.5,553.0591111111111) translate(28.60577777777779 12.368444444444444)"/></g><g><use xlink:href="#aA" transform="matrix(1,0,0,1,1305,579.5) translate(35.85911111111112 12.368444444444444)"/><use xlink:href="#aB" transform="matrix(1,0,0,1,1305,579.5) translate(61.548 12.368444444444444)"/></g><g><use xlink:href="#aC" transform="matrix(1,0,0,1,1439.5,579.5) translate(29.134666666666675 12.368444444444444)"/></g><g><use xlink:href="#aD" transform="matrix(1,0,0,1,1305,605.9408888888888) translate(22.561333333333337 12.368444444444444)"/><use xlink:href="#aE" transform="matrix(1,0,0,1,1305,605.9408888888888) translate(87.32755555555555 12.368444444444444)"/></g><g><use xlink:href="#aF" transform="matrix(1,0,0,1,1439.5,605.9408888888888) translate(30.101777777777784 12.368444444444444)"/></g><g><use xlink:href="#at" transform="matrix(1,0,0,1,1305,632.3817777777778) translate(48.70355555555556 12.368444444444444)"/></g><g><use xlink:href="#aG" transform="matrix(1,0,0,1,1439.5,632.3817777777778) translate(28.877777777777787 12.368444444444444)"/></g><path d="M1300 419.12h269v34.42h-269z" fill="#fff" fill-opacity="0"/><g><use xlink:href="#aH" transform="matrix(1,0,0,1,1305,424.12) translate(10.611777777777803 24.755555555555553)"/><use xlink:href="#aI" transform="matrix(1,0,0,1,1305,424.12) translate(94.68866666666666 24.755555555555553)"/><use xlink:href="#aJ" transform="matrix(1,0,0,1,1305,424.12) translate(176.29666666666665 24.755555555555553)"/></g><defs><path d="M35-314c7-101 62-164 168-164 45 0 84 14 116 42 103-96 282-19 282 122v258c3 35-41 70-80 46-17-11-26-26-26-46v-258c-8-40-18-58-62-58-85 0-62 94-62 169 0 35-39 66-80 46-66-32 29-215-88-215-43 0-62 29-62 58v258c6 34-41 70-80 46-17-11-26-26-26-46v-258" id="aK"/><path d="M444-238c0-129-68-236-202-236-128 0-198 99-198 236C44-99 110 0 242 0c134 0 202-97 202-238zm-296 8c0-84 25-138 94-138 65 0 98 43 98 130 0 89-33 134-98 134-63 0-94-42-94-126" id="aL"/><path d="M100 0C72 2 48-20 48-52v-228c1-106 78-194 188-186 116 9 186 69 186 186v228c2 28-23 50-52 52s-50-21-50-52v-228c-3-49-31-79-84-82-51-3-84 28-84 82v228c1 27-23 49-52 52" id="aM"/><path d="M96-472c9-75-31-188 52-192 30-1 54 24 54 54v138c49 2 94-8 114 28 20 38-13 86-48 78h-66v208c-3 48 28 61 70 48 39-12 80 23 68 66-9 33-40 40-76 44C160 9 96-57 96-158v-208c-38 1-63 2-78-26-21-40 11-83 46-80h32" id="aN"/><path d="M242-372c-58-4-84 46-84 86v230c5 48-63 73-94 36-8-9-12-21-12-36v-552c0-27 18-55 52-54 86 1 44 128 54 206 134-67 276 36 276 170v230c8 36-41 70-78 48-19-11-28-27-28-48v-230c-10-62-27-82-86-86" id="aO"/><g id="a"><use transform="matrix(0.015111111111111108,0,0,0.015111111111111108,0,0)" xlink:href="#aK"/><use transform="matrix(0.015111111111111108,0,0,0.015111111111111108,9.489777777777777,0)" xlink:href="#aL"/><use transform="matrix(0.015111111111111108,0,0,0.015111111111111108,16.77333333333333,0)" xlink:href="#aM"/><use transform="matrix(0.015111111111111108,0,0,0.015111111111111108,23.815111111111108,0)" xlink:href="#aN"/><use transform="matrix(0.015111111111111108,0,0,0.015111111111111108,29.04355555555555,0)" xlink:href="#aO"/></g><path d="M48-348C48-142 124 0 316 0c56 0 105-16 148-48 80-59 120-158 120-298-1-142-40-243-120-302-84-63-215-63-298 2C88-586 48-488 48-348zm424 2c0 138-34 234-156 234-107 0-159-78-156-234 3-143 36-238 156-238 121 0 156 95 156 238" id="aP"/><path d="M142-668c28-1 54 26 54 54v558c4 35-41 72-80 48-19-11-26-27-26-48v-504c-39 1-67 2-82-26-23-39 9-79 46-80" id="aQ"/><g id="b"><use transform="matrix(0.015111111111111108,0,0,0.015111111111111108,0,0)" xlink:href="#aP"/><use transform="matrix(0.015111111111111108,0,0,0.015111111111111108,9.489777777777777,0)" xlink:href="#aQ"/></g><path d="M35-314c7-101 62-164 168-164 45 0 84 14 116 42 103-96 282-19 282 122v258c3 35-41 70-80 46-17-11-26-26-26-46v-258c-8-40-18-58-62-58-85 0-62 94-62 169 0 35-39 66-80 46-66-32 29-215-88-215-43 0-62 29-62 58v258c6 34-41 70-80 46-17-11-26-26-26-46v-258" id="aR"/><g id="c"><use transform="matrix(0.015111111111111108,0,0,0.015111111111111108,0,0)" xlink:href="#aR"/><use transform="matrix(0.015111111111111108,0,0,0.015111111111111108,9.489777777777777,0)" xlink:href="#aL"/><use transform="matrix(0.015111111111111108,0,0,0.015111111111111108,16.77333333333333,0)" xlink:href="#aM"/><use transform="matrix(0.015111111111111108,0,0,0.015111111111111108,23.815111111111108,0)" xlink:href="#aN"/><use transform="matrix(0.015111111111111108,0,0,0.015111111111111108,29.04355555555555,0)" xlink:href="#aO"/></g><path d="M272-360c92 0 139-24 140-112 0-77-31-116-92-116H200c-17 1-36 2-40 16 5 38-46 75-84 50-18-12-28-27-28-50 0-78 69-128 152-128h120c124 0 207 97 204 228-3 145-96 226-252 224-97-2-118 33-112 132h308c37-4 72 44 48 84-11 19-27 28-48 28H102C73-3 48-25 48-60v-98c1-137 82-202 224-202" id="aS"/><g id="d"><use transform="matrix(0.015111111111111108,0,0,0.015111111111111108,0,0)" xlink:href="#aP"/><use transform="matrix(0.015111111111111108,0,0,0.015111111111111108,9.489777777777777,0)" xlink:href="#aS"/></g><path d="M220 0C135 1 40-52 40-128c0-37 46-76 86-50 18 10 27 25 28 46 36 27 106 20 164 20 61 0 90-46 90-112 0-84-28-54-140-62-46 7-67-71-34-98 8-11 19-16 34-16 113 0 140 11 140-68 0-70-26-113-92-114-58-1-128-10-162 16 4 36-43 75-84 50-20-12-30-29-30-50 0-78 90-130 180-130h98c122 1 206 100 202 228-1 54-11 92-40 122 32 29 38 65 40 122C523-101 438 2 316 0h-96" id="aT"/><g id="e"><use transform="matrix(0.015111111111111108,0,0,0.015111111111111108,0,0)" xlink:href="#aP"/><use transform="matrix(0.015111111111111108,0,0,0.015111111111111108,9.489777777777777,0)" xlink:href="#aT"/></g><path d="M470-644c4-51-65-75-98-36L84-342c-35 33-52 68-52 104 0 49 37 86 90 86h238c4 54-14 119 26 140 42 22 84-12 84-48v-92c42 0 73 5 90-26 24-42-10-84-48-84h-42v-382zM360-494v232H160" id="aU"/><g id="f"><use transform="matrix(0.015111111111111108,0,0,0.015111111111111108,0,0)" xlink:href="#aP"/><use transform="matrix(0.015111111111111108,0,0,0.015111111111111108,9.489777777777777,0)" xlink:href="#aU"/></g><path d="M108-340c-33 1-56-24-56-58v-242c-2-30 20-56 48-56h372c37-4 71 44 48 84-11 20-27 28-48 28H162v132h116c156-2 250 78 250 228C528-100 435 1 312 0H204C124 2 52-52 52-128c0-38 44-76 84-50 17 11 26 27 26 50 5 13 24 15 42 16h108c63 0 106-47 104-112-1-91-41-116-138-116H108" id="aV"/><g id="g"><use transform="matrix(0.015111111111111108,0,0,0.015111111111111108,0,0)" xlink:href="#aP"/><use transform="matrix(0.015111111111111108,0,0,0.015111111111111108,9.489777777777777,0)" xlink:href="#aV"/></g><path d="M504-202c7-113-90-202-212-202-40 0-83 8-130 24v-112c-1-62 54-90 116-90 61 0 117 31 114 90-2 36 45 73 84 48 18-11 28-27 28-48 4-111-101-202-226-202-121 0-226 74-226 182v288C51-83 142 13 300 0c127-11 197-79 204-202zm-204 90c-101 10-146-35-138-136 0-5 3-9 8-12 21-17 77-32 132-32 54 0 90 33 90 90 0 61-37 84-92 90" id="aW"/><g id="h"><use transform="matrix(0.015111111111111108,0,0,0.015111111111111108,0,0)" xlink:href="#aP"/><use transform="matrix(0.015111111111111108,0,0,0.015111111111111108,9.489777777777777,0)" xlink:href="#aW"/></g><path d="M90-572c-70 9-80-112-6-112h444c41-6 75 50 46 88L136-12C103 41 13-5 36-58c3-7 5-14 8-22l372-492H90" id="aX"/><g id="i"><use transform="matrix(0.015111111111111108,0,0,0.015111111111111108,0,0)" xlink:href="#aP"/><use transform="matrix(0.015111111111111108,0,0,0.015111111111111108,9.489777777777777,0)" xlink:href="#aX"/></g><path d="M548-494c0-124-105-210-248-206-141 4-243 68-248 206-2 60 21 110 66 150-47 28-70 82-70 144C48-59 153 0 300 0c142 0 252-62 252-200 0-65-23-119-70-146 44-41 66-91 66-148zm-384 2c0-79 67-96 136-96 74 0 138 22 138 94 0 83-72 97-156 94-69-3-118-19-118-92zm120 204c88 0 156 9 156 88 0 59-47 88-140 88-87 0-140-14-140-88 0-53 41-88 124-88" id="aY"/><g id="j"><use transform="matrix(0.015111111111111108,0,0,0.015111111111111108,0,0)" xlink:href="#aP"/><use transform="matrix(0.015111111111111108,0,0,0.015111111111111108,9.489777777777777,0)" xlink:href="#aY"/></g><path d="M256 0c117 0 224-77 224-184v-284c1-146-89-238-248-226-122 9-197 75-202 202-5 118 91 209 212 200 74-5 87-2 126-24v114c8 95-137 115-196 66-37-31-90-7-92 36-1 21 5 39 24 52 43 32 93 48 152 48zm112-444c-18 29-73 40-138 40-52 0-90-30-90-88 0-80 60-93 140-90 73 3 92 59 88 138" id="aZ"/><g id="k"><use transform="matrix(0.015111111111111108,0,0,0.015111111111111108,0,0)" xlink:href="#aP"/><use transform="matrix(0.015111111111111108,0,0,0.015111111111111108,9.489777777777777,0)" xlink:href="#aZ"/></g><g id="l"><use transform="matrix(0.015111111111111108,0,0,0.015111111111111108,0,0)" xlink:href="#aQ"/><use transform="matrix(0.015111111111111108,0,0,0.015111111111111108,3.656888888888888,0)" xlink:href="#aP"/></g><g id="m"><use transform="matrix(0.015111111111111108,0,0,0.015111111111111108,0,0)" xlink:href="#aQ"/><use transform="matrix(0.015111111111111108,0,0,0.015111111111111108,3.656888888888888,0)" xlink:href="#aQ"/></g><g id="n"><use transform="matrix(0.015111111111111108,0,0,0.015111111111111108,0,0)" xlink:href="#aQ"/><use transform="matrix(0.015111111111111108,0,0,0.015111111111111108,3.656888888888888,0)" xlink:href="#aS"/></g><path fill="#fcd116" d="M240-106c48-10 84-25 84-86v-230c-5-33 43-71 80-48 19 12 28 28 28 48v392c-3 145-47 207-190 214-62 3-117-5-168-34-34-19-34-75 2-92 18-9 35-11 52 2 22 17 149 28 178 4 12-11 18-39 18-84C166 43 48-69 48-238v-184c0-30 19-52 52-54 30-1 56 25 56 54 0 124-33 306 84 316" id="ba"/><path fill="#fcd116" d="M246-480C110-480 39-375 42-230 45-109 117-9 234-2c91 6 123-6 170-38 34-23 22-80-10-92-20-7-38-4-54 10-10 9-62 16-106 12s-71-33-80-78h218c37 1 53-28 52-72-4-121-55-220-178-220zm-92 186c7-44 38-80 90-78 48 3 67 29 74 78H154" id="bb"/><path fill="#fcd116" d="M406-264c-6-104-69-188-176-192C94-461 18-307 50-156 72-53 181 35 304-20c9 35 63 47 88 18 9-12 14-31 14-58v-204zm-180-84c70 10 81 51 74 154-4 58-22 89-84 84-68-5-76-111-60-182 7-33 32-53 70-56" id="bc"/><path fill="#fcd116" d="M48-284c8-117 73-192 192-192 73 0 129 33 166 98 39 68-65 118-94 48-13-31-33-37-72-38-62-1-88 32-88 84v230c5 35-42 70-78 46-17-11-26-26-26-46v-230" id="bd"/><g id="o"><use transform="matrix(0.015111111111111108,0,0,0.015111111111111108,0,0)" xlink:href="#ba"/><use transform="matrix(0.015111111111111108,0,0,0.015111111111111108,7.283555555555554,0)" xlink:href="#bb"/><use transform="matrix(0.015111111111111108,0,0,0.015111111111111108,14.385777777777776,0)" xlink:href="#bc"/><use transform="matrix(0.015111111111111108,0,0,0.015111111111111108,21.185777777777773,0)" xlink:href="#bd"/></g><path fill="#fcd116" d="M142-668c28-1 54 26 54 54v558c4 35-41 72-80 48-19-11-26-27-26-48v-504c-39 1-67 2-82-26-23-39 9-79 46-80" id="be"/><use transform="matrix(0.015111111111111108,0,0,0.015111111111111108,0,0)" xlink:href="#be" id="p"/><use transform="matrix(0.015111111111111108,0,0,0.015111111111111108,0,0)" xlink:href="#aU" id="q"/><path d="M100 0C72 2 48-20 48-52v-228c1-106 78-194 188-186 116 9 186 69 186 186v228c2 28-23 50-52 52s-50-21-50-52v-228c-3-49-31-79-84-82-51-3-84 28-84 82v228c1 27-23 49-52 52" id="bf"/><path d="M226 0c131 9 198-83 198-218v-386c0-31-24-56-54-56-81 1-43 133-52 208-29-13-58-20-86-20-129 0-188 103-190 236C40-110 110-8 226 0zm6-368c53 8 86 27 86 86v64c1 80-21 113-86 114-60-12-82-65-84-132-2-77 25-123 84-132" id="bg"/><path d="M246-480C110-480 39-375 42-230 45-109 117-9 234-2c91 6 123-6 170-38 34-23 22-80-10-92-20-7-38-4-54 10-10 9-62 16-106 12s-71-33-80-78h218c37 1 53-28 52-72-4-121-55-220-178-220zm-92 186c7-44 38-80 90-78 48 3 67 29 74 78H154" id="bh"/><g id="r"><use transform="matrix(0.015111111111111108,0,0,0.015111111111111108,0,0)" xlink:href="#bf"/><use transform="matrix(0.015111111111111108,0,0,0.015111111111111108,7.041777777777776,0)" xlink:href="#aL"/><use transform="matrix(0.015111111111111108,0,0,0.015111111111111108,14.32533333333333,0)" xlink:href="#bg"/><use transform="matrix(0.015111111111111108,0,0,0.015111111111111108,21.45777777777777,0)" xlink:href="#bh"/></g><path fill="#fcd116" d="M272-360c92 0 139-24 140-112 0-77-31-116-92-116H200c-17 1-36 2-40 16 5 38-46 75-84 50-18-12-28-27-28-50 0-78 69-128 152-128h120c124 0 207 97 204 228-3 145-96 226-252 224-97-2-118 33-112 132h308c37-4 72 44 48 84-11 19-27 28-48 28H102C73-3 48-25 48-60v-98c1-137 82-202 224-202" id="bi"/><use transform="matrix(0.015111111111111108,0,0,0.015111111111111108,0,0)" xlink:href="#bi" id="s"/><use transform="matrix(0.015111111111111108,0,0,0.015111111111111108,0,0)" xlink:href="#aT" id="t"/><path fill="#fcd116" d="M220 0C135 1 40-52 40-128c0-37 46-76 86-50 18 10 27 25 28 46 36 27 106 20 164 20 61 0 90-46 90-112 0-84-28-54-140-62-46 7-67-71-34-98 8-11 19-16 34-16 113 0 140 11 140-68 0-70-26-113-92-114-58-1-128-10-162 16 4 36-43 75-84 50-20-12-30-29-30-50 0-78 90-130 180-130h98c122 1 206 100 202 228-1 54-11 92-40 122 32 29 38 65 40 122C523-101 438 2 316 0h-96" id="bj"/><use transform="matrix(0.015111111111111108,0,0,0.015111111111111108,0,0)" xlink:href="#bj" id="u"/><path fill="#fff" d="M256 0c117 0 224-77 224-184v-284c1-146-89-238-248-226-122 9-197 75-202 202-5 118 91 209 212 200 74-5 87-2 126-24v114c8 95-137 115-196 66-37-31-90-7-92 36-1 21 5 39 24 52 43 32 93 48 152 48zm112-444c-18 29-73 40-138 40-52 0-90-30-90-88 0-80 60-93 140-90 73 3 92 59 88 138" id="bk"/><path fill="#fff" d="M548-494c0-124-105-210-248-206-141 4-243 68-248 206-2 60 21 110 66 150-47 28-70 82-70 144C48-59 153 0 300 0c142 0 252-62 252-200 0-65-23-119-70-146 44-41 66-91 66-148zm-384 2c0-79 67-96 136-96 74 0 138 22 138 94 0 83-72 97-156 94-69-3-118-19-118-92zm120 204c88 0 156 9 156 88 0 59-47 88-140 88-87 0-140-14-140-88 0-53 41-88 124-88" id="bl"/><g id="v"><use transform="matrix(0.015111111111111108,0,0,0.015111111111111108,0,0)" xlink:href="#bk"/><use transform="matrix(0.015111111111111108,0,0,0.015111111111111108,7.9786666666666655,0)" xlink:href="#bl"/></g><path fill="#fff" d="M504-202c7-113-90-202-212-202-40 0-83 8-130 24v-112c-1-62 54-90 116-90 61 0 117 31 114 90-2 36 45 73 84 48 18-11 28-27 28-48 4-111-101-202-226-202-121 0-226 74-226 182v288C51-83 142 13 300 0c127-11 197-79 204-202zm-204 90c-101 10-146-35-138-136 0-5 3-9 8-12 21-17 77-32 132-32 54 0 90 33 90 90 0 61-37 84-92 90" id="bm"/><g id="w"><use transform="matrix(0.015111111111111108,0,0,0.015111111111111108,0,0)" xlink:href="#bk"/><use transform="matrix(0.015111111111111108,0,0,0.015111111111111108,7.9786666666666655,0)" xlink:href="#bm"/></g><path fill="#fff" d="M272-360c92 0 139-24 140-112 0-77-31-116-92-116H200c-17 1-36 2-40 16 5 38-46 75-84 50-18-12-28-27-28-50 0-78 69-128 152-128h120c124 0 207 97 204 228-3 145-96 226-252 224-97-2-118 33-112 132h308c37-4 72 44 48 84-11 19-27 28-48 28H102C73-3 48-25 48-60v-98c1-137 82-202 224-202" id="bn"/><g id="x"><use transform="matrix(0.015111111111111108,0,0,0.015111111111111108,0,0)" xlink:href="#bk"/><use transform="matrix(0.015111111111111108,0,0,0.015111111111111108,7.9786666666666655,0)" xlink:href="#bn"/></g><g id="y"><use transform="matrix(0.015111111111111108,0,0,0.015111111111111108,0,0)" xlink:href="#bl"/><use transform="matrix(0.015111111111111108,0,0,0.015111111111111108,9.00622222222222,0)" xlink:href="#bn"/></g><g id="z"><use transform="matrix(0.015111111111111108,0,0,0.015111111111111108,0,0)" xlink:href="#bl"/><use transform="matrix(0.015111111111111108,0,0,0.015111111111111108,9.00622222222222,0)" xlink:href="#bl"/></g><path fill="#fff" d="M48-348C48-142 124 0 316 0c56 0 105-16 148-48 80-59 120-158 120-298-1-142-40-243-120-302-84-63-215-63-298 2C88-586 48-488 48-348zm424 2c0 138-34 234-156 234-107 0-159-78-156-234 3-143 36-238 156-238 121 0 156 95 156 238" id="bo"/><g id="A"><use transform="matrix(0.015111111111111108,0,0,0.015111111111111108,0,0)" xlink:href="#bl"/><use transform="matrix(0.015111111111111108,0,0,0.015111111111111108,9.00622222222222,0)" xlink:href="#bo"/></g><path fill="#fff" d="M470-644c4-51-65-75-98-36L84-342c-35 33-52 68-52 104 0 49 37 86 90 86h238c4 54-14 119 26 140 42 22 84-12 84-48v-92c42 0 73 5 90-26 24-42-10-84-48-84h-42v-382zM360-494v232H160" id="bp"/><g id="B"><use transform="matrix(0.015111111111111108,0,0,0.015111111111111108,0,0)" xlink:href="#bk"/><use transform="matrix(0.015111111111111108,0,0,0.015111111111111108,7.9786666666666655,0)" xlink:href="#bp"/></g><g id="C"><use transform="matrix(0.015111111111111108,0,0,0.015111111111111108,0,0)" xlink:href="#bl"/><use transform="matrix(0.015111111111111108,0,0,0.015111111111111108,9.00622222222222,0)" xlink:href="#bm"/></g><path fill="#fff" d="M90-572c-70 9-80-112-6-112h444c41-6 75 50 46 88L136-12C103 41 13-5 36-58c3-7 5-14 8-22l372-492H90" id="bq"/><g id="D"><use transform="matrix(0.015111111111111108,0,0,0.015111111111111108,0,0)" xlink:href="#bq"/><use transform="matrix(0.015111111111111108,0,0,0.015111111111111108,8.885333333333332,0)" xlink:href="#bm"/></g><g id="E"><use transform="matrix(0.015111111111111108,0,0,0.015111111111111108,0,0)" xlink:href="#bq"/><use transform="matrix(0.015111111111111108,0,0,0.015111111111111108,8.885333333333332,0)" xlink:href="#bl"/></g><g id="F"><use transform="matrix(0.015111111111111108,0,0,0.015111111111111108,0,0)" xlink:href="#bm"/><use transform="matrix(0.015111111111111108,0,0,0.015111111111111108,8.250666666666666,0)" xlink:href="#bn"/></g><g id="G"><use transform="matrix(0.015111111111111108,0,0,0.015111111111111108,0,0)" xlink:href="#bm"/><use transform="matrix(0.015111111111111108,0,0,0.015111111111111108,8.250666666666666,0)" xlink:href="#bl"/></g><path fill="#fff" d="M108-340c-33 1-56-24-56-58v-242c-2-30 20-56 48-56h372c37-4 71 44 48 84-11 20-27 28-48 28H162v132h116c156-2 250 78 250 228C528-100 435 1 312 0H204C124 2 52-52 52-128c0-38 44-76 84-50 17 11 26 27 26 50 5 13 24 15 42 16h108c63 0 106-47 104-112-1-91-41-116-138-116H108" id="br"/><g id="H"><use transform="matrix(0.015111111111111108,0,0,0.015111111111111108,0,0)" xlink:href="#br"/><use transform="matrix(0.015111111111111108,0,0,0.015111111111111108,8.58311111111111,0)" xlink:href="#bl"/></g><g id="I"><use transform="matrix(0.015111111111111108,0,0,0.015111111111111108,0,0)" xlink:href="#bq"/><use transform="matrix(0.015111111111111108,0,0,0.015111111111111108,8.885333333333332,0)" xlink:href="#bp"/></g><g id="J"><use transform="matrix(0.015111111111111108,0,0,0.015111111111111108,0,0)" xlink:href="#bm"/><use transform="matrix(0.015111111111111108,0,0,0.015111111111111108,8.250666666666666,0)" xlink:href="#bm"/></g><path d="M20-338c3-94 78-140 178-140 77 0 173 51 158 108 0 36-63 59-88 26-26-60-173-40-138 36 16 11 42 16 78 14 100-6 166 53 176 146C402 16 70 51 20-94c-14-41 56-88 90-48 24 28 62 37 120 30 30-4 58-21 46-56-12-13-33-20-64-20-118 0-195-49-192-150" id="bs"/><path d="M42-240c0-133 72-236 200-236 55 0 138 20 138 80 0 37-48 68-84 40-84-37-155 17-148 118 6 84 22 125 94 132 44 4 65-38 106-20 35 16 43 72 6 92-35 20-71 34-112 34C108 0 42-96 42-240" id="bt"/><path d="M406-264c-6-104-69-188-176-192C94-461 18-307 50-156 72-53 181 35 304-20c9 35 63 47 88 18 9-12 14-31 14-58v-204zm-180-84c70 10 81 51 74 154-4 58-22 89-84 84-68-5-76-111-60-182 7-33 32-53 70-56" id="bu"/><path d="M104-2c28 1 52-19 52-50v-548c0-30-19-53-52-54-27-1-53 19-52 54v548C51-25 72-2 104-2" id="bv"/><g id="K"><use transform="matrix(0.01577777777777778,0,0,0.01577777777777778,0,0)" xlink:href="#bs"/><use transform="matrix(0.01577777777777778,0,0,0.01577777777777778,6.532000000000001,0)" xlink:href="#bt"/><use transform="matrix(0.01577777777777778,0,0,0.01577777777777778,13.158666666666669,0)" xlink:href="#bu"/><use transform="matrix(0.01577777777777778,0,0,0.01577777777777778,20.25866666666667,0)" xlink:href="#bv"/><use transform="matrix(0.01577777777777778,0,0,0.01577777777777778,23.44577777777778,0)" xlink:href="#bh"/></g><path d="M226 0c131 9 198-83 198-218v-386c0-31-24-56-54-56-81 1-43 133-52 208-29-13-58-20-86-20-129 0-188 103-190 236C40-110 110-8 226 0zm6-368c53 8 86 27 86 86v64c1 80-21 113-86 114-60-12-82-65-84-132-2-77 25-123 84-132" id="bw"/><path d="M34-412c-8-31 18-62 52-62 26 0 51 19 52 48 2 90-5 183 2 270 3 40 25 54 80 50 50-3 41-90 44-146 2-32 55-54 84-28 36 21 10 108 30 150 8 17 31 25 72 24 24 0 42-23 42-54v-246c-20-75 106-96 106-22v236C606-77 535 3 430 2c-45 0-83-16-114-44-52 50-137 57-200 22-48-26-82-67-82-132v-260" id="bx"/><g id="L"><use transform="matrix(0.01577777777777778,0,0,0.01577777777777778,0,0)" xlink:href="#bw"/><use transform="matrix(0.01577777777777778,0,0,0.01577777777777778,7.447111111111112,0)" xlink:href="#aL"/><use transform="matrix(0.01577777777777778,0,0,0.01577777777777778,15.052000000000001,0)" xlink:href="#bx"/><use transform="matrix(0.01577777777777778,0,0,0.01577777777777778,24.928888888888892,0)" xlink:href="#aM"/></g><path d="M240-106c48-10 84-25 84-86v-230c-5-33 43-71 80-48 19 12 28 28 28 48v392c-3 145-47 207-190 214-62 3-117-5-168-34-34-19-34-75 2-92 18-9 35-11 52 2 22 17 149 28 178 4 12-11 18-39 18-84C166 43 48-69 48-238v-184c0-30 19-52 52-54 30-1 56 25 56 54 0 124-33 306 84 316" id="by"/><path d="M20-338c3-94 78-140 178-140 77 0 173 51 158 108 0 36-63 59-88 26-26-60-173-40-138 36 16 11 42 16 78 14 100-6 166 53 176 146C402 16 70 51 20-94c-14-41 56-88 90-48 24 28 62 37 120 30 30-4 58-21 46-56-12-13-33-20-64-20-118 0-195-49-192-150" id="bz"/><g id="M"><use transform="matrix(0.01577777777777778,0,0,0.01577777777777778,0,0)" xlink:href="#bs"/><use transform="matrix(0.01577777777777778,0,0,0.01577777777777778,6.532000000000001,0)" xlink:href="#by"/><use transform="matrix(0.01577777777777778,0,0,0.01577777777777778,13.852888888888891,0)" xlink:href="#bz"/><use transform="matrix(0.01577777777777778,0,0,0.01577777777777778,20.38488888888889,0)" xlink:href="#aN"/><use transform="matrix(0.01577777777777778,0,0,0.01577777777777778,25.844,0)" xlink:href="#bh"/><use transform="matrix(0.01577777777777778,0,0,0.01577777777777778,33.25955555555556,0)" xlink:href="#aR"/></g><g id="N"><use transform="matrix(0.01577777777777778,0,0,0.01577777777777778,0,0)" xlink:href="#aN"/><use transform="matrix(0.01577777777777778,0,0,0.01577777777777778,5.4591111111111115,0)" xlink:href="#aL"/></g><path d="M276-184H86c-39 4-74-43-50-84 11-19 29-28 50-28h190c37-4 72 44 48 84-11 19-27 28-48 28" id="bA"/><g id="O"><use transform="matrix(0.01577777777777778,0,0,0.01577777777777778,0,0)" xlink:href="#aT"/><use transform="matrix(0.01577777777777778,0,0,0.01577777777777778,8.867111111111113,0)" xlink:href="#bA"/><use transform="matrix(0.01577777777777778,0,0,0.01577777777777778,14.484000000000002,0)" xlink:href="#bf"/><use transform="matrix(0.01577777777777778,0,0,0.01577777777777778,21.836444444444446,0)" xlink:href="#aL"/><use transform="matrix(0.01577777777777778,0,0,0.01577777777777778,29.441333333333336,0)" xlink:href="#bg"/><use transform="matrix(0.01577777777777778,0,0,0.01577777777777778,36.888444444444445,0)" xlink:href="#bh"/><use transform="matrix(0.01577777777777778,0,0,0.01577777777777778,44.304,0)" xlink:href="#bz"/></g><path d="M406-264c-6-104-69-188-176-192C94-461 18-307 50-156 72-53 181 35 304-20c9 35 63 47 88 18 9-12 14-31 14-58v-204zm-180-84c70 10 81 51 74 154-4 58-22 89-84 84-68-5-76-111-60-182 7-33 32-53 70-56" id="bB"/><path d="M26-446c14-35 67-39 90-10l108 134 108-134c25-34 80-22 92 14 7 19 3 36-10 52L292-238 414-88c29 31 6 83-32 86-20 2-37-2-50-18L224-154 116-20C91 12 36 1 24-34c-7-20-3-38 10-54l122-150L34-390c-15-17-16-36-8-56" id="bC"/><g id="P"><use transform="matrix(0.01577777777777778,0,0,0.01577777777777778,0,0)" xlink:href="#aK"/><use transform="matrix(0.01577777777777778,0,0,0.01577777777777778,9.908444444444445,0)" xlink:href="#bB"/><use transform="matrix(0.01577777777777778,0,0,0.01577777777777778,17.008444444444446,0)" xlink:href="#bC"/></g><path d="M42-240c0-133 72-236 200-236 55 0 138 20 138 80 0 37-48 68-84 40-84-37-155 17-148 118 6 84 22 125 94 132 44 4 65-38 106-20 35 16 43 72 6 92-35 20-71 34-112 34C108 0 42-96 42-240" id="bD"/><path d="M428-238c2-132-67-230-190-236-127-7-190 87-190 218v388c-4 36 42 70 80 46 16-11 24-26 24-46V-20c29 13 58 20 86 20 128 0 188-97 190-238zM238-106c-61-12-84-26-86-86-4-101 6-206 108-172 43 14 62 61 62 126-1 75-23 124-84 132" id="bE"/><path d="M48-420c-1-32 21-54 52-56 29-2 56 25 56 56v228c2 55 29 86 84 86 58 0 84-34 84-86v-228c-5-35 43-71 80-48 18 11 28 27 28 48v228C421-78 360-5 240 0 133 5 48-83 48-192v-228" id="bF"/><g id="Q"><use transform="matrix(0.01577777777777778,0,0,0.01577777777777778,0,0)" xlink:href="#bD"/><use transform="matrix(0.01577777777777778,0,0,0.01577777777777778,6.626666666666667,0)" xlink:href="#bE"/><use transform="matrix(0.01577777777777778,0,0,0.01577777777777778,14.010666666666669,0)" xlink:href="#bF"/></g><path d="M48-284c8-117 73-192 192-192 73 0 129 33 166 98 39 68-65 118-94 48-13-31-33-37-72-38-62-1-88 32-88 84v230c5 35-42 70-78 46-17-11-26-26-26-46v-230" id="bG"/><g id="R"><use transform="matrix(0.01577777777777778,0,0,0.01577777777777778,0,0)" xlink:href="#bD"/><use transform="matrix(0.01577777777777778,0,0,0.01577777777777778,6.626666666666667,0)" xlink:href="#aO"/><use transform="matrix(0.01577777777777778,0,0,0.01577777777777778,14.168444444444447,0)" xlink:href="#bu"/><use transform="matrix(0.01577777777777778,0,0,0.01577777777777778,21.268444444444448,0)" xlink:href="#bG"/><use transform="matrix(0.01577777777777778,0,0,0.01577777777777778,28.36844444444445,0)" xlink:href="#aN"/></g><g id="S"><use transform="matrix(0.01577777777777778,0,0,0.01577777777777778,0,0)" xlink:href="#bD"/><use transform="matrix(0.01577777777777778,0,0,0.01577777777777778,6.626666666666667,0)" xlink:href="#aL"/><use transform="matrix(0.01577777777777778,0,0,0.01577777777777778,14.231555555555556,0)" xlink:href="#bz"/><use transform="matrix(0.01577777777777778,0,0,0.01577777777777778,20.763555555555556,0)" xlink:href="#aN"/></g><path d="M16-416c-15-58 84-101 104-40 46 142 58 242 100 318 3 4 5 2 8-6 29-63 61-157 94-284 1-53 69-78 102-34 10 13 15 25 12 40-25 111-86 317-142 386-24 29-55 43-94 32-36-10-71-55-94-110-31-75-57-177-90-302" id="bH"/><path d="M158-606c0-67-89-86-102-26-21 45 25 100 76 72 18-10 26-26 26-46zm0 184c0-28-23-54-54-54-30 0-52 24-52 54v368c-3 35 41 70 80 46 17-11 26-26 26-46v-368" id="bI"/><path d="M206 184c176 15 218-72 218-236v-204c1-123-58-220-178-220-135 0-201 97-204 238C39-108 112 0 234 0c31 0 59-9 84-20-12 90-3 98-100 98-22 0-39-9-54-18l2 6c-18-35-80-36-92 2-25 82 61 110 132 116zm-58-416c-1-82 25-136 96-138 77-2 76 88 76 178 0 62-38 79-86 86-56-8-85-50-86-126" id="bJ"/><g id="T"><use transform="matrix(0.01577777777777778,0,0,0.01577777777777778,0,0)" xlink:href="#bs"/><use transform="matrix(0.01577777777777778,0,0,0.01577777777777778,6.532000000000001,0)" xlink:href="#bu"/><use transform="matrix(0.01577777777777778,0,0,0.01577777777777778,13.632000000000001,0)" xlink:href="#bH"/><use transform="matrix(0.01577777777777778,0,0,0.01577777777777778,20.826666666666668,0)" xlink:href="#bI"/><use transform="matrix(0.01577777777777778,0,0,0.01577777777777778,24.045333333333335,0)" xlink:href="#aM"/><use transform="matrix(0.01577777777777778,0,0,0.01577777777777778,31.39777777777778,0)" xlink:href="#bJ"/></g><path d="M700-433c119 0 153 92 153 222C853-83 817 6 697 6 580 6 544-86 544-211c0-133 33-222 156-222zM258 0h-78l450-689h78zM36-475c-3-131 36-219 156-219 119 0 153 92 153 219 0 128-36 219-153 219-119 0-156-92-156-219zM697-47c78 0 83-81 83-164 0-86-3-167-81-167-81 0-86 81-86 167 0 81 6 164 83 164zM192-311c75 0 78-83 81-164 0-86-3-167-81-167-81 0-83 83-83 167 0 83 6 164 83 164" id="bK"/><g id="U"><use transform="matrix(0.01577777777777778,0,0,0.01577777777777778,0,0)" xlink:href="#aS"/><use transform="matrix(0.01577777777777778,0,0,0.01577777777777778,8.867111111111113,0)" xlink:href="#aV"/><use transform="matrix(0.01577777777777778,0,0,0.01577777777777778,17.82888888888889,0)" xlink:href="#bK"/></g><path d="M38-284c8-116 73-192 190-192 75 0 131 33 168 98 39 70-65 118-96 48-14-31-30-37-72-38-60-1-86 33-86 84v230c5 35-42 70-78 46-17-11-26-26-26-46v-230" id="bL"/><path d="M48-420c-1-32 21-54 52-56 29-2 56 25 56 56v228c2 55 29 86 84 86 58 0 84-34 84-86v-228c-5-35 43-71 80-48 18 11 28 27 28 48v228C421-78 360-5 240 0 133 5 48-83 48-192v-228" id="bM"/><g id="V"><use transform="matrix(0.01577777777777778,0,0,0.01577777777777778,0,0)" xlink:href="#bL"/><use transform="matrix(0.01577777777777778,0,0,0.01577777777777778,6.3742222222222225,0)" xlink:href="#bh"/><use transform="matrix(0.01577777777777778,0,0,0.01577777777777778,13.789777777777779,0)" xlink:href="#bg"/><use transform="matrix(0.01577777777777778,0,0,0.01577777777777778,21.236888888888892,0)" xlink:href="#bM"/><use transform="matrix(0.01577777777777778,0,0,0.01577777777777778,28.747111111111117,0)" xlink:href="#bt"/><use transform="matrix(0.01577777777777778,0,0,0.01577777777777778,35.37377777777778,0)" xlink:href="#bh"/></g><g id="W"><use transform="matrix(0.01577777777777778,0,0,0.01577777777777778,0,0)" xlink:href="#bz"/><use transform="matrix(0.01577777777777778,0,0,0.01577777777777778,6.532000000000001,0)" xlink:href="#by"/><use transform="matrix(0.01577777777777778,0,0,0.01577777777777778,13.852888888888891,0)" xlink:href="#bz"/><use transform="matrix(0.01577777777777778,0,0,0.01577777777777778,20.38488888888889,0)" xlink:href="#aN"/><use transform="matrix(0.01577777777777778,0,0,0.01577777777777778,25.844,0)" xlink:href="#bh"/><use transform="matrix(0.01577777777777778,0,0,0.01577777777777778,33.25955555555556,0)" xlink:href="#aR"/></g><path d="M50-218C48-89 119 9 248 0c120-9 178-103 184-238 7-158-126-282-276-216v-150c1-31-27-56-54-56-31-1-52 24-52 56v386zm190 114c-85 12-84-88-84-180 0-58 37-80 84-84 63 11 86 53 86 130 0 76-26 125-86 134" id="bN"/><g id="X"><use transform="matrix(0.01577777777777778,0,0,0.01577777777777778,0,0)" xlink:href="#bN"/><use transform="matrix(0.01577777777777778,0,0,0.01577777777777778,7.447111111111112,0)" xlink:href="#bM"/><use transform="matrix(0.01577777777777778,0,0,0.01577777777777778,14.957333333333334,0)" xlink:href="#bz"/><use transform="matrix(0.01577777777777778,0,0,0.01577777777777778,21.489333333333335,0)" xlink:href="#bI"/><use transform="matrix(0.01577777777777778,0,0,0.01577777777777778,24.708000000000002,0)" xlink:href="#aM"/><use transform="matrix(0.01577777777777778,0,0,0.01577777777777778,32.06044444444445,0)" xlink:href="#bh"/><use transform="matrix(0.01577777777777778,0,0,0.01577777777777778,39.476000000000006,0)" xlink:href="#bz"/><use transform="matrix(0.01577777777777778,0,0,0.01577777777777778,46.00800000000001,0)" xlink:href="#bz"/></g><path d="M242-372c-58-4-84 46-84 86v230c5 48-63 73-94 36-8-9-12-21-12-36v-552c0-27 18-55 52-54 86 1 44 128 54 206 134-67 276 36 276 170v230c8 36-41 70-78 48-19-11-28-27-28-48v-230c-10-62-27-82-86-86" id="bO"/><g id="Y"><use transform="matrix(0.01577777777777778,0,0,0.01577777777777778,0,0)" xlink:href="#bO"/><use transform="matrix(0.01577777777777778,0,0,0.01577777777777778,7.541777777777779,0)" xlink:href="#aL"/><use transform="matrix(0.01577777777777778,0,0,0.01577777777777778,15.146666666666668,0)" xlink:href="#bM"/><use transform="matrix(0.01577777777777778,0,0,0.01577777777777778,22.656888888888894,0)" xlink:href="#bG"/><use transform="matrix(0.01577777777777778,0,0,0.01577777777777778,29.756888888888895,0)" xlink:href="#bz"/></g><path d="M444-238c0-129-68-236-202-236-128 0-198 99-198 236C44-99 110 0 242 0c134 0 202-97 202-238zm-296 8c0-84 25-138 94-138 65 0 98 43 98 130 0 89-33 134-98 134-63 0-94-42-94-126" id="bP"/><path d="M284-552c-41-10-77-3-72 48v50c53 5 111-15 132 26s-13 80-46 80h-86v296c5 38-41 71-80 48-17-11-26-27-26-48v-296c-44 7-83-33-60-80 11-23 30-28 60-26-15-145 57-230 206-202 38 7 58 63 24 92-16 14-32 17-52 12" id="bQ"/><path d="M428-238c2-132-67-230-190-236-127-7-190 87-190 218v388c-4 36 42 70 80 46 16-11 24-26 24-46V-20c29 13 58 20 86 20 128 0 188-97 190-238zM238-106c-61-12-84-26-86-86-4-101 6-206 108-172 43 14 62 61 62 126-1 75-23 124-84 132" id="bR"/><path d="M38-616c-1-30 21-52 52-54 28-2 54 26 54 54v294l170-162c42-43 113 13 86 60-4 7-7 13-12 18L264-290 414-86c43 52-43 122-86 64L186-216l-42 40c-7 61 19 142-26 168-40 23-80-11-80-46v-562" id="bS"/><g id="Z"><use transform="matrix(0.01577777777777778,0,0,0.01577777777777778,0,0)" xlink:href="#bP"/><use transform="matrix(0.01577777777777778,0,0,0.01577777777777778,7.6048888888888895,0)" xlink:href="#bQ"/><use transform="matrix(0.01577777777777778,0,0,0.01577777777777778,13.758222222222223,0)" xlink:href="#bQ"/><use transform="matrix(0.01577777777777778,0,0,0.01577777777777778,18.049777777777777,0)" xlink:href="#bA"/><use transform="matrix(0.01577777777777778,0,0,0.01577777777777778,23.666666666666664,0)" xlink:href="#bR"/><use transform="matrix(0.01577777777777778,0,0,0.01577777777777778,31.050666666666665,0)" xlink:href="#bh"/><use transform="matrix(0.01577777777777778,0,0,0.01577777777777778,38.46622222222222,0)" xlink:href="#bu"/><use transform="matrix(0.01577777777777778,0,0,0.01577777777777778,45.56622222222222,0)" xlink:href="#bS"/></g><path d="M34-412c-8-31 18-62 52-62 26 0 51 19 52 48 2 90-5 183 2 270 3 40 25 54 80 50 50-3 41-90 44-146 2-32 55-54 84-28 36 21 10 108 30 150 8 17 31 25 72 24 24 0 42-23 42-54v-246c-20-75 106-96 106-22v236C606-77 535 3 430 2c-45 0-83-16-114-44-52 50-137 57-200 22-48-26-82-67-82-132v-260" id="bT"/><g id="aa"><use transform="matrix(0.01577777777777778,0,0,0.01577777777777778,0,0)" xlink:href="#bT"/><use transform="matrix(0.01577777777777778,0,0,0.01577777777777778,9.782222222222224,0)" xlink:href="#bh"/><use transform="matrix(0.01577777777777778,0,0,0.01577777777777778,17.19777777777778,0)" xlink:href="#bh"/><use transform="matrix(0.01577777777777778,0,0,0.01577777777777778,24.613333333333337,0)" xlink:href="#bS"/><use transform="matrix(0.01577777777777778,0,0,0.01577777777777778,31.49244444444445,0)" xlink:href="#bh"/><use transform="matrix(0.01577777777777778,0,0,0.01577777777777778,38.908,0)" xlink:href="#aM"/><use transform="matrix(0.01577777777777778,0,0,0.01577777777777778,46.260444444444445,0)" xlink:href="#bg"/><use transform="matrix(0.01577777777777778,0,0,0.01577777777777778,53.70755555555556,0)" xlink:href="#bz"/></g><path d="M284-552c-41-10-77-3-72 48v50c53 5 111-15 132 26s-13 80-46 80h-86v296c5 38-41 71-80 48-17-11-26-27-26-48v-296c-44 7-83-33-60-80 11-23 30-28 60-26-15-145 57-230 206-202 38 7 58 63 24 92-16 14-32 17-52 12" id="bU"/><g id="ab"><use transform="matrix(0.01577777777777778,0,0,0.01577777777777778,0,0)" xlink:href="#bU"/><use transform="matrix(0.01577777777777778,0,0,0.01577777777777778,6.153333333333334,0)" xlink:href="#bG"/><use transform="matrix(0.01577777777777778,0,0,0.01577777777777778,13.253333333333334,0)" xlink:href="#bI"/><use transform="matrix(0.01577777777777778,0,0,0.01577777777777778,16.472,0)" xlink:href="#bg"/><use transform="matrix(0.01577777777777778,0,0,0.01577777777777778,23.919111111111114,0)" xlink:href="#bu"/><use transform="matrix(0.01577777777777778,0,0,0.01577777777777778,31.019111111111116,0)" xlink:href="#by"/><use transform="matrix(0.01577777777777778,0,0,0.01577777777777778,38.34,0)" xlink:href="#bz"/></g><path d="M556-596c7-57-9-101-58-100-44 1-62 46-54 100-123-9-196 44-196 152 0 95 80 168 196 152v84c-63 7-150-20-176 28-22 42 11 84 50 84h126c-12 62 22 121 84 92 31-15 29-49 28-92 122 8 190-47 196-152 6-97-82-168-196-154v-82c63-6 137 18 164-28 25-42-16-84-50-84H556zM402-402c-1-1-43-12-38-18-7-13-5-54 8-56-15 8-12 6 8-4 16-8 42-3 64-4v82h-42zm154 110c42 0 87-2 84 44-2 20-2 33-20 32-14 13-40 7-64 8v-84" id="bV"/><path d="M140-60c0 66-88 81-104 24-14-49 29-99 78-72 18 10 26 27 26 48" id="bW"/><g id="ac"><use transform="matrix(0.01577777777777778,0,0,0.01577777777777778,0,0)" xlink:href="#bV"/><use transform="matrix(0.01577777777777778,0,0,0.01577777777777778,15.777777777777779,0)" xlink:href="#aP"/><use transform="matrix(0.01577777777777778,0,0,0.01577777777777778,25.686222222222224,0)" xlink:href="#bW"/><use transform="matrix(0.01577777777777778,0,0,0.01577777777777778,28.77866666666667,0)" xlink:href="#aP"/><use transform="matrix(0.01577777777777778,0,0,0.01577777777777778,38.687111111111115,0)" xlink:href="#aP"/></g><path d="M42-56c4-71-15-156 58-156 30 0 58 27 56 58-5 56 15 124-28 146-41 21-88-10-86-48" id="bX"/><g id="ad"><use transform="matrix(0.01577777777777778,0,0,0.01577777777777778,0,0)" xlink:href="#bV"/><use transform="matrix(0.01577777777777778,0,0,0.01577777777777778,15.777777777777779,0)" xlink:href="#aS"/><use transform="matrix(0.01577777777777778,0,0,0.01577777777777778,24.644888888888893,0)" xlink:href="#aW"/><use transform="matrix(0.01577777777777778,0,0,0.01577777777777778,33.259555555555565,0)" xlink:href="#bX"/><use transform="matrix(0.01577777777777778,0,0,0.01577777777777778,36.88844444444445,0)" xlink:href="#aY"/><use transform="matrix(0.01577777777777778,0,0,0.01577777777777778,46.29200000000001,0)" xlink:href="#aU"/><use transform="matrix(0.01577777777777778,0,0,0.01577777777777778,55.75866666666668,0)" xlink:href="#aP"/></g><g id="ae"><use transform="matrix(0.01577777777777778,0,0,0.01577777777777778,0,0)" xlink:href="#bV"/><use transform="matrix(0.01577777777777778,0,0,0.01577777777777778,15.777777777777779,0)" xlink:href="#aU"/><use transform="matrix(0.01577777777777778,0,0,0.01577777777777778,25.244444444444447,0)" xlink:href="#aY"/><use transform="matrix(0.01577777777777778,0,0,0.01577777777777778,34.648,0)" xlink:href="#bX"/><use transform="matrix(0.01577777777777778,0,0,0.01577777777777778,38.27688888888889,0)" xlink:href="#aY"/><use transform="matrix(0.01577777777777778,0,0,0.01577777777777778,47.68044444444445,0)" xlink:href="#aP"/><use transform="matrix(0.01577777777777778,0,0,0.01577777777777778,57.58888888888889,0)" xlink:href="#aP"/></g><g id="af"><use transform="matrix(0.01577777777777778,0,0,0.01577777777777778,0,0)" xlink:href="#bV"/><use transform="matrix(0.01577777777777778,0,0,0.01577777777777778,15.777777777777779,0)" xlink:href="#aS"/><use transform="matrix(0.01577777777777778,0,0,0.01577777777777778,24.644888888888893,0)" xlink:href="#aS"/><use transform="matrix(0.01577777777777778,0,0,0.01577777777777778,33.51200000000001,0)" xlink:href="#bX"/><use transform="matrix(0.01577777777777778,0,0,0.01577777777777778,37.140888888888895,0)" xlink:href="#aY"/><use transform="matrix(0.01577777777777778,0,0,0.01577777777777778,46.54444444444445,0)" xlink:href="#aP"/><use transform="matrix(0.01577777777777778,0,0,0.01577777777777778,56.45288888888889,0)" xlink:href="#aP"/></g><path d="M240-106c48-10 84-25 84-86v-230c-5-33 43-71 80-48 19 12 28 28 28 48v392c-3 145-47 207-190 214-62 3-117-5-168-34-34-19-34-75 2-92 18-9 35-11 52 2 22 17 149 28 178 4 12-11 18-39 18-84C166 43 48-69 48-238v-184c0-30 19-52 52-54 30-1 56 25 56 54 0 124-33 306 84 316" id="bY"/><path d="M36-252C28-80 147 32 328-6c40-8 95-30 92-82-2-40-54-63-86-34-10 10-62 16-106 12s-71-33-80-78h218c36 1 54-27 54-72 0-121-57-220-180-220-128 0-198 95-204 228zm112-42c8-45 37-81 92-78 46 3 65 30 72 78H148" id="bZ"/><g id="ag"><use transform="matrix(0.01577777777777778,0,0,0.01577777777777778,0,0)" xlink:href="#bY"/><use transform="matrix(0.01577777777777778,0,0,0.01577777777777778,7.6048888888888895,0)" xlink:href="#bZ"/><use transform="matrix(0.01577777777777778,0,0,0.01577777777777778,14.86266666666667,0)" xlink:href="#bB"/><use transform="matrix(0.01577777777777778,0,0,0.01577777777777778,21.96266666666667,0)" xlink:href="#bL"/></g><g id="ah"><use transform="matrix(0.01577777777777778,0,0,0.01577777777777778,0,0)" xlink:href="#aP"/><use transform="matrix(0.01577777777777778,0,0,0.01577777777777778,9.908444444444445,0)" xlink:href="#aQ"/></g><g id="ai"><use transform="matrix(0.01577777777777778,0,0,0.01577777777777778,0,0)" xlink:href="#bL"/><use transform="matrix(0.01577777777777778,0,0,0.01577777777777778,6.3742222222222225,0)" xlink:href="#bh"/><use transform="matrix(0.01577777777777778,0,0,0.01577777777777778,13.789777777777779,0)" xlink:href="#bt"/><use transform="matrix(0.01577777777777778,0,0,0.01577777777777778,20.416444444444444,0)" xlink:href="#aL"/><use transform="matrix(0.01577777777777778,0,0,0.01577777777777778,28.021333333333338,0)" xlink:href="#bH"/><use transform="matrix(0.01577777777777778,0,0,0.01577777777777778,35.216,0)" xlink:href="#bh"/><use transform="matrix(0.01577777777777778,0,0,0.01577777777777778,42.63155555555556,0)" xlink:href="#bG"/><use transform="matrix(0.01577777777777778,0,0,0.01577777777777778,49.73155555555556,0)" xlink:href="#by"/></g><g id="aj"><use transform="matrix(0.01577777777777778,0,0,0.01577777777777778,0,0)" xlink:href="#bQ"/><use transform="matrix(0.01577777777777778,0,0,0.01577777777777778,6.153333333333334,0)" xlink:href="#aL"/><use transform="matrix(0.01577777777777778,0,0,0.01577777777777778,13.758222222222223,0)" xlink:href="#bG"/></g><g id="ak"><use transform="matrix(0.01577777777777778,0,0,0.01577777777777778,0,0)" xlink:href="#aK"/><use transform="matrix(0.01577777777777778,0,0,0.01577777777777778,9.908444444444445,0)" xlink:href="#bu"/><use transform="matrix(0.01577777777777778,0,0,0.01577777777777778,17.008444444444446,0)" xlink:href="#aM"/><use transform="matrix(0.01577777777777778,0,0,0.01577777777777778,24.36088888888889,0)" xlink:href="#bu"/><use transform="matrix(0.01577777777777778,0,0,0.01577777777777778,31.460888888888892,0)" xlink:href="#bJ"/><use transform="matrix(0.01577777777777778,0,0,0.01577777777777778,38.908,0)" xlink:href="#bh"/><use transform="matrix(0.01577777777777778,0,0,0.01577777777777778,46.32355555555556,0)" xlink:href="#bg"/></g><g id="al"><use transform="matrix(0.01577777777777778,0,0,0.01577777777777778,0,0)" xlink:href="#bs"/><use transform="matrix(0.01577777777777778,0,0,0.01577777777777778,6.532000000000001,0)" xlink:href="#bh"/><use transform="matrix(0.01577777777777778,0,0,0.01577777777777778,13.947555555555557,0)" xlink:href="#bG"/><use transform="matrix(0.01577777777777778,0,0,0.01577777777777778,21.047555555555558,0)" xlink:href="#bH"/><use transform="matrix(0.01577777777777778,0,0,0.01577777777777778,28.242222222222225,0)" xlink:href="#bI"/><use transform="matrix(0.01577777777777778,0,0,0.01577777777777778,31.460888888888892,0)" xlink:href="#bt"/><use transform="matrix(0.01577777777777778,0,0,0.01577777777777778,38.08755555555556,0)" xlink:href="#bh"/><use transform="matrix(0.01577777777777778,0,0,0.01577777777777778,45.50311111111112,0)" xlink:href="#bz"/></g><g id="am"><use transform="matrix(0.01577777777777778,0,0,0.01577777777777778,0,0)" xlink:href="#aP"/><use transform="matrix(0.01577777777777778,0,0,0.01577777777777778,9.908444444444445,0)" xlink:href="#aT"/></g><path d="M96-472c9-75-31-188 52-192 30-1 54 24 54 54v138c49 2 94-8 114 28 20 38-13 86-48 78h-66v208c-3 48 28 61 70 48 39-12 80 23 68 66-9 33-40 40-76 44C160 9 96-57 96-158v-208c-38 1-63 2-78-26-21-40 11-83 46-80h32" id="ca"/><path d="M104-2c28 1 52-19 52-50v-548c0-30-19-53-52-54-27-1-53 19-52 54v548C51-25 72-2 104-2" id="cb"/><g id="an"><use transform="matrix(0.018,0,0,0.018,0,0)" xlink:href="#ca"/><use transform="matrix(0.018,0,0,0.018,6.228,0)" xlink:href="#bP"/><use transform="matrix(0.018,0,0,0.018,14.904000000000002,0)" xlink:href="#ca"/><use transform="matrix(0.018,0,0,0.018,21.131999999999998,0)" xlink:href="#bB"/><use transform="matrix(0.018,0,0,0.018,29.232,0)" xlink:href="#cb"/></g><g id="ao"><use transform="matrix(0.018,0,0,0.018,0,0)" xlink:href="#bL"/><use transform="matrix(0.018,0,0,0.018,7.271999999999999,0)" xlink:href="#bh"/><use transform="matrix(0.018,0,0,0.018,15.732,0)" xlink:href="#bt"/><use transform="matrix(0.018,0,0,0.018,23.291999999999998,0)" xlink:href="#aL"/><use transform="matrix(0.018,0,0,0.018,31.967999999999996,0)" xlink:href="#bH"/><use transform="matrix(0.018,0,0,0.018,40.175999999999995,0)" xlink:href="#bh"/><use transform="matrix(0.018,0,0,0.018,48.635999999999996,0)" xlink:href="#bG"/><use transform="matrix(0.018,0,0,0.018,56.736,0)" xlink:href="#by"/></g><path d="M262-446c6-78-25-192 56-196 30-1 58 26 58 58v138c66 8 156-20 186 26 26 41-13 86-48 86H376c-8 67 21 159-28 188-41 24-86-13-86-50v-138c-66-8-158 21-186-28-22-40 9-84 48-84h138" id="cc"/><use transform="matrix(0.018,0,0,0.018,0,0)" xlink:href="#cc" id="ap"/><g id="aq"><use transform="matrix(0.018,0,0,0.018,0,0)" xlink:href="#bD"/><use transform="matrix(0.018,0,0,0.018,7.56,0)" xlink:href="#aL"/><use transform="matrix(0.018,0,0,0.018,16.236,0)" xlink:href="#aM"/><use transform="matrix(0.018,0,0,0.018,24.624000000000002,0)" xlink:href="#bz"/><use transform="matrix(0.018,0,0,0.018,32.076,0)" xlink:href="#bM"/><use transform="matrix(0.018,0,0,0.018,40.644,0)" xlink:href="#bv"/><use transform="matrix(0.018,0,0,0.018,44.28000000000001,0)" xlink:href="#aN"/><use transform="matrix(0.018,0,0,0.018,50.508,0)" xlink:href="#bI"/><use transform="matrix(0.018,0,0,0.018,54.17999999999999,0)" xlink:href="#aM"/><use transform="matrix(0.018,0,0,0.018,62.568,0)" xlink:href="#bJ"/></g><g id="ar"><use transform="matrix(0.018,0,0,0.018,0,0)" xlink:href="#bL"/><use transform="matrix(0.018,0,0,0.018,7.271999999999999,0)" xlink:href="#bh"/><use transform="matrix(0.018,0,0,0.018,15.732,0)" xlink:href="#bH"/><use transform="matrix(0.018,0,0,0.018,23.939999999999998,0)" xlink:href="#bh"/><use transform="matrix(0.018,0,0,0.018,32.4,0)" xlink:href="#aM"/><use transform="matrix(0.018,0,0,0.018,40.788,0)" xlink:href="#bM"/><use transform="matrix(0.018,0,0,0.018,49.355999999999995,0)" xlink:href="#bh"/></g><path d="M160-680c21-35 79-22 92 12 21 55-32 82-52 124-63 131-45 362 40 444 32 32 17 89-24 98-46 10-64-30-84-54C5-210 25-560 160-680" id="cd"/><path d="M150-20C125 8 77 5 60-28c-31-59 36-82 50-130 73-128 46-361-38-444-31-30-19-88 24-98 40-9 65 29 82 52 100 132 117 380 30 540-20 37-39 66-58 88" id="ce"/><g id="as"><use transform="matrix(0.018,0,0,0.018,0,0)" xlink:href="#cd"/><use transform="matrix(0.018,0,0,0.018,6.84,0)" xlink:href="#aT"/><use transform="matrix(0.018,0,0,0.018,16.956,0)" xlink:href="#bA"/><use transform="matrix(0.018,0,0,0.018,23.363999999999997,0)" xlink:href="#bY"/><use transform="matrix(0.018,0,0,0.018,32.04,0)" xlink:href="#bZ"/><use transform="matrix(0.018,0,0,0.018,40.32,0)" xlink:href="#bB"/><use transform="matrix(0.018,0,0,0.018,48.42,0)" xlink:href="#bL"/><use transform="matrix(0.018,0,0,0.018,55.69200000000001,0)" xlink:href="#bs"/><use transform="matrix(0.018,0,0,0.018,63.144,0)" xlink:href="#ce"/></g><g id="at"><use transform="matrix(0.015111111111111108,0,0,0.015111111111111108,0,0)" xlink:href="#ca"/><use transform="matrix(0.015111111111111108,0,0,0.015111111111111108,5.228444444444444,0)" xlink:href="#bP"/><use transform="matrix(0.015111111111111108,0,0,0.015111111111111108,12.511999999999997,0)" xlink:href="#ca"/><use transform="matrix(0.015111111111111108,0,0,0.015111111111111108,17.740444444444442,0)" xlink:href="#bB"/><use transform="matrix(0.015111111111111108,0,0,0.015111111111111108,24.54044444444444,0)" xlink:href="#cb"/></g><g id="au"><use transform="matrix(0.015111111111111108,0,0,0.015111111111111108,0,0)" xlink:href="#bY"/><use transform="matrix(0.015111111111111108,0,0,0.015111111111111108,7.283555555555554,0)" xlink:href="#bh"/><use transform="matrix(0.015111111111111108,0,0,0.015111111111111108,14.385777777777776,0)" xlink:href="#bu"/><use transform="matrix(0.015111111111111108,0,0,0.015111111111111108,21.185777777777773,0)" xlink:href="#bG"/></g><use transform="matrix(0.015111111111111108,0,0,0.015111111111111108,0,0)" xlink:href="#aQ" id="av"/><g id="aw"><use transform="matrix(0.015111111111111108,0,0,0.015111111111111108,0,0)" xlink:href="#bV"/><use transform="matrix(0.015111111111111108,0,0,0.015111111111111108,15.111111111111109,0)" xlink:href="#aZ"/><use transform="matrix(0.015111111111111108,0,0,0.015111111111111108,23.089777777777776,0)" xlink:href="#aY"/><use transform="matrix(0.015111111111111108,0,0,0.015111111111111108,32.096,0)" xlink:href="#bX"/><use transform="matrix(0.015111111111111108,0,0,0.015111111111111108,35.57155555555555,0)" xlink:href="#aU"/><use transform="matrix(0.015111111111111108,0,0,0.015111111111111108,44.63822222222221,0)" xlink:href="#aU"/><use transform="matrix(0.015111111111111108,0,0,0.015111111111111108,53.704888888888874,0)" xlink:href="#aP"/></g><use transform="matrix(0.015111111111111108,0,0,0.015111111111111108,0,0)" xlink:href="#aS" id="ax"/><use transform="matrix(0.015111111111111108,0,0,0.015111111111111108,0,0)" xlink:href="#aT" id="ay"/><g id="az"><use transform="matrix(0.015111111111111108,0,0,0.015111111111111108,0,0)" xlink:href="#bV"/><use transform="matrix(0.015111111111111108,0,0,0.015111111111111108,15.111111111111109,0)" xlink:href="#aQ"/><use transform="matrix(0.015111111111111108,0,0,0.015111111111111108,18.767999999999997,0)" xlink:href="#aS"/><use transform="matrix(0.015111111111111108,0,0,0.015111111111111108,27.26044444444444,0)" xlink:href="#aV"/><use transform="matrix(0.015111111111111108,0,0,0.015111111111111108,35.84355555555555,0)" xlink:href="#bX"/><use transform="matrix(0.015111111111111108,0,0,0.015111111111111108,39.3191111111111,0)" xlink:href="#aP"/><use transform="matrix(0.015111111111111108,0,0,0.015111111111111108,48.80888888888887,0)" xlink:href="#aP"/><use transform="matrix(0.015111111111111108,0,0,0.015111111111111108,58.29866666666665,0)" xlink:href="#aP"/></g><path d="M50-218C48-89 119 9 248 0c120-9 178-103 184-238 7-158-126-282-276-216v-150c1-31-27-56-54-56-31-1-52 24-52 56v386zm190 114c-85 12-84-88-84-180 0-58 37-80 84-84 63 11 86 53 86 130 0 76-26 125-86 134" id="cf"/><g id="aA"><use transform="matrix(0.015111111111111108,0,0,0.015111111111111108,0,0)" xlink:href="#bs"/><use transform="matrix(0.015111111111111108,0,0,0.015111111111111108,6.2559999999999985,0)" xlink:href="#bM"/><use transform="matrix(0.015111111111111108,0,0,0.015111111111111108,13.448888888888886,0)" xlink:href="#cf"/></g><g id="aB"><use transform="matrix(0.015111111111111108,0,0,0.015111111111111108,0,0)" xlink:href="#ca"/><use transform="matrix(0.015111111111111108,0,0,0.015111111111111108,5.228444444444444,0)" xlink:href="#aL"/><use transform="matrix(0.015111111111111108,0,0,0.015111111111111108,12.511999999999997,0)" xlink:href="#aN"/><use transform="matrix(0.015111111111111108,0,0,0.015111111111111108,17.740444444444442,0)" xlink:href="#bu"/><use transform="matrix(0.015111111111111108,0,0,0.015111111111111108,24.54044444444444,0)" xlink:href="#bv"/></g><g id="aC"><use transform="matrix(0.015111111111111108,0,0,0.015111111111111108,0,0)" xlink:href="#bV"/><use transform="matrix(0.015111111111111108,0,0,0.015111111111111108,15.111111111111109,0)" xlink:href="#aS"/><use transform="matrix(0.015111111111111108,0,0,0.015111111111111108,23.603555555555552,0)" xlink:href="#aS"/><use transform="matrix(0.015111111111111108,0,0,0.015111111111111108,32.096,0)" xlink:href="#aQ"/><use transform="matrix(0.015111111111111108,0,0,0.015111111111111108,35.75288888888888,0)" xlink:href="#bX"/><use transform="matrix(0.015111111111111108,0,0,0.015111111111111108,39.228444444444435,0)" xlink:href="#aY"/><use transform="matrix(0.015111111111111108,0,0,0.015111111111111108,48.234666666666655,0)" xlink:href="#aY"/><use transform="matrix(0.015111111111111108,0,0,0.015111111111111108,57.240888888888875,0)" xlink:href="#aP"/></g><g id="aD"><use transform="matrix(0.015111111111111108,0,0,0.015111111111111108,0,0)" xlink:href="#bD"/><use transform="matrix(0.015111111111111108,0,0,0.015111111111111108,6.346666666666666,0)" xlink:href="#aL"/><use transform="matrix(0.015111111111111108,0,0,0.015111111111111108,13.63022222222222,0)" xlink:href="#aM"/><use transform="matrix(0.015111111111111108,0,0,0.015111111111111108,20.671999999999997,0)" xlink:href="#bz"/><use transform="matrix(0.015111111111111108,0,0,0.015111111111111108,26.927999999999997,0)" xlink:href="#bM"/><use transform="matrix(0.015111111111111108,0,0,0.015111111111111108,34.120888888888885,0)" xlink:href="#bv"/><use transform="matrix(0.015111111111111108,0,0,0.015111111111111108,37.17333333333333,0)" xlink:href="#aN"/><use transform="matrix(0.015111111111111108,0,0,0.015111111111111108,42.401777777777774,0)" xlink:href="#bI"/><use transform="matrix(0.015111111111111108,0,0,0.015111111111111108,45.48444444444444,0)" xlink:href="#aM"/><use transform="matrix(0.015111111111111108,0,0,0.015111111111111108,52.526222222222216,0)" xlink:href="#bJ"/></g><use transform="matrix(0.015111111111111108,0,0,0.015111111111111108,0,0)" xlink:href="#bV" id="aE"/><g id="aF"><use transform="matrix(0.015111111111111108,0,0,0.015111111111111108,0,0)" xlink:href="#bV"/><use transform="matrix(0.015111111111111108,0,0,0.015111111111111108,15.111111111111109,0)" xlink:href="#aW"/><use transform="matrix(0.015111111111111108,0,0,0.015111111111111108,23.361777777777775,0)" xlink:href="#aP"/><use transform="matrix(0.015111111111111108,0,0,0.015111111111111108,32.85155555555555,0)" xlink:href="#bX"/><use transform="matrix(0.015111111111111108,0,0,0.015111111111111108,36.3271111111111,0)" xlink:href="#aP"/><use transform="matrix(0.015111111111111108,0,0,0.015111111111111108,45.816888888888876,0)" xlink:href="#aP"/><use transform="matrix(0.015111111111111108,0,0,0.015111111111111108,55.30666666666665,0)" xlink:href="#aP"/></g><g id="aG"><use transform="matrix(0.015111111111111108,0,0,0.015111111111111108,0,0)" xlink:href="#bV"/><use transform="matrix(0.015111111111111108,0,0,0.015111111111111108,15.111111111111109,0)" xlink:href="#aS"/><use transform="matrix(0.015111111111111108,0,0,0.015111111111111108,23.603555555555552,0)" xlink:href="#aY"/><use transform="matrix(0.015111111111111108,0,0,0.015111111111111108,32.60977777777777,0)" xlink:href="#aQ"/><use transform="matrix(0.015111111111111108,0,0,0.015111111111111108,36.26666666666666,0)" xlink:href="#bX"/><use transform="matrix(0.015111111111111108,0,0,0.015111111111111108,39.74222222222221,0)" xlink:href="#aY"/><use transform="matrix(0.015111111111111108,0,0,0.015111111111111108,48.74844444444443,0)" xlink:href="#aY"/><use transform="matrix(0.015111111111111108,0,0,0.015111111111111108,57.75466666666665,0)" xlink:href="#aP"/></g><g id="aH"><use transform="matrix(0.02244444444444444,0,0,0.02244444444444444,0,0)" xlink:href="#aK"/><use transform="matrix(0.02244444444444444,0,0,0.02244444444444444,14.095111111111109,0)" xlink:href="#bu"/><use transform="matrix(0.02244444444444444,0,0,0.02244444444444444,24.195111111111107,0)" xlink:href="#aM"/><use transform="matrix(0.02244444444444444,0,0,0.02244444444444444,34.65422222222222,0)" xlink:href="#bu"/><use transform="matrix(0.02244444444444444,0,0,0.02244444444444444,44.75422222222221,0)" xlink:href="#bJ"/><use transform="matrix(0.02244444444444444,0,0,0.02244444444444444,55.34799999999998,0)" xlink:href="#bh"/><use transform="matrix(0.02244444444444444,0,0,0.02244444444444444,65.89688888888887,0)" xlink:href="#bg"/></g><g id="aI"><use transform="matrix(0.02244444444444444,0,0,0.02244444444444444,0,0)" xlink:href="#bs"/><use transform="matrix(0.02244444444444444,0,0,0.02244444444444444,9.291999999999998,0)" xlink:href="#bh"/><use transform="matrix(0.02244444444444444,0,0,0.02244444444444444,19.840888888888884,0)" xlink:href="#bG"/><use transform="matrix(0.02244444444444444,0,0,0.02244444444444444,29.940888888888885,0)" xlink:href="#bH"/><use transform="matrix(0.02244444444444444,0,0,0.02244444444444444,40.17555555555555,0)" xlink:href="#bI"/><use transform="matrix(0.02244444444444444,0,0,0.02244444444444444,44.75422222222221,0)" xlink:href="#bt"/><use transform="matrix(0.02244444444444444,0,0,0.02244444444444444,54.180888888888866,0)" xlink:href="#bh"/><use transform="matrix(0.02244444444444444,0,0,0.02244444444444444,64.72977777777776,0)" xlink:href="#bz"/></g><g id="aJ"><use transform="matrix(0.02244444444444444,0,0,0.02244444444444444,0,0)" xlink:href="#bL"/><use transform="matrix(0.02244444444444444,0,0,0.02244444444444444,9.067555555555554,0)" xlink:href="#bh"/><use transform="matrix(0.02244444444444444,0,0,0.02244444444444444,19.61644444444444,0)" xlink:href="#bH"/><use transform="matrix(0.02244444444444444,0,0,0.02244444444444444,29.851111111111106,0)" xlink:href="#bh"/><use transform="matrix(0.02244444444444444,0,0,0.02244444444444444,40.39999999999999,0)" xlink:href="#aM"/><use transform="matrix(0.02244444444444444,0,0,0.02244444444444444,50.859111111111105,0)" xlink:href="#bM"/><use transform="matrix(0.02244444444444444,0,0,0.02244444444444444,61.54266666666667,0)" xlink:href="#bh"/></g></defs></g></svg>