<svg xmlns="http://www.w3.org/2000/svg" xmlns:xlink="http://www.w3.org/1999/xlink" xmlns:lucid="lucid" width="600" height="380"><g transform="translate(-60 -180)" lucid:page-tab-id="CFRzE~qEaxOQ"><path d="M460 420h120v40H460z" fill="none"/><use xlink:href="#a" transform="matrix(1,0,0,1,460,420) translate(19.875 23.6)"/><use xlink:href="#b" transform="matrix(1,0,0,1,460,420) translate(65.175 23.6)"/><path d="M544.48 370.8H536v-3.4h8.48c8.16 0 12.08-3.6 12.08-11.03 0-6.35-3.68-10.36-11.04-11.83-.8-.15-1.28-.82-1.36-1.58-.4-6.14-3.92-8.38-6.8-8.38-2.08.05-3.84.97-5.12 2.64-.56.7-1.6.87-2.4.3-.24-.2-.4-.45-.56-.76-1.12-3.15-2.64-5.58-5.04-7.87-5.36-5.45-13.04-6.92-20-3.87-6.32 2.9-10.16 8.74-10.48 15.75 0 .7.08 1.37.16 2.08.16.86-.4 1.68-1.28 1.88-3.36.86-9.2 3.4-9.2 11.48v.92c.32 5.94 5.36 10.2 12 10.2H504v3.4h-8.56c-8.48 0-14.96-5.68-15.44-13.5v-1.07c-.24-6.7 4-12.55 10.4-14.38v-1.07c.24-11.7 9.92-20.98 21.6-20.73 5.76.15 10.64 2.24 14.64 6.4 2.08 2.03 3.6 4.12 4.8 6.8 1.76-1.3 3.68-1.97 5.84-1.97 4.56 0 9.28 3.2 10.24 10.2 8 2.1 12.48 7.37 12.48 14.94 0 9.3-5.52 14.43-15.52 14.43zm-18.08 0h-12.8v-3.4h12.8zM531.17 398c-.47 0-.86-.16-1.18-.5l-9.6-9.6 2.4-2.4 8.37 8.37 8.38-8.38 2.4 2.4-9.57 9.6c-.33.34-.74.5-1.2.5z" stroke="#fff" stroke-opacity="0" fill="#232f3e"/><path d="M529.47 367.5h3.4v27.2h-3.4v-27.2zM517.22 352.72l-8.38-8.4-8.38 8.4-2.4-2.43 9.58-9.6c.66-.66 1.72-.66 2.4 0l9.57 9.6z" stroke="#fff" stroke-opacity="0" fill="#232f3e"/><path d="M507.14 341.9h3.4v28.8h-3.4v-28.8z" stroke="#fff" stroke-opacity="0" fill="#232f3e"/><path d="M544.4 370.74h-48.93c-8.48 0-14.96-5.7-15.44-13.5v-1.06c-.24-6.75 3.92-12.54 10.4-14.4v-1.08-.8c.56-8.13 5.2-14.72 12.55-18.07 8.24-3.56 17.28-1.83 23.6 4.56 2.15 2.07 3.6 4.15 4.8 6.8 1.75-1.33 3.67-2 5.9-2 4.5 0 9.2 3.2 10.17 10.26 8.15 2.03 12.55 7.3 12.55 14.87-.08 9.28-5.6 14.4-15.6 14.4zm-32.94-47.24c-2.64 0-4.88.46-7.28 1.47-6.3 2.94-10.15 8.78-10.4 15.73 0 .76 0 1.42.17 2.13.08.86-.48 1.68-1.28 1.88-3.44.87-9.28 3.4-9.28 11.48v.9c.3 5.94 5.43 10.2 12.07 10.2h48.94c8.16 0 12.08-3.6 12.08-11 0-6.35-3.68-10.35-11.03-11.82-.8-.16-1.28-.82-1.36-1.58-.33-6.2-3.93-8.37-6.8-8.37-2.1.06-3.85.97-5.13 2.65-.56.7-1.6.86-2.4.3-.24-.2-.4-.45-.56-.76-1.03-3.1-2.55-5.54-4.94-7.87-3.52-3.55-7.76-5.33-12.8-5.33z" stroke="#fff" stroke-opacity="0" fill="#fff" fill-opacity="0"/><use xlink:href="#c" transform="matrix(1,0,0,1,450,407) translate(39.599999999999994 14.4)"/><path d="M218.32 336.06h-76.64c-.88 0-1.68-.76-1.68-1.7V321.7c0-.95.8-1.7 1.68-1.7h76.64c.88 0 1.68.75 1.68 1.7v12.72c0 .92-.8 1.64-1.68 1.64zm-74.88-3.4h73.12v-9.27h-73.12zM218.32 356.73h-76.64c-.88 0-1.68-.77-1.68-1.7v-12.86c0-.92.8-1.7 1.68-1.7h76.64c.88 0 1.68.78 1.68 1.7v12.87c0 .92-.8 1.7-1.68 1.7zm-74.88-3.4h73.12v-9.45h-73.12zM218.32 377.52h-76.64c-.88 0-1.68-.77-1.68-1.7v-12.86c0-.92.8-1.7 1.68-1.7h76.64c.88 0 1.68.78 1.68 1.7v12.87c0 .92-.8 1.7-1.68 1.7zm-74.88-3.4h73.12v-9.45h-73.12zM218.32 398h-76.64c-.88 0-1.68-.76-1.68-1.7V383.6c0-.93.8-1.7 1.68-1.7h76.64c.88 0 1.68.77 1.68 1.7v12.73c0 .94-.8 1.7-1.68 1.7zm-74.88-3.4h73.12v-9.3h-73.12z" stroke="#fff" stroke-opacity="0" fill="#232f3e"/><path d="M176.82 326.3h36.7v3.4h-36.7v-3.4zM146.5 346.98h43.07v3.4H146.5v-3.4zM176.82 367.63h36.7v3.4h-36.7v-3.4zM146.5 388.3h43.07v3.4H146.5v-3.4z" stroke="#fff" stroke-opacity="0" fill="#232f3e"/><path d="M141.24 321.85h77.58v74.38h-77.58v-74.38z" stroke="#fff" stroke-opacity="0" fill="#fff" fill-opacity="0"/><use xlink:href="#d" transform="matrix(1,0,0,1,110,407) translate(21.6 14.4)"/><path d="M350 398l-34.65-20v-40L350 318l34.65 20v40zm-31.05-22.08L350 393.84l31.05-17.92v-35.84L350 322.16l-31.05 17.92z" stroke="#fff" stroke-opacity="0" fill="#232f3e"/><path d="M365.54 382.13l-22.67-22.68 7.68-7.68 22.67 22.68zm-17.57-22.68l17.57 17.58 2.52-2.58-17.54-17.58z" stroke="#fff" stroke-opacity="0" fill="#232f3e"/><path d="M335.5 347.04l2.57-2.56 10.96 10.97-2.55 2.55-10.97-10.96z" stroke="#fff" stroke-opacity="0" stroke-width=".71" fill="#232f3e"/><path d="M335.16 348.23h-.2c-1.2-.04-2.23-.54-3-1.47l-5.3-6.26 4.84-4.82 6.26 5.3c1.7 1.5 1.9 4.1.4 5.8-.8.92-1.84 1.4-3.05 1.4zm-3.6-7.52l3.1 3.74c.1.1.24.18.4.18.12 0 .25-.04.35-.14.12-.1.17-.24.17-.38 0-.16-.06-.3-.17-.4l-3.64-3.1zM336.43 382.16c-1.42 0-2.64-.26-3.92-.87l-2.36-1.13 4.52-4.5-.87-.88-4.52 4.5-.95-2.3c-2.2-4.45-.35-9.87 4.12-12.07 2-.98 4-1.2 6.17-.67l2.35-2.47 2.57 2.56-4.08 4.05-1.1-.4c-2.05-.8-4.26-.34-5.82 1.23-.93.93-1.43 2-1.57 3.32l2.86-2.87 5.98 5.98-2.85 2.88c1.32-.15 2.4-.66 3.3-1.57 1.58-1.57 2.05-3.77 1.25-5.83l-.4-1.1 4.36-4.36 2.55 2.55-2.75 2.77c.72 3.18-.16 6.2-2.47 8.5-1.75 1.77-3.88 2.64-6.35 2.66zM359.32 356.92l-2.54-2.52 4.05-4.02 1.08.42c2.07.82 4.27.35 5.82-1.24.94-.9 1.45-2 1.57-3.3l-2.86 2.86-5.97-5.97 2.85-2.87c-1.3.14-2.36.65-3.3 1.57-1.57 1.56-2.04 3.75-1.25 5.82l.43 1.1-4.16 4.17-2.57-2.56 2.6-2.58c-1.2-4.86 1.77-9.73 6.62-10.9 2.13-.54 4.1-.34 6.1.64l2.27 1.1-4.5 4.5.87.86 4.53-4.5 1.02 2.24c2.13 4.5.2 9.9-4.3 12.03-1.95.93-3.9 1.12-6 .63z" stroke="#fff" stroke-opacity="0" fill="#232f3e"/><use xlink:href="#e" transform="matrix(1,0,0,1,285.35,407) translate(28.599999999999994 14.4)"/><path d="M219.32 359h79.65" stroke="#666" fill="none"/><path d="M219.33 359.5h-.5v-1h.5z" fill="#666"/><path d="M313.73 359l-14.26 4.64v-9.28z" stroke="#666" fill="#666"/><path d="M385.15 358h78.6" stroke="#666" fill="none"/><path d="M385.16 358.5h-.5v-1h.5z" fill="#666"/><path d="M478.5 358l-14.26 4.64v-9.28z" stroke="#666" fill="#666"/><path d="M275 420h150v40H275z" fill="none"/><use xlink:href="#f" transform="matrix(1,0,0,1,275,420) translate(7.074999999999989 23.6)"/><use xlink:href="#g" transform="matrix(1,0,0,1,275,420) translate(38.07499999999999 23.6)"/><use xlink:href="#h" transform="matrix(1,0,0,1,275,420) translate(55.07499999999999 23.6)"/><path d="M105 420h150v40H105z" fill="none"/><use xlink:href="#i" transform="matrix(1,0,0,1,105,420) translate(26.574999999999996 23.6)"/><use xlink:href="#j" transform="matrix(1,0,0,1,105,420) translate(69.525 23.6)"/><path d="M80 200h560v340H80z" fill="#5a6c86" fill-opacity=".13"/><g><use xlink:href="#k" transform="matrix(1,0,0,1,80,220) translate(232.05 14.4)"/><use xlink:href="#l" transform="matrix(1,0,0,1,80,220) translate(270 14.4)"/><use xlink:href="#m" transform="matrix(1,0,0,1,80,220) translate(317.95000000000005 14.4)"/></g><defs><path d="M205 0l-28-72H64L36 0H1l101-248h38L239 0h-34zm-38-99l-47-123c-12 45-31 82-46 123h93" id="n"/><path d="M266 0h-40l-56-210L115 0H75L2-248h35L96-30l15-64 43-154h32l59 218 59-218h35" id="o"/><path d="M185-189c-5-48-123-54-124 2 14 75 158 14 163 119 3 78-121 87-175 55-17-10-28-26-33-46l33-7c5 56 141 63 141-1 0-78-155-14-162-118-5-82 145-84 179-34 5 7 8 16 11 25" id="p"/><g id="a"><use transform="matrix(0.05,0,0,0.05,0,0)" xlink:href="#n"/><use transform="matrix(0.05,0,0,0.05,11.35,0)" xlink:href="#o"/><use transform="matrix(0.05,0,0,0.05,28.299999999999997,0)" xlink:href="#p"/></g><path d="M30 0v-248h187v28H63v79h144v27H63v87h162V0H30" id="q"/><path d="M212-179c-10-28-35-45-73-45-59 0-87 40-87 99 0 60 29 101 89 101 43 0 62-24 78-52l27 14C228-24 195 4 139 4 59 4 22-46 18-125c-6-104 99-153 187-111 19 9 31 26 39 46" id="r"/><path d="M101-251c82-7 93 87 43 132L82-64C71-53 59-42 53-27h129V0H18c2-99 128-94 128-182 0-28-16-43-45-43s-46 15-49 41l-32-3c6-41 34-60 81-64" id="s"/><g id="b"><use transform="matrix(0.05,0,0,0.05,0,0)" xlink:href="#q"/><use transform="matrix(0.05,0,0,0.05,12,0)" xlink:href="#r"/><use transform="matrix(0.05,0,0,0.05,24.950000000000003,0)" xlink:href="#s"/></g><path d="M240-174c0 40-23 61-54 70L253 0h-59l-57-94H76V0H24v-248c93 4 217-23 216 74zM76-134c48-2 112 12 112-38 0-48-66-32-112-35v73" id="t"/><path d="M185-48c-13 30-37 53-82 52C43 2 14-33 14-96s30-98 90-98c62 0 83 45 84 108H66c0 31 8 55 39 56 18 0 30-7 34-22zm-45-69c5-46-57-63-70-21-2 6-4 13-4 21h74" id="u"/><path d="M114-157C55-157 80-60 75 0H25v-261h50l-1 109c12-26 28-41 61-42 86-1 58 113 63 194h-50c-7-57 23-157-34-157" id="v"/><path d="M110-194c64 0 96 36 96 99 0 64-35 99-97 99-61 0-95-36-95-99 0-62 34-99 96-99zm-1 164c35 0 45-28 45-65 0-40-10-65-43-65-34 0-45 26-45 65 0 36 10 65 43 65" id="w"/><path d="M137-138c1-29-70-34-71-4 15 46 118 7 119 86 1 83-164 76-172 9l43-7c4 19 20 25 44 25 33 8 57-30 24-41C81-84 22-81 20-136c-2-80 154-74 161-7" id="x"/><path d="M115-3C79 11 28 4 28-45v-112H4v-33h27l15-45h31v45h36v33H77v99c-1 23 16 31 38 25v30" id="y"/><g id="c"><use transform="matrix(0.05,0,0,0.05,0,0)" xlink:href="#t"/><use transform="matrix(0.05,0,0,0.05,12.950000000000001,0)" xlink:href="#u"/><use transform="matrix(0.05,0,0,0.05,22.950000000000003,0)" xlink:href="#v"/><use transform="matrix(0.05,0,0,0.05,33.900000000000006,0)" xlink:href="#w"/><use transform="matrix(0.05,0,0,0.05,44.85000000000001,0)" xlink:href="#x"/><use transform="matrix(0.05,0,0,0.05,54.85,0)" xlink:href="#y"/></g><path d="M24 0v-248h52V0H24" id="z"/><path d="M135-194c87-1 58 113 63 194h-50c-7-57 23-157-34-157-59 0-34 97-39 157H25l-1-190h47c2 12-1 28 3 38 12-26 28-41 61-42" id="A"/><path d="M121-226c-27-7-43 5-38 36h38v33H83V0H34v-157H6v-33h28c-9-59 32-81 87-68v32" id="B"/><path d="M135-150c-39-12-60 13-60 57V0H25l-1-190h47c2 13-1 29 3 40 6-28 27-53 61-41v41" id="C"/><path d="M220-157c-53 9-28 100-34 157h-49v-107c1-27-5-49-29-50C55-147 81-57 75 0H25l-1-190h47c2 12-1 28 3 38 10-53 101-56 108 0 13-22 24-43 59-42 82 1 51 116 57 194h-49v-107c-1-25-5-48-29-50" id="D"/><path d="M133-34C117-15 103 5 69 4 32 3 11-16 11-54c-1-60 55-63 116-61 1-26-3-47-28-47-18 1-26 9-28 27l-52-2c7-38 36-58 82-57s74 22 75 68l1 82c-1 14 12 18 25 15v27c-30 8-71 5-69-32zm-48 3c29 0 43-24 42-57-32 0-66-3-65 30 0 17 8 27 23 27" id="E"/><path d="M25-224v-37h50v37H25zM25 0v-190h50V0H25" id="F"/><path d="M190-63c-7 42-38 67-86 67-59 0-84-38-90-98-12-110 154-137 174-36l-49 2c-2-19-15-32-35-32-30 0-35 28-38 64-6 74 65 87 74 30" id="G"/><g id="d"><use transform="matrix(0.05,0,0,0.05,0,0)" xlink:href="#z"/><use transform="matrix(0.05,0,0,0.05,5,0)" xlink:href="#A"/><use transform="matrix(0.05,0,0,0.05,15.950000000000001,0)" xlink:href="#B"/><use transform="matrix(0.05,0,0,0.05,21.900000000000002,0)" xlink:href="#w"/><use transform="matrix(0.05,0,0,0.05,32.85,0)" xlink:href="#C"/><use transform="matrix(0.05,0,0,0.05,39.85,0)" xlink:href="#D"/><use transform="matrix(0.05,0,0,0.05,55.85,0)" xlink:href="#E"/><use transform="matrix(0.05,0,0,0.05,65.85,0)" xlink:href="#y"/><use transform="matrix(0.05,0,0,0.05,71.8,0)" xlink:href="#F"/><use transform="matrix(0.05,0,0,0.05,76.8,0)" xlink:href="#G"/><use transform="matrix(0.05,0,0,0.05,86.8,0)" xlink:href="#E"/></g><path d="M238-95c0 69-44 99-111 99C63 4 22-25 22-93v-155h51v151c-1 38 19 59 55 60 90 1 49-130 58-211h52v153" id="H"/><path d="M135-194c53 0 70 44 70 98 0 56-19 98-73 100-31 1-45-17-59-34 3 33 2 69 2 105H25l-1-265h48c2 10 0 23 3 31 11-24 29-35 60-35zM114-30c33 0 39-31 40-66 0-38-9-64-40-64-56 0-55 130 0 130" id="I"/><path d="M195-6C206 82 75 100 31 46c-4-6-6-13-8-21l49-6c3 16 16 24 34 25 40 0 42-37 40-79-11 22-30 35-61 35-53 0-70-43-70-97 0-56 18-96 73-97 30 0 46 14 59 34l2-30h47zm-90-29c32 0 41-27 41-63 0-35-9-62-40-62-32 0-39 29-40 63 0 36 9 62 39 62" id="J"/><path d="M88-194c31-1 46 15 58 34l-1-101h50l1 261h-48c-2-10 0-23-3-31C134-8 116 4 84 4 32 4 16-41 15-95c0-56 19-97 73-99zm17 164c33 0 40-30 41-66 1-37-9-64-41-64s-38 30-39 65c0 43 13 65 39 65" id="K"/><g id="e"><use transform="matrix(0.05,0,0,0.05,0,0)" xlink:href="#H"/><use transform="matrix(0.05,0,0,0.05,12.950000000000001,0)" xlink:href="#I"/><use transform="matrix(0.05,0,0,0.05,23.900000000000002,0)" xlink:href="#J"/><use transform="matrix(0.05,0,0,0.05,34.85,0)" xlink:href="#C"/><use transform="matrix(0.05,0,0,0.05,41.85,0)" xlink:href="#E"/><use transform="matrix(0.05,0,0,0.05,51.85,0)" xlink:href="#K"/><use transform="matrix(0.05,0,0,0.05,62.800000000000004,0)" xlink:href="#u"/></g><path d="M140-251c81 0 123 46 123 126C263-46 219 4 140 4 59 4 17-45 17-125s42-126 123-126zm0 227c63 0 89-41 89-101s-29-99-89-99c-61 0-89 39-89 99S79-25 140-24" id="L"/><g id="f"><use transform="matrix(0.05,0,0,0.05,0,0)" xlink:href="#L"/><use transform="matrix(0.05,0,0,0.05,14,0)" xlink:href="#p"/></g><path d="M234-2c-28 10-62 0-77-18C117 19 8 12 13-65c3-43 29-61 60-76-25-40-17-114 47-108 35 3 59 15 59 50 0 44-40 53-71 69 14 26 32 50 51 72 14-21 24-43 30-72l26 8c-9 33-21 57-38 82 13 13 33 22 57 15v23zM97-151c25-10 52-18 56-48-1-18-13-29-33-29-42 0-39 50-23 77zM42-66c-3 51 71 58 98 28-20-24-41-51-56-80-23 10-40 24-42 52" id="M"/><use transform="matrix(0.05,0,0,0.05,0,0)" xlink:href="#M" id="g"/><path d="M115-194c55 1 70 41 70 98S169 2 115 4C84 4 66-9 55-30l1 105H24l-1-265h31l2 30c10-21 28-34 59-34zm-8 174c40 0 45-34 45-75s-6-73-45-74c-42 0-51 32-51 76 0 43 10 73 51 73" id="N"/><path d="M24 0v-261h32V0H24" id="O"/><path d="M24-231v-30h32v30H24zM24 0v-190h32V0H24" id="P"/><path d="M96-169c-40 0-48 33-48 73s9 75 48 75c24 0 41-14 43-38l32 2c-6 37-31 61-74 61-59 0-76-41-82-99-10-93 101-131 147-64 4 7 5 14 7 22l-32 3c-4-21-16-35-41-35" id="Q"/><path d="M141-36C126-15 110 5 73 4 37 3 15-17 15-53c-1-64 63-63 125-63 3-35-9-54-41-54-24 1-41 7-42 31l-33-3c5-37 33-52 76-52 45 0 72 20 72 64v82c-1 20 7 32 28 27v20c-31 9-61-2-59-35zM48-53c0 20 12 33 32 33 41-3 63-29 60-74-43 2-92-5-92 41" id="R"/><path d="M59-47c-2 24 18 29 38 22v24C64 9 27 4 27-40v-127H5v-23h24l9-43h21v43h35v23H59v120" id="S"/><path d="M100-194c62-1 85 37 85 99 1 63-27 99-86 99S16-35 15-95c0-66 28-99 85-99zM99-20c44 1 53-31 53-75 0-43-8-75-51-75s-53 32-53 75 10 74 51 75" id="T"/><path d="M117-194c89-4 53 116 60 194h-32v-121c0-31-8-49-39-48C34-167 62-67 57 0H25l-1-190h30c1 10-1 24 2 32 11-22 29-35 61-36" id="U"/><g id="h"><use transform="matrix(0.05,0,0,0.05,0,0)" xlink:href="#n"/><use transform="matrix(0.05,0,0,0.05,12,0)" xlink:href="#N"/><use transform="matrix(0.05,0,0,0.05,22,0)" xlink:href="#N"/><use transform="matrix(0.05,0,0,0.05,32,0)" xlink:href="#O"/><use transform="matrix(0.05,0,0,0.05,35.95,0)" xlink:href="#P"/><use transform="matrix(0.05,0,0,0.05,39.900000000000006,0)" xlink:href="#Q"/><use transform="matrix(0.05,0,0,0.05,48.900000000000006,0)" xlink:href="#R"/><use transform="matrix(0.05,0,0,0.05,58.900000000000006,0)" xlink:href="#S"/><use transform="matrix(0.05,0,0,0.05,63.900000000000006,0)" xlink:href="#P"/><use transform="matrix(0.05,0,0,0.05,67.85000000000001,0)" xlink:href="#T"/><use transform="matrix(0.05,0,0,0.05,77.85000000000001,0)" xlink:href="#U"/></g><path d="M30-248c118-7 216 8 213 122C240-48 200 0 122 0H30v-248zM63-27c89 8 146-16 146-99s-60-101-146-95v194" id="V"/><g id="i"><use transform="matrix(0.05,0,0,0.05,0,0)" xlink:href="#V"/><use transform="matrix(0.05,0,0,0.05,12.950000000000001,0)" xlink:href="#R"/><use transform="matrix(0.05,0,0,0.05,22.950000000000003,0)" xlink:href="#S"/><use transform="matrix(0.05,0,0,0.05,27.950000000000003,0)" xlink:href="#R"/></g><path d="M100-194c63 0 86 42 84 106H49c0 40 14 67 53 68 26 1 43-12 49-29l28 8c-11 28-37 45-77 45C44 4 14-33 15-96c1-61 26-98 85-98zm52 81c6-60-76-77-97-28-3 7-6 17-6 28h103" id="W"/><path d="M114-163C36-179 61-72 57 0H25l-1-190h30c1 12-1 29 2 39 6-27 23-49 58-41v29" id="X"/><g id="j"><use transform="matrix(0.05,0,0,0.05,0,0)" xlink:href="#r"/><use transform="matrix(0.05,0,0,0.05,12.950000000000001,0)" xlink:href="#W"/><use transform="matrix(0.05,0,0,0.05,22.950000000000003,0)" xlink:href="#U"/><use transform="matrix(0.05,0,0,0.05,32.95,0)" xlink:href="#S"/><use transform="matrix(0.05,0,0,0.05,37.95,0)" xlink:href="#W"/><use transform="matrix(0.05,0,0,0.05,47.95,0)" xlink:href="#X"/></g><g id="k"><use transform="matrix(0.05,0,0,0.05,0,0)" xlink:href="#H"/><use transform="matrix(0.05,0,0,0.05,12.950000000000001,0)" xlink:href="#x"/><use transform="matrix(0.05,0,0,0.05,22.950000000000003,0)" xlink:href="#u"/></g><path d="M67-125c0 53 21 87 73 88 37 1 54-22 65-47l45 17C233-25 199 4 140 4 58 4 20-42 15-125 8-235 124-281 211-232c18 10 29 29 36 50l-46 12c-8-25-30-41-62-41-52 0-71 34-72 86" id="Y"/><g id="l"><use transform="matrix(0.05,0,0,0.05,0,0)" xlink:href="#Y"/><use transform="matrix(0.05,0,0,0.05,12.950000000000001,0)" xlink:href="#E"/><use transform="matrix(0.05,0,0,0.05,22.950000000000003,0)" xlink:href="#x"/><use transform="matrix(0.05,0,0,0.05,32.95,0)" xlink:href="#u"/></g><path d="M182-182c0 78-84 86-111 141h115V0H12c-6-101 99-100 120-180 1-22-12-31-33-32-23 0-32 14-35 34l-49-3c5-45 32-70 84-70 51 0 83 22 83 69" id="Z"/><use transform="matrix(0.05,0,0,0.05,0,0)" xlink:href="#Z" id="m"/></defs></g></svg>