<svg xmlns="http://www.w3.org/2000/svg" xmlns:xlink="http://www.w3.org/1999/xlink" xmlns:lucid="lucid" width="600" height="380"><g transform="translate(-60 -180)" lucid:page-tab-id="CFRzE~qEaxOQ"><path d="M210.85 359h77.94" stroke="#666" fill="none"/><path d="M210.86 359.5h-.5v-1h.5z" fill="#666"/><path d="M303.56 359l-14.27 4.64v-9.28z" stroke="#666" fill="#666"/><path d="M385.67 359h88.23" stroke="#666" fill="none"/><path d="M385.7 359.5h-.52v-1h.5z" fill="#666"/><path d="M488.67 359l-14.27 4.64v-9.28z" stroke="#666" fill="#666"/><path d="M105 420h150v40H105z" fill="none"/><use xlink:href="#a" transform="matrix(1,0,0,1,105,420) translate(26.574999999999996 23.6)"/><use xlink:href="#b" transform="matrix(1,0,0,1,105,420) translate(69.525 23.6)"/><path d="M80 200h560v340H80z" fill="#5a6c86" fill-opacity=".13"/><use xlink:href="#c" transform="matrix(1,0,0,1,80,220) translate(232.05 14.4)"/><use xlink:href="#d" transform="matrix(1,0,0,1,80,220) translate(270 14.4)"/><use xlink:href="#e" transform="matrix(1,0,0,1,80,220) translate(317.95000000000005 14.4)"/><path d="M180 399c-14.75 0-30.35-4.08-30.35-11.6v-56.8c0-7.52 15.6-11.6 30.35-11.6 14.7 0 30.35 4.08 30.35 11.6v56.8c0 7.52-15.66 11.6-30.35 11.6zm0-76.56c-16.7 0-26.95 4.72-26.95 8.16v56.8c0 3.36 10.2 8.16 26.95 8.16s26.95-4.72 26.95-8.16v-56.8c0-3.44-10.26-8.16-26.95-8.16z" stroke="#fff" stroke-opacity="0" fill="#232f3e"/><path d="M180 340.53c-14.75 0-30.35-4.07-30.35-11.62h3.4c0 3.4 10.2 8.23 26.95 8.23s26.95-4.78 26.95-8.22h3.4c0 7.56-15.66 11.63-30.35 11.63z" stroke="#fff" stroke-opacity="0" fill="#232f3e"/><use xlink:href="#f" transform="matrix(1,0,0,1,119.64999999999998,408) translate(13 14.4)"/><use xlink:href="#g" transform="matrix(1,0,0,1,119.64999999999998,408) translate(74 14.4)"/><path d="M385.17 399h-80v-80h80zm-76.56-3.44h73.13v-73.12H308.6z" stroke="#fff" stroke-opacity="0" fill="#232f3e"/><path d="M330.35 353.37c0 .7.06 1.27.24 1.94.23.58.4 1.06.7 1.57.13.16.13.3.2.5-.07.28-.2.5-.5.65l-1.3.9c-.2.12-.37.18-.6.2-.25-.02-.5-.12-.67-.3-.3-.33-.54-.64-.72-1.03-.23-.36-.47-.8-.7-1.26-1.63 2-3.8 3.03-6.37 3-1.68.1-3.18-.42-4.38-1.57-1.14-1.16-1.68-2.58-1.62-4.2-.06-1.78.6-3.3 1.98-4.46 1.57-1.24 3.3-1.8 5.35-1.7.78.03 1.5.07 2.28.17.84.13 1.74.3 2.52.5v-1.6c.12-1.3-.24-2.42-1.02-3.42-1.08-.8-2.22-1.15-3.54-1-.85 0-1.57.07-2.35.28-.84.2-1.56.4-2.34.74-.3.12-.47.2-.77.28h-.36c-.3 0-.42-.24-.42-.7v-1.06c-.06-.3 0-.52.12-.77.18-.2.36-.35.6-.47.96-.43 1.74-.74 2.76-.98 1.2-.3 2.22-.4 3.42-.4 2.1-.22 4.02.34 5.7 1.7 1.32 1.5 1.92 3.3 1.8 5.34zm-8.82 3.3c.78 0 1.5-.13 2.22-.4.84-.28 1.5-.7 2.1-1.4.36-.4.6-.83.72-1.36.18-.65.24-1.22.18-1.9v-.9c-.66-.18-1.26-.28-1.98-.37-.72-.08-1.32-.12-2.04-.14-1.2-.1-2.28.2-3.24.9-.8.63-1.15 1.5-1.1 2.5-.05.87.2 1.65.8 2.3.65.58 1.43.82 2.33.76zm17.45 2.33c-.3.02-.54-.04-.84-.2-.24-.25-.36-.52-.42-.85l-5.1-16.83c-.12-.3-.18-.54-.24-.84 0-.27.18-.5.42-.54H335.08c.3-.02.6.04.84.2.24.27.36.54.48.9l3.66 14.35 3.42-14.4c.06-.34.18-.6.42-.87.3-.17.54-.23.84-.2h1.74c.3-.03.6.03.9.2.18.26.36.53.36.88l3.42 14.57 3.78-14.56c.06-.34.24-.6.48-.87.24-.17.54-.23.84-.2h1.98c.3-.03.54.16.54.42v.49l-.12.52-5.34 16.8c-.06.36-.18.63-.42.87-.3.17-.6.23-.9.17h-1.74c-.3.04-.6-.04-.84-.23-.24-.24-.36-.53-.42-.88l-3.42-14.02-3.42 14c-.06.36-.18.65-.42.9-.24.18-.54.26-.84.22zm27.95.57c-1.2 0-2.22-.1-3.42-.4-.9-.17-1.67-.44-2.5-.85-.25-.14-.5-.33-.67-.6-.06-.22-.12-.4-.12-.63V356c0-.46.2-.7.5-.7h.4l.55.24c.84.34 1.56.57 2.4.75.9.18 1.68.24 2.58.24 1.2.08 2.16-.14 3.18-.7.8-.43 1.2-1.12 1.2-1.94 0-.6-.17-1.1-.6-1.52-.65-.57-1.3-.92-2.15-1.15l-3.18-1c-1.38-.4-2.46-1.08-3.42-2.2-.72-.93-1.14-1.96-1.14-3.17-.05-.88.13-1.63.55-2.4.42-.7.9-1.22 1.56-1.7.73-.55 1.45-.9 2.3-1.14.95-.27 1.8-.37 2.75-.37.48 0 .96.02 1.44.08.47 0 .95.17 1.43.27.42.1.78.18 1.26.33.3.1.53.22.9.4.23.13.4.3.65.52.12.22.18.45.18.72v1.02c0 .46-.18.7-.48.7-.36-.05-.6-.14-.9-.28-1.38-.6-2.64-.86-4.14-.84-1.07-.06-1.97.14-2.93.6-.06.08-.18.14-.24.22-.9.86-.96 2.27-.12 3.2.73.6 1.5.96 2.4 1.2l3.07 1c1.44.34 2.52 1 3.42 2.1.7.9 1 1.88 1 3.03 0 .92-.1 1.7-.47 2.52-.48.8-.96 1.4-1.74 1.92-.73.6-1.5.97-2.4 1.2-1.03.32-2 .44-3.07.44zM371.04 370.18c-7.15 5.3-17.53 8.1-26.47 8.1-12.47.06-23.08-4-32.32-12.34-.72-.6 0-1.42.7-.97 10.33 5.9 20.46 8.6 32.33 8.6 8.95-.06 16.52-1.62 24.7-5.1 1.24-.47 2.25.85 1.06 1.7z" stroke="#fff" stroke-opacity="0" fill="#232f3e"/><path d="M374.1 366.78c-.9-1.17-6.05-.54-8.36-.28-.7.1-.8-.52-.17-.97 4.1-2.87 10.8-2.04 11.6-1.08.78.95-.22 7.7-4.07 10.93-.57.5-1.14.23-.88-.44.8-2.16 2.72-7 1.9-8.16z" stroke="#fff" stroke-opacity="0" fill="#232f3e"/><use xlink:href="#h" transform="matrix(1,0,0,1,275.17499999999995,408) translate(6.674999999999997 14.4)"/><use xlink:href="#i" transform="matrix(1,0,0,1,275.17499999999995,408) translate(52.574999999999996 14.4)"/><path d="M455 420h150v40H455z" fill="none"/><use xlink:href="#j" transform="matrix(1,0,0,1,455,420) translate(29.574999999999996 23.6)"/><use xlink:href="#k" transform="matrix(1,0,0,1,455,420) translate(87.475 23.6)"/><path d="M554.48 370.8H546v-3.4h8.48c8.16 0 12.08-3.6 12.08-11.03 0-6.35-3.68-10.36-11.04-11.83-.8-.15-1.28-.82-1.36-1.58-.4-6.14-3.92-8.38-6.8-8.38-2.08.05-3.84.97-5.12 2.64-.56.7-1.6.87-2.4.3-.24-.2-.4-.45-.56-.76-1.12-3.15-2.64-5.58-5.04-7.87-5.36-5.45-13.04-6.92-20-3.87-6.32 2.9-10.16 8.74-10.48 15.75 0 .7.08 1.37.16 2.08.16.86-.4 1.68-1.28 1.88-3.36.86-9.2 3.4-9.2 11.48v.92c.32 5.94 5.36 10.2 12 10.2H514v3.4h-8.56c-8.48 0-14.96-5.68-15.44-13.5v-1.07c-.24-6.7 4-12.55 10.4-14.38v-1.07c.24-11.7 9.92-20.98 21.6-20.73 5.76.15 10.64 2.24 14.64 6.4 2.08 2.03 3.6 4.12 4.8 6.8 1.76-1.3 3.68-1.97 5.84-1.97 4.56 0 9.28 3.2 10.24 10.2 8 2.1 12.48 7.37 12.48 14.94 0 9.3-5.52 14.43-15.52 14.43zm-18.08 0h-12.8v-3.4h12.8zM541.17 398c-.47 0-.86-.16-1.18-.5l-9.6-9.6 2.4-2.4 8.37 8.37 8.38-8.38 2.4 2.4-9.57 9.6c-.33.34-.74.5-1.2.5z" stroke="#fff" stroke-opacity="0" fill="#232f3e"/><path d="M539.47 367.5h3.4v27.2h-3.4v-27.2zM527.22 352.72l-8.38-8.4-8.38 8.4-2.4-2.43 9.58-9.6c.66-.66 1.72-.66 2.4 0l9.57 9.6z" stroke="#fff" stroke-opacity="0" fill="#232f3e"/><path d="M517.14 341.9h3.4v28.8h-3.4v-28.8z" stroke="#fff" stroke-opacity="0" fill="#232f3e"/><path d="M554.4 370.74h-48.93c-8.48 0-14.96-5.7-15.44-13.5v-1.06c-.24-6.75 3.92-12.54 10.4-14.4v-1.08-.8c.56-8.13 5.2-14.72 12.55-18.07 8.24-3.56 17.28-1.83 23.6 4.56 2.15 2.07 3.6 4.15 4.8 6.8 1.75-1.33 3.67-2 5.9-2 4.5 0 9.2 3.2 10.17 10.26 8.15 2.03 12.55 7.3 12.55 14.87-.08 9.28-5.6 14.4-15.6 14.4zm-32.94-47.24c-2.64 0-4.88.46-7.28 1.47-6.3 2.94-10.15 8.78-10.4 15.73 0 .76 0 1.42.17 2.13.08.86-.48 1.68-1.28 1.88-3.44.87-9.28 3.4-9.28 11.48v.9c.3 5.94 5.43 10.2 12.07 10.2h48.94c8.16 0 12.08-3.6 12.08-11 0-6.35-3.68-10.35-11.03-11.82-.8-.16-1.28-.82-1.36-1.58-.33-6.2-3.93-8.37-6.8-8.37-2.1.06-3.85.97-5.13 2.65-.56.7-1.6.86-2.4.3-.24-.2-.4-.45-.56-.76-1.03-3.1-2.55-5.54-4.94-7.87-3.52-3.55-7.76-5.33-12.8-5.33z" stroke="#fff" stroke-opacity="0" fill="#fff" fill-opacity="0"/><g><use xlink:href="#l" transform="matrix(1,0,0,1,460,407) translate(51.05 14.4)"/></g><defs><path d="M30-248c118-7 216 8 213 122C240-48 200 0 122 0H30v-248zM63-27c89 8 146-16 146-99s-60-101-146-95v194" id="m"/><path d="M141-36C126-15 110 5 73 4 37 3 15-17 15-53c-1-64 63-63 125-63 3-35-9-54-41-54-24 1-41 7-42 31l-33-3c5-37 33-52 76-52 45 0 72 20 72 64v82c-1 20 7 32 28 27v20c-31 9-61-2-59-35zM48-53c0 20 12 33 32 33 41-3 63-29 60-74-43 2-92-5-92 41" id="n"/><path d="M59-47c-2 24 18 29 38 22v24C64 9 27 4 27-40v-127H5v-23h24l9-43h21v43h35v23H59v120" id="o"/><g id="a"><use transform="matrix(0.05,0,0,0.05,0,0)" xlink:href="#m"/><use transform="matrix(0.05,0,0,0.05,12.950000000000001,0)" xlink:href="#n"/><use transform="matrix(0.05,0,0,0.05,22.950000000000003,0)" xlink:href="#o"/><use transform="matrix(0.05,0,0,0.05,27.950000000000003,0)" xlink:href="#n"/></g><path d="M212-179c-10-28-35-45-73-45-59 0-87 40-87 99 0 60 29 101 89 101 43 0 62-24 78-52l27 14C228-24 195 4 139 4 59 4 22-46 18-125c-6-104 99-153 187-111 19 9 31 26 39 46" id="p"/><path d="M100-194c63 0 86 42 84 106H49c0 40 14 67 53 68 26 1 43-12 49-29l28 8c-11 28-37 45-77 45C44 4 14-33 15-96c1-61 26-98 85-98zm52 81c6-60-76-77-97-28-3 7-6 17-6 28h103" id="q"/><path d="M117-194c89-4 53 116 60 194h-32v-121c0-31-8-49-39-48C34-167 62-67 57 0H25l-1-190h30c1 10-1 24 2 32 11-22 29-35 61-36" id="r"/><path d="M114-163C36-179 61-72 57 0H25l-1-190h30c1 12-1 29 2 39 6-27 23-49 58-41v29" id="s"/><g id="b"><use transform="matrix(0.05,0,0,0.05,0,0)" xlink:href="#p"/><use transform="matrix(0.05,0,0,0.05,12.950000000000001,0)" xlink:href="#q"/><use transform="matrix(0.05,0,0,0.05,22.950000000000003,0)" xlink:href="#r"/><use transform="matrix(0.05,0,0,0.05,32.95,0)" xlink:href="#o"/><use transform="matrix(0.05,0,0,0.05,37.95,0)" xlink:href="#q"/><use transform="matrix(0.05,0,0,0.05,47.95,0)" xlink:href="#s"/></g><path d="M238-95c0 69-44 99-111 99C63 4 22-25 22-93v-155h51v151c-1 38 19 59 55 60 90 1 49-130 58-211h52v153" id="t"/><path d="M137-138c1-29-70-34-71-4 15 46 118 7 119 86 1 83-164 76-172 9l43-7c4 19 20 25 44 25 33 8 57-30 24-41C81-84 22-81 20-136c-2-80 154-74 161-7" id="u"/><path d="M185-48c-13 30-37 53-82 52C43 2 14-33 14-96s30-98 90-98c62 0 83 45 84 108H66c0 31 8 55 39 56 18 0 30-7 34-22zm-45-69c5-46-57-63-70-21-2 6-4 13-4 21h74" id="v"/><g id="c"><use transform="matrix(0.05,0,0,0.05,0,0)" xlink:href="#t"/><use transform="matrix(0.05,0,0,0.05,12.950000000000001,0)" xlink:href="#u"/><use transform="matrix(0.05,0,0,0.05,22.950000000000003,0)" xlink:href="#v"/></g><path d="M67-125c0 53 21 87 73 88 37 1 54-22 65-47l45 17C233-25 199 4 140 4 58 4 20-42 15-125 8-235 124-281 211-232c18 10 29 29 36 50l-46 12c-8-25-30-41-62-41-52 0-71 34-72 86" id="w"/><path d="M133-34C117-15 103 5 69 4 32 3 11-16 11-54c-1-60 55-63 116-61 1-26-3-47-28-47-18 1-26 9-28 27l-52-2c7-38 36-58 82-57s74 22 75 68l1 82c-1 14 12 18 25 15v27c-30 8-71 5-69-32zm-48 3c29 0 43-24 42-57-32 0-66-3-65 30 0 17 8 27 23 27" id="x"/><g id="d"><use transform="matrix(0.05,0,0,0.05,0,0)" xlink:href="#w"/><use transform="matrix(0.05,0,0,0.05,12.950000000000001,0)" xlink:href="#x"/><use transform="matrix(0.05,0,0,0.05,22.950000000000003,0)" xlink:href="#u"/><use transform="matrix(0.05,0,0,0.05,32.95,0)" xlink:href="#v"/></g><path d="M165-50V0h-47v-50H5v-38l105-160h55v161h33v37h-33zm-47-37l2-116L46-87h72" id="y"/><use transform="matrix(0.05,0,0,0.05,0,0)" xlink:href="#y" id="e"/><path d="M140-251c80 0 125 45 125 126S219 4 139 4C58 4 15-44 15-125s44-126 125-126zm-1 214c52 0 73-35 73-88 0-50-21-86-72-86-52 0-73 35-73 86s22 88 72 88" id="z"/><path d="M135-150c-39-12-60 13-60 57V0H25l-1-190h47c2 13-1 29 3 40 6-28 27-53 61-41v41" id="A"/><path d="M190-63c-7 42-38 67-86 67-59 0-84-38-90-98-12-110 154-137 174-36l-49 2c-2-19-15-32-35-32-30 0-35 28-38 64-6 74 65 87 74 30" id="B"/><path d="M25 0v-261h50V0H25" id="C"/><g id="f"><use transform="matrix(0.05,0,0,0.05,0,0)" xlink:href="#z"/><use transform="matrix(0.05,0,0,0.05,14,0)" xlink:href="#A"/><use transform="matrix(0.05,0,0,0.05,21,0)" xlink:href="#x"/><use transform="matrix(0.05,0,0,0.05,31,0)" xlink:href="#B"/><use transform="matrix(0.05,0,0,0.05,41,0)" xlink:href="#C"/><use transform="matrix(0.05,0,0,0.05,46,0)" xlink:href="#v"/></g><path d="M23 0v-37h61v-169l-59 37v-38l62-41h46v211h57V0H23" id="D"/><path d="M182-182c0 78-84 86-111 141h115V0H12c-6-101 99-100 120-180 1-22-12-31-33-32-23 0-32 14-35 34l-49-3c5-45 32-70 84-70 51 0 83 22 83 69" id="E"/><path d="M67-125c0 54 23 88 75 88 28 0 53-7 68-21v-34h-60v-39h108v91C232-14 192 4 140 4 58 4 20-42 15-125 8-236 126-280 215-234c19 10 29 26 37 47l-47 15c-11-23-29-39-63-39-53 1-75 33-75 86" id="F"/><g id="g"><use transform="matrix(0.05,0,0,0.05,0,0)" xlink:href="#D"/><use transform="matrix(0.05,0,0,0.05,10,0)" xlink:href="#E"/><use transform="matrix(0.05,0,0,0.05,20,0)" xlink:href="#F"/></g><path d="M199 0l-22-63H83L61 0H9l90-248h61L250 0h-51zm-33-102l-36-108c-10 38-24 72-36 108h72" id="G"/><path d="M275 0h-61l-44-196L126 0H64L0-248h53L97-49l45-199h58l43 199 44-199h52" id="H"/><path d="M169-182c-1-43-94-46-97-3 18 66 151 10 154 114 3 95-165 93-204 36-6-8-10-19-12-30l50-8c3 46 112 56 116 5-17-69-150-10-154-114-4-87 153-88 188-35 5 8 8 18 10 28" id="I"/><g id="h"><use transform="matrix(0.05,0,0,0.05,0,0)" xlink:href="#G"/><use transform="matrix(0.05,0,0,0.05,11.950000000000001,0)" xlink:href="#H"/><use transform="matrix(0.05,0,0,0.05,28.899999999999995,0)" xlink:href="#I"/></g><path d="M230 0l2-204L168 0h-37L68-204 70 0H24v-248h70l56 185 57-185h69V0h-46" id="J"/><path d="M25-224v-37h50v37H25zM25 0v-190h50V0H25" id="K"/><path d="M195-6C206 82 75 100 31 46c-4-6-6-13-8-21l49-6c3 16 16 24 34 25 40 0 42-37 40-79-11 22-30 35-61 35-53 0-70-43-70-97 0-56 18-96 73-97 30 0 46 14 59 34l2-30h47zm-90-29c32 0 41-27 41-63 0-35-9-62-40-62-32 0-39 29-40 63 0 36 9 62 39 62" id="L"/><path d="M115-3C79 11 28 4 28-45v-112H4v-33h27l15-45h31v45h36v33H77v99c-1 23 16 31 38 25v30" id="M"/><path d="M110-194c64 0 96 36 96 99 0 64-35 99-97 99-61 0-95-36-95-99 0-62 34-99 96-99zm-1 164c35 0 45-28 45-65 0-40-10-65-43-65-34 0-45 26-45 65 0 36 10 65 43 65" id="N"/><path d="M135-194c87-1 58 113 63 194h-50c-7-57 23-157-34-157-59 0-34 97-39 157H25l-1-190h47c2 12-1 28 3 38 12-26 28-41 61-42" id="O"/><g id="i"><use transform="matrix(0.05,0,0,0.05,0,0)" xlink:href="#J"/><use transform="matrix(0.05,0,0,0.05,14.950000000000001,0)" xlink:href="#K"/><use transform="matrix(0.05,0,0,0.05,19.950000000000003,0)" xlink:href="#L"/><use transform="matrix(0.05,0,0,0.05,30.900000000000006,0)" xlink:href="#A"/><use transform="matrix(0.05,0,0,0.05,37.900000000000006,0)" xlink:href="#x"/><use transform="matrix(0.05,0,0,0.05,47.900000000000006,0)" xlink:href="#M"/><use transform="matrix(0.05,0,0,0.05,53.85,0)" xlink:href="#K"/><use transform="matrix(0.05,0,0,0.05,58.85,0)" xlink:href="#N"/><use transform="matrix(0.05,0,0,0.05,69.80000000000001,0)" xlink:href="#O"/></g><path d="M140-251c81 0 123 46 123 126C263-46 219 4 140 4 59 4 17-45 17-125s42-126 123-126zm0 227c63 0 89-41 89-101s-29-99-89-99c-61 0-89 39-89 99S79-25 140-24" id="P"/><path d="M96-169c-40 0-48 33-48 73s9 75 48 75c24 0 41-14 43-38l32 2c-6 37-31 61-74 61-59 0-76-41-82-99-10-93 101-131 147-64 4 7 5 14 7 22l-32 3c-4-21-16-35-41-35" id="Q"/><path d="M24 0v-261h32V0H24" id="R"/><g id="j"><use transform="matrix(0.05,0,0,0.05,0,0)" xlink:href="#P"/><use transform="matrix(0.05,0,0,0.05,14,0)" xlink:href="#s"/><use transform="matrix(0.05,0,0,0.05,19.95,0)" xlink:href="#n"/><use transform="matrix(0.05,0,0,0.05,29.950000000000003,0)" xlink:href="#Q"/><use transform="matrix(0.05,0,0,0.05,38.95,0)" xlink:href="#R"/><use transform="matrix(0.05,0,0,0.05,42.900000000000006,0)" xlink:href="#q"/></g><path d="M27 0v-27h64v-190l-56 39v-29l58-41h29v221h61V0H27" id="S"/><path d="M99-251c64 0 84 50 84 122C183-37 130 33 47-8c-14-7-20-23-25-40l30-5c6 39 69 39 84 7 9-19 16-44 16-74-10 22-31 35-62 35-49 0-73-33-73-83 0-54 28-83 82-83zm-1 141c31-1 51-18 51-49 0-36-14-67-51-67-34 0-49 23-49 58 0 34 15 58 49 58" id="T"/><g id="k"><use transform="matrix(0.05,0,0,0.05,0,0)" xlink:href="#S"/><use transform="matrix(0.05,0,0,0.05,10,0)" xlink:href="#T"/><use transform="matrix(0.05,0,0,0.05,20,0)" xlink:href="#p"/></g><path d="M240-174c0 40-23 61-54 70L253 0h-59l-57-94H76V0H24v-248c93 4 217-23 216 74zM76-134c48-2 112 12 112-38 0-48-66-32-112-35v73" id="U"/><path d="M24-248c120-7 223 5 221 122C244-46 201 0 124 0H24v-248zM76-40c74 7 117-18 117-86 0-67-45-88-117-82v168" id="V"/><g id="l"><use transform="matrix(0.05,0,0,0.05,0,0)" xlink:href="#U"/><use transform="matrix(0.05,0,0,0.05,12.950000000000001,0)" xlink:href="#V"/><use transform="matrix(0.05,0,0,0.05,25.900000000000002,0)" xlink:href="#I"/></g></defs></g></svg>