<svg xmlns="http://www.w3.org/2000/svg" xmlns:xlink="http://www.w3.org/1999/xlink" xmlns:lucid="lucid" width="867.98" height="741.68"><g transform="translate(-40 -40)" lucid:page-tab-id="0_0"><path d="M0 0h1760v1360H0z" fill="#fff"/><path d="M120 60h60v42.88h-60zM180 60h60v42.88h-60zM240 60h54v42.88h-54zM294 60h54v42.88h-54zM348 60h55v42.88h-55zM403 60h54v42.88h-54zM457 60h54v42.88h-54zM511 60h55v42.88h-55zM566 60h54v42.88h-54zM620 60h55v42.88h-55zM675 60h57v42.88h-57zM732 60h53v42.88h-53zM785 60h54v42.88h-54z" fill="#fff"/><path d="M120 102.88h60v26.44h-60z"/><path d="M180 102.88h60v26.44h-60zM240 102.88h54v26.44h-54zM294 102.88h54v26.44h-54zM348 102.88h55v26.44h-55zM403 102.88h54v26.44h-54zM457 102.88h54v26.44h-54zM511 102.88h55v26.44h-55zM566 102.88h54v26.44h-54zM620 102.88h55v26.44h-55zM675 102.88h57v26.44h-57zM732 102.88h53v26.44h-53zM785 102.88h54v26.44h-54z" fill="#fcd116"/><path d="M120 129.32h60v26.44h-60z"/><path d="M180 129.32h60v26.44h-60zM240 129.32h54v26.44h-54zM294 129.32h54v26.44h-54zM348 129.32h55v26.44h-55zM403 129.32h54v26.44h-54zM457 129.32h54v26.44h-54zM511 129.32h55v26.44h-55zM566 129.32h54v26.44h-54zM620 129.32h55v26.44h-55zM675 129.32h57v26.44h-57zM732 129.32h53v26.44h-53z" fill="#fcd116"/><path d="M785 129.32h54v26.44h-54z" fill="#de5f85"/><path d="M120 155.76h60v26.44h-60z"/><path d="M180 155.76h60v26.44h-60zM240 155.76h54v26.44h-54zM294 155.76h54v26.44h-54zM348 155.76h55v26.44h-55zM403 155.76h54v26.44h-54zM457 155.76h54v26.44h-54zM511 155.76h55v26.44h-55zM566 155.76h54v26.44h-54zM620 155.76h55v26.44h-55zM675 155.76h57v26.44h-57zM732 155.76h53v26.44h-53zM785 155.76h54v26.44h-54z" fill="#de5f85"/><path d="M120 60v42.88M180 60v42.88M240 60v42.88M294 60v42.88M348 60v42.88M403 60v42.88M457 60v42.88M511 60v42.88M566 60v42.88M620 60v42.88M675 60v42.88M732 60v42.88M785 60v42.88M839 60v42.88M120 102.88v26.44M180 102.88v26.44M240 102.88v26.44M294 102.88v26.44M348 102.88v26.44M403 102.88v26.44M457 102.88v26.44M511 102.88v26.44M566 102.88v26.44M620 102.88v26.44M675 102.88v26.44M732 102.88v26.44M785 102.88v26.44M839 102.88v26.44M120 129.32v26.44M180 129.32v26.44M240 129.32v26.44M294 129.32v26.44M348 129.32v26.44M403 129.32v26.44M457 129.32v26.44M511 129.32v26.44M566 129.32v26.44M620 129.32v26.44M675 129.32v26.44M732 129.32v26.44M785 129.32v26.44M839 129.32v26.44M120 155.76v26.44M180 155.76v26.44M240 155.76v26.44M294 155.76v26.44M348 155.76v26.44M403 155.76v26.44M457 155.76v26.44M511 155.76v26.44M566 155.76v26.44M620 155.76v26.44M675 155.76v26.44M732 155.76v26.44M785 155.76v26.44M839 155.76v26.44M120 60h60M180 60h60M240 60h54M294 60h54M348 60h55M403 60h54M457 60h54M511 60h55M566 60h54M620 60h55M675 60h57M732 60h53M785 60h54M120 102.88h60M180 102.88h60M240 102.88h54M294 102.88h54M348 102.88h55M403 102.88h54M457 102.88h54M511 102.88h55M566 102.88h54M620 102.88h55M675 102.88h57M732 102.88h53M785 102.88h54M120 129.32h60M180 129.32h60M240 129.32h54M294 129.32h54M348 129.32h55M403 129.32h54M457 129.32h54M511 129.32h55M566 129.32h54M620 129.32h55M675 129.32h57M732 129.32h53M785 129.32h54M120 155.76h60M120 182.2h60M180 155.76h60M180 182.2h60M240 155.76h54M240 182.2h54M294 155.76h54M294 182.2h54M348 155.76h55M348 182.2h55M403 155.76h54M403 182.2h54M457 155.76h54M457 182.2h54M511 155.76h55M511 182.2h55M566 155.76h54M566 182.2h54M620 155.76h55M620 182.2h55M675 155.76h57M675 182.2h57M732 155.76h53M732 182.2h53M785 155.76h54M785 182.2h54" stroke="#000" fill="none"/><use xlink:href="#a" transform="matrix(1,0,0,1,185,65) translate(6.866666666666671 12.148)"/><use xlink:href="#b" transform="matrix(1,0,0,1,185,65) translate(18.42666666666667 28.58888888888889)"/><use xlink:href="#c" transform="matrix(1,0,0,1,245,65) translate(3.8666666666666707 12.148)"/><use xlink:href="#d" transform="matrix(1,0,0,1,245,65) translate(13.00888888888889 28.58888888888889)"/><use xlink:href="#c" transform="matrix(1,0,0,1,299,65) translate(3.8666666666666707 12.148)"/><use xlink:href="#e" transform="matrix(1,0,0,1,299,65) translate(13.00888888888889 28.58888888888889)"/><use xlink:href="#c" transform="matrix(1,0,0,1,353,65) translate(4.366666666666671 12.148)"/><use xlink:href="#f" transform="matrix(1,0,0,1,353,65) translate(13.22177777777778 28.58888888888889)"/><use xlink:href="#c" transform="matrix(1,0,0,1,408,65) translate(3.8666666666666707 12.148)"/><use xlink:href="#g" transform="matrix(1,0,0,1,408,65) translate(12.963555555555557 28.58888888888889)"/><use xlink:href="#c" transform="matrix(1,0,0,1,462,65) translate(3.8666666666666707 12.148)"/><use xlink:href="#h" transform="matrix(1,0,0,1,462,65) translate(13.129777777777779 28.58888888888889)"/><use xlink:href="#c" transform="matrix(1,0,0,1,516,65) translate(4.366666666666671 12.148)"/><use xlink:href="#i" transform="matrix(1,0,0,1,516,65) translate(13.312444444444445 28.58888888888889)"/><use xlink:href="#c" transform="matrix(1,0,0,1,571,65) translate(3.8666666666666707 12.148)"/><use xlink:href="#j" transform="matrix(1,0,0,1,571,65) translate(12.752000000000002 28.58888888888889)"/><use xlink:href="#c" transform="matrix(1,0,0,1,625,65) translate(4.366666666666671 12.148)"/><use xlink:href="#k" transform="matrix(1,0,0,1,625,65) translate(13.765777777777778 28.58888888888889)"/><use xlink:href="#c" transform="matrix(1,0,0,1,680,65) translate(5.366666666666671 12.148)"/><use xlink:href="#l" transform="matrix(1,0,0,1,680,65) translate(16.92666666666667 28.58888888888889)"/><use xlink:href="#c" transform="matrix(1,0,0,1,737,65) translate(3.3666666666666707 12.148)"/><use xlink:href="#m" transform="matrix(1,0,0,1,737,65) translate(17.843111111111114 28.58888888888889)"/><use xlink:href="#c" transform="matrix(1,0,0,1,790,65) translate(3.8666666666666707 12.148)"/><use xlink:href="#n" transform="matrix(1,0,0,1,790,65) translate(15.925333333333334 28.58888888888889)"/><use xlink:href="#o" transform="matrix(1,0,0,1,125,107.88177777777778) translate(6.6248888888888935 12.368444444444444)"/><use xlink:href="#p" transform="matrix(1,0,0,1,125,107.88177777777778) translate(39.718222222222224 12.368444444444444)"/><use xlink:href="#q" transform="matrix(1,0,0,1,185,107.88177777777778) translate(0 12.368444444444444)"/><use xlink:href="#r" transform="matrix(1,0,0,1,185,107.88177777777778) translate(14.17422222222222 12.368444444444444)"/><use xlink:href="#q" transform="matrix(1,0,0,1,245,107.88177777777778) translate(0 12.368444444444444)"/><use xlink:href="#r" transform="matrix(1,0,0,1,245,107.88177777777778) translate(14.17422222222222 12.368444444444444)"/><use xlink:href="#q" transform="matrix(1,0,0,1,299,107.88177777777778) translate(0 12.368444444444444)"/><use xlink:href="#r" transform="matrix(1,0,0,1,299,107.88177777777778) translate(14.17422222222222 12.368444444444444)"/><use xlink:href="#q" transform="matrix(1,0,0,1,353,107.88177777777778) translate(0 12.368444444444444)"/><use xlink:href="#r" transform="matrix(1,0,0,1,353,107.88177777777778) translate(14.17422222222222 12.368444444444444)"/><use xlink:href="#q" transform="matrix(1,0,0,1,408,107.88177777777778) translate(0 12.368444444444444)"/><use xlink:href="#r" transform="matrix(1,0,0,1,408,107.88177777777778) translate(14.17422222222222 12.368444444444444)"/><use xlink:href="#q" transform="matrix(1,0,0,1,462,107.88177777777778) translate(0 12.368444444444444)"/><use xlink:href="#r" transform="matrix(1,0,0,1,462,107.88177777777778) translate(14.17422222222222 12.368444444444444)"/><use xlink:href="#q" transform="matrix(1,0,0,1,516,107.88177777777778) translate(0 12.368444444444444)"/><use xlink:href="#r" transform="matrix(1,0,0,1,516,107.88177777777778) translate(14.17422222222222 12.368444444444444)"/><use xlink:href="#q" transform="matrix(1,0,0,1,571,107.88177777777778) translate(0 12.368444444444444)"/><use xlink:href="#r" transform="matrix(1,0,0,1,571,107.88177777777778) translate(14.17422222222222 12.368444444444444)"/><use xlink:href="#q" transform="matrix(1,0,0,1,625,107.88177777777778) translate(0 12.368444444444444)"/><use xlink:href="#r" transform="matrix(1,0,0,1,625,107.88177777777778) translate(14.17422222222222 12.368444444444444)"/><use xlink:href="#q" transform="matrix(1,0,0,1,680,107.88177777777778) translate(0 12.368444444444444)"/><use xlink:href="#r" transform="matrix(1,0,0,1,680,107.88177777777778) translate(14.17422222222222 12.368444444444444)"/><use xlink:href="#q" transform="matrix(1,0,0,1,737,107.88177777777778) translate(0 12.368444444444444)"/><use xlink:href="#r" transform="matrix(1,0,0,1,737,107.88177777777778) translate(14.17422222222222 12.368444444444444)"/><use xlink:href="#q" transform="matrix(1,0,0,1,790,107.88177777777778) translate(0 12.368444444444444)"/><use xlink:href="#r" transform="matrix(1,0,0,1,790,107.88177777777778) translate(14.17422222222222 12.368444444444444)"/><use xlink:href="#o" transform="matrix(1,0,0,1,125,134.32266666666666) translate(4.207111111111114 12.368444444444444)"/><use xlink:href="#s" transform="matrix(1,0,0,1,125,134.32266666666666) translate(37.30044444444444 12.368444444444444)"/><use xlink:href="#q" transform="matrix(1,0,0,1,185,134.32266666666666) translate(0 12.368444444444444)"/><use xlink:href="#r" transform="matrix(1,0,0,1,185,134.32266666666666) translate(14.17422222222222 12.368444444444444)"/><use xlink:href="#q" transform="matrix(1,0,0,1,245,134.32266666666666) translate(0 12.368444444444444)"/><use xlink:href="#r" transform="matrix(1,0,0,1,245,134.32266666666666) translate(14.17422222222222 12.368444444444444)"/><use xlink:href="#q" transform="matrix(1,0,0,1,299,134.32266666666666) translate(0 12.368444444444444)"/><use xlink:href="#r" transform="matrix(1,0,0,1,299,134.32266666666666) translate(14.17422222222222 12.368444444444444)"/><use xlink:href="#q" transform="matrix(1,0,0,1,353,134.32266666666666) translate(0 12.368444444444444)"/><use xlink:href="#r" transform="matrix(1,0,0,1,353,134.32266666666666) translate(14.17422222222222 12.368444444444444)"/><use xlink:href="#q" transform="matrix(1,0,0,1,408,134.32266666666666) translate(0 12.368444444444444)"/><use xlink:href="#r" transform="matrix(1,0,0,1,408,134.32266666666666) translate(14.17422222222222 12.368444444444444)"/><use xlink:href="#q" transform="matrix(1,0,0,1,462,134.32266666666666) translate(0 12.368444444444444)"/><use xlink:href="#r" transform="matrix(1,0,0,1,462,134.32266666666666) translate(14.17422222222222 12.368444444444444)"/><use xlink:href="#q" transform="matrix(1,0,0,1,516,134.32266666666666) translate(0 12.368444444444444)"/><use xlink:href="#r" transform="matrix(1,0,0,1,516,134.32266666666666) translate(14.17422222222222 12.368444444444444)"/><use xlink:href="#q" transform="matrix(1,0,0,1,571,134.32266666666666) translate(0 12.368444444444444)"/><use xlink:href="#r" transform="matrix(1,0,0,1,571,134.32266666666666) translate(14.17422222222222 12.368444444444444)"/><use xlink:href="#q" transform="matrix(1,0,0,1,625,134.32266666666666) translate(0 12.368444444444444)"/><use xlink:href="#r" transform="matrix(1,0,0,1,625,134.32266666666666) translate(14.17422222222222 12.368444444444444)"/><use xlink:href="#q" transform="matrix(1,0,0,1,680,134.32266666666666) translate(0 12.368444444444444)"/><use xlink:href="#r" transform="matrix(1,0,0,1,680,134.32266666666666) translate(14.17422222222222 12.368444444444444)"/><use xlink:href="#q" transform="matrix(1,0,0,1,737,134.32266666666666) translate(0 12.368444444444444)"/><use xlink:href="#r" transform="matrix(1,0,0,1,737,134.32266666666666) translate(14.17422222222222 12.368444444444444)"/><use xlink:href="#t" transform="matrix(1,0,0,1,790,134.32266666666666) translate(0 12.368444444444444)"/><use xlink:href="#r" transform="matrix(1,0,0,1,790,134.32266666666666) translate(13.599999999999998 12.368444444444444)"/><use xlink:href="#o" transform="matrix(1,0,0,1,125,160.76355555555557) translate(4.207111111111114 12.368444444444444)"/><use xlink:href="#u" transform="matrix(1,0,0,1,125,160.76355555555557) translate(37.30044444444444 12.368444444444444)"/><use xlink:href="#t" transform="matrix(1,0,0,1,185,160.76355555555557) translate(0 12.368444444444444)"/><use xlink:href="#r" transform="matrix(1,0,0,1,185,160.76355555555557) translate(13.599999999999998 12.368444444444444)"/><use xlink:href="#t" transform="matrix(1,0,0,1,245,160.76355555555557) translate(0 12.368444444444444)"/><use xlink:href="#r" transform="matrix(1,0,0,1,245,160.76355555555557) translate(13.599999999999998 12.368444444444444)"/><use xlink:href="#t" transform="matrix(1,0,0,1,299,160.76355555555557) translate(0 12.368444444444444)"/><use xlink:href="#r" transform="matrix(1,0,0,1,299,160.76355555555557) translate(13.599999999999998 12.368444444444444)"/><use xlink:href="#t" transform="matrix(1,0,0,1,353,160.76355555555557) translate(0 12.368444444444444)"/><use xlink:href="#r" transform="matrix(1,0,0,1,353,160.76355555555557) translate(13.599999999999998 12.368444444444444)"/><use xlink:href="#t" transform="matrix(1,0,0,1,408,160.76355555555557) translate(0 12.368444444444444)"/><use xlink:href="#r" transform="matrix(1,0,0,1,408,160.76355555555557) translate(13.599999999999998 12.368444444444444)"/><use xlink:href="#t" transform="matrix(1,0,0,1,462,160.76355555555557) translate(0 12.368444444444444)"/><use xlink:href="#r" transform="matrix(1,0,0,1,462,160.76355555555557) translate(13.599999999999998 12.368444444444444)"/><use xlink:href="#t" transform="matrix(1,0,0,1,516,160.76355555555557) translate(0 12.368444444444444)"/><use xlink:href="#r" transform="matrix(1,0,0,1,516,160.76355555555557) translate(13.599999999999998 12.368444444444444)"/><use xlink:href="#t" transform="matrix(1,0,0,1,571,160.76355555555557) translate(0 12.368444444444444)"/><use xlink:href="#r" transform="matrix(1,0,0,1,571,160.76355555555557) translate(13.599999999999998 12.368444444444444)"/><use xlink:href="#t" transform="matrix(1,0,0,1,625,160.76355555555557) translate(0 12.368444444444444)"/><use xlink:href="#r" transform="matrix(1,0,0,1,625,160.76355555555557) translate(13.599999999999998 12.368444444444444)"/><use xlink:href="#t" transform="matrix(1,0,0,1,680,160.76355555555557) translate(0 12.368444444444444)"/><use xlink:href="#r" transform="matrix(1,0,0,1,680,160.76355555555557) translate(13.599999999999998 12.368444444444444)"/><use xlink:href="#t" transform="matrix(1,0,0,1,737,160.76355555555557) translate(0 12.368444444444444)"/><use xlink:href="#r" transform="matrix(1,0,0,1,737,160.76355555555557) translate(13.599999999999998 12.368444444444444)"/><use xlink:href="#t" transform="matrix(1,0,0,1,790,160.76355555555557) translate(0 12.368444444444444)"/><use xlink:href="#r" transform="matrix(1,0,0,1,790,160.76355555555557) translate(13.599999999999998 12.368444444444444)"/><path d="M120 220h60v42.88h-60zM180 220h60v42.88h-60zM240 220h54v42.88h-54zM294 220h54v42.88h-54zM348 220h55v42.88h-55zM403 220h54v42.88h-54zM457 220h54v42.88h-54zM511 220h55v42.88h-55zM566 220h54v42.88h-54zM620 220h55v42.88h-55zM675 220h57v42.88h-57zM732 220h53v42.88h-53zM785 220h54v42.88h-54z" fill="#fff"/><path d="M120 262.88h60v26.44h-60z"/><path d="M180 262.88h60v26.44h-60zM240 262.88h54v26.44h-54zM294 262.88h54v26.44h-54zM348 262.88h55v26.44h-55zM403 262.88h54v26.44h-54zM457 262.88h54v26.44h-54zM511 262.88h55v26.44h-55zM566 262.88h54v26.44h-54zM620 262.88h55v26.44h-55zM675 262.88h57v26.44h-57zM732 262.88h53v26.44h-53zM785 262.88h54v26.44h-54z" fill="#c92d39"/><path d="M120 289.32h60v26.44h-60z"/><path d="M180 289.32h60v26.44h-60z" fill="#c92d39"/><path d="M240 289.32h54v26.44h-54zM294 289.32h54v26.44h-54zM348 289.32h55v26.44h-55zM403 289.32h54v26.44h-54zM457 289.32h54v26.44h-54zM511 289.32h55v26.44h-55zM566 289.32h54v26.44h-54zM620 289.32h55v26.44h-55zM675 289.32h57v26.44h-57zM732 289.32h53v26.44h-53zM785 289.32h54v26.44h-54z" fill="#ff8f80"/><path d="M120 315.76h60v26.44h-60z"/><path d="M180 315.76h60v26.44h-60zM240 315.76h54v26.44h-54zM294 315.76h54v26.44h-54zM348 315.76h55v26.44h-55zM403 315.76h54v26.44h-54zM457 315.76h54v26.44h-54zM511 315.76h55v26.44h-55zM566 315.76h54v26.44h-54zM620 315.76h55v26.44h-55zM675 315.76h57v26.44h-57zM732 315.76h53v26.44h-53zM785 315.76h54v26.44h-54z" fill="#c92d39"/><path d="M120 220v42.88M180 220v42.88M240 220v42.88M294 220v42.88M348 220v42.88M403 220v42.88M457 220v42.88M511 220v42.88M566 220v42.88M620 220v42.88M675 220v42.88M732 220v42.88M785 220v42.88M839 220v42.88M120 262.88v26.44M180 262.88v26.44M240 262.88v26.44M294 262.88v26.44M348 262.88v26.44M403 262.88v26.44M457 262.88v26.44M511 262.88v26.44M566 262.88v26.44M620 262.88v26.44M675 262.88v26.44M732 262.88v26.44M785 262.88v26.44M839 262.88v26.44M120 289.32v26.44M180 289.32v26.44M240 289.32v26.44M294 289.32v26.44M348 289.32v26.44M403 289.32v26.44M457 289.32v26.44M511 289.32v26.44M566 289.32v26.44M620 289.32v26.44M675 289.32v26.44M732 289.32v26.44M785 289.32v26.44M839 289.32v26.44M120 315.76v26.44M180 315.76v26.44M240 315.76v26.44M294 315.76v26.44M348 315.76v26.44M403 315.76v26.44M457 315.76v26.44M511 315.76v26.44M566 315.76v26.44M620 315.76v26.44M675 315.76v26.44M732 315.76v26.44M785 315.76v26.44M839 315.76v26.44M120 220h60M180 220h60M240 220h54M294 220h54M348 220h55M403 220h54M457 220h54M511 220h55M566 220h54M620 220h55M675 220h57M732 220h53M785 220h54M120 262.88h60M180 262.88h60M240 262.88h54M294 262.88h54M348 262.88h55M403 262.88h54M457 262.88h54M511 262.88h55M566 262.88h54M620 262.88h55M675 262.88h57M732 262.88h53M785 262.88h54M120 289.32h60M180 289.32h60M240 289.32h54M294 289.32h54M348 289.32h55M403 289.32h54M457 289.32h54M511 289.32h55M566 289.32h54M620 289.32h55M675 289.32h57M732 289.32h53M785 289.32h54M120 315.76h60M120 342.2h60M180 315.76h60M180 342.2h60M240 315.76h54M240 342.2h54M294 315.76h54M294 342.2h54M348 315.76h55M348 342.2h55M403 315.76h54M403 342.2h54M457 315.76h54M457 342.2h54M511 315.76h55M511 342.2h55M566 315.76h54M566 342.2h54M620 315.76h55M620 342.2h55M675 315.76h57M675 342.2h57M732 315.76h53M732 342.2h53M785 315.76h54M785 342.2h54" stroke="#000" fill="none"/><use xlink:href="#a" transform="matrix(1,0,0,1,185,225) translate(6.866666666666671 12.148)"/><use xlink:href="#b" transform="matrix(1,0,0,1,185,225) translate(18.42666666666667 28.58888888888889)"/><use xlink:href="#c" transform="matrix(1,0,0,1,245,225) translate(3.8666666666666707 12.148)"/><use xlink:href="#d" transform="matrix(1,0,0,1,245,225) translate(13.00888888888889 28.58888888888889)"/><use xlink:href="#c" transform="matrix(1,0,0,1,299,225) translate(3.8666666666666707 12.148)"/><use xlink:href="#e" transform="matrix(1,0,0,1,299,225) translate(13.00888888888889 28.58888888888889)"/><use xlink:href="#c" transform="matrix(1,0,0,1,353,225) translate(4.366666666666671 12.148)"/><use xlink:href="#f" transform="matrix(1,0,0,1,353,225) translate(13.22177777777778 28.58888888888889)"/><use xlink:href="#c" transform="matrix(1,0,0,1,408,225) translate(3.8666666666666707 12.148)"/><use xlink:href="#g" transform="matrix(1,0,0,1,408,225) translate(12.963555555555557 28.58888888888889)"/><use xlink:href="#c" transform="matrix(1,0,0,1,462,225) translate(3.8666666666666707 12.148)"/><use xlink:href="#h" transform="matrix(1,0,0,1,462,225) translate(13.129777777777779 28.58888888888889)"/><use xlink:href="#c" transform="matrix(1,0,0,1,516,225) translate(4.366666666666671 12.148)"/><use xlink:href="#i" transform="matrix(1,0,0,1,516,225) translate(13.312444444444445 28.58888888888889)"/><use xlink:href="#c" transform="matrix(1,0,0,1,571,225) translate(3.8666666666666707 12.148)"/><use xlink:href="#j" transform="matrix(1,0,0,1,571,225) translate(12.752000000000002 28.58888888888889)"/><use xlink:href="#c" transform="matrix(1,0,0,1,625,225) translate(4.366666666666671 12.148)"/><use xlink:href="#k" transform="matrix(1,0,0,1,625,225) translate(13.765777777777778 28.58888888888889)"/><use xlink:href="#c" transform="matrix(1,0,0,1,680,225) translate(5.366666666666671 12.148)"/><use xlink:href="#l" transform="matrix(1,0,0,1,680,225) translate(16.92666666666667 28.58888888888889)"/><use xlink:href="#c" transform="matrix(1,0,0,1,737,225) translate(3.3666666666666707 12.148)"/><use xlink:href="#m" transform="matrix(1,0,0,1,737,225) translate(17.843111111111114 28.58888888888889)"/><use xlink:href="#c" transform="matrix(1,0,0,1,790,225) translate(3.8666666666666707 12.148)"/><use xlink:href="#n" transform="matrix(1,0,0,1,790,225) translate(15.925333333333334 28.58888888888889)"/><use xlink:href="#o" transform="matrix(1,0,0,1,125,267.88177777777776) translate(6.6248888888888935 12.368444444444444)"/><use xlink:href="#p" transform="matrix(1,0,0,1,125,267.88177777777776) translate(39.718222222222224 12.368444444444444)"/><use xlink:href="#v" transform="matrix(1,0,0,1,185,267.88177777777776) translate(16.507555555555555 12.368444444444444)"/><use xlink:href="#w" transform="matrix(1,0,0,1,245,267.88177777777776) translate(13.885333333333335 12.368444444444444)"/><use xlink:href="#w" transform="matrix(1,0,0,1,299,267.88177777777776) translate(13.885333333333335 12.368444444444444)"/><use xlink:href="#v" transform="matrix(1,0,0,1,353,267.88177777777776) translate(14.007555555555557 12.368444444444444)"/><use xlink:href="#x" transform="matrix(1,0,0,1,408,267.88177777777776) translate(13.764444444444447 12.368444444444444)"/><use xlink:href="#y" transform="matrix(1,0,0,1,462,267.88177777777776) translate(13.250666666666667 12.368444444444444)"/><use xlink:href="#z" transform="matrix(1,0,0,1,516,267.88177777777776) translate(13.49377777777778 12.368444444444444)"/><use xlink:href="#A" transform="matrix(1,0,0,1,571,267.88177777777776) translate(12.752000000000002 12.368444444444444)"/><use xlink:href="#x" transform="matrix(1,0,0,1,625,267.88177777777776) translate(14.264444444444447 12.368444444444444)"/><use xlink:href="#B" transform="matrix(1,0,0,1,680,267.88177777777776) translate(14.977333333333334 12.368444444444444)"/><use xlink:href="#z" transform="matrix(1,0,0,1,737,267.88177777777776) translate(12.49377777777778 12.368444444444444)"/><use xlink:href="#C" transform="matrix(1,0,0,1,790,267.88177777777776) translate(13.371555555555556 12.368444444444444)"/><use xlink:href="#o" transform="matrix(1,0,0,1,125,294.3226666666667) translate(4.207111111111114 12.368444444444444)"/><use xlink:href="#s" transform="matrix(1,0,0,1,125,294.3226666666667) translate(37.30044444444444 12.368444444444444)"/><use xlink:href="#A" transform="matrix(1,0,0,1,185,294.3226666666667) translate(15.752000000000002 12.368444444444444)"/><use xlink:href="#D" transform="matrix(1,0,0,1,245,294.3226666666667) translate(13.432000000000002 12.368444444444444)"/><use xlink:href="#D" transform="matrix(1,0,0,1,299,294.3226666666667) translate(13.432000000000002 12.368444444444444)"/><use xlink:href="#E" transform="matrix(1,0,0,1,353,294.3226666666667) translate(13.554222222222224 12.368444444444444)"/><use xlink:href="#F" transform="matrix(1,0,0,1,408,294.3226666666667) translate(13.628444444444446 12.368444444444444)"/><use xlink:href="#F" transform="matrix(1,0,0,1,462,294.3226666666667) translate(13.628444444444446 12.368444444444444)"/><use xlink:href="#G" transform="matrix(1,0,0,1,516,294.3226666666667) translate(13.871555555555556 12.368444444444444)"/><use xlink:href="#H" transform="matrix(1,0,0,1,571,294.3226666666667) translate(13.205333333333336 12.368444444444444)"/><use xlink:href="#F" transform="matrix(1,0,0,1,625,294.3226666666667) translate(14.128444444444446 12.368444444444444)"/><use xlink:href="#I" transform="matrix(1,0,0,1,680,294.3226666666667) translate(14.524000000000001 12.368444444444444)"/><use xlink:href="#G" transform="matrix(1,0,0,1,737,294.3226666666667) translate(12.871555555555556 12.368444444444444)"/><use xlink:href="#J" transform="matrix(1,0,0,1,790,294.3226666666667) translate(13.749333333333334 12.368444444444444)"/><use xlink:href="#o" transform="matrix(1,0,0,1,125,320.76355555555557) translate(4.207111111111114 12.368444444444444)"/><use xlink:href="#u" transform="matrix(1,0,0,1,125,320.76355555555557) translate(37.30044444444444 12.368444444444444)"/><use xlink:href="#v" transform="matrix(1,0,0,1,185,320.76355555555557) translate(16.507555555555555 12.368444444444444)"/><use xlink:href="#w" transform="matrix(1,0,0,1,245,320.76355555555557) translate(13.885333333333335 12.368444444444444)"/><use xlink:href="#w" transform="matrix(1,0,0,1,299,320.76355555555557) translate(13.885333333333335 12.368444444444444)"/><use xlink:href="#v" transform="matrix(1,0,0,1,353,320.76355555555557) translate(14.007555555555557 12.368444444444444)"/><use xlink:href="#x" transform="matrix(1,0,0,1,408,320.76355555555557) translate(13.764444444444447 12.368444444444444)"/><use xlink:href="#y" transform="matrix(1,0,0,1,462,320.76355555555557) translate(13.250666666666667 12.368444444444444)"/><use xlink:href="#z" transform="matrix(1,0,0,1,516,320.76355555555557) translate(13.49377777777778 12.368444444444444)"/><use xlink:href="#A" transform="matrix(1,0,0,1,571,320.76355555555557) translate(12.752000000000002 12.368444444444444)"/><use xlink:href="#x" transform="matrix(1,0,0,1,625,320.76355555555557) translate(14.264444444444447 12.368444444444444)"/><use xlink:href="#B" transform="matrix(1,0,0,1,680,320.76355555555557) translate(14.977333333333334 12.368444444444444)"/><use xlink:href="#z" transform="matrix(1,0,0,1,737,320.76355555555557) translate(12.49377777777778 12.368444444444444)"/><use xlink:href="#C" transform="matrix(1,0,0,1,790,320.76355555555557) translate(13.371555555555556 12.368444444444444)"/><path d="M60 192.2h220V220H60z" fill="#fff" fill-opacity="0"/><use xlink:href="#K" transform="matrix(1,0,0,1,65,197.20444444444445) translate(59.57577777777777 13.747222222222224)"/><use xlink:href="#L" transform="matrix(1,0,0,1,65,197.20444444444445) translate(89.74288888888888 13.747222222222224)"/><use xlink:href="#M" transform="matrix(1,0,0,1,65,197.20444444444445) translate(116.59666666666666 13.747222222222224)"/><path d="M490 632.5c-22.1 0-40 17.42-40 38.9 0 21.5 17.9 38.9 40 38.9s40-17.4 40-38.9c0-21.48-17.9-38.9-40-38.9zm0 38.9z" fill="#fcc438"/><path d="M490 632.5c22.1 0 40 17.42 40 38.9 0 21.5-17.9 38.9-40 38.9-17.67 0-32.58-10.53-38.04-26.88L490 671.4z" fill="#de5f85"/><path d="M521 685.97h140v40H521z" fill="#fff" fill-opacity="0"/><use xlink:href="#N" transform="matrix(1,0,0,1,526,690.9702222222221) translate(3.628999999999998 20.2125)"/><use xlink:href="#O" transform="matrix(1,0,0,1,526,690.9702222222221) translate(39.629 20.2125)"/><use xlink:href="#P" transform="matrix(1,0,0,1,526,690.9702222222221) translate(90.029 20.2125)"/><path d="M521 646.82h140V696H521z" fill="#fff" fill-opacity="0"/><use xlink:href="#Q" transform="matrix(1,0,0,1,526,651.8208888888889) translate(12.926000000000002 14.4)"/><use xlink:href="#R" transform="matrix(1,0,0,1,526,651.8208888888889) translate(67.82600000000001 14.4)"/><use xlink:href="#S" transform="matrix(1,0,0,1,526,651.8208888888889) translate(46.829 33.984)"/><path d="M700.5 630.3c-21.82 0-39.5 17.9-39.5 40s17.68 40 39.5 40 39.5-17.9 39.5-40-17.68-40-39.5-40zm0 12c15.27 0 27.65 12.54 27.65 28 0 15.47-12.38 28-27.65 28-15.27 0-27.65-12.53-27.65-28 0-15.46 12.38-28 27.65-28z" fill="#c7e8ac"/><path d="M700.5 630.3c21.82 0 39.5 17.9 39.5 40s-17.68 40-39.5 40c-17.45 0-32.17-10.83-37.57-27.64l11.27-3.7c3.78 11.76 14.08 19.34 26.3 19.34 15.27 0 27.65-12.53 27.65-28 0-15.46-12.38-28-27.65-28z" fill="#19967d"/><path d="M130 460c0-33.14 26.86-60 60-60s60 26.86 60 60h-18c0-23.2-18.8-42-42-42s-42 18.8-42 42z" fill="#d7e9ff"/><path d="M130 460c0-33.14 26.86-60 60-60s60 26.86 60 60h-18c0-23.2-18.8-42-42-42s-42 18.8-42 42z" fill="#de5f85"/><path d="M120 460h140v40H120z" fill="#fff" fill-opacity="0"/><use xlink:href="#T" transform="matrix(1,0,0,1,125,465) translate(17.9191111111111 20.372222222222224)"/><use xlink:href="#U" transform="matrix(1,0,0,1,125,465) translate(75.792 20.372222222222224)"/><path d="M290 460c0-33.14 26.86-60 60-60s60 26.86 60 60h-18c0-23.2-18.8-42-42-42s-42 18.8-42 42z" fill="#fcd116"/><path d="M290 460c0-33.14 26.86-60 60-60 24.64 0 45.54 13.8 55.2 36.48l-16.56 7.06C381.88 427.67 367.24 418 350 418c-23.2 0-42 18.8-42 42z" fill="#7ab648"/><path d="M280 460h140v40H280z" fill="#fff" fill-opacity="0"/><use xlink:href="#V" transform="matrix(1,0,0,1,284.99999999999983,465) translate(17.966444444444434 20.372222222222224)"/><use xlink:href="#U" transform="matrix(1,0,0,1,284.99999999999983,465) translate(75.74466666666666 20.372222222222224)"/><path d="M450 460c0-33.14 26.86-60 60-60s60 26.86 60 60h-18c0-23.2-18.8-42-42-42s-42 18.8-42 42z" fill="#ffdba9"/><path d="M450 460c0-33.14 26.86-60 60-60v18c-23.2 0-42 18.8-42 42z" fill="#3aa6dd"/><path d="M440 460h140v40H440z" fill="#fff" fill-opacity="0"/><use xlink:href="#W" transform="matrix(1,0,0,1,444.9999999999997,465) translate(34.880222222222216 20.372222222222224)"/><path d="M610 460c0-33.14 26.86-60 60-60s60 26.86 60 60h-18c0-23.2-18.8-42-42-42s-42 18.8-42 42z" fill="#ff8f80"/><path d="M610 460c0-33.14 26.86-60 60-60 15.3 0 28.34 4.95 39.8 15.1l-11.95 13.46c-8-7.1-17.14-10.56-27.85-10.56-23.2 0-42 18.8-42 42z" fill="#fcd116"/><path d="M600 460h140v40H600z" fill="#fff" fill-opacity="0"/><use xlink:href="#X" transform="matrix(1,0,0,1,605,465) translate(42.56399999999999 20.372222222222224)"/><path d="M120 500h140v40H120z" fill="#fff" fill-opacity="0"/><use xlink:href="#Y" transform="matrix(1,0,0,1,125,505) translate(40.70222222222222 20.372222222222224)"/><path d="M280 500h140v40H280z" fill="#fff" fill-opacity="0"/><use xlink:href="#Z" transform="matrix(1,0,0,1,285,505) translate(32.16644444444444 20.372222222222224)"/><path d="M430 500h140v40H430z" fill="#fff" fill-opacity="0"/><use xlink:href="#aa" transform="matrix(1,0,0,1,434.9999999999996,505) translate(31.251333333333335 20.372222222222224)"/><path d="M600 500h140v40H600z" fill="#fff" fill-opacity="0"/><g><use xlink:href="#ab" transform="matrix(1,0,0,1,605,505) translate(31.819333333333333 20.372222222222224)"/></g><path d="M420 585.97h300v44.33H420z" fill="#fff" fill-opacity="0"/><g><use xlink:href="#ac" transform="matrix(1,0,0,1,424.99999999999983,590.9702222222221) translate(0 20.583333333333336)"/><use xlink:href="#ad" transform="matrix(1,0,0,1,424.99999999999983,590.9702222222221) translate(39.16044444444445 20.583333333333336)"/><use xlink:href="#ae" transform="matrix(1,0,0,1,424.99999999999983,590.9702222222221) translate(58.756444444444455 20.583333333333336)"/><use xlink:href="#af" transform="matrix(1,0,0,1,424.99999999999983,590.9702222222221) translate(128.28911111111114 20.583333333333336)"/><use xlink:href="#ag" transform="matrix(1,0,0,1,424.99999999999983,590.9702222222221) translate(153.39155555555558 20.583333333333336)"/><use xlink:href="#ah" transform="matrix(1,0,0,1,424.99999999999983,590.9702222222221) translate(223.14511111111113 20.583333333333336)"/></g><path d="M420 712.5h340v49.18H420z" fill="#fff" fill-opacity="0"/><g><use xlink:href="#ai" transform="matrix(1,0,0,1,424.9999999999997,717.5071111111113) translate(18.120000000000005 24.4)"/><use xlink:href="#aj" transform="matrix(1,0,0,1,424.9999999999997,717.5071111111113) translate(56.532 24.4)"/><use xlink:href="#ak" transform="matrix(1,0,0,1,424.9999999999997,717.5071111111113) translate(84.036 24.4)"/><use xlink:href="#al" transform="matrix(1,0,0,1,424.9999999999997,717.5071111111113) translate(155.208 24.4)"/><use xlink:href="#am" transform="matrix(1,0,0,1,424.9999999999997,717.5071111111113) translate(185.088 24.4)"/><use xlink:href="#an" transform="matrix(1,0,0,1,424.9999999999997,717.5071111111113) translate(252.516 24.4)"/></g><path d="M420 545.97h419v49.17H420z" fill="#fff" fill-opacity="0"/><g><use xlink:href="#ao" transform="matrix(1,0,0,1,424.9999999999998,550.9702222222221) translate(0 23.5)"/><use xlink:href="#ap" transform="matrix(1,0,0,1,424.9999999999998,550.9702222222221) translate(52.614 23.5)"/><use xlink:href="#aq" transform="matrix(1,0,0,1,424.9999999999998,550.9702222222221) translate(131.94 23.5)"/><use xlink:href="#ar" transform="matrix(1,0,0,1,424.9999999999998,550.9702222222221) translate(145.638 23.5)"/><use xlink:href="#as" transform="matrix(1,0,0,1,424.9999999999998,550.9702222222221) translate(237.06 23.5)"/><use xlink:href="#at" transform="matrix(1,0,0,1,424.9999999999998,550.9702222222221) translate(311.112 23.5)"/></g><path d="M120 560h134.5v29H120zM254.5 560H389v29H254.5z" fill="#fff"/><path d="M120 589h134.5v26.44H120z" fill="#fcd116"/><path d="M254.5 589H389v26.44H254.5z" fill="#fff"/><path d="M120 615.44h134.5v26.44H120z" fill="#fcd116"/><path d="M254.5 615.44H389v26.44H254.5z" fill="#fff"/><path d="M120 641.88h134.5v26.44H120z" fill="#fcd116"/><path d="M254.5 641.88H389v26.44H254.5z" fill="#fff"/><path d="M120 668.32h134.5v26.44H120z" fill="#fcd116"/><path d="M254.5 668.32H389v26.44H254.5z" fill="#fff"/><path d="M120 694.76h134.5v26.44H120z" fill="#fcd116"/><path d="M254.5 694.76H389v26.44H254.5z" fill="#fff"/><path d="M120 721.2h134.5v26.45H120z" fill="#fcd116"/><path d="M254.5 721.2H389v26.45H254.5z" fill="#fff"/><path d="M120 560v29M254.5 560v29M389 560v29M120 589v26.44M254.5 589v26.44M389 589v26.44M120 615.44v26.44M254.5 615.44v26.44M389 615.44v26.44M120 641.88v26.44M254.5 641.88v26.44M389 641.88v26.44M120 668.32v26.44M254.5 668.32v26.44M389 668.32v26.44M120 694.76v26.44M254.5 694.76v26.44M389 694.76v26.44M120 721.2v26.45M254.5 721.2v26.45M389 721.2v26.45M120 560h134.5M254.5 560H389M120 589h134.5M254.5 589H389M120 615.44h134.5M254.5 615.44H389M120 641.88h134.5M254.5 641.88H389M120 668.32h134.5M254.5 668.32H389M120 694.76h134.5M254.5 694.76H389M120 721.2h134.5M120 747.65h134.5M254.5 721.2H389M254.5 747.65H389" stroke="#000" fill="none"/><g><use xlink:href="#au" transform="matrix(1,0,0,1,259.5,565) translate(48.70355555555556 13.368444444444444)"/></g><g><use xlink:href="#av" transform="matrix(1,0,0,1,125,594) translate(44.12488888888889 12.368444444444444)"/><use xlink:href="#aw" transform="matrix(1,0,0,1,125,594) translate(77.21822222222221 12.368444444444444)"/></g><g><use xlink:href="#ax" transform="matrix(1,0,0,1,259.5,594) translate(30.902666666666676 12.368444444444444)"/></g><g><use xlink:href="#av" transform="matrix(1,0,0,1,125,620.4408888888889) translate(41.70711111111112 12.368444444444444)"/><use xlink:href="#ay" transform="matrix(1,0,0,1,125,620.4408888888889) translate(74.80044444444445 12.368444444444444)"/></g><g><use xlink:href="#ax" transform="matrix(1,0,0,1,259.5,620.4408888888889) translate(30.902666666666676 12.368444444444444)"/></g><g><use xlink:href="#av" transform="matrix(1,0,0,1,125,646.8817777777778) translate(41.70711111111112 12.368444444444444)"/><use xlink:href="#az" transform="matrix(1,0,0,1,125,646.8817777777778) translate(74.80044444444445 12.368444444444444)"/></g><g><use xlink:href="#aA" transform="matrix(1,0,0,1,259.5,646.8817777777778) translate(28.60577777777779 12.368444444444444)"/></g><g><use xlink:href="#aB" transform="matrix(1,0,0,1,125,673.3226666666667) translate(35.85911111111112 12.368444444444444)"/><use xlink:href="#aC" transform="matrix(1,0,0,1,125,673.3226666666667) translate(61.548 12.368444444444444)"/></g><g><use xlink:href="#aD" transform="matrix(1,0,0,1,259.5,673.3226666666667) translate(29.134666666666675 12.368444444444444)"/></g><g><use xlink:href="#aE" transform="matrix(1,0,0,1,125,699.7635555555555) translate(22.561333333333337 12.368444444444444)"/><use xlink:href="#aF" transform="matrix(1,0,0,1,125,699.7635555555555) translate(87.32755555555555 12.368444444444444)"/></g><g><use xlink:href="#aG" transform="matrix(1,0,0,1,259.5,699.7635555555555) translate(30.101777777777784 12.368444444444444)"/></g><g><use xlink:href="#au" transform="matrix(1,0,0,1,125,726.2044444444444) translate(48.70355555555556 12.368444444444444)"/></g><g><use xlink:href="#aH" transform="matrix(1,0,0,1,259.5,726.2044444444444) translate(28.877777777777787 12.368444444444444)"/></g><g><path d="M887.98 158.45V120L839 139.22z" fill="#c92d39"/></g><defs><path d="M35-314c7-101 62-164 168-164 45 0 84 14 116 42 103-96 282-19 282 122v258c3 35-41 70-80 46-17-11-26-26-26-46v-258c-8-40-18-58-62-58-85 0-62 94-62 169 0 35-39 66-80 46-66-32 29-215-88-215-43 0-62 29-62 58v258c6 34-41 70-80 46-17-11-26-26-26-46v-258" id="aI"/><path d="M444-238c0-129-68-236-202-236-128 0-198 99-198 236C44-99 110 0 242 0c134 0 202-97 202-238zm-296 8c0-84 25-138 94-138 65 0 98 43 98 130 0 89-33 134-98 134-63 0-94-42-94-126" id="aJ"/><path d="M100 0C72 2 48-20 48-52v-228c1-106 78-194 188-186 116 9 186 69 186 186v228c2 28-23 50-52 52s-50-21-50-52v-228c-3-49-31-79-84-82-51-3-84 28-84 82v228c1 27-23 49-52 52" id="aK"/><path d="M96-472c9-75-31-188 52-192 30-1 54 24 54 54v138c49 2 94-8 114 28 20 38-13 86-48 78h-66v208c-3 48 28 61 70 48 39-12 80 23 68 66-9 33-40 40-76 44C160 9 96-57 96-158v-208c-38 1-63 2-78-26-21-40 11-83 46-80h32" id="aL"/><path d="M242-372c-58-4-84 46-84 86v230c5 48-63 73-94 36-8-9-12-21-12-36v-552c0-27 18-55 52-54 86 1 44 128 54 206 134-67 276 36 276 170v230c8 36-41 70-78 48-19-11-28-27-28-48v-230c-10-62-27-82-86-86" id="aM"/><g id="a"><use transform="matrix(0.015111111111111108,0,0,0.015111111111111108,0,0)" xlink:href="#aI"/><use transform="matrix(0.015111111111111108,0,0,0.015111111111111108,9.489777777777777,0)" xlink:href="#aJ"/><use transform="matrix(0.015111111111111108,0,0,0.015111111111111108,16.77333333333333,0)" xlink:href="#aK"/><use transform="matrix(0.015111111111111108,0,0,0.015111111111111108,23.815111111111108,0)" xlink:href="#aL"/><use transform="matrix(0.015111111111111108,0,0,0.015111111111111108,29.04355555555555,0)" xlink:href="#aM"/></g><path d="M48-348C48-142 124 0 316 0c56 0 105-16 148-48 80-59 120-158 120-298-1-142-40-243-120-302-84-63-215-63-298 2C88-586 48-488 48-348zm424 2c0 138-34 234-156 234-107 0-159-78-156-234 3-143 36-238 156-238 121 0 156 95 156 238" id="aN"/><path d="M142-668c28-1 54 26 54 54v558c4 35-41 72-80 48-19-11-26-27-26-48v-504c-39 1-67 2-82-26-23-39 9-79 46-80" id="aO"/><g id="b"><use transform="matrix(0.015111111111111108,0,0,0.015111111111111108,0,0)" xlink:href="#aN"/><use transform="matrix(0.015111111111111108,0,0,0.015111111111111108,9.489777777777777,0)" xlink:href="#aO"/></g><path d="M35-314c7-101 62-164 168-164 45 0 84 14 116 42 103-96 282-19 282 122v258c3 35-41 70-80 46-17-11-26-26-26-46v-258c-8-40-18-58-62-58-85 0-62 94-62 169 0 35-39 66-80 46-66-32 29-215-88-215-43 0-62 29-62 58v258c6 34-41 70-80 46-17-11-26-26-26-46v-258" id="aP"/><g id="c"><use transform="matrix(0.015111111111111108,0,0,0.015111111111111108,0,0)" xlink:href="#aP"/><use transform="matrix(0.015111111111111108,0,0,0.015111111111111108,9.489777777777777,0)" xlink:href="#aJ"/><use transform="matrix(0.015111111111111108,0,0,0.015111111111111108,16.77333333333333,0)" xlink:href="#aK"/><use transform="matrix(0.015111111111111108,0,0,0.015111111111111108,23.815111111111108,0)" xlink:href="#aL"/><use transform="matrix(0.015111111111111108,0,0,0.015111111111111108,29.04355555555555,0)" xlink:href="#aM"/></g><path d="M272-360c92 0 139-24 140-112 0-77-31-116-92-116H200c-17 1-36 2-40 16 5 38-46 75-84 50-18-12-28-27-28-50 0-78 69-128 152-128h120c124 0 207 97 204 228-3 145-96 226-252 224-97-2-118 33-112 132h308c37-4 72 44 48 84-11 19-27 28-48 28H102C73-3 48-25 48-60v-98c1-137 82-202 224-202" id="aQ"/><g id="d"><use transform="matrix(0.015111111111111108,0,0,0.015111111111111108,0,0)" xlink:href="#aN"/><use transform="matrix(0.015111111111111108,0,0,0.015111111111111108,9.489777777777777,0)" xlink:href="#aQ"/></g><path d="M220 0C135 1 40-52 40-128c0-37 46-76 86-50 18 10 27 25 28 46 36 27 106 20 164 20 61 0 90-46 90-112 0-84-28-54-140-62-46 7-67-71-34-98 8-11 19-16 34-16 113 0 140 11 140-68 0-70-26-113-92-114-58-1-128-10-162 16 4 36-43 75-84 50-20-12-30-29-30-50 0-78 90-130 180-130h98c122 1 206 100 202 228-1 54-11 92-40 122 32 29 38 65 40 122C523-101 438 2 316 0h-96" id="aR"/><g id="e"><use transform="matrix(0.015111111111111108,0,0,0.015111111111111108,0,0)" xlink:href="#aN"/><use transform="matrix(0.015111111111111108,0,0,0.015111111111111108,9.489777777777777,0)" xlink:href="#aR"/></g><path d="M470-644c4-51-65-75-98-36L84-342c-35 33-52 68-52 104 0 49 37 86 90 86h238c4 54-14 119 26 140 42 22 84-12 84-48v-92c42 0 73 5 90-26 24-42-10-84-48-84h-42v-382zM360-494v232H160" id="aS"/><g id="f"><use transform="matrix(0.015111111111111108,0,0,0.015111111111111108,0,0)" xlink:href="#aN"/><use transform="matrix(0.015111111111111108,0,0,0.015111111111111108,9.489777777777777,0)" xlink:href="#aS"/></g><path d="M108-340c-33 1-56-24-56-58v-242c-2-30 20-56 48-56h372c37-4 71 44 48 84-11 20-27 28-48 28H162v132h116c156-2 250 78 250 228C528-100 435 1 312 0H204C124 2 52-52 52-128c0-38 44-76 84-50 17 11 26 27 26 50 5 13 24 15 42 16h108c63 0 106-47 104-112-1-91-41-116-138-116H108" id="aT"/><g id="g"><use transform="matrix(0.015111111111111108,0,0,0.015111111111111108,0,0)" xlink:href="#aN"/><use transform="matrix(0.015111111111111108,0,0,0.015111111111111108,9.489777777777777,0)" xlink:href="#aT"/></g><path d="M504-202c7-113-90-202-212-202-40 0-83 8-130 24v-112c-1-62 54-90 116-90 61 0 117 31 114 90-2 36 45 73 84 48 18-11 28-27 28-48 4-111-101-202-226-202-121 0-226 74-226 182v288C51-83 142 13 300 0c127-11 197-79 204-202zm-204 90c-101 10-146-35-138-136 0-5 3-9 8-12 21-17 77-32 132-32 54 0 90 33 90 90 0 61-37 84-92 90" id="aU"/><g id="h"><use transform="matrix(0.015111111111111108,0,0,0.015111111111111108,0,0)" xlink:href="#aN"/><use transform="matrix(0.015111111111111108,0,0,0.015111111111111108,9.489777777777777,0)" xlink:href="#aU"/></g><path d="M90-572c-70 9-80-112-6-112h444c41-6 75 50 46 88L136-12C103 41 13-5 36-58c3-7 5-14 8-22l372-492H90" id="aV"/><g id="i"><use transform="matrix(0.015111111111111108,0,0,0.015111111111111108,0,0)" xlink:href="#aN"/><use transform="matrix(0.015111111111111108,0,0,0.015111111111111108,9.489777777777777,0)" xlink:href="#aV"/></g><path d="M548-494c0-124-105-210-248-206-141 4-243 68-248 206-2 60 21 110 66 150-47 28-70 82-70 144C48-59 153 0 300 0c142 0 252-62 252-200 0-65-23-119-70-146 44-41 66-91 66-148zm-384 2c0-79 67-96 136-96 74 0 138 22 138 94 0 83-72 97-156 94-69-3-118-19-118-92zm120 204c88 0 156 9 156 88 0 59-47 88-140 88-87 0-140-14-140-88 0-53 41-88 124-88" id="aW"/><g id="j"><use transform="matrix(0.015111111111111108,0,0,0.015111111111111108,0,0)" xlink:href="#aN"/><use transform="matrix(0.015111111111111108,0,0,0.015111111111111108,9.489777777777777,0)" xlink:href="#aW"/></g><path d="M256 0c117 0 224-77 224-184v-284c1-146-89-238-248-226-122 9-197 75-202 202-5 118 91 209 212 200 74-5 87-2 126-24v114c8 95-137 115-196 66-37-31-90-7-92 36-1 21 5 39 24 52 43 32 93 48 152 48zm112-444c-18 29-73 40-138 40-52 0-90-30-90-88 0-80 60-93 140-90 73 3 92 59 88 138" id="aX"/><g id="k"><use transform="matrix(0.015111111111111108,0,0,0.015111111111111108,0,0)" xlink:href="#aN"/><use transform="matrix(0.015111111111111108,0,0,0.015111111111111108,9.489777777777777,0)" xlink:href="#aX"/></g><g id="l"><use transform="matrix(0.015111111111111108,0,0,0.015111111111111108,0,0)" xlink:href="#aO"/><use transform="matrix(0.015111111111111108,0,0,0.015111111111111108,3.656888888888888,0)" xlink:href="#aN"/></g><g id="m"><use transform="matrix(0.015111111111111108,0,0,0.015111111111111108,0,0)" xlink:href="#aO"/><use transform="matrix(0.015111111111111108,0,0,0.015111111111111108,3.656888888888888,0)" xlink:href="#aO"/></g><g id="n"><use transform="matrix(0.015111111111111108,0,0,0.015111111111111108,0,0)" xlink:href="#aO"/><use transform="matrix(0.015111111111111108,0,0,0.015111111111111108,3.656888888888888,0)" xlink:href="#aQ"/></g><path fill="#fcd116" d="M240-106c48-10 84-25 84-86v-230c-5-33 43-71 80-48 19 12 28 28 28 48v392c-3 145-47 207-190 214-62 3-117-5-168-34-34-19-34-75 2-92 18-9 35-11 52 2 22 17 149 28 178 4 12-11 18-39 18-84C166 43 48-69 48-238v-184c0-30 19-52 52-54 30-1 56 25 56 54 0 124-33 306 84 316" id="aY"/><path fill="#fcd116" d="M246-480C110-480 39-375 42-230 45-109 117-9 234-2c91 6 123-6 170-38 34-23 22-80-10-92-20-7-38-4-54 10-10 9-62 16-106 12s-71-33-80-78h218c37 1 53-28 52-72-4-121-55-220-178-220zm-92 186c7-44 38-80 90-78 48 3 67 29 74 78H154" id="aZ"/><path fill="#fcd116" d="M406-264c-6-104-69-188-176-192C94-461 18-307 50-156 72-53 181 35 304-20c9 35 63 47 88 18 9-12 14-31 14-58v-204zm-180-84c70 10 81 51 74 154-4 58-22 89-84 84-68-5-76-111-60-182 7-33 32-53 70-56" id="ba"/><path fill="#fcd116" d="M48-284c8-117 73-192 192-192 73 0 129 33 166 98 39 68-65 118-94 48-13-31-33-37-72-38-62-1-88 32-88 84v230c5 35-42 70-78 46-17-11-26-26-26-46v-230" id="bb"/><g id="o"><use transform="matrix(0.015111111111111108,0,0,0.015111111111111108,0,0)" xlink:href="#aY"/><use transform="matrix(0.015111111111111108,0,0,0.015111111111111108,7.283555555555554,0)" xlink:href="#aZ"/><use transform="matrix(0.015111111111111108,0,0,0.015111111111111108,14.385777777777776,0)" xlink:href="#ba"/><use transform="matrix(0.015111111111111108,0,0,0.015111111111111108,21.185777777777773,0)" xlink:href="#bb"/></g><path fill="#fcd116" d="M142-668c28-1 54 26 54 54v558c4 35-41 72-80 48-19-11-26-27-26-48v-504c-39 1-67 2-82-26-23-39 9-79 46-80" id="bc"/><use transform="matrix(0.015111111111111108,0,0,0.015111111111111108,0,0)" xlink:href="#bc" id="p"/><use transform="matrix(0.015111111111111108,0,0,0.015111111111111108,0,0)" xlink:href="#aS" id="q"/><path d="M100 0C72 2 48-20 48-52v-228c1-106 78-194 188-186 116 9 186 69 186 186v228c2 28-23 50-52 52s-50-21-50-52v-228c-3-49-31-79-84-82-51-3-84 28-84 82v228c1 27-23 49-52 52" id="bd"/><path d="M226 0c131 9 198-83 198-218v-386c0-31-24-56-54-56-81 1-43 133-52 208-29-13-58-20-86-20-129 0-188 103-190 236C40-110 110-8 226 0zm6-368c53 8 86 27 86 86v64c1 80-21 113-86 114-60-12-82-65-84-132-2-77 25-123 84-132" id="be"/><path d="M246-480C110-480 39-375 42-230 45-109 117-9 234-2c91 6 123-6 170-38 34-23 22-80-10-92-20-7-38-4-54 10-10 9-62 16-106 12s-71-33-80-78h218c37 1 53-28 52-72-4-121-55-220-178-220zm-92 186c7-44 38-80 90-78 48 3 67 29 74 78H154" id="bf"/><g id="r"><use transform="matrix(0.015111111111111108,0,0,0.015111111111111108,0,0)" xlink:href="#bd"/><use transform="matrix(0.015111111111111108,0,0,0.015111111111111108,7.041777777777776,0)" xlink:href="#aJ"/><use transform="matrix(0.015111111111111108,0,0,0.015111111111111108,14.32533333333333,0)" xlink:href="#be"/><use transform="matrix(0.015111111111111108,0,0,0.015111111111111108,21.45777777777777,0)" xlink:href="#bf"/></g><path fill="#fcd116" d="M272-360c92 0 139-24 140-112 0-77-31-116-92-116H200c-17 1-36 2-40 16 5 38-46 75-84 50-18-12-28-27-28-50 0-78 69-128 152-128h120c124 0 207 97 204 228-3 145-96 226-252 224-97-2-118 33-112 132h308c37-4 72 44 48 84-11 19-27 28-48 28H102C73-3 48-25 48-60v-98c1-137 82-202 224-202" id="bg"/><use transform="matrix(0.015111111111111108,0,0,0.015111111111111108,0,0)" xlink:href="#bg" id="s"/><use transform="matrix(0.015111111111111108,0,0,0.015111111111111108,0,0)" xlink:href="#aR" id="t"/><path fill="#fcd116" d="M220 0C135 1 40-52 40-128c0-37 46-76 86-50 18 10 27 25 28 46 36 27 106 20 164 20 61 0 90-46 90-112 0-84-28-54-140-62-46 7-67-71-34-98 8-11 19-16 34-16 113 0 140 11 140-68 0-70-26-113-92-114-58-1-128-10-162 16 4 36-43 75-84 50-20-12-30-29-30-50 0-78 90-130 180-130h98c122 1 206 100 202 228-1 54-11 92-40 122 32 29 38 65 40 122C523-101 438 2 316 0h-96" id="bh"/><use transform="matrix(0.015111111111111108,0,0,0.015111111111111108,0,0)" xlink:href="#bh" id="u"/><path fill="#fff" d="M256 0c117 0 224-77 224-184v-284c1-146-89-238-248-226-122 9-197 75-202 202-5 118 91 209 212 200 74-5 87-2 126-24v114c8 95-137 115-196 66-37-31-90-7-92 36-1 21 5 39 24 52 43 32 93 48 152 48zm112-444c-18 29-73 40-138 40-52 0-90-30-90-88 0-80 60-93 140-90 73 3 92 59 88 138" id="bi"/><path fill="#fff" d="M548-494c0-124-105-210-248-206-141 4-243 68-248 206-2 60 21 110 66 150-47 28-70 82-70 144C48-59 153 0 300 0c142 0 252-62 252-200 0-65-23-119-70-146 44-41 66-91 66-148zm-384 2c0-79 67-96 136-96 74 0 138 22 138 94 0 83-72 97-156 94-69-3-118-19-118-92zm120 204c88 0 156 9 156 88 0 59-47 88-140 88-87 0-140-14-140-88 0-53 41-88 124-88" id="bj"/><g id="v"><use transform="matrix(0.015111111111111108,0,0,0.015111111111111108,0,0)" xlink:href="#bi"/><use transform="matrix(0.015111111111111108,0,0,0.015111111111111108,7.9786666666666655,0)" xlink:href="#bj"/></g><path fill="#fff" d="M504-202c7-113-90-202-212-202-40 0-83 8-130 24v-112c-1-62 54-90 116-90 61 0 117 31 114 90-2 36 45 73 84 48 18-11 28-27 28-48 4-111-101-202-226-202-121 0-226 74-226 182v288C51-83 142 13 300 0c127-11 197-79 204-202zm-204 90c-101 10-146-35-138-136 0-5 3-9 8-12 21-17 77-32 132-32 54 0 90 33 90 90 0 61-37 84-92 90" id="bk"/><g id="w"><use transform="matrix(0.015111111111111108,0,0,0.015111111111111108,0,0)" xlink:href="#bi"/><use transform="matrix(0.015111111111111108,0,0,0.015111111111111108,7.9786666666666655,0)" xlink:href="#bk"/></g><path fill="#fff" d="M272-360c92 0 139-24 140-112 0-77-31-116-92-116H200c-17 1-36 2-40 16 5 38-46 75-84 50-18-12-28-27-28-50 0-78 69-128 152-128h120c124 0 207 97 204 228-3 145-96 226-252 224-97-2-118 33-112 132h308c37-4 72 44 48 84-11 19-27 28-48 28H102C73-3 48-25 48-60v-98c1-137 82-202 224-202" id="bl"/><g id="x"><use transform="matrix(0.015111111111111108,0,0,0.015111111111111108,0,0)" xlink:href="#bi"/><use transform="matrix(0.015111111111111108,0,0,0.015111111111111108,7.9786666666666655,0)" xlink:href="#bl"/></g><g id="y"><use transform="matrix(0.015111111111111108,0,0,0.015111111111111108,0,0)" xlink:href="#bj"/><use transform="matrix(0.015111111111111108,0,0,0.015111111111111108,9.00622222222222,0)" xlink:href="#bl"/></g><g id="z"><use transform="matrix(0.015111111111111108,0,0,0.015111111111111108,0,0)" xlink:href="#bj"/><use transform="matrix(0.015111111111111108,0,0,0.015111111111111108,9.00622222222222,0)" xlink:href="#bj"/></g><path fill="#fff" d="M48-348C48-142 124 0 316 0c56 0 105-16 148-48 80-59 120-158 120-298-1-142-40-243-120-302-84-63-215-63-298 2C88-586 48-488 48-348zm424 2c0 138-34 234-156 234-107 0-159-78-156-234 3-143 36-238 156-238 121 0 156 95 156 238" id="bm"/><g id="A"><use transform="matrix(0.015111111111111108,0,0,0.015111111111111108,0,0)" xlink:href="#bj"/><use transform="matrix(0.015111111111111108,0,0,0.015111111111111108,9.00622222222222,0)" xlink:href="#bm"/></g><path fill="#fff" d="M470-644c4-51-65-75-98-36L84-342c-35 33-52 68-52 104 0 49 37 86 90 86h238c4 54-14 119 26 140 42 22 84-12 84-48v-92c42 0 73 5 90-26 24-42-10-84-48-84h-42v-382zM360-494v232H160" id="bn"/><g id="B"><use transform="matrix(0.015111111111111108,0,0,0.015111111111111108,0,0)" xlink:href="#bi"/><use transform="matrix(0.015111111111111108,0,0,0.015111111111111108,7.9786666666666655,0)" xlink:href="#bn"/></g><g id="C"><use transform="matrix(0.015111111111111108,0,0,0.015111111111111108,0,0)" xlink:href="#bj"/><use transform="matrix(0.015111111111111108,0,0,0.015111111111111108,9.00622222222222,0)" xlink:href="#bk"/></g><path fill="#fff" d="M90-572c-70 9-80-112-6-112h444c41-6 75 50 46 88L136-12C103 41 13-5 36-58c3-7 5-14 8-22l372-492H90" id="bo"/><g id="D"><use transform="matrix(0.015111111111111108,0,0,0.015111111111111108,0,0)" xlink:href="#bo"/><use transform="matrix(0.015111111111111108,0,0,0.015111111111111108,8.885333333333332,0)" xlink:href="#bk"/></g><g id="E"><use transform="matrix(0.015111111111111108,0,0,0.015111111111111108,0,0)" xlink:href="#bo"/><use transform="matrix(0.015111111111111108,0,0,0.015111111111111108,8.885333333333332,0)" xlink:href="#bj"/></g><g id="F"><use transform="matrix(0.015111111111111108,0,0,0.015111111111111108,0,0)" xlink:href="#bk"/><use transform="matrix(0.015111111111111108,0,0,0.015111111111111108,8.250666666666666,0)" xlink:href="#bl"/></g><g id="G"><use transform="matrix(0.015111111111111108,0,0,0.015111111111111108,0,0)" xlink:href="#bk"/><use transform="matrix(0.015111111111111108,0,0,0.015111111111111108,8.250666666666666,0)" xlink:href="#bj"/></g><path fill="#fff" d="M108-340c-33 1-56-24-56-58v-242c-2-30 20-56 48-56h372c37-4 71 44 48 84-11 20-27 28-48 28H162v132h116c156-2 250 78 250 228C528-100 435 1 312 0H204C124 2 52-52 52-128c0-38 44-76 84-50 17 11 26 27 26 50 5 13 24 15 42 16h108c63 0 106-47 104-112-1-91-41-116-138-116H108" id="bp"/><g id="H"><use transform="matrix(0.015111111111111108,0,0,0.015111111111111108,0,0)" xlink:href="#bp"/><use transform="matrix(0.015111111111111108,0,0,0.015111111111111108,8.58311111111111,0)" xlink:href="#bj"/></g><g id="I"><use transform="matrix(0.015111111111111108,0,0,0.015111111111111108,0,0)" xlink:href="#bo"/><use transform="matrix(0.015111111111111108,0,0,0.015111111111111108,8.885333333333332,0)" xlink:href="#bn"/></g><g id="J"><use transform="matrix(0.015111111111111108,0,0,0.015111111111111108,0,0)" xlink:href="#bk"/><use transform="matrix(0.015111111111111108,0,0,0.015111111111111108,8.250666666666666,0)" xlink:href="#bk"/></g><path d="M406-264c-6-104-69-188-176-192C94-461 18-307 50-156 72-53 181 35 304-20c9 35 63 47 88 18 9-12 14-31 14-58v-204zm-180-84c70 10 81 51 74 154-4 58-22 89-84 84-68-5-76-111-60-182 7-33 32-53 70-56" id="bq"/><path d="M26-446c14-35 67-39 90-10l108 134 108-134c25-34 80-22 92 14 7 19 3 36-10 52L292-238 414-88c29 31 6 83-32 86-20 2-37-2-50-18L224-154 116-20C91 12 36 1 24-34c-7-20-3-38 10-54l122-150L34-390c-15-17-16-36-8-56" id="br"/><g id="K"><use transform="matrix(0.01577777777777778,0,0,0.01577777777777778,0,0)" xlink:href="#aI"/><use transform="matrix(0.01577777777777778,0,0,0.01577777777777778,9.908444444444445,0)" xlink:href="#bq"/><use transform="matrix(0.01577777777777778,0,0,0.01577777777777778,17.008444444444446,0)" xlink:href="#br"/></g><path d="M42-240c0-133 72-236 200-236 55 0 138 20 138 80 0 37-48 68-84 40-84-37-155 17-148 118 6 84 22 125 94 132 44 4 65-38 106-20 35 16 43 72 6 92-35 20-71 34-112 34C108 0 42-96 42-240" id="bs"/><path d="M428-238c2-132-67-230-190-236-127-7-190 87-190 218v388c-4 36 42 70 80 46 16-11 24-26 24-46V-20c29 13 58 20 86 20 128 0 188-97 190-238zM238-106c-61-12-84-26-86-86-4-101 6-206 108-172 43 14 62 61 62 126-1 75-23 124-84 132" id="bt"/><path d="M48-420c-1-32 21-54 52-56 29-2 56 25 56 56v228c2 55 29 86 84 86 58 0 84-34 84-86v-228c-5-35 43-71 80-48 18 11 28 27 28 48v228C421-78 360-5 240 0 133 5 48-83 48-192v-228" id="bu"/><g id="L"><use transform="matrix(0.01577777777777778,0,0,0.01577777777777778,0,0)" xlink:href="#bs"/><use transform="matrix(0.01577777777777778,0,0,0.01577777777777778,6.626666666666667,0)" xlink:href="#bt"/><use transform="matrix(0.01577777777777778,0,0,0.01577777777777778,14.010666666666669,0)" xlink:href="#bu"/></g><path d="M406-264c-6-104-69-188-176-192C94-461 18-307 50-156 72-53 181 35 304-20c9 35 63 47 88 18 9-12 14-31 14-58v-204zm-180-84c70 10 81 51 74 154-4 58-22 89-84 84-68-5-76-111-60-182 7-33 32-53 70-56" id="bv"/><path d="M48-284c8-117 73-192 192-192 73 0 129 33 166 98 39 68-65 118-94 48-13-31-33-37-72-38-62-1-88 32-88 84v230c5 35-42 70-78 46-17-11-26-26-26-46v-230" id="bw"/><g id="M"><use transform="matrix(0.01577777777777778,0,0,0.01577777777777778,0,0)" xlink:href="#bs"/><use transform="matrix(0.01577777777777778,0,0,0.01577777777777778,6.626666666666667,0)" xlink:href="#aM"/><use transform="matrix(0.01577777777777778,0,0,0.01577777777777778,14.168444444444447,0)" xlink:href="#bv"/><use transform="matrix(0.01577777777777778,0,0,0.01577777777777778,21.268444444444448,0)" xlink:href="#bw"/><use transform="matrix(0.01577777777777778,0,0,0.01577777777777778,28.36844444444445,0)" xlink:href="#aL"/></g><path d="M20-338c3-94 78-140 178-140 77 0 173 51 158 108 0 36-63 59-88 26-26-60-173-40-138 36 16 11 42 16 78 14 100-6 166 53 176 146C402 16 70 51 20-94c-14-41 56-88 90-48 24 28 62 37 120 30 30-4 58-21 46-56-12-13-33-20-64-20-118 0-195-49-192-150" id="bx"/><g id="N"><use transform="matrix(0.018,0,0,0.018,0,0)" xlink:href="#bs"/><use transform="matrix(0.018,0,0,0.018,7.56,0)" xlink:href="#aJ"/><use transform="matrix(0.018,0,0,0.018,16.236,0)" xlink:href="#bx"/><use transform="matrix(0.018,0,0,0.018,23.688,0)" xlink:href="#aL"/></g><path d="M20-338c3-94 78-140 178-140 77 0 173 51 158 108 0 36-63 59-88 26-26-60-173-40-138 36 16 11 42 16 78 14 100-6 166 53 176 146C402 16 70 51 20-94c-14-41 56-88 90-48 24 28 62 37 120 30 30-4 58-21 46-56-12-13-33-20-64-20-118 0-195-49-192-150" id="by"/><path d="M16-416c-15-58 84-101 104-40 46 142 58 242 100 318 3 4 5 2 8-6 29-63 61-157 94-284 1-53 69-78 102-34 10 13 15 25 12 40-25 111-86 317-142 386-24 29-55 43-94 32-36-10-71-55-94-110-31-75-57-177-90-302" id="bz"/><path d="M158-606c0-67-89-86-102-26-21 45 25 100 76 72 18-10 26-26 26-46zm0 184c0-28-23-54-54-54-30 0-52 24-52 54v368c-3 35 41 70 80 46 17-11 26-26 26-46v-368" id="bA"/><path d="M206 184c176 15 218-72 218-236v-204c1-123-58-220-178-220-135 0-201 97-204 238C39-108 112 0 234 0c31 0 59-9 84-20-12 90-3 98-100 98-22 0-39-9-54-18l2 6c-18-35-80-36-92 2-25 82 61 110 132 116zm-58-416c-1-82 25-136 96-138 77-2 76 88 76 178 0 62-38 79-86 86-56-8-85-50-86-126" id="bB"/><g id="O"><use transform="matrix(0.018,0,0,0.018,0,0)" xlink:href="#by"/><use transform="matrix(0.018,0,0,0.018,7.451999999999999,0)" xlink:href="#bv"/><use transform="matrix(0.018,0,0,0.018,15.552,0)" xlink:href="#bz"/><use transform="matrix(0.018,0,0,0.018,23.759999999999998,0)" xlink:href="#bA"/><use transform="matrix(0.018,0,0,0.018,27.432,0)" xlink:href="#aK"/><use transform="matrix(0.018,0,0,0.018,35.82,0)" xlink:href="#bB"/></g><path d="M700-433c119 0 153 92 153 222C853-83 817 6 697 6 580 6 544-86 544-211c0-133 33-222 156-222zM258 0h-78l450-689h78zM36-475c-3-131 36-219 156-219 119 0 153 92 153 219 0 128-36 219-153 219-119 0-156-92-156-219zM697-47c78 0 83-81 83-164 0-86-3-167-81-167-81 0-86 81-86 167 0 81 6 164 83 164zM192-311c75 0 78-83 81-164 0-86-3-167-81-167-81 0-83 83-83 167 0 83 6 164 83 164" id="bC"/><g id="P"><use transform="matrix(0.018,0,0,0.018,0,0)" xlink:href="#aQ"/><use transform="matrix(0.018,0,0,0.018,10.116,0)" xlink:href="#aT"/><use transform="matrix(0.018,0,0,0.018,20.339999999999993,0)" xlink:href="#bC"/></g><path d="M38-284c8-116 73-192 190-192 75 0 131 33 168 98 39 70-65 118-96 48-14-31-30-37-72-38-60-1-86 33-86 84v230c5 35-42 70-78 46-17-11-26-26-26-46v-230" id="bD"/><path d="M48-420c-1-32 21-54 52-56 29-2 56 25 56 56v228c2 55 29 86 84 86 58 0 84-34 84-86v-228c-5-35 43-71 80-48 18 11 28 27 28 48v228C421-78 360-5 240 0 133 5 48-83 48-192v-228" id="bE"/><path d="M42-240c0-133 72-236 200-236 55 0 138 20 138 80 0 37-48 68-84 40-84-37-155 17-148 118 6 84 22 125 94 132 44 4 65-38 106-20 35 16 43 72 6 92-35 20-71 34-112 34C108 0 42-96 42-240" id="bF"/><g id="Q"><use transform="matrix(0.018,0,0,0.018,0,0)" xlink:href="#bD"/><use transform="matrix(0.018,0,0,0.018,7.271999999999999,0)" xlink:href="#bf"/><use transform="matrix(0.018,0,0,0.018,15.732,0)" xlink:href="#be"/><use transform="matrix(0.018,0,0,0.018,24.227999999999998,0)" xlink:href="#bE"/><use transform="matrix(0.018,0,0,0.018,32.796,0)" xlink:href="#bF"/><use transform="matrix(0.018,0,0,0.018,40.356,0)" xlink:href="#bf"/></g><path d="M240-106c48-10 84-25 84-86v-230c-5-33 43-71 80-48 19 12 28 28 28 48v392c-3 145-47 207-190 214-62 3-117-5-168-34-34-19-34-75 2-92 18-9 35-11 52 2 22 17 149 28 178 4 12-11 18-39 18-84C166 43 48-69 48-238v-184c0-30 19-52 52-54 30-1 56 25 56 54 0 124-33 306 84 316" id="bG"/><g id="R"><use transform="matrix(0.018,0,0,0.018,0,0)" xlink:href="#bx"/><use transform="matrix(0.018,0,0,0.018,7.451999999999999,0)" xlink:href="#bG"/><use transform="matrix(0.018,0,0,0.018,15.803999999999998,0)" xlink:href="#bx"/><use transform="matrix(0.018,0,0,0.018,23.255999999999997,0)" xlink:href="#aL"/><use transform="matrix(0.018,0,0,0.018,29.483999999999995,0)" xlink:href="#bf"/><use transform="matrix(0.018,0,0,0.018,37.943999999999996,0)" xlink:href="#aP"/></g><g id="S"><use transform="matrix(0.018,0,0,0.018,0,0)" xlink:href="#aQ"/><use transform="matrix(0.018,0,0,0.018,10.116,0)" xlink:href="#aT"/><use transform="matrix(0.018,0,0,0.018,20.339999999999993,0)" xlink:href="#bC"/></g><path d="M50-218C48-89 119 9 248 0c120-9 178-103 184-238 7-158-126-282-276-216v-150c1-31-27-56-54-56-31-1-52 24-52 56v386zm190 114c-85 12-84-88-84-180 0-58 37-80 84-84 63 11 86 53 86 130 0 76-26 125-86 134" id="bH"/><g id="T"><use transform="matrix(0.01577777777777778,0,0,0.01577777777777778,0,0)" xlink:href="#bH"/><use transform="matrix(0.01577777777777778,0,0,0.01577777777777778,7.447111111111112,0)" xlink:href="#bE"/><use transform="matrix(0.01577777777777778,0,0,0.01577777777777778,14.957333333333334,0)" xlink:href="#bx"/><use transform="matrix(0.01577777777777778,0,0,0.01577777777777778,21.489333333333335,0)" xlink:href="#bA"/><use transform="matrix(0.01577777777777778,0,0,0.01577777777777778,24.708000000000002,0)" xlink:href="#aK"/><use transform="matrix(0.01577777777777778,0,0,0.01577777777777778,32.06044444444445,0)" xlink:href="#bf"/><use transform="matrix(0.01577777777777778,0,0,0.01577777777777778,39.476000000000006,0)" xlink:href="#bx"/><use transform="matrix(0.01577777777777778,0,0,0.01577777777777778,46.00800000000001,0)" xlink:href="#bx"/></g><path d="M242-372c-58-4-84 46-84 86v230c5 48-63 73-94 36-8-9-12-21-12-36v-552c0-27 18-55 52-54 86 1 44 128 54 206 134-67 276 36 276 170v230c8 36-41 70-78 48-19-11-28-27-28-48v-230c-10-62-27-82-86-86" id="bI"/><g id="U"><use transform="matrix(0.01577777777777778,0,0,0.01577777777777778,0,0)" xlink:href="#bI"/><use transform="matrix(0.01577777777777778,0,0,0.01577777777777778,7.541777777777779,0)" xlink:href="#aJ"/><use transform="matrix(0.01577777777777778,0,0,0.01577777777777778,15.146666666666668,0)" xlink:href="#bE"/><use transform="matrix(0.01577777777777778,0,0,0.01577777777777778,22.656888888888894,0)" xlink:href="#bw"/><use transform="matrix(0.01577777777777778,0,0,0.01577777777777778,29.756888888888895,0)" xlink:href="#bx"/></g><path d="M444-238c0-129-68-236-202-236-128 0-198 99-198 236C44-99 110 0 242 0c134 0 202-97 202-238zm-296 8c0-84 25-138 94-138 65 0 98 43 98 130 0 89-33 134-98 134-63 0-94-42-94-126" id="bJ"/><path d="M284-552c-41-10-77-3-72 48v50c53 5 111-15 132 26s-13 80-46 80h-86v296c5 38-41 71-80 48-17-11-26-27-26-48v-296c-44 7-83-33-60-80 11-23 30-28 60-26-15-145 57-230 206-202 38 7 58 63 24 92-16 14-32 17-52 12" id="bK"/><path d="M276-184H86c-39 4-74-43-50-84 11-19 29-28 50-28h190c37-4 72 44 48 84-11 19-27 28-48 28" id="bL"/><path d="M428-238c2-132-67-230-190-236-127-7-190 87-190 218v388c-4 36 42 70 80 46 16-11 24-26 24-46V-20c29 13 58 20 86 20 128 0 188-97 190-238zM238-106c-61-12-84-26-86-86-4-101 6-206 108-172 43 14 62 61 62 126-1 75-23 124-84 132" id="bM"/><path d="M38-616c-1-30 21-52 52-54 28-2 54 26 54 54v294l170-162c42-43 113 13 86 60-4 7-7 13-12 18L264-290 414-86c43 52-43 122-86 64L186-216l-42 40c-7 61 19 142-26 168-40 23-80-11-80-46v-562" id="bN"/><g id="V"><use transform="matrix(0.01577777777777778,0,0,0.01577777777777778,0,0)" xlink:href="#bJ"/><use transform="matrix(0.01577777777777778,0,0,0.01577777777777778,7.6048888888888895,0)" xlink:href="#bK"/><use transform="matrix(0.01577777777777778,0,0,0.01577777777777778,13.758222222222223,0)" xlink:href="#bK"/><use transform="matrix(0.01577777777777778,0,0,0.01577777777777778,18.049777777777777,0)" xlink:href="#bL"/><use transform="matrix(0.01577777777777778,0,0,0.01577777777777778,23.666666666666664,0)" xlink:href="#bM"/><use transform="matrix(0.01577777777777778,0,0,0.01577777777777778,31.050666666666665,0)" xlink:href="#bf"/><use transform="matrix(0.01577777777777778,0,0,0.01577777777777778,38.46622222222222,0)" xlink:href="#bv"/><use transform="matrix(0.01577777777777778,0,0,0.01577777777777778,45.56622222222222,0)" xlink:href="#bN"/></g><path d="M34-412c-8-31 18-62 52-62 26 0 51 19 52 48 2 90-5 183 2 270 3 40 25 54 80 50 50-3 41-90 44-146 2-32 55-54 84-28 36 21 10 108 30 150 8 17 31 25 72 24 24 0 42-23 42-54v-246c-20-75 106-96 106-22v236C606-77 535 3 430 2c-45 0-83-16-114-44-52 50-137 57-200 22-48-26-82-67-82-132v-260" id="bO"/><g id="W"><use transform="matrix(0.01577777777777778,0,0,0.01577777777777778,0,0)" xlink:href="#bO"/><use transform="matrix(0.01577777777777778,0,0,0.01577777777777778,9.782222222222224,0)" xlink:href="#bf"/><use transform="matrix(0.01577777777777778,0,0,0.01577777777777778,17.19777777777778,0)" xlink:href="#bf"/><use transform="matrix(0.01577777777777778,0,0,0.01577777777777778,24.613333333333337,0)" xlink:href="#bN"/><use transform="matrix(0.01577777777777778,0,0,0.01577777777777778,31.49244444444445,0)" xlink:href="#bf"/><use transform="matrix(0.01577777777777778,0,0,0.01577777777777778,38.908,0)" xlink:href="#aK"/><use transform="matrix(0.01577777777777778,0,0,0.01577777777777778,46.260444444444445,0)" xlink:href="#be"/><use transform="matrix(0.01577777777777778,0,0,0.01577777777777778,53.70755555555556,0)" xlink:href="#bx"/></g><path d="M284-552c-41-10-77-3-72 48v50c53 5 111-15 132 26s-13 80-46 80h-86v296c5 38-41 71-80 48-17-11-26-27-26-48v-296c-44 7-83-33-60-80 11-23 30-28 60-26-15-145 57-230 206-202 38 7 58 63 24 92-16 14-32 17-52 12" id="bP"/><g id="X"><use transform="matrix(0.01577777777777778,0,0,0.01577777777777778,0,0)" xlink:href="#bP"/><use transform="matrix(0.01577777777777778,0,0,0.01577777777777778,6.153333333333334,0)" xlink:href="#bw"/><use transform="matrix(0.01577777777777778,0,0,0.01577777777777778,13.253333333333334,0)" xlink:href="#bA"/><use transform="matrix(0.01577777777777778,0,0,0.01577777777777778,16.472,0)" xlink:href="#be"/><use transform="matrix(0.01577777777777778,0,0,0.01577777777777778,23.919111111111114,0)" xlink:href="#bv"/><use transform="matrix(0.01577777777777778,0,0,0.01577777777777778,31.019111111111116,0)" xlink:href="#bG"/><use transform="matrix(0.01577777777777778,0,0,0.01577777777777778,38.34,0)" xlink:href="#bx"/></g><path d="M556-596c7-57-9-101-58-100-44 1-62 46-54 100-123-9-196 44-196 152 0 95 80 168 196 152v84c-63 7-150-20-176 28-22 42 11 84 50 84h126c-12 62 22 121 84 92 31-15 29-49 28-92 122 8 190-47 196-152 6-97-82-168-196-154v-82c63-6 137 18 164-28 25-42-16-84-50-84H556zM402-402c-1-1-43-12-38-18-7-13-5-54 8-56-15 8-12 6 8-4 16-8 42-3 64-4v82h-42zm154 110c42 0 87-2 84 44-2 20-2 33-20 32-14 13-40 7-64 8v-84" id="bQ"/><path d="M140-60c0 66-88 81-104 24-14-49 29-99 78-72 18 10 26 27 26 48" id="bR"/><g id="Y"><use transform="matrix(0.01577777777777778,0,0,0.01577777777777778,0,0)" xlink:href="#bQ"/><use transform="matrix(0.01577777777777778,0,0,0.01577777777777778,15.777777777777779,0)" xlink:href="#aN"/><use transform="matrix(0.01577777777777778,0,0,0.01577777777777778,25.686222222222224,0)" xlink:href="#bR"/><use transform="matrix(0.01577777777777778,0,0,0.01577777777777778,28.77866666666667,0)" xlink:href="#aN"/><use transform="matrix(0.01577777777777778,0,0,0.01577777777777778,38.687111111111115,0)" xlink:href="#aN"/></g><path d="M42-56c4-71-15-156 58-156 30 0 58 27 56 58-5 56 15 124-28 146-41 21-88-10-86-48" id="bS"/><g id="Z"><use transform="matrix(0.01577777777777778,0,0,0.01577777777777778,0,0)" xlink:href="#bQ"/><use transform="matrix(0.01577777777777778,0,0,0.01577777777777778,15.777777777777779,0)" xlink:href="#aQ"/><use transform="matrix(0.01577777777777778,0,0,0.01577777777777778,24.644888888888893,0)" xlink:href="#aU"/><use transform="matrix(0.01577777777777778,0,0,0.01577777777777778,33.259555555555565,0)" xlink:href="#bS"/><use transform="matrix(0.01577777777777778,0,0,0.01577777777777778,36.88844444444445,0)" xlink:href="#aW"/><use transform="matrix(0.01577777777777778,0,0,0.01577777777777778,46.29200000000001,0)" xlink:href="#aS"/><use transform="matrix(0.01577777777777778,0,0,0.01577777777777778,55.75866666666668,0)" xlink:href="#aN"/></g><g id="aa"><use transform="matrix(0.01577777777777778,0,0,0.01577777777777778,0,0)" xlink:href="#bQ"/><use transform="matrix(0.01577777777777778,0,0,0.01577777777777778,15.777777777777779,0)" xlink:href="#aS"/><use transform="matrix(0.01577777777777778,0,0,0.01577777777777778,25.244444444444447,0)" xlink:href="#aW"/><use transform="matrix(0.01577777777777778,0,0,0.01577777777777778,34.648,0)" xlink:href="#bS"/><use transform="matrix(0.01577777777777778,0,0,0.01577777777777778,38.27688888888889,0)" xlink:href="#aW"/><use transform="matrix(0.01577777777777778,0,0,0.01577777777777778,47.68044444444445,0)" xlink:href="#aN"/><use transform="matrix(0.01577777777777778,0,0,0.01577777777777778,57.58888888888889,0)" xlink:href="#aN"/></g><g id="ab"><use transform="matrix(0.01577777777777778,0,0,0.01577777777777778,0,0)" xlink:href="#bQ"/><use transform="matrix(0.01577777777777778,0,0,0.01577777777777778,15.777777777777779,0)" xlink:href="#aQ"/><use transform="matrix(0.01577777777777778,0,0,0.01577777777777778,24.644888888888893,0)" xlink:href="#aQ"/><use transform="matrix(0.01577777777777778,0,0,0.01577777777777778,33.51200000000001,0)" xlink:href="#bS"/><use transform="matrix(0.01577777777777778,0,0,0.01577777777777778,37.140888888888895,0)" xlink:href="#aW"/><use transform="matrix(0.01577777777777778,0,0,0.01577777777777778,46.54444444444445,0)" xlink:href="#aN"/><use transform="matrix(0.01577777777777778,0,0,0.01577777777777778,56.45288888888889,0)" xlink:href="#aN"/></g><path d="M274 9c-32 0-59-20-60-47v-201L33-570c-35-54 58-108 98-61l144 283 145-283c35-45 131 2 98 61L330-228v190c0 26-27 47-56 47" id="bT"/><path d="M416-640c36-1 57 20 57 54 0 32-22 53-57 52H192v157c77 10 208-33 208 54-1 84-132 42-208 52v165h224c36-1 57 20 57 54 0 32-22 53-57 52H135c-31 2-59-20-60-47v-546c1-27 29-47 60-47h281" id="bU"/><path d="M555-55c18 61-95 89-113 30l-36-116H188L151-24c-8 40-88 43-107 6-7-13-10-25-7-36l196-554c10-54 111-53 130 0zM219-239h156l-77-248" id="bV"/><path d="M133 10c-31 0-59-23-60-50v-553c7-73 126-47 201-47 150 0 247 52 244 201-2 82-37 121-106 146L523-66c31 54-74 111-101 54L310-252c-37 2-80 0-120 1v216c-1 27-27 45-57 45zm268-439c7-116-96-115-211-111v193c99 2 205 7 211-82" id="bW"/><g id="ac"><use transform="matrix(0.01577777777777778,0,0,0.01577777777777778,0,0)" xlink:href="#bT"/><use transform="matrix(0.01577777777777778,0,0,0.01577777777777778,8.677777777777779,0)" xlink:href="#bU"/><use transform="matrix(0.01577777777777778,0,0,0.01577777777777778,16.882222222222225,0)" xlink:href="#bV"/><use transform="matrix(0.01577777777777778,0,0,0.01577777777777778,26.22266666666667,0)" xlink:href="#bW"/></g><path d="M304 10C149 10 63-85 63-240v-160c4-155 82-250 241-250 160 0 243 95 243 250v160C541-85 460 10 304 10zm0-551c-91 0-126 42-126 131v181c1 88 37 131 126 131 92 0 126-41 126-131v-181c-1-90-34-131-126-131" id="bX"/><path d="M31-586c2-87 136-45 215-54 29-3 56 21 56 47v556c0 26-27 47-56 47-32 0-59-20-60-47v-497c-66-2-156 17-155-52" id="bY"/><g id="ad"><use transform="matrix(0.01577777777777778,0,0,0.01577777777777778,0,0)" xlink:href="#bX"/><use transform="matrix(0.01577777777777778,0,0,0.01577777777777778,9.624444444444446,0)" xlink:href="#bY"/></g><path d="M272-510c133 0 212 77 212 203 0 61-19 85-78 85H169C145-90 297-58 394-117c46-28 91 30 53 68-35 35-94 59-164 59C150 10 62-61 53-190v-106c9-131 86-214 219-214zm101 201c17-98-114-134-173-75-18 19-28 44-31 75h204" id="bZ"/><path d="M277 10C133 9 58-68 55-208v-84c3-140 78-217 222-218 66-1 117 17 148 50 41 44-12 117-71 80-20-13-43-21-77-21-98 0-104 84-104 187 0 104 99 144 184 97 52-29 106 26 71 74-26 35-89 53-151 53" id="ca"/><path d="M282 8C112 8 45-97 55-281c8-144 79-229 227-229 171 0 237 112 227 298C501-71 426 8 282 8zm0-413c-99 0-109 86-109 194 0 71 40 115 109 115s109-44 109-115c0-108-9-194-109-194" id="cb"/><path d="M335-32c-11 53-109 53-130 0L44-446c-18-61 93-89 113-30l113 340 112-340c8-40 89-43 108-6 7 13 10 25 6 36" id="cc"/><path d="M73-312c2-133 72-198 213-198 71 0 125 47 85 102-18 16-56 7-85 7-64 0-96 21-96 85v279c0 26-27 47-57 47-31 0-59-20-60-47v-275" id="cd"/><path d="M386-468c0-24 30-43 59-43 30 0 58 21 58 47V35c4 169-168 212-332 173-51-23-42-104 23-99 26 1 63 8 98 8 91 0 101-67 94-158l-5-2C352-10 320 9 259 9 124 11 73-68 73-201v-263c0-26 30-47 60-47s58 21 58 47v267c1 65 26 98 94 97 52-1 90-27 101-72v-296" id="ce"/><g id="ae"><use transform="matrix(0.01577777777777778,0,0,0.01577777777777778,0,0)" xlink:href="#bW"/><use transform="matrix(0.01577777777777778,0,0,0.01577777777777778,8.898666666666667,0)" xlink:href="#bZ"/><use transform="matrix(0.01577777777777778,0,0,0.01577777777777778,17.371333333333332,0)" xlink:href="#ca"/><use transform="matrix(0.01577777777777778,0,0,0.01577777777777778,24.78688888888889,0)" xlink:href="#cb"/><use transform="matrix(0.01577777777777778,0,0,0.01577777777777778,33.44888888888889,0)" xlink:href="#cc"/><use transform="matrix(0.01577777777777778,0,0,0.01577777777777778,41.73222222222223,0)" xlink:href="#bZ"/><use transform="matrix(0.01577777777777778,0,0,0.01577777777777778,50.204888888888895,0)" xlink:href="#cd"/><use transform="matrix(0.01577777777777778,0,0,0.01577777777777778,56.405555555555566,0)" xlink:href="#ce"/></g><path d="M23-455c0-39 34-50 78-45-8-142 48-201 179-200 55 1 111 14 111 64 0 29-16 48-46 48-26 0-38-8-65-8-61 0-66 36-63 96 55 0 120-11 120 45 0 58-64 47-120 47v371c0 26-27 47-56 47-32 0-59-20-60-47v-371c-45 5-78-6-78-47" id="cf"/><g id="af"><use transform="matrix(0.01577777777777778,0,0,0.01577777777777778,0,0)" xlink:href="#cf"/><use transform="matrix(0.01577777777777778,0,0,0.01577777777777778,5.964,0)" xlink:href="#cb"/><use transform="matrix(0.01577777777777778,0,0,0.01577777777777778,14.862666666666668,0)" xlink:href="#cd"/></g><path d="M601 10c-29 0-56-21-56-47v-419L433-223c-11 33-70 60-105 29-11-9-20-18-25-29L192-456v419c0 26-27 47-57 47-31 0-59-20-60-47v-566c-1-63 123-59 146-12l147 296 147-296c15-25 44-42 86-35 32-2 59 20 60 47v566c-1 27-28 47-60 47" id="cg"/><path d="M506-32c-1 27-28 48-60 47-35-1-61-24-56-63l-9-3c-25 39-64 63-131 61C96 5 48-109 61-279c10-140 88-231 235-231 134 0 210 66 210 198v280zM275-99c71-4 115-44 115-117v-94c1-65-32-91-94-91-72 0-115 48-115 118v96c-1 48 44 90 94 88" id="ch"/><path d="M70-290c4-140 80-220 222-220 141 0 222 71 222 210v263c0 26-30 47-60 47s-58-21-58-47v-257c2-69-41-107-104-107s-105 38-105 107v257c0 26-27 47-57 47-31 0-59-20-60-47v-253" id="ci"/><path d="M288-511c132 0 210 62 210 190V0c5 179-157 254-332 203-53-15-42-104 22-99 28 2 51 8 89 8 94 0 112-64 105-161l-4-2c-23 37-63 61-127 61C102 10 44-104 55-268c10-147 82-243 233-243zm0 109c-97 4-115 86-115 197 0 71 35 106 104 106 60 0 105-37 105-101v-125c0-55-38-79-94-77" id="cj"/><path d="M52-218c-9-175 43-291 207-293 55-1 98 27 124 56l7-1v-183c0-26 27-47 56-47 32 0 59 20 60 47v431C502-68 427 10 285 10 137 10 59-73 52-218zm118 4c-1 69 46 116 115 115 62-1 105-36 105-105v-96c0-65-44-101-105-102-69-1-115 46-115 115v73" id="ck"/><g id="ag"><use transform="matrix(0.01577777777777778,0,0,0.01577777777777778,0,0)" xlink:href="#cg"/><use transform="matrix(0.01577777777777778,0,0,0.01577777777777778,11.612444444444446,0)" xlink:href="#ch"/><use transform="matrix(0.01577777777777778,0,0,0.01577777777777778,20.763555555555556,0)" xlink:href="#ci"/><use transform="matrix(0.01577777777777778,0,0,0.01577777777777778,29.977777777777778,0)" xlink:href="#ch"/><use transform="matrix(0.01577777777777778,0,0,0.01577777777777778,39.12888888888889,0)" xlink:href="#cj"/><use transform="matrix(0.01577777777777778,0,0,0.01577777777777778,48.090666666666664,0)" xlink:href="#bZ"/><use transform="matrix(0.01577777777777778,0,0,0.01577777777777778,56.56333333333333,0)" xlink:href="#ck"/></g><path d="M473-171C473 40 163 57 62-75c-25-33-13-92 40-85 48 6 58 40 102 56 61 22 161 17 152-60-13-106-149-103-217-158-40-32-76-69-76-141 0-153 142-218 291-175 55 16 102 47 115 101-1 32-16 56-50 52-61-6-76-64-156-59-71-9-111 84-61 127 92 78 271 74 271 246" id="cl"/><path d="M140 10c-31 0-59-20-60-47v-426c1-27 29-47 60-47 30 0 56 21 57 47v426c0 26-27 47-57 47zm0-582c-40-1-65-25-60-71 3-27 29-48 60-47 39 1 61 26 57 71-3 26-27 48-57 47" id="cm"/><path d="M404-217C463-98 373 18 239 10 158 5 85-11 55-62c-27-46 38-90 79-56 28 37 173 57 176-18-16-77-128-64-182-104-34-25-64-53-63-113 0-99 79-161 184-157 82 3 161 17 161 94 0 40-56 46-83 24-33-27-152-33-143 35 7 49 75 50 119 67 42 16 82 35 101 73" id="cn"/><g id="ah"><use transform="matrix(0.01577777777777778,0,0,0.01577777777777778,0,0)" xlink:href="#cl"/><use transform="matrix(0.01577777777777778,0,0,0.01577777777777778,8.251777777777779,0)" xlink:href="#bZ"/><use transform="matrix(0.01577777777777778,0,0,0.01577777777777778,16.724444444444444,0)" xlink:href="#cd"/><use transform="matrix(0.01577777777777778,0,0,0.01577777777777778,23.524666666666665,0)" xlink:href="#cc"/><use transform="matrix(0.01577777777777778,0,0,0.01577777777777778,32.044666666666664,0)" xlink:href="#cm"/><use transform="matrix(0.01577777777777778,0,0,0.01577777777777778,36.41511111111111,0)" xlink:href="#ca"/><use transform="matrix(0.01577777777777778,0,0,0.01577777777777778,43.830666666666666,0)" xlink:href="#bZ"/><use transform="matrix(0.01577777777777778,0,0,0.01577777777777778,52.303333333333335,0)" xlink:href="#cn"/></g><path d="M240-106c48-10 84-25 84-86v-230c-5-33 43-71 80-48 19 12 28 28 28 48v392c-3 145-47 207-190 214-62 3-117-5-168-34-34-19-34-75 2-92 18-9 35-11 52 2 22 17 149 28 178 4 12-11 18-39 18-84C166 43 48-69 48-238v-184c0-30 19-52 52-54 30-1 56 25 56 54 0 124-33 306 84 316" id="co"/><path d="M36-252C28-80 147 32 328-6c40-8 95-30 92-82-2-40-54-63-86-34-10 10-62 16-106 12s-71-33-80-78h218c36 1 54-27 54-72 0-121-57-220-180-220-128 0-198 95-204 228zm112-42c8-45 37-81 92-78 46 3 65 30 72 78H148" id="cp"/><g id="ai"><use transform="matrix(0.018,0,0,0.018,0,0)" xlink:href="#co"/><use transform="matrix(0.018,0,0,0.018,8.676,0)" xlink:href="#cp"/><use transform="matrix(0.018,0,0,0.018,16.956,0)" xlink:href="#bq"/><use transform="matrix(0.018,0,0,0.018,25.055999999999997,0)" xlink:href="#bD"/></g><g id="aj"><use transform="matrix(0.018,0,0,0.018,0,0)" xlink:href="#aN"/><use transform="matrix(0.018,0,0,0.018,11.303999999999998,0)" xlink:href="#aR"/></g><g id="ak"><use transform="matrix(0.018,0,0,0.018,0,0)" xlink:href="#bD"/><use transform="matrix(0.018,0,0,0.018,7.271999999999999,0)" xlink:href="#bf"/><use transform="matrix(0.018,0,0,0.018,15.732,0)" xlink:href="#bF"/><use transform="matrix(0.018,0,0,0.018,23.291999999999998,0)" xlink:href="#aJ"/><use transform="matrix(0.018,0,0,0.018,31.967999999999996,0)" xlink:href="#bz"/><use transform="matrix(0.018,0,0,0.018,40.175999999999995,0)" xlink:href="#bf"/><use transform="matrix(0.018,0,0,0.018,48.635999999999996,0)" xlink:href="#bw"/><use transform="matrix(0.018,0,0,0.018,56.736,0)" xlink:href="#bG"/></g><g id="al"><use transform="matrix(0.018,0,0,0.018,0,0)" xlink:href="#bK"/><use transform="matrix(0.018,0,0,0.018,7.02,0)" xlink:href="#aJ"/><use transform="matrix(0.018,0,0,0.018,15.695999999999998,0)" xlink:href="#bw"/></g><g id="am"><use transform="matrix(0.018,0,0,0.018,0,0)" xlink:href="#aI"/><use transform="matrix(0.018,0,0,0.018,11.303999999999998,0)" xlink:href="#bv"/><use transform="matrix(0.018,0,0,0.018,19.403999999999993,0)" xlink:href="#aK"/><use transform="matrix(0.018,0,0,0.018,27.791999999999994,0)" xlink:href="#bv"/><use transform="matrix(0.018,0,0,0.018,35.891999999999996,0)" xlink:href="#bB"/><use transform="matrix(0.018,0,0,0.018,44.38799999999999,0)" xlink:href="#bf"/><use transform="matrix(0.018,0,0,0.018,52.847999999999985,0)" xlink:href="#be"/></g><g id="an"><use transform="matrix(0.018,0,0,0.018,0,0)" xlink:href="#by"/><use transform="matrix(0.018,0,0,0.018,7.451999999999999,0)" xlink:href="#bf"/><use transform="matrix(0.018,0,0,0.018,15.911999999999999,0)" xlink:href="#bw"/><use transform="matrix(0.018,0,0,0.018,24.012000000000004,0)" xlink:href="#bz"/><use transform="matrix(0.018,0,0,0.018,32.22,0)" xlink:href="#bA"/><use transform="matrix(0.018,0,0,0.018,35.891999999999996,0)" xlink:href="#bF"/><use transform="matrix(0.018,0,0,0.018,43.452,0)" xlink:href="#bf"/><use transform="matrix(0.018,0,0,0.018,51.912,0)" xlink:href="#bx"/></g><path d="M22-586c0-33 23-54 57-54h366c37-1 58 19 58 54 1 79-117 44-189 52v497c0 26-27 47-57 47-32 0-59-20-60-47v-497c-70-5-175 23-175-52" id="cq"/><path d="M317 10C151 10 69-86 65-250v-140c4-164 86-260 252-260 167 0 250 95 254 260v140C567-85 484 10 317 10zm0-551c-92 0-137 49-137 151v141c-2 102 45 151 137 151 94 0 137-49 137-151v-141c1-103-43-151-137-151" id="cr"/><path d="M129 0C99-1 75-20 75-47v-556c1-27 28-47 60-47 29 0 57 21 57 47v497h213c36-1 57 20 57 54 0 32-22 53-57 52H129" id="cs"/><g id="ao"><use transform="matrix(0.018,0,0,0.018,0,0)" xlink:href="#cq"/><use transform="matrix(0.018,0,0,0.018,9.27,0)" xlink:href="#cr"/><use transform="matrix(0.018,0,0,0.018,20.232,0)" xlink:href="#cq"/><use transform="matrix(0.018,0,0,0.018,28.836,0)" xlink:href="#bV"/><use transform="matrix(0.018,0,0,0.018,39.492,0)" xlink:href="#cs"/></g><g id="ap"><use transform="matrix(0.018,0,0,0.018,0,0)" xlink:href="#bW"/><use transform="matrix(0.018,0,0,0.018,10.152,0)" xlink:href="#bZ"/><use transform="matrix(0.018,0,0,0.018,19.817999999999998,0)" xlink:href="#ca"/><use transform="matrix(0.018,0,0,0.018,28.278,0)" xlink:href="#cb"/><use transform="matrix(0.018,0,0,0.018,38.16,0)" xlink:href="#cc"/><use transform="matrix(0.018,0,0,0.018,47.61,0)" xlink:href="#bZ"/><use transform="matrix(0.018,0,0,0.018,57.27599999999999,0)" xlink:href="#cd"/><use transform="matrix(0.018,0,0,0.018,64.35,0)" xlink:href="#ce"/></g><path d="M249-492c75 0 42 98 49 162 65 8 172-26 171 47-1 70-107 38-171 45-7 64 25 163-49 163-72 0-40-100-47-163-65-8-170 27-171-45-1-74 106-39 171-47 7-64-26-162 47-162" id="ct"/><use transform="matrix(0.018,0,0,0.018,0,0)" xlink:href="#ct" id="aq"/><path d="M370 1C190 40 63-60 63-233v-174c0-172 127-275 307-234 53 12 103 39 109 98 2 25-18 42-40 42-59-1-76-47-142-44-71 3-117 50-117 131v189c-3 81 46 126 117 130 69 4 85-38 143-41 44-2 48 52 26 80-21 27-56 48-96 57" id="cu"/><path d="M514-210C510-70 434 10 292 10S70-70 70-210v-252c1-27 29-47 60-47 30 0 56 21 57 47v256c-2 69 42 107 105 107s104-38 104-107v-256c-1-62 118-61 118 0v252" id="cv"/><path d="M140 10c-31 0-59-20-60-47v-596c1-27 29-47 60-47 30 0 56 21 57 47v596c0 26-27 47-57 47" id="cw"/><path d="M20-455c0-41 37-50 83-45v-103c1-27 28-47 60-47 30 0 56 21 57 47v103c54 0 117-10 117 45 0 57-62 47-117 47v242c1 46 6 69 43 72 45-5 114-22 110 40-4 56-61 64-120 64-114 0-149-57-150-180v-238c-46 5-84-4-83-47" id="cx"/><g id="ar"><use transform="matrix(0.018,0,0,0.018,0,0)" xlink:href="#cu"/><use transform="matrix(0.018,0,0,0.018,8.982,0)" xlink:href="#cb"/><use transform="matrix(0.018,0,0,0.018,19.133999999999997,0)" xlink:href="#ci"/><use transform="matrix(0.018,0,0,0.018,29.646,0)" xlink:href="#cn"/><use transform="matrix(0.018,0,0,0.018,38.141999999999996,0)" xlink:href="#cv"/><use transform="matrix(0.018,0,0,0.018,48.653999999999996,0)" xlink:href="#cw"/><use transform="matrix(0.018,0,0,0.018,53.63999999999999,0)" xlink:href="#cx"/><use transform="matrix(0.018,0,0,0.018,61.092,0)" xlink:href="#cm"/><use transform="matrix(0.018,0,0,0.018,66.07799999999999,0)" xlink:href="#ci"/><use transform="matrix(0.018,0,0,0.018,76.58999999999999,0)" xlink:href="#cj"/></g><g id="as"><use transform="matrix(0.018,0,0,0.018,0,0)" xlink:href="#bW"/><use transform="matrix(0.018,0,0,0.018,10.152,0)" xlink:href="#bZ"/><use transform="matrix(0.018,0,0,0.018,19.637999999999998,0)" xlink:href="#cc"/><use transform="matrix(0.018,0,0,0.018,29.087999999999997,0)" xlink:href="#bZ"/><use transform="matrix(0.018,0,0,0.018,38.754,0)" xlink:href="#ci"/><use transform="matrix(0.018,0,0,0.018,49.266,0)" xlink:href="#cv"/><use transform="matrix(0.018,0,0,0.018,59.778,0)" xlink:href="#bZ"/></g><path d="M298-11c21 38 62 80 26 121-57 37-92-34-118-70-113-161-114-482 0-636 24-32 47-74 91-82 38 1 55 49 31 79-103 134-122 424-30 588" id="cy"/><path d="M374-176c5-84-70-105-162-100-33 2-57-15-57-47 0-50 47-49 98-49 57 0 103-28 98-89-4-52-39-87-98-87-64 0-86 45-141 47-40 1-51-49-26-78 35-40 93-71 167-71 132 0 216 53 214 186-1 67-43 113-95 135 72 20 116 70 116 155C488-16 336 35 178 0 121-13 60-40 52-99c-7-53 69-59 101-27 22 22 58 36 98 37 71 2 119-29 123-87" id="cz"/><path d="M84-293c0-30 21-54 47-54h178c36-1 57 20 57 54 0 32-22 53-57 52H131c-25 0-47-24-47-52" id="cA"/><path d="M136 110c-38-39 7-83 27-121 74-136 83-372 11-513-13-46-80-95-38-142 32-36 71 12 90 32 151 160 142 558 0 712-22 24-58 65-90 32" id="cB"/><g id="at"><use transform="matrix(0.018,0,0,0.018,0,0)" xlink:href="#cy"/><use transform="matrix(0.018,0,0,0.018,7.739999999999999,0)" xlink:href="#cz"/><use transform="matrix(0.018,0,0,0.018,17.477999999999998,0)" xlink:href="#cA"/><use transform="matrix(0.018,0,0,0.018,24.84,0)" xlink:href="#bT"/><use transform="matrix(0.018,0,0,0.018,34.739999999999995,0)" xlink:href="#bU"/><use transform="matrix(0.018,0,0,0.018,44.099999999999994,0)" xlink:href="#bV"/><use transform="matrix(0.018,0,0,0.018,54.75599999999999,0)" xlink:href="#bW"/><use transform="matrix(0.018,0,0,0.018,64.90799999999999,0)" xlink:href="#cl"/><use transform="matrix(0.018,0,0,0.018,74.32199999999999,0)" xlink:href="#cB"/></g><path d="M96-472c9-75-31-188 52-192 30-1 54 24 54 54v138c49 2 94-8 114 28 20 38-13 86-48 78h-66v208c-3 48 28 61 70 48 39-12 80 23 68 66-9 33-40 40-76 44C160 9 96-57 96-158v-208c-38 1-63 2-78-26-21-40 11-83 46-80h32" id="cC"/><path d="M104-2c28 1 52-19 52-50v-548c0-30-19-53-52-54-27-1-53 19-52 54v548C51-25 72-2 104-2" id="cD"/><g id="au"><use transform="matrix(0.015111111111111108,0,0,0.015111111111111108,0,0)" xlink:href="#cC"/><use transform="matrix(0.015111111111111108,0,0,0.015111111111111108,5.228444444444444,0)" xlink:href="#bJ"/><use transform="matrix(0.015111111111111108,0,0,0.015111111111111108,12.511999999999997,0)" xlink:href="#cC"/><use transform="matrix(0.015111111111111108,0,0,0.015111111111111108,17.740444444444442,0)" xlink:href="#bq"/><use transform="matrix(0.015111111111111108,0,0,0.015111111111111108,24.54044444444444,0)" xlink:href="#cD"/></g><g id="av"><use transform="matrix(0.015111111111111108,0,0,0.015111111111111108,0,0)" xlink:href="#co"/><use transform="matrix(0.015111111111111108,0,0,0.015111111111111108,7.283555555555554,0)" xlink:href="#bf"/><use transform="matrix(0.015111111111111108,0,0,0.015111111111111108,14.385777777777776,0)" xlink:href="#bv"/><use transform="matrix(0.015111111111111108,0,0,0.015111111111111108,21.185777777777773,0)" xlink:href="#bw"/></g><use transform="matrix(0.015111111111111108,0,0,0.015111111111111108,0,0)" xlink:href="#aO" id="aw"/><g id="ax"><use transform="matrix(0.015111111111111108,0,0,0.015111111111111108,0,0)" xlink:href="#bQ"/><use transform="matrix(0.015111111111111108,0,0,0.015111111111111108,15.111111111111109,0)" xlink:href="#aX"/><use transform="matrix(0.015111111111111108,0,0,0.015111111111111108,23.089777777777776,0)" xlink:href="#aW"/><use transform="matrix(0.015111111111111108,0,0,0.015111111111111108,32.096,0)" xlink:href="#bS"/><use transform="matrix(0.015111111111111108,0,0,0.015111111111111108,35.57155555555555,0)" xlink:href="#aS"/><use transform="matrix(0.015111111111111108,0,0,0.015111111111111108,44.63822222222221,0)" xlink:href="#aS"/><use transform="matrix(0.015111111111111108,0,0,0.015111111111111108,53.704888888888874,0)" xlink:href="#aN"/></g><use transform="matrix(0.015111111111111108,0,0,0.015111111111111108,0,0)" xlink:href="#aQ" id="ay"/><use transform="matrix(0.015111111111111108,0,0,0.015111111111111108,0,0)" xlink:href="#aR" id="az"/><g id="aA"><use transform="matrix(0.015111111111111108,0,0,0.015111111111111108,0,0)" xlink:href="#bQ"/><use transform="matrix(0.015111111111111108,0,0,0.015111111111111108,15.111111111111109,0)" xlink:href="#aO"/><use transform="matrix(0.015111111111111108,0,0,0.015111111111111108,18.767999999999997,0)" xlink:href="#aQ"/><use transform="matrix(0.015111111111111108,0,0,0.015111111111111108,27.26044444444444,0)" xlink:href="#aT"/><use transform="matrix(0.015111111111111108,0,0,0.015111111111111108,35.84355555555555,0)" xlink:href="#bS"/><use transform="matrix(0.015111111111111108,0,0,0.015111111111111108,39.3191111111111,0)" xlink:href="#aN"/><use transform="matrix(0.015111111111111108,0,0,0.015111111111111108,48.80888888888887,0)" xlink:href="#aN"/><use transform="matrix(0.015111111111111108,0,0,0.015111111111111108,58.29866666666665,0)" xlink:href="#aN"/></g><path d="M50-218C48-89 119 9 248 0c120-9 178-103 184-238 7-158-126-282-276-216v-150c1-31-27-56-54-56-31-1-52 24-52 56v386zm190 114c-85 12-84-88-84-180 0-58 37-80 84-84 63 11 86 53 86 130 0 76-26 125-86 134" id="cE"/><g id="aB"><use transform="matrix(0.015111111111111108,0,0,0.015111111111111108,0,0)" xlink:href="#by"/><use transform="matrix(0.015111111111111108,0,0,0.015111111111111108,6.2559999999999985,0)" xlink:href="#bE"/><use transform="matrix(0.015111111111111108,0,0,0.015111111111111108,13.448888888888886,0)" xlink:href="#cE"/></g><path d="M104-2c28 1 52-19 52-50v-548c0-30-19-53-52-54-27-1-53 19-52 54v548C51-25 72-2 104-2" id="cF"/><g id="aC"><use transform="matrix(0.015111111111111108,0,0,0.015111111111111108,0,0)" xlink:href="#cC"/><use transform="matrix(0.015111111111111108,0,0,0.015111111111111108,5.228444444444444,0)" xlink:href="#aJ"/><use transform="matrix(0.015111111111111108,0,0,0.015111111111111108,12.511999999999997,0)" xlink:href="#aL"/><use transform="matrix(0.015111111111111108,0,0,0.015111111111111108,17.740444444444442,0)" xlink:href="#bv"/><use transform="matrix(0.015111111111111108,0,0,0.015111111111111108,24.54044444444444,0)" xlink:href="#cF"/></g><g id="aD"><use transform="matrix(0.015111111111111108,0,0,0.015111111111111108,0,0)" xlink:href="#bQ"/><use transform="matrix(0.015111111111111108,0,0,0.015111111111111108,15.111111111111109,0)" xlink:href="#aQ"/><use transform="matrix(0.015111111111111108,0,0,0.015111111111111108,23.603555555555552,0)" xlink:href="#aQ"/><use transform="matrix(0.015111111111111108,0,0,0.015111111111111108,32.096,0)" xlink:href="#aO"/><use transform="matrix(0.015111111111111108,0,0,0.015111111111111108,35.75288888888888,0)" xlink:href="#bS"/><use transform="matrix(0.015111111111111108,0,0,0.015111111111111108,39.228444444444435,0)" xlink:href="#aW"/><use transform="matrix(0.015111111111111108,0,0,0.015111111111111108,48.234666666666655,0)" xlink:href="#aW"/><use transform="matrix(0.015111111111111108,0,0,0.015111111111111108,57.240888888888875,0)" xlink:href="#aN"/></g><g id="aE"><use transform="matrix(0.015111111111111108,0,0,0.015111111111111108,0,0)" xlink:href="#bs"/><use transform="matrix(0.015111111111111108,0,0,0.015111111111111108,6.346666666666666,0)" xlink:href="#aJ"/><use transform="matrix(0.015111111111111108,0,0,0.015111111111111108,13.63022222222222,0)" xlink:href="#aK"/><use transform="matrix(0.015111111111111108,0,0,0.015111111111111108,20.671999999999997,0)" xlink:href="#bx"/><use transform="matrix(0.015111111111111108,0,0,0.015111111111111108,26.927999999999997,0)" xlink:href="#bE"/><use transform="matrix(0.015111111111111108,0,0,0.015111111111111108,34.120888888888885,0)" xlink:href="#cF"/><use transform="matrix(0.015111111111111108,0,0,0.015111111111111108,37.17333333333333,0)" xlink:href="#aL"/><use transform="matrix(0.015111111111111108,0,0,0.015111111111111108,42.401777777777774,0)" xlink:href="#bA"/><use transform="matrix(0.015111111111111108,0,0,0.015111111111111108,45.48444444444444,0)" xlink:href="#aK"/><use transform="matrix(0.015111111111111108,0,0,0.015111111111111108,52.526222222222216,0)" xlink:href="#bB"/></g><use transform="matrix(0.015111111111111108,0,0,0.015111111111111108,0,0)" xlink:href="#bQ" id="aF"/><g id="aG"><use transform="matrix(0.015111111111111108,0,0,0.015111111111111108,0,0)" xlink:href="#bQ"/><use transform="matrix(0.015111111111111108,0,0,0.015111111111111108,15.111111111111109,0)" xlink:href="#aU"/><use transform="matrix(0.015111111111111108,0,0,0.015111111111111108,23.361777777777775,0)" xlink:href="#aN"/><use transform="matrix(0.015111111111111108,0,0,0.015111111111111108,32.85155555555555,0)" xlink:href="#bS"/><use transform="matrix(0.015111111111111108,0,0,0.015111111111111108,36.3271111111111,0)" xlink:href="#aN"/><use transform="matrix(0.015111111111111108,0,0,0.015111111111111108,45.816888888888876,0)" xlink:href="#aN"/><use transform="matrix(0.015111111111111108,0,0,0.015111111111111108,55.30666666666665,0)" xlink:href="#aN"/></g><g id="aH"><use transform="matrix(0.015111111111111108,0,0,0.015111111111111108,0,0)" xlink:href="#bQ"/><use transform="matrix(0.015111111111111108,0,0,0.015111111111111108,15.111111111111109,0)" xlink:href="#aQ"/><use transform="matrix(0.015111111111111108,0,0,0.015111111111111108,23.603555555555552,0)" xlink:href="#aW"/><use transform="matrix(0.015111111111111108,0,0,0.015111111111111108,32.60977777777777,0)" xlink:href="#aO"/><use transform="matrix(0.015111111111111108,0,0,0.015111111111111108,36.26666666666666,0)" xlink:href="#bS"/><use transform="matrix(0.015111111111111108,0,0,0.015111111111111108,39.74222222222221,0)" xlink:href="#aW"/><use transform="matrix(0.015111111111111108,0,0,0.015111111111111108,48.74844444444443,0)" xlink:href="#aW"/><use transform="matrix(0.015111111111111108,0,0,0.015111111111111108,57.75466666666665,0)" xlink:href="#aN"/></g></defs></g></svg>