<?xml version='1.0' encoding='utf-8'?>
<!-- Generator: imaengine 6.0   -->
<svg xmlns:xlink="http://www.w3.org/1999/xlink" xmlns="http://www.w3.org/2000/svg" viewBox="0,0,264,264" style="enable-background:new 0 0 264 264;" version="1.1">
<defs/>
<g id="layer0">
<path d="M166.274,97.9446C152.295,97.9448 140.963,109.277 140.963,123.256C140.968,124.192 141.026,125.127 141.135,126.057C131.589,127.771 124.427,135.482 124.427,144.79C124.427,155.366 133.671,163.88 145.153,163.88L174.533,163.88L176.14,163.88L219.108,163.88C229.684,163.88 238.198,155.966 238.198,146.136C238.198,136.367 229.789,128.495 219.305,128.397C217.917,117.444 208.601,109.234 197.561,109.233C194.444,109.238 191.364,109.907 188.526,111.197C184.101,103.031 175.561,97.9451 166.273,97.9446L166.274,97.9446L166.274,97.9446Z" fill="#86A3BF"/>
<path d="M144.701,106.112C130.722,106.112 119.39,117.444 119.389,131.423C119.395,132.359 119.453,133.294 119.562,134.224C110.016,135.938 102.854,143.649 102.854,152.957C102.854,163.533 112.098,172.047 123.58,172.047L152.96,172.047L154.567,172.047L197.536,172.047C208.111,172.047 216.625,164.133 216.625,154.303C216.625,144.534 208.216,136.662 197.733,136.564C196.345,125.611 187.028,117.401 175.988,117.4C172.871,117.405 169.791,118.074 166.953,119.364C162.529,111.198 153.988,106.112 144.701,106.112L144.701,106.112L144.701,106.112Z" fill="#C6E0F7"/>
<path d="M135.177,149.232L127.078,149.232C127.356,150.765 128.439,151.703 129.747,151.703C130.579,151.703 131.623,151.597 132.389,150.289L134.899,150.818C133.961,153.037 132.059,154.107 129.734,154.107C126.722,154.107 124.277,151.822 124.277,148.479C124.277,145.137 126.735,142.825 129.773,142.825C132.614,142.825 135.058,145.018 135.163,148.268L135.163,149.232L135.177,149.232L135.177,149.232ZM127.158,147.251L132.297,147.251C131.94,145.89 130.909,145.282 129.786,145.282C128.716,145.295 127.501,145.93 127.158,147.251L127.158,147.251L127.158,147.251Z" fill="#3D4952"/>
<path d="M165.205,153.803L162.391,153.803L162.391,152.892C161.532,153.684 160.37,154.134 158.877,154.134C156.169,154.134 153.658,151.848 153.658,148.506C153.658,145.163 156.169,142.851 158.877,142.851C160.37,142.851 161.545,143.301 162.391,144.093L162.391,139.073L165.205,139.073L165.205,153.803L165.205,153.803ZM162.391,148.493C162.391,146.524 160.872,145.295 159.366,145.295C157.661,145.295 156.38,146.537 156.38,148.493C156.38,150.461 157.661,151.663 159.366,151.663C160.885,151.663 162.391,150.448 162.391,148.493L162.391,148.493L162.391,148.493Z" fill="#3D4952"/>
<path d="M188.231,143.182L188.231,143.182L184.347,143.182L184.347,145.533L188.231,145.533C189.315,145.533 190.041,145.996 190.041,147.066L190.041,147.237L186.976,147.237C184.294,147.237 182.749,148.598 182.749,150.646C182.749,152.733 184.374,154.12 186.805,154.12C188.258,154.12 189.315,153.632 190.041,152.931L190.041,153.803L192.736,153.803L192.736,146.854C192.736,144.318 190.953,143.235 188.231,143.182L188.231,143.182L188.231,143.182ZM190.041,149.497C190.041,150.857 188.747,151.888 187.254,151.888C186.17,151.888 185.444,151.372 185.444,150.593C185.444,149.866 186.038,149.378 186.937,149.378L190.054,149.378L190.054,149.497L190.041,149.497L190.041,149.497Z" fill="#3D4952"/>
<path d="M171.599,143.182L171.599,143.182L167.715,143.182L167.715,145.533L171.599,145.533C172.682,145.533 173.409,145.996 173.409,147.066L173.409,147.237L170.344,147.237C167.662,147.237 166.116,148.598 166.116,150.646C166.116,152.733 167.741,154.12 170.172,154.12C171.625,154.12 172.682,153.632 173.409,152.931L173.409,153.803L176.091,153.803L176.091,146.854C176.091,144.318 174.307,143.235 171.599,143.182L171.599,143.182L171.599,143.182ZM173.409,149.497C173.409,150.857 172.114,151.888 170.621,151.888C169.538,151.888 168.811,151.372 168.811,150.593C168.811,149.866 169.406,149.378 170.304,149.378L173.422,149.378L173.422,149.497L173.409,149.497L173.409,149.497Z" fill="#3D4952"/>
<path d="M148.202,143.182L148.202,143.182L144.318,143.182L144.318,145.533L148.202,145.533C149.286,145.533 150.012,145.996 150.012,147.066L150.012,147.237L146.947,147.237C144.266,147.237 142.72,148.598 142.72,150.646C142.72,152.733 144.345,154.12 146.776,154.12C148.229,154.12 149.286,153.632 150.012,152.931L150.012,153.803L152.707,153.803L152.707,146.854C152.707,144.318 150.924,143.235 148.202,143.182L148.202,143.182L148.202,143.182ZM150.012,149.497C150.012,150.857 148.718,151.888 147.225,151.888C146.142,151.888 145.415,151.372 145.415,150.593C145.415,149.866 146.009,149.378 146.908,149.378L150.025,149.378L150.025,149.497L150.012,149.497L150.012,149.497Z" fill="#3D4952"/>
<path d="M142.812,143.169C141.082,143.169 139.853,143.855 138.994,145.097L138.994,143.155L136.181,143.155L136.181,153.79L138.994,153.79L138.994,150.355C138.994,147.396 140.183,145.533 142.786,145.533L142.918,145.533L142.918,143.169C142.878,143.169 142.852,143.169 142.812,143.169L142.812,143.169L142.812,143.169Z" fill="#3D4952"/>
<path d="M123.749,151.227C123.326,151.386 122.877,151.491 122.534,151.491C121.596,151.491 120.975,150.937 120.975,149.655L120.975,145.454L123.855,145.454L123.855,143.155L120.975,143.155L120.975,140.553L118.161,140.553L118.161,145.467L118.161,149.88C118.161,152.799 119.826,154.12 122.336,154.12C123.221,154.12 124.079,153.935 125.163,153.341C124.595,152.76 124.053,152.046 123.749,151.227L123.749,151.227L123.749,151.227Z" fill="#3D4952"/>
<path d="M181.864,151.465C181.745,151.478 181.639,151.491 181.547,151.491C180.609,151.491 179.988,150.937 179.988,149.655L179.988,145.454L182.947,145.454L182.947,143.155L179.988,143.155L179.988,140.553L177.174,140.553L177.174,145.467L177.174,149.88C177.174,152.799 178.838,154.12 181.348,154.12C181.969,154.12 182.511,154.028 183.158,153.777C182.326,153.182 182.009,152.205 181.864,151.465L181.864,151.465L181.864,151.465Z" fill="#3D4952"/>
<g transform="matrix(0.559713 0 0 0.559713 138.577 88.3637)">
<path d="M24.3083,48.9411L109.164,27.5258L63.7945,76.9365L52.2622,70.6984L39.068,78.001L39.9211,61.2262L24.3083,48.9411Z" fill="#FE453C"/>
<path d="M39.9211,61.2262L109.164,27.5258L45.8978,65.5768L39.068,78.001L39.068,78.001L39.9211,61.2262Z" fill="#AA0000"/>
</g>
<path d="M3.74793,104.85L38.4654,104.85L73.1828,104.85L73.1828,170.66C50.0378,170.66 26.8929,170.66 3.74793,170.66C3.74793,148.723 3.74793,126.786 3.74793,104.85L3.74793,104.85Z" fill="#DCE5EB"/>
<g transform="matrix(0.0662909 0 0 0.0662909 14.2481 86.6075)">
<path d="M428.491,334.912L636.625,334.913L844.759,334.914L844.76,1226.51C706.004,1226.51 567.248,1226.51 428.492,1226.51C428.492,929.311 428.491,632.111 428.491,334.912L428.491,334.912Z" fill="#000000" fill-opacity="0.996078"/>
<path d="M451.894,378.131L636.625,378.132L821.357,378.132C821.357,414.28 821.357,450.427 821.357,486.575C698.203,486.575 575.048,486.576 451.894,486.576C451.894,450.428 451.894,414.279 451.894,378.131L451.894,378.131Z" fill="#222B32" fill-opacity="0.996078"/>
<g transform="matrix(1 0 0 1 0 0)">
<path d="M483.538,799.199L548.502,799.199L613.466,799.2C613.466,934.092 613.466,1068.98 613.466,1203.88C570.157,1203.88 526.847,1203.88 483.538,1203.88C483.538,1068.99 483.538,934.092 483.538,799.199L483.538,799.199Z" fill="#222B32" fill-opacity="0.996078"/>
<path d="M659.785,800.415L789.713,800.416L789.713,1205.09L659.785,1205.09L659.785,800.415L659.785,800.415Z" fill="#222B32" fill-opacity="0.996078"/>
</g>
<path d="M451.894,519.236L821.357,519.237L821.357,627.68L451.894,627.681L451.894,519.236L451.894,519.236Z" fill="#222B32" fill-opacity="0.996078"/>
<path d="M451.894,657.909L636.625,657.909L821.357,657.91C821.357,694.057 821.357,730.205 821.357,766.353C698.203,766.353 575.048,766.353 451.894,766.354C451.894,730.205 451.894,694.057 451.894,657.909L451.894,657.909Z" fill="#222B32" fill-opacity="0.996078"/>
<path d="M679.957,817.768L720.379,817.769L760.8,817.769C760.8,831.108 760.8,844.447 760.8,857.786C733.853,857.786 706.905,857.786 679.957,857.787C679.957,844.447 679.957,831.107 679.957,817.768L679.957,817.768Z" fill="#44C5E5" fill-opacity="0.996078"/>
<path d="M506.101,816.898L586.944,816.899L586.944,856.916L506.101,856.917L506.101,816.898L506.101,816.898Z" fill="#44C5E5" fill-opacity="0.996078"/>
</g>
<g transform="matrix(0.0662909 0 0 0.0662909 14.2481 86.6075)">
<path d="M-106.543,1051.15L131.939,1051.15L370.422,1051.15C370.422,1108.5 370.422,1165.85 370.422,1223.19C211.433,1223.19 52.4452,1223.19 -106.543,1223.2C-106.543,1165.85 -106.543,1108.5 -106.543,1051.15L-106.543,1051.15Z" fill="#7D8B96" fill-opacity="0.996078"/>
<path d="M-92.4855,1061.62L130.25,1061.62L352.985,1061.62C352.985,1110.77 352.985,1159.92 352.985,1209.07C204.495,1209.07 56.0046,1209.07 -92.4855,1209.07C-92.4855,1159.92 -92.4855,1110.77 -92.4855,1061.62L-92.4855,1061.62Z" fill="#000101" fill-opacity="0.996078"/>
<g transform="matrix(1 0 0 1 0 0)">
<path d="M-79.4955,1073.55L-68.8336,1073.4L-58.1716,1073.25C-58.0812,1079.53 -57.9907,1085.81 -57.9002,1092.09C-65.0082,1092.19 -72.1161,1092.3 -79.2241,1092.4C-79.3145,1086.12 -79.405,1079.83 -79.4955,1073.55L-79.4955,1073.55Z" fill="#FF2C00" fill-opacity="0.996078"/>
<path d="M-79.0979,1101.16L-57.7741,1100.85L-57.5026,1119.69L-78.8265,1120L-79.0979,1101.16L-79.0979,1101.16Z" fill="#FF2C00" fill-opacity="0.996078"/>
<path d="M-78.7004,1128.76L-68.0384,1128.6L-57.3765,1128.45C-57.286,1134.73 -57.1955,1141.01 -57.105,1147.3C-64.213,1147.4 -71.321,1147.5 -78.4289,1147.6C-78.5194,1141.32 -78.6099,1135.04 -78.7004,1128.76L-78.7004,1128.76Z" fill="#FF2C00" fill-opacity="0.996078"/>
</g>
<g transform="matrix(1 0 0 1 0 0)">
<path d="M-52.5066,1073.55L-41.8447,1073.4L-31.1827,1073.25C-31.0922,1079.53 -31.0018,1085.81 -30.9113,1092.09C-38.0192,1092.19 -45.1272,1092.3 -52.2352,1092.4C-52.3256,1086.12 -52.4161,1079.83 -52.5066,1073.55L-52.5066,1073.55Z" fill="#FF2C00" fill-opacity="0.996078"/>
<path d="M-52.109,1101.16L-30.7851,1100.85L-30.5137,1119.69L-51.8376,1120L-52.109,1101.16L-52.109,1101.16Z" fill="#FF2C00" fill-opacity="0.996078"/>
<path d="M-51.7115,1128.76L-41.0495,1128.6L-30.3876,1128.45C-30.2971,1134.73 -30.2066,1141.01 -30.1161,1147.3C-37.2241,1147.4 -44.3321,1147.5 -51.44,1147.6C-51.5305,1141.32 -51.621,1135.04 -51.7115,1128.76L-51.7115,1128.76Z" fill="#FF2C00" fill-opacity="0.996078"/>
</g>
<g transform="matrix(1 0 0 1 0 0)">
<path d="M-25.5177,1073.55L-14.8557,1073.4L-4.19381,1073.25C-4.10332,1079.53 -4.01283,1085.81 -3.92236,1092.09C-11.0303,1092.19 -18.1383,1092.3 -25.2462,1092.4C-25.3367,1086.12 -25.4272,1079.83 -25.5177,1073.55L-25.5177,1073.55Z" fill="#FF2C00" fill-opacity="0.996078"/>
<path d="M-25.1201,1101.16L-3.79622,1100.85L-3.52478,1119.69L-24.8487,1120L-25.1201,1101.16L-25.1201,1101.16Z" fill="#FF2C00" fill-opacity="0.996078"/>
<path d="M-24.7225,1128.76L-14.0606,1128.6L-3.39863,1128.45C-3.30815,1134.73 -3.21767,1141.01 -3.12719,1147.3C-10.2352,1147.4 -17.3431,1147.5 -24.4511,1147.6C-24.5416,1141.32 -24.6321,1135.04 -24.7225,1128.76L-24.7225,1128.76Z" fill="#FF2C00" fill-opacity="0.996078"/>
</g>
<g transform="matrix(1 0 0 1 0 0)">
<path d="M80.6391,1099.3L80.7925,1109.96L80.946,1120.63C74.6642,1120.72 68.3826,1120.81 62.101,1120.9C61.9985,1113.79 61.896,1106.68 61.7936,1099.57C68.0754,1099.48 74.3572,1099.39 80.6391,1099.3L80.6391,1099.3Z" fill="#71CFEB"/>
<path d="M53.0365,1099.7L53.3434,1121.02L34.4984,1121.3L34.191,1099.97L53.0365,1099.7L53.0365,1099.7Z" fill="#71CFEB"/>
<path d="M25.4339,1100.1L25.5873,1110.76L25.7408,1121.42C19.4591,1121.51 13.1775,1121.6 6.89584,1121.69C6.79335,1114.58 6.69088,1107.48 6.58844,1100.37C12.8702,1100.28 19.1521,1100.19 25.4339,1100.1L25.4339,1100.1Z" fill="#71CFEB"/>
</g>
<g transform="matrix(1 0 0 1 0 0)">
<path d="M80.6391,1124.33L80.7925,1134.99L80.946,1145.65C74.6642,1145.74 68.3826,1145.83 62.101,1145.92C61.9985,1138.81 61.896,1131.7 61.7936,1124.6C68.0754,1124.51 74.3572,1124.42 80.6391,1124.33L80.6391,1124.33Z" fill="#71CFEB"/>
<path d="M53.0365,1124.72L53.3434,1146.05L34.4984,1146.32L34.191,1124.99L53.0365,1124.72L53.0365,1124.72Z" fill="#71CFEB"/>
<path d="M25.4339,1125.12L25.5873,1135.78L25.7408,1146.44C19.4591,1146.53 13.1775,1146.63 6.89584,1146.72C6.79335,1139.61 6.69088,1132.5 6.58844,1125.39C12.8702,1125.3 19.1521,1125.21 25.4339,1125.12L25.4339,1125.12Z" fill="#71CFEB"/>
</g>
<g transform="matrix(1 0 0 1 0 0)">
<path d="M180.593,1098.05L180.746,1108.71L180.9,1119.38C174.618,1119.47 168.336,1119.56 162.055,1119.65C161.952,1112.54 161.85,1105.43 161.747,1098.32C168.029,1098.23 174.311,1098.14 180.593,1098.05L180.593,1098.05Z" fill="#F7F297"/>
<path d="M152.99,1098.45L153.297,1119.77L134.452,1120.04L134.145,1098.72L152.99,1098.45L152.99,1098.45Z" fill="#F7F297"/>
<path d="M125.388,1098.85L125.541,1109.51L125.694,1120.17C119.413,1120.26 113.131,1120.35 106.849,1120.44C106.747,1113.33 106.644,1106.23 106.542,1099.12C112.824,1099.03 119.106,1098.94 125.388,1098.85L125.388,1098.85Z" fill="#F7F297"/>
</g>
<g transform="matrix(1 0 0 1 0 0)">
<path d="M180.593,1123.07L180.746,1133.74L180.9,1144.4C174.618,1144.49 168.336,1144.58 162.055,1144.67C161.952,1137.56 161.85,1130.45 161.747,1123.35C168.029,1123.26 174.311,1123.17 180.593,1123.07L180.593,1123.07Z" fill="#F7F297"/>
<path d="M152.99,1123.47L153.297,1144.8L134.452,1145.07L134.145,1123.74L152.99,1123.47L152.99,1123.47Z" fill="#F7F297"/>
<path d="M125.388,1123.87L125.541,1134.53L125.694,1145.19C119.413,1145.28 113.131,1145.37 106.849,1145.47C106.747,1138.36 106.644,1131.25 106.542,1124.14C112.824,1124.05 119.106,1123.96 125.388,1123.87L125.388,1123.87Z" fill="#F7F297"/>
</g>
<path d="M-1.45907,1170.71L123.796,1170.71L249.052,1170.71C249.052,1175.12 249.052,1179.54 249.052,1183.95C165.548,1183.95 82.0445,1183.95 -1.45907,1183.95C-1.45907,1179.54 -1.45907,1175.12 -1.45907,1170.71L-1.45907,1170.71Z" fill="#3C464F" fill-opacity="0.996078"/>
<path d="M-109.898,872.121L128.585,872.122L367.067,872.123C367.067,929.469 367.067,986.816 367.067,1044.16C208.079,1044.16 49.0907,1044.16 -109.898,1044.16C-109.898,986.816 -109.898,929.469 -109.898,872.121L-109.898,872.121Z" fill="#7D8B96" fill-opacity="0.996078"/>
<path d="M-95.84,882.587L126.895,882.588L349.63,882.588C349.63,931.738 349.63,980.888 349.63,1030.04C201.14,1030.04 52.6502,1030.04 -95.84,1030.04C-95.84,980.889 -95.84,931.738 -95.84,882.587L-95.84,882.587Z" fill="#000101" fill-opacity="0.996078"/>
<path d="M-82.85,894.521L-72.188,894.368L-61.5261,894.214C-61.4356,900.496 -61.3452,906.777 -61.2547,913.059C-68.3626,913.162 -75.4706,913.264 -82.5785,913.367C-82.669,907.085 -82.7595,900.803 -82.85,894.521L-82.85,894.521Z" fill="#F7F297"/>
<path d="M-82.4524,922.124L-61.1285,921.817L-60.8571,940.662L-82.181,940.969L-82.4524,922.124L-82.4524,922.124Z" fill="#3B454E"/>
<path d="M-82.0549,949.726L-71.3929,949.573L-60.7309,949.419C-60.6405,955.701 -60.55,961.983 -60.4595,968.264C-67.5675,968.367 -74.6754,968.469 -81.7834,968.572C-81.8739,962.29 -81.9644,956.008 -82.0549,949.726L-82.0549,949.726Z" fill="#3B454E"/>
<path d="M-55.8611,894.521L-45.1991,894.368L-34.5372,894.214C-34.4467,900.496 -34.3562,906.777 -34.2658,913.059C-41.3737,913.162 -48.4817,913.264 -55.5896,913.367C-55.6801,907.085 -55.7706,900.803 -55.8611,894.521L-55.8611,894.521Z" fill="#3B454E"/>
<path d="M-55.4635,922.124L-34.1396,921.817L-33.8682,940.662L-55.1921,940.969L-55.4635,922.124L-55.4635,922.124Z" fill="#3B454E"/>
<path d="M-55.0659,949.726L-44.404,949.573L-33.742,949.419C-33.6515,955.701 -33.5611,961.983 -33.4706,968.264C-40.5786,968.367 -47.6865,968.469 -54.7945,968.572C-54.885,962.29 -54.9755,956.008 -55.0659,949.726L-55.0659,949.726Z" fill="#3B454E"/>
<path d="M-28.8721,894.521L-18.2102,894.368L-7.54829,894.214C-7.4578,900.496 -7.36732,906.777 -7.27684,913.059C-14.3848,913.162 -21.4928,913.264 -28.6007,913.367C-28.6912,907.085 -28.7817,900.803 -28.8721,894.521L-28.8721,894.521Z" fill="#F7F297"/>
<path d="M-28.4746,922.124L-7.15069,921.817L-6.87925,940.662L-28.2031,940.969L-28.4746,922.124L-28.4746,922.124Z" fill="#3B454E"/>
<path d="M-28.077,949.726L-17.4151,949.573L-6.7531,949.419C-6.66262,955.701 -6.57214,961.983 -6.48166,968.264C-13.5896,968.367 -20.6976,968.469 -27.8056,968.572C-27.896,962.29 -27.9865,956.008 -28.077,949.726L-28.077,949.726Z" fill="#3B454E"/>
<path d="M77.2847,920.271L77.438,930.932L77.5915,941.594C71.3098,941.685 65.0281,941.775 58.7465,941.866C58.644,934.758 58.5415,927.65 58.4391,920.542C64.7209,920.452 71.0028,920.361 77.2847,920.271L77.2847,920.271Z" fill="#FF1300"/>
<path d="M49.682,920.668L49.9889,941.992L31.1439,942.264L30.8365,920.94L49.682,920.668L49.682,920.668Z" fill="#71CFEB"/>
<path d="M22.0794,921.066L22.2328,931.728L22.3863,942.39C16.1046,942.48 9.82297,942.57 3.54136,942.661C3.43887,935.553 3.33641,928.445 3.23396,921.337C9.51576,921.247 15.7976,921.156 22.0794,921.066L22.0794,921.066Z" fill="#71CFEB"/>
<path d="M77.2847,945.294L77.4381,955.956L77.5915,966.618C71.3098,966.708 65.0281,966.799 58.7465,966.889C58.644,959.781 58.5416,952.673 58.4391,945.565C64.7209,945.475 71.0028,945.384 77.2847,945.294L77.2847,945.294Z" fill="#FF1300"/>
<path d="M49.682,945.691L49.9889,967.015L31.144,967.287L30.8365,945.963L49.682,945.691L49.682,945.691Z" fill="#71CFEB"/>
<path d="M22.0794,946.089L22.2328,956.751L22.3863,967.413C16.1046,967.503 9.82298,967.594 3.54138,967.684C3.43889,960.576 3.33642,953.468 3.23397,946.36C9.51577,946.27 15.7976,946.18 22.0794,946.089L22.0794,946.089Z" fill="#71CFEB"/>
<g transform="matrix(1 0 0 1 0 0)">
<path d="M177.238,919.02L177.392,929.682L177.545,940.344C171.263,940.435 164.982,940.525 158.7,940.615C158.598,933.508 158.495,926.4 158.393,919.292C164.675,919.201 170.956,919.111 177.238,919.02L177.238,919.02Z" fill="#F7F297"/>
<path d="M149.636,919.418L149.943,940.742L131.098,941.013L130.79,919.689L149.636,919.418L149.636,919.418Z" fill="#F7F297"/>
<path d="M122.033,919.815L122.186,930.477L122.34,941.139C116.058,941.23 109.777,941.32 103.495,941.411C103.392,934.303 103.29,927.195 103.188,920.087C109.469,919.996 115.751,919.906 122.033,919.815L122.033,919.815Z" fill="#F7F297"/>
</g>
<g transform="matrix(1 0 0 1 0 0)">
<path d="M177.238,944.044L177.392,954.705L177.545,965.367C171.263,965.458 164.982,965.548 158.7,965.639C158.598,958.531 158.495,951.423 158.393,944.315C164.675,944.224 170.956,944.134 177.238,944.044L177.238,944.044Z" fill="#F7F297"/>
<path d="M149.636,944.441L149.943,965.765L131.098,966.036L130.79,944.712L149.636,944.441L149.636,944.441Z" fill="#F7F297"/>
<path d="M122.033,944.839L122.186,955.5L122.34,966.162C116.058,966.253 109.777,966.343 103.495,966.434C103.393,959.326 103.29,952.218 103.188,945.11C109.469,945.02 115.751,944.929 122.033,944.839L122.033,944.839Z" fill="#F7F297"/>
</g>
<path d="M-4.81353,991.68L120.442,991.68L245.697,991.681C245.697,996.092 245.697,1000.5 245.697,1004.92C162.194,1004.92 78.6901,1004.92 -4.81353,1004.92C-4.81353,1000.5 -4.81353,996.092 -4.81353,991.68L-4.81353,991.68Z" fill="#3C464F" fill-opacity="0.996078"/>
<path d="M-109.225,694.185L129.257,694.186L367.74,694.187C367.74,751.534 367.74,808.88 367.74,866.226C208.752,866.227 49.7633,866.228 -109.225,866.228C-109.225,808.881 -109.225,751.533 -109.225,694.185L-109.225,694.185Z" fill="#7D8B96" fill-opacity="0.996078"/>
<path d="M-95.1674,704.651L127.568,704.652L350.303,704.653C350.303,753.803 350.303,802.953 350.303,852.103C201.813,852.103 53.3227,852.104 -95.1674,852.104C-95.1674,802.953 -95.1674,753.802 -95.1674,704.651L-95.1674,704.651Z" fill="#000101" fill-opacity="0.996078"/>
<g transform="matrix(1 0 0 1 0 0)">
<path d="M-82.1774,716.585L-71.5155,716.432L-60.8536,716.279C-60.7631,722.56 -60.6726,728.842 -60.5821,735.123C-67.6901,735.226 -74.798,735.328 -81.906,735.431C-81.9965,729.149 -82.0869,722.867 -82.1774,716.585L-82.1774,716.585Z" fill="#FF2C00" fill-opacity="0.996078"/>
<path d="M-81.7799,744.188L-60.456,743.881L-60.1845,762.726L-81.5084,763.033L-81.7799,744.188L-81.7799,744.188Z" fill="#FF2C00" fill-opacity="0.996078"/>
<path d="M-81.3823,771.791L-70.7203,771.637L-60.0584,771.484C-59.9679,777.765 -59.8774,784.047 -59.7869,790.329C-66.8949,790.431 -74.0029,790.534 -81.1109,790.636C-81.2013,784.354 -81.2918,778.073 -81.3823,771.791L-81.3823,771.791Z" fill="#FF2C00" fill-opacity="0.996078"/>
</g>
<g transform="matrix(1 0 0 1 0 0)">
<path d="M-55.1885,716.585L-44.5266,716.432L-33.8646,716.279C-33.7742,722.56 -33.6837,728.842 -33.5932,735.123C-40.7011,735.226 -47.8091,735.328 -54.9171,735.431C-55.0075,729.149 -55.098,722.867 -55.1885,716.585L-55.1885,716.585Z" fill="#FF2C00" fill-opacity="0.996078"/>
<path d="M-54.7909,744.188L-33.4671,743.881L-33.1956,762.726L-54.5195,763.033L-54.7909,744.188L-54.7909,744.188Z" fill="#FF2C00" fill-opacity="0.996078"/>
<path d="M-54.3934,771.791L-43.7314,771.637L-33.0695,771.484C-32.979,777.765 -32.8885,784.047 -32.798,790.329C-39.906,790.431 -47.014,790.534 -54.1219,790.636C-54.2124,784.354 -54.3029,778.073 -54.3934,771.791L-54.3934,771.791Z" fill="#FF2C00" fill-opacity="0.996078"/>
</g>
<g transform="matrix(1 0 0 1 0 0)">
<path d="M-28.1996,716.585L-17.5376,716.432L-6.87572,716.279C-6.78524,722.56 -6.69476,728.842 -6.60428,735.123C-13.7122,735.226 -20.8202,735.328 -27.9281,735.431C-28.0186,729.149 -28.1091,722.867 -28.1996,716.585L-28.1996,716.585Z" fill="#FF2C00" fill-opacity="0.996078"/>
<path d="M-27.802,744.188L-6.47814,743.881L-6.2067,762.726L-27.5306,763.033L-27.802,744.188L-27.802,744.188Z" fill="#FF2C00" fill-opacity="0.996078"/>
<path d="M-27.4045,771.791L-16.7425,771.637L-6.08055,771.484C-5.99007,777.765 -5.89959,784.047 -5.8091,790.329C-12.9171,790.431 -20.0251,790.534 -27.133,790.636C-27.2235,784.354 -27.314,778.073 -27.4045,771.791L-27.4045,771.791Z" fill="#FF2C00" fill-opacity="0.996078"/>
</g>
<g transform="matrix(1 0 0 1 0 0)">
<path d="M77.9572,742.335L78.1106,752.997L78.2641,763.659C71.9823,763.749 65.7007,763.84 59.4191,763.93C59.3166,756.822 59.2141,749.714 59.1116,742.606C65.3935,742.516 71.6753,742.426 77.9572,742.335L77.9572,742.335Z" fill="#71CFEB"/>
<path d="M50.3546,742.732L50.6615,764.056L31.8165,764.328L31.5091,743.004L50.3546,742.732L50.3546,742.732Z" fill="#71CFEB"/>
<path d="M22.752,743.13L22.9054,753.792L23.0588,764.454C16.7772,764.544 10.4955,764.635 4.21392,764.725C4.11143,757.617 4.00896,750.509 3.90652,743.402C10.1883,743.311 16.4701,743.221 22.752,743.13L22.752,743.13Z" fill="#71CFEB"/>
</g>
<g transform="matrix(1 0 0 1 0 0)">
<path d="M77.9572,767.358L78.1106,778.02L78.2641,788.682C71.9823,788.773 65.7007,788.863 59.4191,788.954C59.3166,781.846 59.2141,774.738 59.1116,767.63C65.3935,767.539 71.6753,767.449 77.9572,767.358L77.9572,767.358Z" fill="#71CFEB"/>
<path d="M50.3546,767.756L50.6615,789.08L31.8165,789.351L31.5091,768.027L50.3546,767.756L50.3546,767.756Z" fill="#71CFEB"/>
<path d="M22.752,768.153L22.9054,778.815L23.0589,789.477C16.7772,789.568 10.4955,789.658 4.21392,789.749C4.11144,782.641 4.00897,775.533 3.90653,768.425C10.1883,768.334 16.4701,768.244 22.752,768.153L22.752,768.153Z" fill="#71CFEB"/>
</g>
<g transform="matrix(1 0 0 1 0 0)">
<path d="M177.911,741.085L178.064,751.746L178.218,762.408C171.936,762.499 165.654,762.589 159.373,762.68C159.27,755.572 159.168,748.464 159.065,741.356C165.347,741.266 171.629,741.175 177.911,741.085L177.911,741.085Z" fill="#F7F297"/>
<path d="M150.308,741.482L150.615,762.806L131.77,763.077L131.463,741.753L150.308,741.482L150.308,741.482Z" fill="#F7F297"/>
<path d="M122.706,741.88L122.859,752.542L123.012,763.204C116.731,763.294 110.449,763.384 104.168,763.475C104.065,756.367 103.963,749.259 103.86,742.151C110.142,742.061 116.424,741.97 122.706,741.88L122.706,741.88Z" fill="#F7F297"/>
</g>
<g transform="matrix(1 0 0 1 0 0)">
<path d="M177.911,766.108L178.064,776.77L178.218,787.432C171.936,787.522 165.654,787.613 159.373,787.703C159.27,780.595 159.168,773.487 159.065,766.379C165.347,766.289 171.629,766.198 177.911,766.108L177.911,766.108Z" fill="#F7F297"/>
<path d="M150.308,766.505L150.615,787.829L131.77,788.101L131.463,766.777L150.308,766.505L150.308,766.505Z" fill="#F7F297"/>
<path d="M122.706,766.903L122.859,777.565L123.012,788.227C116.731,788.317 110.449,788.408 104.168,788.498C104.065,781.39 103.963,774.282 103.86,767.174C110.142,767.084 116.424,766.993 122.706,766.903L122.706,766.903Z" fill="#F7F297"/>
</g>
<path d="M-4.14099,813.744L121.114,813.745L246.37,813.745C246.37,818.157 246.37,822.568 246.37,826.98C162.866,826.98 79.3626,826.981 -4.14099,826.981C-4.14099,822.569 -4.14099,818.156 -4.14099,813.744L-4.14099,813.744Z" fill="#3C464F" fill-opacity="0.996078"/>
<path d="M-112.579,515.154L125.903,515.155L364.385,515.156C364.385,572.502 364.385,629.848 364.385,687.195C205.397,687.195 46.4088,687.196 -112.579,687.196C-112.579,629.849 -112.579,572.501 -112.579,515.154L-112.579,515.154Z" fill="#7D8B96" fill-opacity="0.996078"/>
<path d="M-98.5219,525.619L124.213,525.62L346.948,525.621C346.948,574.771 346.948,623.921 346.948,673.071C198.458,673.071 49.9683,673.072 -98.5219,673.072C-98.5219,623.921 -98.5219,574.771 -98.5219,525.619L-98.5219,525.619Z" fill="#000101" fill-opacity="0.996078"/>
<path d="M-85.5319,537.554L-74.87,537.4L-64.208,537.247C-64.1176,543.529 -64.0271,549.81 -63.9366,556.092C-71.0445,556.194 -78.1525,556.297 -85.2605,556.399C-85.3509,550.117 -85.4414,543.836 -85.5319,537.554L-85.5319,537.554Z" fill="#F7F297"/>
<path d="M-85.1343,565.156L-63.8105,564.85L-63.539,583.694L-84.8629,584.002L-85.1343,565.156L-85.1343,565.156Z" fill="#3B454E"/>
<path d="M-84.7368,592.759L-74.0748,592.606L-63.4129,592.452C-63.3224,598.734 -63.2319,605.015 -63.1414,611.297C-70.2494,611.4 -77.3574,611.502 -84.4653,611.604C-84.5558,605.323 -84.6463,599.041 -84.7368,592.759L-84.7368,592.759Z" fill="#3B454E"/>
<path d="M-58.543,537.554L-47.881,537.4L-37.2191,537.247C-37.1286,543.529 -37.0382,549.81 -36.9477,556.092C-44.0556,556.194 -51.1636,556.297 -58.2715,556.399C-58.362,550.117 -58.4525,543.836 -58.543,537.554L-58.543,537.554Z" fill="#3B454E"/>
<path d="M-58.1454,565.156L-36.8215,564.85L-36.5501,583.694L-57.874,584.002L-58.1454,565.156L-58.1454,565.156Z" fill="#3B454E"/>
<path d="M-57.7479,592.759L-47.0859,592.606L-36.4239,592.452C-36.3335,598.734 -36.243,605.015 -36.1525,611.297C-43.2605,611.4 -50.3684,611.502 -57.4764,611.604C-57.5669,605.323 -57.6574,599.041 -57.7479,592.759L-57.7479,592.759Z" fill="#3B454E"/>
<path d="M-31.5541,537.554L-20.8921,537.4L-10.2302,537.247C-10.1397,543.529 -10.0492,549.81 -9.95876,556.092C-17.0667,556.194 -24.1747,556.297 -31.2826,556.399C-31.3731,550.117 -31.4636,543.836 -31.5541,537.554L-31.5541,537.554Z" fill="#F7F297"/>
<path d="M-31.1565,565.156L-9.83262,564.85L-9.56118,583.694L-30.8851,584.002L-31.1565,565.156L-31.1565,565.156Z" fill="#3B454E"/>
<path d="M-30.7589,592.759L-20.097,592.606L-9.43503,592.452C-9.34454,598.734 -9.25406,605.015 -9.16357,611.297C-16.2715,611.4 -23.3795,611.502 -30.4875,611.604C-30.578,605.323 -30.6684,599.041 -30.7589,592.759L-30.7589,592.759Z" fill="#3B454E"/>
<path d="M74.6028,563.303L74.7561,573.965L74.9096,584.627C68.6279,584.718 62.3462,584.808 56.0646,584.899C55.9621,577.791 55.8596,570.683 55.7572,563.575C62.039,563.484 68.3209,563.394 74.6028,563.303L74.6028,563.303Z" fill="#FF1300"/>
<path d="M47.0001,563.701L47.307,585.025L28.462,585.296L28.1546,563.972L47.0001,563.701L47.0001,563.701Z" fill="#71CFEB"/>
<path d="M19.3975,564.099L19.5509,574.76L19.7044,585.422C13.4227,585.513 7.14105,585.603 0.85944,585.694C0.756952,578.586 0.654486,571.478 0.552044,564.37C6.83384,564.28 13.1157,564.189 19.3975,564.099L19.3975,564.099Z" fill="#71CFEB"/>
<path d="M74.6028,588.327L74.7561,598.989L74.9096,609.65C68.6279,609.741 62.3462,609.831 56.0646,609.922C55.9621,602.814 55.8596,595.706 55.7572,588.598C62.039,588.508 68.3209,588.417 74.6028,588.327L74.6028,588.327Z" fill="#FF1300"/>
<path d="M47.0001,588.724L47.307,610.048L28.462,610.32L28.1546,588.996L47.0001,588.724L47.0001,588.724Z" fill="#71CFEB"/>
<path d="M19.3975,589.122L19.5509,599.784L19.7044,610.446C13.4227,610.536 7.14106,610.627 0.859455,610.717C0.756967,603.609 0.654497,596.501 0.552044,589.393C6.83384,589.303 13.1157,589.212 19.3975,589.122L19.3975,589.122Z" fill="#71CFEB"/>
<g transform="matrix(1 0 0 1 0 0)">
<path d="M174.556,562.053L174.71,572.715L174.863,583.377C168.582,583.467 162.3,583.558 156.018,583.648C155.916,576.54 155.813,569.432 155.711,562.324C161.993,562.234 168.275,562.144 174.556,562.053L174.556,562.053Z" fill="#F7F297"/>
<path d="M146.954,562.451L147.261,583.774L128.416,584.046L128.108,562.722L146.954,562.451L146.954,562.451Z" fill="#F7F297"/>
<path d="M119.351,562.848L119.505,573.51L119.658,584.172C113.376,584.263 107.095,584.353 100.813,584.443C100.711,577.336 100.608,570.228 100.506,563.12C106.787,563.029 113.069,562.939 119.351,562.848L119.351,562.848Z" fill="#F7F297"/>
</g>
<g transform="matrix(1 0 0 1 0 0)">
<path d="M174.556,587.076L174.71,597.738L174.863,608.4C168.582,608.491 162.3,608.581 156.018,608.672C155.916,601.564 155.813,594.456 155.711,587.348C161.993,587.257 168.275,587.167 174.556,587.076L174.556,587.076Z" fill="#F7F297"/>
<path d="M146.954,587.474L147.261,608.798L128.416,609.069L128.108,587.745L146.954,587.474L146.954,587.474Z" fill="#F7F297"/>
<path d="M119.351,587.871L119.505,598.533L119.658,609.195C113.376,609.286 107.095,609.376 100.813,609.467C100.711,602.359 100.608,595.251 100.506,588.143C106.787,588.052 113.069,587.962 119.351,587.871L119.351,587.871Z" fill="#F7F297"/>
</g>
<path d="M-7.49545,634.713L117.76,634.713L243.015,634.713C243.015,639.125 243.015,643.537 243.015,647.948C159.512,647.949 76.0081,647.949 -7.49545,647.949C-7.49545,643.537 -7.49545,639.125 -7.49545,634.713L-7.49545,634.713Z" fill="#3C464F" fill-opacity="0.996078"/>
</g>
<path d="M31.025,115.055L31.025,115.055L31.025,115.055L31.025,115.055L31.025,115.055L31.025,115.055L31.025,115.055C31.025,115.055 31.025,115.055 31.025,115.055L31.025,115.055Z" fill="#000509" fill-opacity="0.996078"/>
<path d="M40.1197,105.99L40.7685,105.99L41.4173,105.99L41.4174,169.486C40.9848,169.486 40.5523,169.486 40.1197,169.486C40.1197,148.321 40.1197,127.155 40.1197,105.99L40.1197,105.99Z" fill="#535D66" fill-opacity="0.996078"/>
<path d="M4.98511,105.868L38.2196,105.868L71.4542,105.868L71.4542,169.726C49.2978,169.726 27.1415,169.726 4.98511,169.726C4.98511,148.44 4.98511,127.154 4.98511,105.868L4.98511,105.868Z" fill="#99C7E7" fill-opacity="0.109804"/>
<path d="M4.91442,104.614L4.91442,104.614L72.5142,104.614C72.7193,104.614 72.8855,104.78 72.8855,104.985L72.8855,104.985L72.8855,169.617C72.8855,169.822 72.7193,169.988 72.5142,169.988L72.5142,169.988L4.91442,169.989C4.81595,169.989 4.7215,169.949 4.65186,169.88C4.58223,169.81 4.54311,169.716 4.54311,169.617L4.54311,169.617L4.54311,104.985C4.54311,104.887 4.58223,104.792 4.65186,104.722C4.7215,104.653 4.81594,104.614 4.91442,104.614L4.91442,104.614L4.91442,104.614ZM4.91442,105.356L5.28574,104.985L5.28574,169.617L4.91442,169.246L72.5142,169.246L72.1429,169.617L72.1429,104.985L72.5142,105.356L4.91442,105.356L4.91442,105.356Z" fill="#535D66"/>
<path d="M39.4792,127.619L40.7883,127.619L42.0975,127.62C42.0975,131.046 42.0975,134.472 42.0975,137.899C41.2247,137.899 40.3519,137.899 39.4792,137.899C39.4792,134.472 39.4792,131.046 39.4792,127.619L39.4792,127.619Z" fill="#000509" fill-opacity="0.996078"/>
<path d="M40.4302,128.257L40.7684,128.257L41.1067,128.257C41.1067,131.108 41.1067,133.959 41.1067,136.81C40.8812,136.81 40.6557,136.81 40.4302,136.81C40.4302,133.959 40.4302,131.108 40.4302,128.257L40.4302,128.257Z" fill="#BFC9D2" fill-opacity="0.996078"/>
<path d="M21.8536,106.34C17.9451,106.34 14.7766,109.509 14.7766,113.417C14.7766,117.326 17.9451,120.494 21.8536,120.494C25.7621,120.494 28.9305,117.326 28.9305,113.417C28.9305,109.509 25.7621,106.34 21.8536,106.34L21.8536,106.34Z" fill="#F27241"/>
<path d="M23.3787,116.027C22.8512,116.249 22.11,116.441 21.5786,116.097C21.1558,115.822 21.0022,115.325 21.0022,115.057L21.0022,112.245L22.8261,112.245L22.8261,110.422L21.0022,110.422L21.0022,108.598L19.1784,108.598L19.1784,115.057C19.1784,115.81 19.5439,116.926 20.5747,117.594C20.9687,117.849 21.5315,118.081 22.2764,118.081C22.794,118.081 23.3998,117.97 24.0977,117.675L23.3787,116.027L23.3787,116.027Z" fill="#FFFFFF"/>
</g>
</svg>
