<?xml version="1.0" encoding="UTF-8" standalone="no"?>
<!DOCTYPE svg PUBLIC "-//W3C//DTD SVG 1.1//EN" "http://www.w3.org/Graphics/SVG/1.1/DTD/svg11.dtd">
<svg width="100%" height="100%" viewBox="0 0 461 500" version="1.1" xmlns="http://www.w3.org/2000/svg" xmlns:xlink="http://www.w3.org/1999/xlink" xml:space="preserve" xmlns:serif="http://www.serif.com/" style="fill-rule:evenodd;clip-rule:evenodd;stroke-linejoin:round;stroke-miterlimit:2;">
    <g id="Слой_2">
        <g id="Слой_1-2">
            <g id="monitor">
                <path d="M310.06,347.59L259.92,318.64C256.3,316.55 256.76,312.91 260.92,310.5L293.41,291.74L356.65,328.25L324.17,347C320,349.42 313.68,349.68 310.06,347.59Z" style="fill:rgb(177,180,196);fill-rule:nonzero;"/>
                <path d="M356.66,328.25L356.66,326.34L353.74,328.02L356.66,328.25Z" style="fill:rgb(177,180,196);fill-rule:nonzero;"/>
                <path d="M257.48,315.19L257.48,313.25L260.48,314.49L257.48,315.19Z" style="fill:rgb(177,180,196);fill-rule:nonzero;"/>
                <path d="M310.06,345.68L259.92,316.73C256.3,314.64 256.76,310.99 260.92,308.58L293.41,289.83L356.65,326.34L324.16,345.09C320,347.5 313.68,347.77 310.06,345.68Z" style="fill:rgb(213,216,227);fill-rule:nonzero;"/>
                <path d="M293.59,289.91L285.76,263.95L349.69,300.61L356.66,326.34L293.59,289.91Z" style="fill:rgb(158,161,175);fill-rule:nonzero;"/>
                <path d="M354.8,327.41L356.66,326.34L353.9,324.14L354.8,327.41Z" style="fill:rgb(158,161,175);fill-rule:nonzero;"/>
                <path d="M291.57,290.89L283.75,264.92L347.68,301.59L354.8,327.41L291.57,290.89Z" style="fill:rgb(177,180,196);fill-rule:nonzero;"/>
                <path d="M453.85,371.17L206.4,228.3C202.93,226.3 200.12,220.92 200.12,216.3L200.12,24.88C200.12,20.25 202.93,18.12 206.4,20.13L453.85,163C457.33,165 460.14,170.38 460.14,175L460.14,366.42C460.14,371.05 457.33,373.17 453.85,371.17Z" style="fill:rgb(177,180,196);fill-rule:nonzero;"/>
                <path d="M455.13,373.14L457.87,371.56L456.69,363.43L455.13,373.14Z" style="fill:rgb(177,180,196);fill-rule:nonzero;"/>
                <path d="M199.67,21.31L202.37,19.75L206.25,22C206.25,22 202.12,22.63 202.02,22.61C201.92,22.59 199.67,21.31 199.67,21.31Z" style="fill:rgb(177,180,196);fill-rule:nonzero;"/>
                <path d="M451.59,372.48L204.13,229.61C200.66,227.61 197.85,222.23 197.85,217.61L197.85,26.19C197.85,21.56 200.66,19.43 204.13,21.44L451.59,164.31C455.06,166.31 457.87,171.69 457.87,176.31L457.87,367.73C457.87,372.36 455.06,374.48 451.59,372.48Z" style="fill:rgb(228,231,242);fill-rule:nonzero;"/>
                <path d="M454,361.09L200.55,214.74L200.69,27.21C200.69,25.28 202.03,24.51 203.69,25.47L451.15,168.33C452.922,169.493 454.037,171.434 454.15,173.55L454,361.09Z" style="fill:white;fill-rule:nonzero;"/>
                <path d="M438.34,198.06L213.65,68.33C212.069,67.205 211.116,65.39 211.09,63.45L211.09,47.23C211.09,45.35 212.23,44.48 213.65,45.3L438.34,175C439.917,176.133 440.867,177.949 440.9,179.89L440.9,196.11C440.9,198 439.75,198.88 438.34,198.06Z" style="fill:rgb(233,234,242);fill-rule:nonzero;"/>
                <g transform="matrix(0.866025,-0.5,0.5,0.866025,-0.94,118.9)">
                    <ellipse cx="221.38" cy="61.21" rx="4.02" ry="6.96" style="fill:rgb(218,220,229);"/>
                </g>
                <path d="M338.2,130.8L318.77,119.57C318.373,119.29 318.135,118.836 318.13,118.35L318.13,115.78C318.13,115.3 318.41,115.09 318.77,115.29L338.2,126.52C338.597,126.8 338.835,127.254 338.84,127.74L338.84,130.31C338.84,130.78 338.56,131 338.2,130.8Z" style="fill:rgb(218,220,229);fill-rule:nonzero;"/>
                <path d="M369.66,149L350.23,137.78C349.834,137.499 349.596,137.045 349.59,136.56L349.59,133.98C349.59,133.51 349.87,133.29 350.23,133.5L369.66,144.72C370.057,145 370.295,145.454 370.3,145.94L370.3,148.52C370.3,149 370,149.16 369.66,149Z" style="fill:rgb(218,220,229);fill-rule:nonzero;"/>
                <path d="M400.61,166.83L381.17,155.61C380.778,155.322 380.541,154.867 380.53,154.38L380.53,151.81C380.53,151.34 380.82,151.12 381.17,151.32L400.61,162.55C401.007,162.83 401.245,163.284 401.25,163.77L401.25,166.34C401.25,166.82 401,167 400.61,166.83Z" style="fill:rgb(218,220,229);fill-rule:nonzero;"/>
                <path d="M432.07,185L412.63,173.78C412.238,173.496 412.001,173.044 411.99,172.56L411.99,170C411.99,169.53 412.28,169.31 412.63,169.52L432.07,180.74C432.464,181.022 432.702,181.475 432.71,181.96L432.71,184.54C432.71,185 432.42,185.2 432.07,185Z" style="fill:rgb(218,220,229);fill-rule:nonzero;"/>
                <path d="M421.33,238.33L368.51,207.83C366.964,206.703 366.034,204.913 366,203L366,168.86C366,166.98 367.14,166.12 368.55,166.93L421.37,197.42C422.947,198.553 423.897,200.369 423.93,202.31L423.93,236.39C423.89,238.28 422.74,239.14 421.33,238.33Z" style="fill:rgb(233,234,242);fill-rule:nonzero;"/>
                <path d="M351.76,249.4L219.27,172.9C218.482,172.335 218.007,171.429 217.99,170.46L217.99,164.59C217.99,163.65 218.57,163.22 219.27,163.59L351.76,240.08C352.55,240.643 353.026,241.55 353.04,242.52L353.04,248.39C353,249.37 352.47,249.8 351.76,249.4Z" style="fill:rgb(233,234,242);fill-rule:nonzero;"/>
                <path d="M338.72,255.75L219.66,187C218.87,186.437 218.394,185.53 218.38,184.56L218.38,181.64C218.38,180.7 218.95,180.26 219.66,180.64L338.72,249.38C339.506,249.946 339.981,250.851 340,251.82L340,254.74C340,255.72 339.42,256.16 338.72,255.75Z" style="fill:rgb(233,234,242);fill-rule:nonzero;"/>
                <path d="M338.72,266.82L219.66,198.09C218.87,197.523 218.394,196.613 218.38,195.64L218.38,192.72C218.38,191.78 218.95,191.35 219.66,191.72L338.72,260.45C339.507,261.02 339.981,261.929 340,262.9L340,265.82C340,266.8 339.42,267.23 338.72,266.82Z" style="fill:rgb(233,234,242);fill-rule:nonzero;"/>
                <path d="M308.28,260.33L219.66,209.16C218.87,208.597 218.394,207.69 218.38,206.72L218.38,203.8C218.38,202.86 218.95,202.42 219.66,202.8L308.28,254C309.076,254.557 309.554,255.468 309.56,256.44L309.56,259.36C309.56,260.3 309,260.73 308.28,260.33Z" style="fill:rgb(233,234,242);fill-rule:nonzero;"/>
                <path d="M422.61,252.5L367.24,220.5C366.45,219.937 365.974,219.03 365.96,218.06L365.96,215.14C365.96,214.2 366.53,213.76 367.24,214.14L422.61,246.14C423.402,246.706 423.878,247.617 423.89,248.59L423.89,251.51C423.89,252.48 423.32,252.91 422.61,252.5Z" style="fill:rgb(233,234,242);fill-rule:nonzero;"/>
                <path d="M422.61,263.58L367.24,231.58C366.448,231.014 365.972,230.103 365.96,229.13L365.96,226.21C365.96,225.27 366.53,224.84 367.24,225.21L422.61,257.21C423.4,257.773 423.876,258.68 423.89,259.65L423.89,262.57C423.89,263.55 423.32,264 422.61,263.58Z" style="fill:rgb(233,234,242);fill-rule:nonzero;"/>
                <path d="M408.11,266.28L367.24,242.68C366.45,242.117 365.974,241.21 365.96,240.24L365.96,237.32C365.96,236.38 366.53,235.94 367.24,236.32L408.11,260C408.902,260.566 409.378,261.477 409.39,262.45L409.39,265.36C409.39,266.26 408.82,266.69 408.11,266.28Z" style="fill:rgb(233,234,242);fill-rule:nonzero;"/>
                <path d="M421.33,323.68L368.51,293.18C366.95,292.043 366.018,290.231 366,288.3L366,254.21C366,252.33 367.14,251.46 368.55,252.28L421.37,282.77C422.947,283.903 423.897,285.719 423.93,287.66L423.93,321.74C423.89,323.63 422.74,324.49 421.33,323.68Z" style="fill:rgb(233,234,242);fill-rule:nonzero;"/>
                <path d="M422.61,337.85L367.24,305.85C366.45,305.287 365.974,304.38 365.96,303.41L365.96,300.49C365.96,299.55 366.53,299.11 367.24,299.49L422.61,331.49C423.402,332.056 423.878,332.967 423.89,333.94L423.89,336.86C423.89,337.83 423.32,338.26 422.61,337.85Z" style="fill:rgb(233,234,242);fill-rule:nonzero;"/>
                <path d="M383.92,201.63L380.21,192.08L373.46,201.68L380.87,205.96L386.96,209.48L400.54,217.32L390.71,191.97L383.92,201.63Z" style="fill:rgb(218,220,229);fill-rule:nonzero;"/>
                <g transform="matrix(0.866025,-0.5,0.5,0.866025,-45.93,232.72)">
                    <ellipse cx="411.28" cy="202.07" rx="3.61" ry="6.26" style="fill:rgb(218,220,229);"/>
                </g>
                <path d="M384.3,288.24L380.6,278.69L373.85,288.29L381.26,292.57L387.35,296.08L400.93,303.92L391.09,278.58L384.3,288.24Z" style="fill:rgb(218,220,229);fill-rule:nonzero;"/>
                <g transform="matrix(0.87,-0.5,0.5,0.87,-89.18,244.52)">
                    <ellipse cx="411.66" cy="288.67" rx="3.61" ry="6.26" style="fill:rgb(218,220,229);"/>
                </g>
                <path d="M350.23,224.61L221.87,150.87C220.452,149.86 219.597,148.231 219.57,146.49L219.57,86.68C219.57,85 220.57,84.22 221.87,84.95L350.23,158.69C351.642,159.705 352.493,161.331 352.52,163.07L352.52,222.88C352.52,224.57 351.49,225.35 350.23,224.61Z" style="fill:rgb(233,234,242);fill-rule:nonzero;"/>
                <path d="M257.53,149.3L251.19,132.97L239.65,149.39L252.32,156.7L262.73,162.71L285.95,176.12L269.13,132.78L257.53,149.3Z" style="fill:rgb(218,220,229);fill-rule:nonzero;"/>
                <g transform="matrix(0.866025,-0.5,0.5,0.866025,-39.6,186.34)">
                    <ellipse cx="327.9" cy="167.05" rx="6.18" ry="10.7" style="fill:rgb(218,220,229);"/>
                </g>
            </g>
            <path d="M226.48,129L226.48,218.6C226.48,221.94 224.48,223.48 221.94,222.03L197.41,207.9L197.41,106.2L221.94,120.35C224.44,121.8 226.48,125.69 226.48,129Z" style="fill-opacity:0.05;fill-rule:nonzero;"/>
            <path d="M203.06,98.65L127.7,55.14C126.919,54.602 125.928,54.464 125.03,54.77C124.825,54.853 124.634,54.964 124.46,55.1L122.1,56.47L123.2,57.94L123.2,148.17C123.2,151.51 125.2,155.39 127.74,156.84L201.67,199.53L202.61,202.53L205.84,200.72C206.003,200.647 206.157,200.557 206.3,200.45C207.262,199.546 207.754,198.245 207.63,196.93L207.63,107.33C207.6,104 205.57,100.1 203.06,98.65Z" style="fill:rgb(228,231,242);fill-rule:nonzero;"/>
            <path d="M199.92,202.13L124.55,158.62C122.05,157.17 120.01,153.29 120.01,149.94L120.01,60.35C120.01,57.01 122.01,55.47 124.55,56.92L199.92,100.43C202.43,101.88 204.46,105.76 204.46,109.11L204.46,198.7C204.46,202 202.43,203.58 199.92,202.13Z" style="fill:rgb(245,247,252);fill-rule:nonzero;"/>
            <path d="M131.82,153.38L133.63,154.43L133.63,74.74L131.82,73.69L131.82,153.38Z" style="fill:rgb(218,220,229);fill-rule:nonzero;"/>
            <path d="M132.73,111.61C130.767,110.209 129.584,107.952 129.55,105.54L129.55,96.19C129.55,93.85 130.97,92.78 132.73,93.79C134.687,95.196 135.865,97.451 135.9,99.86L135.9,109.21C135.9,111.55 134.48,112.63 132.73,111.61Z" style="fill:rgb(47,85,212);fill-rule:nonzero;"/>
            <path d="M151.26,164.32L153.08,165.37L153.08,85.69L151.26,84.64L151.26,164.32Z" style="fill:rgb(218,220,229);fill-rule:nonzero;"/>
            <path d="M152.17,148.77C150.211,147.36 149.031,145.103 148.99,142.69L148.99,133.34C148.99,131 150.42,129.93 152.17,130.94C154.131,132.344 155.313,134.599 155.35,137.01L155.35,146.36C155.35,148.7 153.93,149.78 152.17,148.77Z" style="fill:rgb(47,85,212);fill-rule:nonzero;"/>
            <path d="M170.71,175.55L172.53,176.6L172.53,96.91L170.71,95.86L170.71,175.55Z" style="fill:rgb(218,220,229);fill-rule:nonzero;"/>
            <path d="M171.62,123.3C169.659,121.896 168.477,119.641 168.44,117.23L168.44,107.88C168.44,105.54 169.86,104.46 171.62,105.47C173.579,106.88 174.759,109.137 174.8,111.55L174.8,120.9C174.8,123.24 173.37,124.31 171.62,123.3Z" style="fill:rgb(47,85,212);fill-rule:nonzero;"/>
            <path d="M190.16,186.78L191.97,187.82L191.97,108.14L190.16,107.09L190.16,186.78Z" style="fill:rgb(218,220,229);fill-rule:nonzero;"/>
            <path d="M191.07,155.49C189.107,154.089 187.924,151.832 187.89,149.42L187.89,140.07C187.89,137.73 189.31,136.66 191.07,137.67C193.027,139.076 194.205,141.331 194.24,143.74L194.24,153.09C194.24,155.43 192.82,156.51 191.07,155.49Z" style="fill:rgb(47,85,212);fill-rule:nonzero;"/>
            <g id="Coin">
                <ellipse cx="155.24" cy="285.96" rx="27.8" ry="16.05" style="fill-opacity:0.3;"/>
                <ellipse cx="162.12" cy="281.83" rx="27.8" ry="16.05" style="fill:rgb(221,153,14);"/>
                <path d="M134.33,282.07L134.33,274.76L139.82,279.65L134.33,282.07Z" style="fill:rgb(221,153,14);fill-rule:nonzero;"/>
                <path d="M189.92,274.95L189.92,281.83L187.11,284.81L185.74,276.94L189.92,274.95Z" style="fill:rgb(221,153,14);fill-rule:nonzero;"/>
                <ellipse cx="162.12" cy="274.95" rx="27.8" ry="16.05" style="fill:rgb(249,203,7);"/>
                <path d="M182,275.45C181.72,278.15 179.79,280.82 176.21,282.89C168.43,287.37 155.83,287.37 148.06,282.89C144.47,280.82 142.55,278.15 142.27,275.45C141.94,272.29 143.87,269.05 148.06,266.64C155.83,262.15 168.43,262.15 176.21,266.64C180.39,269.05 182.32,272.29 182,275.45Z" style="fill:rgb(204,139,9);fill-rule:nonzero;"/>
                <path d="M182,275.45C181.72,278.15 179.79,280.82 176.21,282.89C168.43,287.37 155.83,287.37 148.06,282.89C144.47,280.82 142.55,278.15 142.27,275.45C142.55,272.75 144.47,270.08 148.06,268.01C155.83,263.52 168.43,263.52 176.21,268.01C179.78,270.08 181.71,272.75 182,275.45Z" style="fill:rgb(232,163,10);fill-rule:nonzero;"/>
                <path d="M161.83,271.69C161.585,271.686 161.341,271.706 161.1,271.75C160.77,271.75 160.41,271.86 160,271.95C159.59,272.04 159.17,272.14 158.73,272.27C158.305,272.397 157.89,272.557 157.49,272.75L160.68,274.59L161.26,274.39C162.07,274.12 162.84,273.89 163.56,273.7C164.237,273.519 164.93,273.405 165.63,273.36C166.266,273.317 166.906,273.36 167.53,273.49C168.172,273.623 168.787,273.863 169.35,274.2C169.907,274.477 170.383,274.894 170.73,275.41C170.96,275.783 171.032,276.233 170.93,276.66C170.795,277.13 170.536,277.555 170.18,277.89C169.741,278.331 169.251,278.717 168.72,279.04L170.72,280.21L169.62,280.85L167.56,279.67C166.6,280.15 165.595,280.535 164.56,280.82C163.457,281.129 162.33,281.34 161.19,281.45L160.12,279.53C160.421,279.524 160.722,279.501 161.02,279.46C161.471,279.409 161.918,279.332 162.36,279.23C162.85,279.13 163.36,278.99 163.92,278.83C164.454,278.678 164.976,278.484 165.48,278.25L162.3,276.42L161.89,276.56L161.45,276.69C160.728,276.935 159.994,277.142 159.25,277.31C158.636,277.452 158.01,277.536 157.38,277.56C156.822,277.583 156.264,277.532 155.72,277.41C155.182,277.279 154.667,277.07 154.19,276.79C153.668,276.513 153.214,276.124 152.86,275.65C152.606,275.288 152.48,274.852 152.5,274.41C152.546,273.954 152.727,273.522 153.02,273.17C153.394,272.719 153.832,272.324 154.32,272L152.43,270.91L153.54,270.27L155.41,271.35C156.284,270.917 157.203,270.581 158.15,270.35C159.055,270.123 159.973,269.956 160.9,269.85L161.83,271.69ZM156.4,275C156.818,275.24 157.3,275.345 157.78,275.3C158.43,275.225 159.071,275.081 159.69,274.87L156.69,273.14C155.6,273.9 155.5,274.52 156.4,275ZM166.89,275.87C166.435,275.622 165.912,275.531 165.4,275.61C164.69,275.696 163.99,275.85 163.31,276.07L166.31,277.78C167.55,277.05 167.75,276.41 166.89,275.91L166.89,275.87Z" style="fill:rgb(204,139,9);fill-rule:nonzero;"/>
                <path d="M160.11,279.53L160.11,278.45L161.33,279.24L160.8,280.05L160.11,279.53Z" style="fill:rgb(204,139,9);fill-rule:nonzero;"/>
                <path d="M170.75,280.21L170.75,279.13L168.11,279.34L169.63,280.37L170.75,280.21Z" style="fill:rgb(204,139,9);fill-rule:nonzero;"/>
                <path d="M170.98,276.26L170.98,275.17L169,275.88L170.98,276.26Z" style="fill:rgb(204,139,9);fill-rule:nonzero;"/>
                <path d="M162.78,276.2L163.44,275.57L165.76,277.17L165.62,277.65C165.62,277.65 163.88,276.92 163.82,276.87L162.78,276.2Z" style="fill:rgb(204,139,9);fill-rule:nonzero;"/>
                <path d="M156.7,272.8L159.78,274.55L160.41,274.09C160.41,274.09 160.03,273.65 160,273.6C159.708,273.285 159.371,273.015 159,272.8C158.77,272.8 157.31,272.1 157.31,272.1L156.7,272.8Z" style="fill:rgb(204,139,9);fill-rule:nonzero;"/>
                <path d="M161.83,271.69L161.83,270.61L160.41,270.15L160.11,271L160.19,271.38L161.83,271.69Z" style="fill:rgb(204,139,9);fill-rule:nonzero;"/>
                <path d="M152.42,270.91L152.42,269.83L154.06,270.01L153.53,271.05L152.42,270.91Z" style="fill:rgb(204,139,9);fill-rule:nonzero;"/>
                <path d="M152.48,274.57L152.48,273.45L154.37,273.45L153.91,274.45L153.09,275.35L152.48,274.57Z" style="fill:rgb(204,139,9);fill-rule:nonzero;"/>
                <path d="M161.83,270.61C161.585,270.606 161.341,270.626 161.1,270.67C160.77,270.72 160.41,270.78 160,270.87C159.59,270.96 159.17,271.06 158.73,271.19C158.305,271.317 157.89,271.477 157.49,271.67L160.68,273.51L161.26,273.31C162.07,273.04 162.84,272.81 163.56,272.62C164.237,272.439 164.93,272.325 165.63,272.28C166.266,272.237 166.906,272.28 167.53,272.41C168.172,272.543 168.787,272.783 169.35,273.12C169.907,273.397 170.383,273.814 170.73,274.33C170.96,274.703 171.032,275.153 170.93,275.58C170.795,276.05 170.536,276.475 170.18,276.81C169.741,277.251 169.251,277.637 168.72,277.96L170.72,279.14L169.62,279.78L167.56,278.59C166.6,279.07 165.595,279.455 164.56,279.74C163.457,280.049 162.33,280.26 161.19,280.37L160.12,278.45C160.421,278.444 160.722,278.421 161.02,278.38C161.471,278.329 161.918,278.252 162.36,278.15C162.85,278.05 163.36,277.91 163.92,277.75C164.454,277.598 164.976,277.404 165.48,277.17L162.3,275.34L161.89,275.48L161.45,275.61C160.728,275.855 159.994,276.062 159.25,276.23C158.637,276.377 158.01,276.46 157.38,276.48C156.822,276.503 156.264,276.452 155.72,276.33C155.182,276.199 154.667,275.99 154.19,275.71C153.665,275.437 153.21,275.047 152.86,274.57C152.608,274.211 152.482,273.778 152.5,273.34C152.545,272.881 152.726,272.446 153.02,272.09C153.394,271.639 153.832,271.244 154.32,270.92L152.43,269.83L153.54,269.19L155.41,270.27C156.286,269.841 157.204,269.506 158.15,269.27C159.054,269.041 159.973,268.877 160.9,268.78L161.83,270.61ZM156.4,274C156.818,274.24 157.3,274.345 157.78,274.3C158.43,274.225 159.071,274.081 159.69,273.87L156.69,272.14C155.6,272.82 155.5,273.44 156.4,274ZM166.89,274.88C166.437,274.629 165.913,274.534 165.4,274.61C164.691,274.701 163.992,274.855 163.31,275.07L166.31,276.79C167.55,276 167.75,275.33 166.89,274.84L166.89,274.88Z" style="fill:rgb(249,202,6);fill-rule:nonzero;"/>
            </g>
            <g id="Coin-2">
                <ellipse cx="164.39" cy="273.27" rx="27.8" ry="16.05" style="fill:rgb(221,153,14);"/>
                <path d="M136.6,273.51L136.6,266.2L142.09,271.09L136.6,273.51Z" style="fill:rgb(221,153,14);fill-rule:nonzero;"/>
                <path d="M192.19,266.39L192.19,273.27L189.38,276.25L188.01,268.38L192.19,266.39Z" style="fill:rgb(221,153,14);fill-rule:nonzero;"/>
                <ellipse cx="164.39" cy="266.39" rx="27.8" ry="16.05" style="fill:rgb(249,203,7);"/>
                <path d="M184.26,266.89C183.98,269.59 182.05,272.26 178.47,274.33C170.69,278.81 158.09,278.81 150.32,274.33C146.73,272.26 144.81,269.59 144.53,266.89C144.2,263.73 146.13,260.49 150.32,258.08C158.09,253.59 170.69,253.59 178.47,258.08C182.66,260.49 184.59,263.73 184.26,266.89Z" style="fill:rgb(204,139,9);fill-rule:nonzero;"/>
                <path d="M184.26,266.89C183.98,269.59 182.05,272.26 178.47,274.33C170.69,278.81 158.09,278.81 150.32,274.33C146.73,272.26 144.81,269.59 144.53,266.89C144.81,264.19 146.73,261.52 150.32,259.45C158.09,254.96 170.69,254.96 178.47,259.45C182.05,261.52 184,264.19 184.26,266.89Z" style="fill:rgb(232,163,10);fill-rule:nonzero;"/>
                <path d="M164.1,263.13C163.855,263.126 163.611,263.146 163.37,263.19C163.04,263.19 162.68,263.3 162.27,263.39C161.86,263.48 161.44,263.58 161.01,263.71C160.581,263.835 160.163,263.996 159.76,264.19L163,266L163.57,265.8C164.38,265.53 165.15,265.3 165.87,265.11C166.547,264.929 167.24,264.815 167.94,264.77C168.576,264.727 169.216,264.77 169.84,264.9C170.482,265.033 171.097,265.273 171.66,265.61C172.217,265.887 172.693,266.304 173.04,266.82C173.276,267.191 173.348,267.644 173.24,268.07C173.105,268.54 172.846,268.965 172.49,269.3C172.051,269.741 171.561,270.127 171.03,270.45L173.03,271.62L171.92,272.26L169.92,271.08C168.943,271.562 167.922,271.947 166.87,272.23C165.767,272.539 164.64,272.75 163.5,272.86L162.38,271C162.681,270.994 162.982,270.971 163.28,270.93C163.731,270.88 164.178,270.803 164.62,270.7C165.11,270.6 165.62,270.46 166.18,270.3C166.714,270.148 167.236,269.954 167.74,269.72L164.56,267.89L164.15,268.03L163.71,268.16C162.988,268.405 162.254,268.612 161.51,268.78C160.897,268.927 160.27,269.01 159.64,269.03C159.082,269.053 158.524,269.002 157.98,268.88C157.443,268.747 156.928,268.539 156.45,268.26C155.928,267.983 155.474,267.594 155.12,267.12C154.868,266.761 154.742,266.328 154.76,265.89C154.809,265.43 154.994,264.995 155.29,264.64C155.658,264.186 156.093,263.792 156.58,263.47L154.7,262.38L155.8,261.74L157.67,262.82C158.544,262.387 159.463,262.051 160.41,261.82C161.315,261.593 162.233,261.426 163.16,261.32L164.1,263.13ZM158.67,266.48C159.088,266.72 159.57,266.825 160.05,266.78C160.7,266.705 161.341,266.561 161.96,266.35L158.96,264.62C157.87,265.34 157.77,266 158.67,266.48ZM169.16,267.35C168.706,267.1 168.182,267.009 167.67,267.09C166.96,267.176 166.26,267.33 165.58,267.55L168.58,269.26C169.82,268.49 170,267.85 169.16,267.35Z" style="fill:rgb(204,139,9);fill-rule:nonzero;"/>
                <path d="M162.38,271L162.38,269.92L163.6,270.71L163.07,271.52L162.38,271Z" style="fill:rgb(204,139,9);fill-rule:nonzero;"/>
                <path d="M173.03,271.65L173.03,270.58L170.38,270.78L171.9,271.81L173.03,271.65Z" style="fill:rgb(204,139,9);fill-rule:nonzero;"/>
                <path d="M173.25,267.7L173.25,266.61L171.27,267.32L173.25,267.7Z" style="fill:rgb(204,139,9);fill-rule:nonzero;"/>
                <path d="M165.05,267.64L165.71,267.01L168.03,268.61L167.89,269.09C167.89,269.09 166.15,268.36 166.1,268.31L165.05,267.64Z" style="fill:rgb(204,139,9);fill-rule:nonzero;"/>
                <path d="M159,264.24L162.09,265.99L162.72,265.53L162.3,265.05C162.012,264.729 161.674,264.455 161.3,264.24C161.07,264.24 159.61,263.55 159.61,263.55L159,264.24Z" style="fill:rgb(204,139,9);fill-rule:nonzero;"/>
                <path d="M164.1,263.13L164.1,262.05L162.69,261.59L162.38,262.44L162.46,262.82L164.1,263.13Z" style="fill:rgb(204,139,9);fill-rule:nonzero;"/>
                <path d="M154.69,262.35L154.69,261.27L156.34,261.45L155.81,262.5L154.69,262.35Z" style="fill:rgb(204,139,9);fill-rule:nonzero;"/>
                <path d="M154.76,266L154.76,264.88L156.64,264.88L156.18,265.88L155.36,266.78L154.76,266Z" style="fill:rgb(204,139,9);fill-rule:nonzero;"/>
                <path d="M164.1,262.05C163.855,262.046 163.611,262.066 163.37,262.11C163.04,262.16 162.68,262.22 162.27,262.31C161.86,262.4 161.44,262.5 161.01,262.63C160.581,262.755 160.163,262.916 159.76,263.11L163,265L163.57,264.8C164.38,264.53 165.15,264.3 165.87,264.11C166.547,263.929 167.24,263.815 167.94,263.77C168.576,263.727 169.216,263.77 169.84,263.9C170.482,264.033 171.097,264.273 171.66,264.61C172.217,264.887 172.693,265.304 173.04,265.82C173.274,266.192 173.347,266.644 173.24,267.07C173.105,267.54 172.846,267.965 172.49,268.3C172.042,268.728 171.541,269.098 171,269.4L173,270.58L171.89,271.22L169.89,270.03C168.913,270.512 167.892,270.897 166.84,271.18C165.737,271.489 164.61,271.7 163.47,271.81L162.4,269.89C162.701,269.884 163.002,269.861 163.3,269.82C163.751,269.77 164.198,269.693 164.64,269.59C165.13,269.49 165.64,269.35 166.2,269.19C166.734,269.038 167.256,268.844 167.76,268.61L164.58,266.78L164.17,266.92L163.73,267.06C162.93,267.32 162.2,267.52 161.53,267.67C160.916,267.815 160.29,267.902 159.66,267.93C159.102,267.945 158.545,267.891 158,267.77C157.463,267.637 156.948,267.429 156.47,267.15C155.943,266.88 155.487,266.489 155.14,266.01C154.888,265.651 154.762,265.218 154.78,264.78C154.829,264.32 155.014,263.885 155.31,263.53C155.678,263.076 156.113,262.682 156.6,262.36L154.72,261.27L155.82,260.63L157.69,261.71C158.566,261.281 159.484,260.946 160.43,260.71C161.334,260.481 162.253,260.317 163.18,260.22L164.1,262.05ZM158.67,265.4C159.088,265.64 159.57,265.745 160.05,265.7C160.701,265.63 161.342,265.486 161.96,265.27L158.96,263.55C157.87,264.26 157.77,264.88 158.67,265.4ZM169.16,266.28C168.707,266.027 168.183,265.932 167.67,266.01C166.961,266.101 166.262,266.255 165.58,266.47L168.58,268.19C169.82,267.41 170,266.77 169.16,266.28Z" style="fill:rgb(249,202,6);fill-rule:nonzero;"/>
            </g>
            <g id="Coin-3">
                <ellipse cx="162.69" cy="265.03" rx="27.8" ry="16.05" style="fill:rgb(221,153,14);"/>
                <path d="M134.89,265.27L134.89,257.96L140.39,262.85L134.89,265.27Z" style="fill:rgb(221,153,14);fill-rule:nonzero;"/>
                <path d="M190.49,258.15L190.49,265.03L187.68,268.01L186.3,260.14L190.49,258.15Z" style="fill:rgb(221,153,14);fill-rule:nonzero;"/>
                <ellipse cx="162.69" cy="258.15" rx="27.8" ry="16.05" style="fill:rgb(249,203,7);"/>
                <path d="M182.55,258.65C182.27,261.35 180.35,264.02 176.76,266.09C168.99,270.57 156.39,270.57 148.61,266.09C145.03,264.02 143.1,261.35 142.83,258.65C142.49,255.49 144.42,252.25 148.61,249.84C156.39,245.35 168.99,245.35 176.76,249.84C181,252.25 182.88,255.49 182.55,258.65Z" style="fill:rgb(204,139,9);fill-rule:nonzero;"/>
                <path d="M182.55,258.65C182.27,261.35 180.35,264.02 176.76,266.09C168.99,270.57 156.39,270.57 148.61,266.09C145.03,264.02 143.1,261.35 142.83,258.65C143.1,255.95 145.03,253.28 148.61,251.21C156.39,246.72 168.99,246.72 176.76,251.21C180.35,253.28 182.27,256 182.55,258.65Z" style="fill:rgb(232,163,10);fill-rule:nonzero;"/>
                <path d="M162.4,254.89C162.155,254.886 161.911,254.906 161.67,254.95C161.34,254.95 160.97,255.06 160.57,255.15C160.17,255.24 159.74,255.34 159.3,255.47C158.871,255.597 158.453,255.757 158.05,255.95L161.25,257.79L161.82,257.59C162.64,257.32 163.4,257.09 164.12,256.9C164.797,256.719 165.49,256.605 166.19,256.56C166.83,256.517 167.472,256.561 168.1,256.69C168.741,256.826 169.356,257.065 169.92,257.4C170.472,257.68 170.944,258.096 171.29,258.61C171.524,258.982 171.599,259.432 171.5,259.86C171.357,260.326 171.099,260.749 170.75,261.09C170.309,261.528 169.819,261.914 169.29,262.24L171.29,263.41L170.18,264.05L168.13,262.87C167.17,263.351 166.165,263.736 165.13,264.02C164.031,264.328 162.906,264.539 161.77,264.65L160.7,262.73C160.998,262.724 161.295,262.701 161.59,262.66C162.041,262.61 162.488,262.533 162.93,262.43C163.43,262.33 163.93,262.19 164.49,262.03C165.027,261.876 165.552,261.682 166.06,261.45L162.88,259.62L162.46,259.76L162.03,259.89C161.308,260.134 160.573,260.341 159.83,260.51C159.213,260.652 158.583,260.736 157.95,260.76C157.396,260.782 156.841,260.732 156.3,260.61C155.762,260.481 155.246,260.272 154.77,259.99C154.248,259.713 153.794,259.324 153.44,258.85C153.178,258.495 153.047,258.06 153.07,257.62C153.122,257.161 153.306,256.727 153.6,256.37C153.968,255.916 154.403,255.522 154.89,255.2L153,254.11L154.11,253.47L155.98,254.55C156.853,254.115 157.772,253.779 158.72,253.55C159.621,253.323 160.537,253.156 161.46,253.05L162.4,254.89ZM157,258.24C157.421,258.48 157.907,258.585 158.39,258.54C159.037,258.465 159.674,258.321 160.29,258.11L157.29,256.38C156.17,257.1 156.073,257.72 157,258.24ZM167.5,259.11C167.042,258.861 166.515,258.77 166,258.85C165.29,258.937 164.591,259.091 163.91,259.31L166.91,261.02C168.12,260.25 168.32,259.61 167.46,259.11L167.5,259.11Z" style="fill:rgb(204,139,9);fill-rule:nonzero;"/>
                <path d="M160.68,262.73L160.68,261.65L161.9,262.44L161.37,263.25L160.68,262.73Z" style="fill:rgb(204,139,9);fill-rule:nonzero;"/>
                <path d="M171.32,263.41L171.32,262.33L168.68,262.54L170.19,263.57L171.32,263.41Z" style="fill:rgb(204,139,9);fill-rule:nonzero;"/>
                <path d="M171.54,259.46L171.54,258.37L169.56,259.08L171.54,259.46Z" style="fill:rgb(204,139,9);fill-rule:nonzero;"/>
                <path d="M163.34,259.4L164,258.77L166.33,260.37L166.18,260.85C166.18,260.85 164.45,260.12 164.39,260.07L163.34,259.4Z" style="fill:rgb(204,139,9);fill-rule:nonzero;"/>
                <path d="M157.27,256L160.35,257.75L160.98,257.29L160.56,256.81C160.274,256.486 159.936,256.212 159.56,256C159.34,256 157.87,255.3 157.87,255.3L157.27,256Z" style="fill:rgb(204,139,9);fill-rule:nonzero;"/>
                <path d="M162.4,254.89L162.4,253.81L160.98,253.35L160.68,254.2L160.75,254.58L162.4,254.89Z" style="fill:rgb(204,139,9);fill-rule:nonzero;"/>
                <path d="M152.99,254.11L152.99,253.03L154.63,253.21L154.1,254.25L152.99,254.11Z" style="fill:rgb(204,139,9);fill-rule:nonzero;"/>
                <path d="M153.05,257.77L153.05,256.65L154.93,256.65L154.47,257.65L153.66,258.55L153.05,257.77Z" style="fill:rgb(204,139,9);fill-rule:nonzero;"/>
                <path d="M162.4,253.81C162.155,253.806 161.911,253.826 161.67,253.87C161.34,253.87 160.97,253.98 160.57,254.07C160.17,254.16 159.74,254.26 159.3,254.39C158.871,254.517 158.453,254.677 158.05,254.87L161.25,256.71L161.82,256.51C162.64,256.24 163.4,256.01 164.12,255.82C164.797,255.639 165.49,255.525 166.19,255.48C166.83,255.437 167.472,255.481 168.1,255.61C168.741,255.746 169.356,255.985 169.92,256.32C170.472,256.6 170.944,257.016 171.29,257.53C171.522,257.902 171.598,258.352 171.5,258.78C171.357,259.246 171.099,259.669 170.75,260.01C170.312,260.451 169.822,260.837 169.29,261.16L171.29,262.34L170.18,262.98L168.13,261.79C167.17,262.271 166.165,262.656 165.13,262.94C164.031,263.248 162.906,263.459 161.77,263.57L160.7,261.65C160.998,261.644 161.295,261.621 161.59,261.58C162.041,261.53 162.488,261.453 162.93,261.35C163.43,261.25 163.93,261.11 164.49,260.95C165.027,260.796 165.552,260.602 166.06,260.37L162.88,258.54L162.46,258.68L162.03,258.81C161.308,259.054 160.573,259.261 159.83,259.43C159.213,259.577 158.584,259.661 157.95,259.68C157.396,259.702 156.841,259.652 156.3,259.53C155.762,259.401 155.246,259.192 154.77,258.91C154.245,258.637 153.79,258.247 153.44,257.77C153.178,257.415 153.047,256.98 153.07,256.54C153.124,256.081 153.308,255.648 153.6,255.29C153.968,254.836 154.403,254.442 154.89,254.12L153,253L154.11,252.36L155.98,253.44C156.855,253.009 157.773,252.674 158.72,252.44C159.62,252.211 160.536,252.047 161.46,251.95L162.4,253.81ZM157,257.16C157.421,257.4 157.907,257.505 158.39,257.46C159.037,257.385 159.674,257.241 160.29,257.03L157.29,255.3C156.17,256.02 156.073,256.64 157,257.16ZM167.5,258.04C167.043,257.788 166.516,257.693 166,257.77C165.291,257.862 164.592,258.016 163.91,258.23L166.91,259.95C168.12,259.17 168.32,258.53 167.46,258L167.5,258.04Z" style="fill:rgb(249,202,6);fill-rule:nonzero;"/>
            </g>
            <path d="M430.3,442.08L372,408.43C370.992,407.843 370.37,406.761 370.37,405.595C370.37,404.429 370.992,403.347 372,402.76C373.012,402.171 374.268,402.171 375.28,402.76L433.57,436.41C434.579,436.997 435.201,438.079 435.201,439.245C435.201,440.564 434.406,441.76 433.19,442.27C432.25,442.657 431.182,442.586 430.3,442.08Z" style="fill-opacity:0.4;fill-rule:nonzero;"/>
            <path d="M405.13,421.73C384.27,409.68 367.3,380.29 367.3,356.2C367.3,332.11 384.3,322.31 405.13,334.36C425.96,346.41 443,375.8 443,399.89C443,423.98 426,433.77 405.13,421.73ZM405.13,342.18C388.01,332.29 374.07,340.33 374.07,360.11C374.07,379.89 388,404 405.13,413.91C422.26,423.82 436.2,415.75 436.2,396C436.2,376.25 422.26,352.06 405.13,342.18Z" style="fill:rgb(47,85,212);fill-rule:nonzero;"/>
            <path d="M373.2,334.63L380.14,330.85L379.1,335.6L373.2,334.63Z" style="fill:rgb(47,85,212);fill-rule:nonzero;"/>
            <path d="M425.44,427.86C425.61,427.78 433.02,423.64 433.02,423.64L427.29,422.72L425.44,427.86Z" style="fill:rgb(47,85,212);fill-rule:nonzero;"/>
            <g transform="matrix(0.866025,-0.5,0.5,0.866025,-136.73,251.17)">
                <ellipse cx="400.31" cy="380.72" rx="28.13" ry="48.72" style="fill:rgb(244,244,244);"/>
            </g>
            <path d="M400.31,424.41C379.45,412.36 362.47,382.97 362.47,358.88C362.47,334.79 379.47,324.99 400.31,337.04C421.15,349.09 438.14,378.48 438.14,402.57C438.14,426.66 421.17,436.45 400.31,424.41ZM400.31,344.86C383.18,334.97 369.25,343.01 369.25,362.79C369.25,382.57 383.18,406.7 400.31,416.59C417.44,426.48 431.37,418.43 431.37,398.66C431.37,378.89 417.44,354.74 400.31,344.86Z" style="fill:rgb(47,85,212);fill-rule:nonzero;"/>
            <path d="M400.31,407.79C387.38,400.32 376.87,382.11 376.87,367.19C376.87,352.27 387.38,346.19 400.31,353.66C413.24,361.13 423.75,379.33 423.75,394.25C423.75,409.17 413.23,415.25 400.31,407.79ZM400.31,361.48C391.12,356.17 383.64,360.48 383.64,371.1C383.64,381.72 391.12,394.66 400.31,399.97C409.5,405.28 417,401 417,390.34C417,379.68 409.5,366.78 400.31,361.48Z" style="fill:rgb(47,85,212);fill-rule:nonzero;"/>
            <path d="M400.31,391.43C395.2,388.43 391.04,381.27 391.04,375.37C391.04,369.47 395.2,367.07 400.31,370.02C405.42,372.97 409.58,380.17 409.58,386.07C409.58,391.97 405.42,394.38 400.31,391.43ZM400.31,377.84C398.93,377.04 397.81,377.69 397.81,379.28C397.908,381.037 398.837,382.647 400.31,383.61C401.69,384.4 402.81,383.76 402.81,382.16C402.714,380.405 401.784,378.798 400.31,377.84Z" style="fill:rgb(47,85,212);fill-rule:nonzero;"/>
            <path d="M335.85,417.4L332.38,417.44L343.64,412.66L337.11,416.72L335.85,417.4Z" style="fill:rgb(43,48,63);fill-rule:nonzero;"/>
            <g transform="matrix(0.866025,-0.5,0.5,0.866025,-163.85,224.37)">
                <ellipse cx="336.73" cy="417.91" rx="0.72" ry="1.25" style="fill:rgb(232,163,10);"/>
            </g>
            <g transform="matrix(0.866025,-0.5,0.5,0.866025,-136.87,251.3)">
                <ellipse cx="400.47" cy="381.04" rx="0.72" ry="1.25" style="fill:rgb(232,163,10);"/>
            </g>
            <path d="M338.22,422.42L337.39,418.97L346.45,413.19L346.06,414.01L338.22,422.42Z" style="fill:rgb(43,48,63);fill-rule:nonzero;"/>
            <path d="M337.39,419C337.47,418.93 401.1,382.15 401.1,382.15L399.93,379.95L336.1,416.83L337.39,419Z" style="fill:rgb(232,163,10);fill-rule:nonzero;"/>
            <path d="M46.21,364.33L25.95,352.63L46.21,340.93L66.47,352.63L46.21,364.33Z" style="fill-opacity:0.3;fill-rule:nonzero;"/>
            <path d="M78.32,345.58L58.06,333.89L78.32,322.19L98.58,333.89L78.32,345.58Z" style="fill-opacity:0.3;fill-rule:nonzero;"/>
            <path d="M90.35,263.34L70.09,251.64L90.35,239.94L110.61,251.64L90.35,263.34Z" style="fill:rgb(33,149,156);fill-rule:nonzero;"/>
            <path d="M90.35,338.81L70.09,327.11L70.09,251.64L90.35,263.34L90.35,338.81Z" style="fill:rgb(228,231,242);fill-rule:nonzero;"/>
            <path d="M90.35,338.81L70.09,327.11L70.09,251.64L90.35,263.34L90.35,338.81Z" style="fill:rgb(25,177,186);fill-rule:nonzero;"/>
            <path d="M110.61,327.11L90.35,338.81L90.35,263.34L110.61,251.64L110.61,327.11Z" style="fill:rgb(33,149,156);fill-rule:nonzero;"/>
            <path d="M110.61,327.11L90.35,338.81L90.35,263.34L110.61,251.64L110.61,327.11Z" style="fill-opacity:0.15;fill-rule:nonzero;"/>
            <path d="M59.96,301.76L39.7,290.06L59.96,278.37L80.22,290.06L59.96,301.76Z" style="fill:rgb(255,77,77);fill-rule:nonzero;"/>
            <path d="M59.96,356.26L39.7,344.56L39.7,290.06L59.96,301.76L59.96,356.26Z" style="fill:rgb(255,77,77);fill-rule:nonzero;"/>
            <path d="M80.22,344.56L59.96,356.26L59.96,301.76L80.22,290.06L80.22,344.56Z" style="fill:rgb(255,77,77);fill-rule:nonzero;"/>
            <path d="M80.22,344.56L59.96,356.26L59.96,301.76L80.22,290.06L80.22,344.56Z" style="fill-opacity:0.15;fill-rule:nonzero;"/>
            <path d="M20.26,379.66L0,367.96L20.26,356.26L40.52,367.96L20.26,379.66Z" style="fill-opacity:0.3;fill-rule:nonzero;"/>
            <path d="M27.6,341.71L7.34,330.01L27.6,318.32L47.86,330.01L27.6,341.71Z" style="fill:rgb(183,226,0);fill-rule:nonzero;"/>
            <path d="M27.6,375.24L7.34,363.55L7.34,330.01L27.6,341.71L27.6,375.24Z" style="fill:rgb(183,226,0);fill-rule:nonzero;"/>
            <path d="M47.86,363.55L27.6,375.24L27.6,341.71L47.86,330.01L47.86,363.55Z" style="fill:rgb(183,226,0);fill-rule:nonzero;"/>
            <path d="M47.86,363.55L27.6,375.24L27.6,341.71L47.86,330.01L47.86,363.55Z" style="fill-opacity:0.15;fill-rule:nonzero;"/>
            <path d="M236.3,453.74L223.3,435.02L217,432.2C212.218,431.094 207.328,430.531 202.42,430.52C196.55,436.44 159.53,438.02 144.83,430.72C128.16,422.44 119.42,412.33 116.7,406.14C111.86,395.14 121.09,382.21 121.09,382.21C95.87,396.77 95.87,420.47 121.09,435.03C144.73,448.68 182.27,449.53 207.65,437.59L236.3,453.74Z" style="fill-opacity:0.4;fill-rule:nonzero;"/>
            <path d="M307.55,500L220.25,449.6L235.08,441.04L322.38,491.44L307.55,500Z" style="fill-opacity:0.4;fill-rule:nonzero;"/>
            <path d="M124.21,430.42C98.99,415.86 98.99,392.17 124.21,377.61C149.43,363.05 190.47,363.05 215.69,377.61C240.91,392.17 240.91,415.86 215.69,430.42C190.47,444.98 149.43,445 124.21,430.42ZM204.53,384.05C185.46,373.05 154.43,373.05 135.37,384.05C116.31,395.05 116.3,413 135.37,424C154.44,435 185.46,435 204.53,424C223.6,413 223.6,395.06 204.53,384.05Z" style="fill:rgb(177,180,196);fill-rule:nonzero;"/>
            <path d="M105.33,405.13L105.33,393.94L116.67,399.53L105.33,405.13Z" style="fill:rgb(177,180,196);fill-rule:nonzero;"/>
            <path d="M137.44,423.58C137.9,424.15 139.52,435.11 171.82,435.11C204.12,435.11 202.74,422.16 202.74,422.16C202.74,422.16 172.28,426.35 171.82,426.35C171.36,426.35 137.44,423.58 137.44,423.58Z" style="fill:rgb(177,180,196);fill-rule:nonzero;"/>
            <path d="M234.6,393.94L234.6,404.01L225.3,398.08L234.6,393.94Z" style="fill:rgb(177,180,196);fill-rule:nonzero;"/>
            <path d="M140.55,369.58C149.927,365.933 159.889,364.018 169.95,363.93C179.738,363.961 189.414,366.028 198.36,370L196.31,373.41L142.31,373.41L140.55,369.58Z" style="fill:rgb(177,180,196);fill-rule:nonzero;"/>
            <path d="M124.21,420.35C98.99,405.79 98.99,382.09 124.21,367.53C149.43,352.97 190.47,352.97 215.69,367.53C240.91,382.09 240.91,405.79 215.69,420.35C190.47,434.91 149.43,434.91 124.21,420.35ZM204.53,374C185.46,363 154.43,363 135.37,374C116.31,385 116.3,402.93 135.37,413.94C154.44,424.95 185.46,424.94 204.53,413.94C223.6,402.94 223.6,385 204.53,374Z" style="fill:rgb(226,226,236);fill-rule:nonzero;"/>
            <path d="M230.79,436.31L208.91,423.58L221.62,416.25L243.5,428.97L230.79,436.31Z" style="fill:rgb(226,226,236);fill-rule:nonzero;"/>
            <path d="M230.79,446.45L208.93,433.8L208.93,423.59L230.79,436.24L230.79,446.45Z" style="fill:rgb(177,180,196);fill-rule:nonzero;"/>
            <path d="M310.32,498.24L223.03,447.84L223.03,430.72L310.32,481.12L310.32,498.24Z" style="fill:rgb(43,48,63);fill-rule:nonzero;"/>
            <path d="M310.33,481.13L223.03,430.73L237.86,422.17L325.16,472.56L310.33,481.13Z" style="fill:rgb(57,64,81);fill-rule:nonzero;"/>
            <path d="M310.32,498.24C311.22,498.14 325.16,489.89 325.16,489.89L325.16,472.56L310.33,481.13L310.32,498.24Z" style="fill:rgb(35,39,51);fill-rule:nonzero;"/>
        </g>
    </g>
</svg>
