<?xml version='1.0' encoding='utf-8'?>
<!-- Generator: imaengine 6.0   -->
<svg xmlns:xlink="http://www.w3.org/1999/xlink" xmlns="http://www.w3.org/2000/svg" viewBox="0,0,461,500" style="enable-background:new 0 0 461 500;" version="1.1">
<defs/>
<g id="layer0">
<g transform="matrix(0.36691 0 0 0.36691 -12.8885 -39.3971)">
<path d="M399.818,1225.44L410.378,1234.99L403.515,1259.6L392.958,1250.05L399.818,1225.44Z" fill="#B3B3B3"/>
<path d="M408.874,1192.94L419.435,1202.49L411.346,1231.51L400.785,1221.96L408.874,1192.94Z" fill="#B3B3B3"/>
<path d="M417.934,1160.44L428.495,1169.99L420.405,1199.02L409.841,1189.47L417.934,1160.44Z" fill="#B3B3B3"/>
<path d="M426.99,1127.95L437.551,1137.5L429.461,1166.52L418.904,1156.97L426.99,1127.95Z" fill="#B3B3B3"/>
<path d="M436.053,1095.45L446.61,1105.01L438.518,1134.03L427.961,1124.48L436.053,1095.45Z" fill="#B3B3B3"/>
<path d="M445.109,1062.96L455.667,1072.51L447.577,1101.53L437.017,1091.98L445.109,1062.96Z" fill="#B3B3B3"/>
<path d="M454.166,1030.47L464.729,1040.02L456.638,1069.04L446.077,1059.49L454.166,1030.47Z" fill="#B3B3B3"/>
<path d="M463.225,997.971L473.786,1007.52L465.693,1036.54L455.136,1026.99L463.225,997.971Z" fill="#B3B3B3"/>
<path d="M400.785,1221.96L411.346,1231.51L337.242,1274.3L326.681,1264.75L400.785,1221.96Z" fill="#DBDADA"/>
<path d="M335.74,1232.25L409.841,1189.47L420.405,1199.02L346.301,1241.8L335.74,1232.25Z" fill="#DBDADA"/>
<path d="M344.8,1199.76L418.904,1156.97L429.461,1166.52L355.357,1209.31L344.8,1199.76Z" fill="#DBDADA"/>
<path d="M353.856,1167.26L427.961,1124.48L438.518,1134.03L364.417,1176.81L353.856,1167.26Z" fill="#DBDADA"/>
<path d="M362.912,1134.77L437.017,1091.98L447.577,1101.54L373.476,1144.32L362.912,1134.77Z" fill="#DBDADA"/>
<path d="M371.976,1102.27L446.077,1059.49L456.638,1069.04L382.532,1111.82L371.976,1102.27Z" fill="#DBDADA"/>
<path d="M381.032,1069.77L455.136,1026.99L465.693,1036.54L391.589,1079.33L381.032,1069.77Z" fill="#DBDADA"/>
<path d="M390.088,1037.28L464.192,994.497L474.753,1004.05L400.649,1046.83L390.088,1037.28Z" fill="#DBDADA"/>
<path d="M399.147,1004.79L473.251,962.004L483.813,971.556L409.708,1014.34L399.147,1004.79Z" fill="#DBDADA"/>
<path d="M418.765,981.841L492.869,939.057L499.485,915.319L503.14,913.212L496.52,936.951L495.557,940.421L487.464,969.442L486.493,972.917L478.404,1001.94L477.437,1005.41L469.345,1034.44L468.381,1037.91L460.288,1066.93L459.321,1070.4L451.228,1099.43L450.262,1102.9L442.172,1131.92L441.205,1135.39L433.113,1164.42L432.146,1167.89L424.057,1196.91L423.087,1200.38L414.998,1229.41L414.031,1232.88L407.167,1257.5L403.516,1259.6L410.379,1234.99L336.275,1277.77L329.537,1301.94L325.885,1304.05L421.855,959.768L425.51,957.66L418.765,981.841L418.765,981.841ZM346.301,1241.8L420.402,1199.02L428.495,1170L354.391,1212.78L346.301,1241.8L346.301,1241.8ZM364.417,1176.81L438.518,1134.03L446.611,1105.01L372.507,1147.79L364.417,1176.81L364.417,1176.81ZM355.357,1209.31L429.461,1166.53L437.554,1137.5L363.449,1180.29L355.357,1209.31L355.357,1209.31ZM373.476,1144.32L447.577,1101.54L455.666,1072.51L381.565,1115.29L373.476,1144.32L373.476,1144.32ZM400.649,1046.83L474.75,1004.05L482.843,975.026L408.739,1017.81L400.649,1046.83L400.649,1046.83ZM391.589,1079.33L465.693,1036.54L473.786,1007.52L399.682,1050.31L391.589,1079.33L391.589,1079.33ZM337.242,1274.3L411.346,1231.51L419.435,1202.49L345.331,1245.28L337.242,1274.3L337.242,1274.3ZM409.708,1014.34L483.812,971.552L491.902,942.531L417.8,985.315L409.708,1014.34L409.708,1014.34ZM382.532,1111.82L456.637,1069.04L464.729,1040.02L390.625,1082.8L382.532,1111.82L382.532,1111.82Z" fill="#9C9C9B"/>
<path d="M662.22,1408.44L651.636,1405.48L645.037,1372.91L655.628,1375.86L662.22,1408.44Z" fill="#C7C6C6"/>
<path d="M654.7,1371.27L644.109,1368.31L636.335,1329.91L646.929,1332.87L654.7,1371.27Z" fill="#C7C6C6"/>
<path d="M646,1328.27L635.408,1325.32L627.637,1286.92L638.229,1289.87L646,1328.27Z" fill="#C7C6C6"/>
<path d="M637.301,1285.28L626.708,1282.33L618.937,1243.93L629.53,1246.88L637.301,1285.28Z" fill="#C7C6C6"/>
<path d="M628.601,1242.28L618.007,1239.33L610.237,1200.93L620.828,1203.89L628.601,1242.28Z" fill="#C7C6C6"/>
<path d="M619.9,1199.29L609.309,1196.34L601.536,1157.93L612.128,1160.89L619.9,1199.29Z" fill="#C7C6C6"/>
<path d="M611.2,1156.29L600.607,1153.34L592.836,1114.94L603.429,1117.89L611.2,1156.29Z" fill="#C7C6C6"/>
<path d="M602.498,1113.3L591.904,1110.35L584.136,1071.94L594.725,1074.9L602.498,1113.3Z" fill="#C7C6C6"/>
<path d="M593.796,1070.31L583.204,1067.35L575.436,1028.95L586.025,1031.9L593.796,1070.31Z" fill="#C7C6C6"/>
<path d="M585.096,1027.31L574.504,1024.36L566.732,985.956L577.325,988.91L585.096,1027.31Z" fill="#C7C6C6"/>
<path d="M570.039,952.907L576.396,984.316L565.804,981.365L559.447,949.955L570.039,952.907Z" fill="#C7C6C6"/>
<path d="M654.7,1371.27L580.596,1414.05L570.003,1411.1L644.109,1368.31L654.7,1371.27Z" fill="#DBDADA"/>
<path d="M646,1328.27L571.896,1371.06L561.304,1368.1L635.408,1325.32L646,1328.27Z" fill="#DBDADA"/>
<path d="M637.301,1285.28L563.196,1328.06L552.603,1325.11L626.708,1282.33L637.301,1285.28Z" fill="#DBDADA"/>
<path d="M628.601,1242.28L554.496,1285.07L543.904,1282.12L618.007,1239.33L628.601,1242.28Z" fill="#DBDADA"/>
<path d="M619.9,1199.29L545.796,1242.07L535.203,1239.12L609.309,1196.34L619.9,1199.29Z" fill="#DBDADA"/>
<path d="M611.2,1156.29L537.096,1199.08L526.503,1196.12L600.607,1153.34L611.2,1156.29Z" fill="#DBDADA"/>
<path d="M602.498,1113.3L528.396,1156.08L517.803,1153.13L591.904,1110.35L602.498,1113.3Z" fill="#DBDADA"/>
<path d="M593.796,1070.31L519.696,1113.09L509.104,1110.14L583.204,1067.35L593.796,1070.31Z" fill="#DBDADA"/>
<path d="M585.096,1027.31L510.992,1070.09L500.403,1067.14L574.504,1024.36L585.096,1027.31Z" fill="#DBDADA"/>
<path d="M491.699,1024.15L565.804,981.361L576.392,984.316L502.288,1027.1L491.699,1024.15Z" fill="#DBDADA"/>
<path d="M411.293,950.217L492.164,997.211L573.572,950.214L492.701,903.218L411.293,950.217Z" fill="#DBDADA"/>
<path d="M502.288,1027.1L576.392,984.317L570.038,952.905L573.69,950.801L580.047,982.208L580.976,986.802L588.747,1025.2L589.679,1029.8L597.45,1068.2L598.379,1072.79L606.152,1111.19L607.08,1115.78L614.851,1154.19L615.781,1158.78L623.552,1197.18L624.482,1201.78L632.253,1240.18L633.182,1244.77L640.954,1283.17L641.883,1287.77L649.654,1326.16L650.582,1330.76L658.353,1369.16L659.283,1373.75L665.875,1406.32L662.223,1408.43L655.631,1375.86L581.527,1418.65L587.999,1450.63L584.348,1452.74L492.166,997.21L495.818,995.103L502.288,1027.1L502.288,1027.1ZM571.896,1371.06L646,1328.27L638.229,1289.87L564.125,1332.66L571.896,1371.06L571.896,1371.06ZM554.496,1285.07L628.601,1242.28L620.828,1203.89L546.725,1246.67L554.496,1285.07L554.496,1285.07ZM563.196,1328.06L637.301,1285.28L629.53,1246.88L555.425,1289.66L563.196,1328.06L563.196,1328.06ZM545.796,1242.07L619.9,1199.29L612.129,1160.89L538.025,1203.68L545.796,1242.07L545.796,1242.07ZM519.696,1113.09L593.797,1070.31L586.026,1031.9L511.925,1074.69L519.696,1113.09L519.696,1113.09ZM528.396,1156.08L602.498,1113.3L594.726,1074.9L520.622,1117.68L528.396,1156.08L528.396,1156.08ZM580.592,1414.05L654.699,1371.27L646.928,1332.87L572.823,1375.65L580.592,1414.05L580.592,1414.05ZM510.992,1070.09L585.096,1027.31L577.325,988.911L503.221,1031.7L510.992,1070.09L510.992,1070.09ZM537.096,1199.08L611.2,1156.29L603.429,1117.9L529.325,1160.68L537.096,1199.08L537.096,1199.08Z" fill="#B3B3B3"/>
<path d="M492.164,997.211L492.199,1009.89L573.607,962.884L573.572,950.214L492.164,997.211Z" fill="#B3B3B3"/>
<path d="M421.854,959.769L411.293,950.217L315.32,1294.5L325.884,1304.05L421.854,959.769Z" fill="#C7C6C6"/>
<path d="M492.164,997.211L481.575,994.259L573.753,1449.79L584.346,1452.74L492.164,997.211Z" fill="#C7C6C6"/>
<path d="M411.293,950.217L411.329,962.89L492.199,1009.89L492.164,997.211L411.293,950.217Z" fill="#C7C6C6"/>
<path d="M457.119,584.782L467.348,567.385C469.512,557.264 474.983,512.948 477.992,509.666C481.001,506.383 489.537,494.619 492.547,488.054C495.557,481.489 503.977,489.695 503.432,497.902C502.88,506.11 498.258,522.686 491.035,524.601C488.47,539.374 486.745,580.792 482.642,587.355C478.541,593.919 457.119,584.782 457.119,584.782L457.119,584.782Z" fill="#F1B8B8"/>
<path d="M504.348,222.216C503.496,221.317 502.63,220.436 501.764,219.557C500.909,218.693 500.047,217.843 499.184,217C497.197,215.064 495.186,213.181 493.144,211.36C492.784,211.036 492.433,210.695 492.068,210.377C489.684,208.284 487.261,206.287 484.806,204.359C484.147,203.839 483.476,203.347 482.81,202.839C480.918,201.4 479.008,200.011 477.081,198.676C476.348,198.169 475.618,197.658 474.881,197.166C472.333,195.467 469.763,193.831 467.166,192.329C465.071,191.121 462.998,190.025 460.938,188.984C460.344,188.684 459.751,188.401 459.158,188.112C457.586,187.353 456.03,186.639 454.479,185.974C453.927,185.741 453.375,185.491 452.831,185.266C451.376,184.671 449.93,184.128 448.495,183.615C448.136,183.487 447.769,183.337 447.41,183.215C445.626,182.604 443.859,182.062 442.115,181.582C441.085,181.299 440.069,181.058 439.053,180.82C438.574,180.708 438.093,180.574 437.615,180.471C436.12,180.15 434.644,179.872 433.177,179.647C430.944,179.303 428.764,179.109 426.611,178.99C426.174,178.964 425.738,178.933 425.305,178.917C423.374,178.848 421.475,178.855 419.611,178.963C419.29,178.983 418.975,179.025 418.651,179.046C417.146,179.161 415.666,179.338 414.213,179.567C413.752,179.64 413.298,179.711 412.848,179.793C411.176,180.102 409.535,180.462 407.935,180.924C407.865,180.946 407.796,180.975 407.726,180.993C406.21,181.44 404.737,181.974 403.295,182.557C402.873,182.728 402.454,182.91 402.035,183.093C400.799,183.632 399.597,184.221 398.418,184.861C398.027,185.072 397.622,185.259 397.238,185.483L463.149,147.179C463.327,147.078 463.505,146.975 463.686,146.871C463.893,146.755 464.119,146.67 464.329,146.557C465.506,145.919 466.71,145.33 467.943,144.793C468.173,144.69 468.389,144.557 468.62,144.461C468.808,144.381 469.018,144.33 469.206,144.253C470.648,143.67 472.122,143.138 473.636,142.69C473.696,142.673 473.751,142.645 473.815,142.628C473.821,142.625 473.835,142.624 473.849,142.62C475.441,142.158 477.089,141.796 478.755,141.489C478.953,141.451 479.131,141.389 479.331,141.356C479.582,141.311 479.862,141.306 480.12,141.263C481.576,141.033 483.057,140.857 484.561,140.744C484.802,140.727 485.025,140.676 485.269,140.661C485.349,140.658 485.44,140.664 485.523,140.659C487.38,140.551 489.283,140.542 491.214,140.612C491.402,140.619 491.584,140.598 491.772,140.609C492.013,140.62 492.272,140.668 492.519,140.685C494.673,140.805 496.855,140.998 499.086,141.342L499.096,141.343C500.556,141.567 502.032,141.844 503.523,142.166C503.997,142.269 504.485,142.405 504.961,142.515C505.89,142.733 506.809,142.936 507.744,143.191C507.835,143.216 507.929,143.252 508.02,143.276C509.766,143.757 511.532,144.297 513.32,144.908C513.676,145.033 514.042,145.184 514.405,145.312C515.84,145.824 517.285,146.366 518.738,146.964C518.933,147.042 519.121,147.102 519.314,147.18C519.667,147.328 520.029,147.518 520.385,147.67C521.936,148.335 523.496,149.048 525.067,149.808C525.661,150.096 526.252,150.379 526.848,150.68C528.911,151.722 530.981,152.814 533.073,154.026C535.677,155.527 538.239,157.165 540.788,158.861C541.528,159.352 542.254,159.865 542.988,160.373C544.918,161.708 546.828,163.096 548.72,164.537C549.383,165.045 550.053,165.536 550.717,166.056C553.168,167.981 555.592,169.976 557.973,172.07C558.342,172.394 558.698,172.738 559.068,173.066C560.294,174.165 561.519,175.274 562.731,176.413L608.651,149.729C608.839,149.622 609.027,149.511 609.215,149.406C609.432,149.282 609.662,149.197 609.886,149.078C611.157,148.381 612.463,147.748 613.796,147.164C614.04,147.054 614.272,146.913 614.521,146.81C614.725,146.724 614.941,146.672 615.145,146.59C616.702,145.962 618.286,145.388 619.919,144.905C619.976,144.886 620.03,144.862 620.095,144.842C620.109,144.84 620.115,144.839 620.115,144.839C621.842,144.338 623.607,143.952 625.402,143.62C625.611,143.582 625.806,143.514 626.008,143.481C626.287,143.432 626.574,143.424 626.854,143.381C628.411,143.132 629.996,142.946 631.609,142.824C631.861,142.803 632.111,142.751 632.37,142.733C632.461,142.73 632.559,142.737 632.649,142.732C634.638,142.615 636.676,142.607 638.745,142.679C638.94,142.688 639.129,142.666 639.331,142.674C639.59,142.688 639.87,142.74 640.135,142.756C642.404,142.882 644.701,143.087 647.055,143.443C647.076,143.446 647.105,143.446 647.131,143.449C647.138,143.451 647.146,143.453 647.152,143.455C647.418,143.495 647.682,143.558 647.94,143.6C649.266,143.816 650.602,144.054 651.949,144.344C652.521,144.468 653.107,144.626 653.681,144.762C654.621,144.986 655.559,145.19 656.509,145.448C656.605,145.474 656.703,145.513 656.801,145.539C658.658,146.048 660.53,146.62 662.423,147.267C662.729,147.374 663.049,147.506 663.358,147.617C664.95,148.175 666.541,148.773 668.154,149.429C668.322,149.498 668.491,149.551 668.664,149.622C669.021,149.77 669.392,149.961 669.747,150.115C671.492,150.857 673.245,151.656 675.018,152.511C675.647,152.815 676.268,153.112 676.896,153.429C679.146,154.562 681.401,155.756 683.683,157.073C686.922,158.945 690.128,160.981 693.289,163.137C694.345,163.856 695.371,164.66 696.419,165.408C698.507,166.906 700.602,168.409 702.655,170.022C703.877,170.984 705.063,172.016 706.27,173.018C708.108,174.538 709.944,176.06 711.738,177.67C712.995,178.791 714.217,179.967 715.453,181.128C716.599,182.209 717.77,183.23 718.902,184.345C719.588,185.02 720.251,185.735 720.926,186.422C721.576,187.08 722.225,187.742 722.875,188.412C725.451,191.096 727.999,193.832 730.479,196.675C730.499,196.699 730.52,196.728 730.542,196.755C733.405,200.047 736.19,203.441 738.899,206.926C738.908,206.942 738.92,206.955 738.935,206.974C741.351,210.084 743.696,213.267 745.979,216.512C746.092,216.68 746.204,216.859 746.321,217.029C746.901,217.853 747.44,218.706 748.005,219.538C749.382,221.563 750.776,223.576 752.096,225.646C752.446,226.189 752.766,226.751 753.109,227.298C753.802,228.401 754.471,229.519 755.148,230.634C755.952,231.951 756.783,233.245 757.557,234.578C758.207,235.688 758.8,236.824 759.435,237.943C760.064,239.066 760.694,240.184 761.314,241.316C761.706,242.041 762.131,242.75 762.514,243.475C763.667,245.642 764.75,247.834 765.838,250.027C766.153,250.669 766.493,251.299 766.809,251.945C766.894,252.112 766.984,252.278 767.068,252.447C768.521,255.476 769.924,258.526 771.251,261.595C771.411,261.959 771.544,262.331 771.704,262.698C772.137,263.718 772.535,264.741 772.954,265.768C773.681,267.525 774.44,269.282 775.119,271.052C775.461,271.936 775.748,272.829 776.075,273.716C776.578,275.074 777.059,276.432 777.541,277.794C777.911,278.864 778.33,279.931 778.686,281.004C779.126,282.316 779.476,283.626 779.889,284.939C780.376,286.489 780.858,288.035 781.314,289.585C781.515,290.304 781.767,291.023 781.968,291.743C782.36,293.152 782.647,294.557 783.002,295.965C783.504,297.936 784.014,299.902 784.454,301.867C784.594,302.495 784.789,303.127 784.923,303.757C785.503,306.47 786.006,309.175 786.459,311.875C786.528,312.297 786.577,312.716 786.647,313.139C786.953,315.033 787.253,316.929 787.499,318.812C787.729,320.633 787.932,322.449 788.106,324.256C788.511,324.36 788.916,324.465 789.321,324.577C790.982,325.026 792.678,325.578 794.369,326.122C794.955,326.31 795.529,326.457 796.115,326.656C798.537,327.48 800.982,328.393 803.447,329.414C803.53,329.447 803.614,329.491 803.691,329.526C805.505,330.28 807.355,331.162 809.194,332.026C810.129,332.464 811.05,332.841 811.993,333.309C814.785,334.695 817.607,336.204 820.448,337.846C823.653,339.694 826.815,341.705 829.952,343.799C830.482,344.155 831.014,344.499 831.544,344.858C834.532,346.899 837.492,349.053 840.419,351.303C840.984,351.74 841.542,352.182 842.107,352.625C845.075,354.96 848.014,357.372 850.899,359.905C851.151,360.127 851.402,360.363 851.653,360.587C854.445,363.058 857.189,365.627 859.9,368.269C860.165,368.531 860.444,368.767 860.709,369.029C860.878,369.193 861.038,369.369 861.205,369.533C863.278,371.593 865.339,373.691 867.363,375.846C867.462,375.954 867.559,376.068 867.664,376.177C869.577,378.227 871.469,380.323 873.335,382.45C873.508,382.655 873.696,382.846 873.871,383.051C874.1,383.309 874.31,383.593 874.534,383.854C877.558,387.358 880.518,390.949 883.388,394.642C883.472,394.747 883.564,394.845 883.647,394.952C883.864,395.236 884.066,395.539 884.29,395.822C886.573,398.797 888.808,401.825 890.986,404.906C891.203,405.213 891.44,405.508 891.656,405.819C891.761,405.962 891.85,406.112 891.956,406.257C894.038,409.241 896.061,412.275 898.045,415.346C898.233,415.641 898.443,415.926 898.632,416.222C898.912,416.667 899.177,417.126 899.455,417.572C901.048,420.095 902.604,422.642 904.119,425.216C904.357,425.617 904.616,426.005 904.852,426.409C904.937,426.56 905.02,426.718 905.103,426.868C906.822,429.822 908.484,432.807 910.097,435.817C910.23,436.064 910.369,436.301 910.501,436.55C910.766,437.047 911.004,437.557 911.269,438.058C912.519,440.451 913.741,442.858 914.928,445.279C915.172,445.783 915.445,446.279 915.689,446.787C915.835,447.093 915.968,447.401 916.108,447.704C917.575,450.767 918.992,453.85 920.339,456.948C920.381,457.048 920.429,457.142 920.472,457.238C920.619,457.571 920.743,457.912 920.885,458.245C922.085,461.043 923.23,463.853 924.334,466.675C924.507,467.133 924.717,467.586 924.892,468.042C925.038,468.425 925.158,468.812 925.303,469.196C926.567,472.53 927.783,475.869 928.9,479.221C928.921,479.284 928.949,479.349 928.97,479.41C929.033,479.608 929.088,479.807 929.152,480.005C930.297,483.463 931.343,486.926 932.321,490.39C932.448,490.823 932.601,491.256 932.719,491.685C932.782,491.924 932.823,492.16 932.895,492.396C933.997,496.418 934.974,500.437 935.847,504.448C935.924,504.8 936.029,505.156 936.106,505.511C936.217,506.031 936.3,506.549 936.406,507.071C936.735,508.654 937.028,510.231 937.314,511.809C937.515,512.896 937.719,513.986 937.901,515.07C938.166,516.694 938.404,518.307 938.627,519.924C938.738,520.691 938.879,521.459 938.976,522.22C939.004,522.422 939.012,522.621 939.032,522.822C939.473,526.289 939.808,529.733 940.052,533.158C940.102,533.887 940.137,534.612 940.186,535.336C940.388,538.854 940.529,542.354 940.513,545.808C940.409,583.78 927.001,610.506 905.376,623.07L839.472,661.374C861.096,648.808 874.502,622.082 874.607,584.11C874.622,580.655 874.482,577.154 874.278,573.64C874.229,572.912 874.195,572.187 874.139,571.459C873.895,568.036 873.566,564.59 873.127,561.123C873.008,560.159 872.853,559.189 872.721,558.22C872.492,556.609 872.26,554.996 871.989,553.38C871.807,552.285 871.61,551.189 871.409,550.091C871.123,548.524 870.823,546.954 870.502,545.379C870.321,544.503 870.132,543.625 869.936,542.746C869.071,538.738 868.086,534.723 866.984,530.703C866.802,530.031 866.606,529.358 866.417,528.688C865.433,525.217 864.387,521.749 863.241,518.286C863.156,518.033 863.079,517.782 862.996,517.531C861.878,514.179 860.663,510.834 859.4,507.499C859.079,506.657 858.756,505.818 858.429,504.98C857.325,502.151 856.173,499.334 854.974,496.527C854.792,496.106 854.624,495.68 854.435,495.259C853.088,492.154 851.664,489.068 850.196,485.997C849.813,485.195 849.422,484.396 849.031,483.597C847.837,481.165 846.615,478.745 845.352,476.342C844.967,475.604 844.583,474.862 844.192,474.125C842.579,471.116 840.925,468.131 839.201,465.177C838.878,464.614 838.536,464.06 838.208,463.5C836.693,460.934 835.137,458.394 833.551,455.876C833.075,455.131 832.61,454.387 832.135,453.647C830.157,450.576 828.133,447.541 826.045,444.557C825.732,444.104 825.403,443.66 825.082,443.21C822.904,440.13 820.677,437.102 818.386,434.13C818.085,433.735 817.785,433.331 817.485,432.936C814.609,429.243 811.648,425.654 808.626,422.15C808.221,421.686 807.829,421.213 807.425,420.751C805.574,418.635 803.696,416.554 801.79,414.517C801.679,414.393 801.566,414.266 801.454,414.143C799.43,411.991 797.376,409.896 795.302,407.838C794.869,407.406 794.423,406.989 793.983,406.561C791.281,403.925 788.544,401.363 785.757,398.896C785.508,398.667 785.249,398.429 784.99,398.202C782.105,395.673 779.174,393.263 776.207,390.931C775.64,390.487 775.075,390.038 774.51,389.602C771.584,387.354 768.63,385.2 765.642,383.159C765.111,382.799 764.58,382.454 764.05,382.101C760.907,380.008 757.751,377.994 754.546,376.145C751.705,374.504 748.884,372.998 746.091,371.61C745.149,371.141 744.227,370.767 743.292,370.327C741.453,369.465 739.604,368.583 737.789,367.827C735.239,366.766 732.713,365.808 730.213,364.96C729.625,364.758 729.047,364.612 728.467,364.425C726.365,363.746 724.265,363.088 722.203,362.557C721.854,358.879 721.346,355.165 720.745,351.442C720.674,351.018 720.627,350.598 720.55,350.178C719.998,346.852 719.301,343.511 718.552,340.167C718.113,338.207 717.603,336.243 717.101,334.277C716.562,332.144 716.018,330.012 715.403,327.88C714.957,326.336 714.475,324.797 713.993,323.253C713.246,320.862 712.466,318.471 711.634,316.086C711.158,314.733 710.677,313.38 710.174,312.026C709.183,309.359 708.144,306.703 707.046,304.051C706.626,303.036 706.236,302.017 705.803,301.005C704.254,297.394 702.634,293.804 700.909,290.25C700.595,289.599 700.246,288.96 699.923,288.311C698.48,285.39 696.971,282.489 695.413,279.62C694.792,278.487 694.163,277.365 693.528,276.243C692.145,273.783 690.714,271.35 689.249,268.939C688.57,267.824 687.9,266.704 687.209,265.6C685.554,262.975 683.844,260.397 682.105,257.84C681.541,257.008 680.995,256.152 680.423,255.328C678.021,251.889 675.549,248.513 672.992,245.224C670.29,241.742 667.497,238.347 664.641,235.055C662.142,232.185 659.573,229.419 656.968,226.711C656.324,226.044 655.676,225.383 655.026,224.727C653.232,222.906 651.388,221.164 649.547,219.429C648.317,218.268 647.088,217.096 645.839,215.974C644.037,214.365 642.208,212.842 640.37,211.321C639.163,210.321 637.975,209.287 636.755,208.325C634.702,206.712 632.608,205.211 630.52,203.713C629.471,202.963 628.447,202.159 627.392,201.44C624.22,199.284 621.022,197.247 617.783,195.376C615.5,194.059 613.238,192.867 610.996,191.735C610.361,191.417 609.74,191.118 609.118,190.814C607.345,189.96 605.592,189.16 603.843,188.418C603.313,188.193 602.779,187.948 602.248,187.732C600.641,187.077 599.049,186.482 597.465,185.923C597.151,185.812 596.829,185.677 596.516,185.571C594.623,184.925 592.752,184.354 590.898,183.842C589.846,183.554 588.813,183.311 587.773,183.065C587.2,182.928 586.617,182.768 586.048,182.646C584.696,182.356 583.362,182.118 582.036,181.9C581.774,181.858 581.509,181.796 581.251,181.757C581.215,181.754 581.18,181.75 581.146,181.745C578.796,181.389 576.499,181.185 574.232,181.057C573.765,181.032 573.297,180.999 572.836,180.984C571.013,180.918 569.226,180.945 567.457,181.027C567.537,181.105 567.607,181.185 567.684,181.261C568.55,182.136 569.409,183.012 570.26,183.906C571.223,184.919 572.174,185.948 573.123,186.987C573.961,187.905 574.799,188.821 575.623,189.757C575.965,190.146 576.321,190.516 576.66,190.908C577.773,192.191 578.876,193.489 579.97,194.808L514.063,233.108C512.635,231.391 511.176,229.714 509.709,228.053C508.885,227.118 508.054,226.202 507.216,225.289C506.261,224.256 505.312,223.227 504.348,222.216L504.348,222.216Z" fill="#758CC6"/>
<path d="M617.777,195.377C566.604,165.835 523.826,183.089 514.058,233.111C500.138,216.316 484.183,202.155 467.167,192.331C412.893,160.995 368.747,186.153 368.568,248.517C368.564,250.06 368.621,251.638 368.673,253.217C359.373,243.485 349.262,235.24 338.604,229.086C294.423,203.579 258.477,224.059 258.336,274.829C258.19,325.633 293.898,387.48 338.083,412.987L753.76,652.977C820.303,691.396 874.387,660.537 874.605,584.109C874.822,507.647 821.084,414.566 754.542,376.148C743.35,369.684 732.506,365.212 722.199,362.558C716.131,298.822 671.78,226.558 617.777,195.377L617.777,195.377Z" fill="#FFFFFF"/>
<path d="M532.927,642.592C532.927,642.592 557.596,633.313 559.512,630.03C561.429,626.746 580.03,586.534 584.68,581.883C589.33,577.235 586.321,572.582 597.534,570.942C608.756,569.299 614.222,558.358 616.549,561.642C618.874,564.923 620.11,576.003 608.343,583.252C600.136,588.038 597.127,588.997 597.127,588.997C597.127,588.997 576.609,641.52 571.823,645.212C567.036,648.906 543.066,662.717 543.066,662.717L532.927,642.592L532.927,642.592Z" fill="#F1B8B8"/>
<path d="M463.892,911.839C463.892,911.839 474.268,906.632 476.111,912.684C477.957,918.737 476.418,924.994 471.496,927.353C466.573,929.712 461.546,933.408 460.006,936.176C458.466,938.947 453.439,947.228 443.489,942.829C437.435,939.873 439.075,929.098 439.901,926.432C440.717,923.764 442.7,915.584 442.938,912.391C456.724,912.787 463.892,911.839 463.892,911.839L463.892,911.839Z" fill="#EE9F4B"/>
<path d="M443,732.48C443,732.48 450.363,788.147 449.13,831.641C445.436,869.396 441.128,910.221 441.128,910.221C441.128,910.221 448.313,921.709 463.081,915.354C471.496,878.625 485.649,821.796 485.649,799.91L485.649,778.026L443,732.48L443,732.48Z" fill="#3D3E51"/>
<path d="M507.504,945.124C507.504,945.124 508.22,952.557 520.118,953.512C532.019,954.468 540.226,953.921 540.503,961.992C540.775,970.065 532.567,974.167 527.369,974.714C522.175,975.264 516.427,973.618 509.864,975.807C503.298,977.996 487.566,981.143 483.464,973.074C481.276,968.012 486.41,951.775 487.604,943.549L507.504,945.124L507.504,945.124Z" fill="#EE9F4B"/>
<path d="M443,732.48C443,732.48 441.062,765.716 459.664,773.1L478.265,780.488C478.265,780.488 484.008,835.471 484.284,845.048C484.555,854.621 484.284,940.519 484.284,940.519C491.396,949.548 508.355,947.358 510.82,942.434C516.015,867.755 523.487,772.4 516.745,741.702L443,732.48L443,732.48Z" fill="#454A64"/>
<path d="M477.857,639.024C486.062,643.846 495.91,648.086 504.663,647.811C513.418,647.537 522.586,644.664 529.967,641.11C536.534,643.709 544.057,650.82 542.961,665.592C536.258,668.739 514.65,677.356 514.235,679.271C513.83,681.188 513.555,717.158 515.471,722.905C517.385,728.649 523.235,739.864 510.464,747.933C497.686,756.004 473.206,750.942 465.547,747.933C457.887,744.925 442.839,736.718 441.611,729.06C440.379,721.4 439.97,676.262 437.777,666.687C435.591,657.113 433.4,638.647 436.684,628.527C439.97,618.404 446.306,605.813 446.306,605.813L477.857,639.024L477.857,639.024Z" fill="#DBDADA"/>
<path d="M467.188,632.321C467.439,632.185 467.669,632.06 467.903,631.935L460.107,602.162L486.76,585.925C486.76,585.925 494.577,592.926 497.244,603.444C500.731,611.598 508.629,622.371 491.501,631.91C486.369,634.782 485.653,642.99 485.653,642.99L487.549,643.957C487.884,645.76 481.618,649.044 474.025,647.264C466.434,645.486 457.67,637.833 467.188,632.321L467.188,632.321Z" fill="#F1B8B8"/>
<path d="M486.575,614.984L480.419,610.267C480.419,610.267 474.058,609.24 472.725,614.164C472.215,617.344 475.392,619.292 478.266,619.704C478.059,628.117 473.445,632.834 467.188,632.321C463.187,630.371 445.025,623.192 446.978,608.215C445.13,603.087 443.242,590.262 466.706,579.287C474.366,576.209 480.217,572.823 484.832,575.492C491.501,580.825 485.245,590.263 480.727,594.366C478.165,596.827 482.578,607.189 488.729,612.01L486.575,614.984L486.575,614.984Z" fill="#3D374B"/>
</g>
</g>
</svg>
